<svg width="27" height="20" viewBox="0 0 27 20" fill="none" xmlns="http://www.w3.org/2000/svg">
<path d="M22.5436 1.70451C25.48 6.04851 26.9302 10.9484 26.3881 16.5894C26.3858 16.6132 26.3734 16.6351 26.3539 16.6495C24.1303 18.2924 21.9759 19.2895 19.8517 19.9507C19.8351 19.9557 19.8174 19.9555 19.8011 19.9499C19.7847 19.9443 19.7704 19.9337 19.7603 19.9196C19.2696 19.2326 18.8237 18.5082 18.433 17.7476C18.4106 17.7028 18.4311 17.6489 18.4772 17.6312C19.1854 17.3627 19.8588 17.041 20.5065 16.66C20.5576 16.6299 20.5608 16.5563 20.5137 16.521C20.3762 16.4183 20.24 16.3104 20.1097 16.2025C20.0853 16.1826 20.0525 16.1786 20.0249 16.192C15.8197 18.1459 11.2132 18.1459 6.95829 16.192C6.93067 16.1796 6.89784 16.1839 6.87412 16.2035C6.74412 16.3114 6.60762 16.4183 6.47144 16.521C6.42432 16.5563 6.42822 16.6299 6.47957 16.66C7.12729 17.0338 7.80069 17.3627 8.50789 17.6325C8.55371 17.6502 8.57549 17.7028 8.55274 17.7476C8.17054 18.5092 7.72464 19.2336 7.22479 19.9206C7.20302 19.9484 7.16727 19.9612 7.13347 19.9507C5.01935 19.2895 2.86492 18.2924 0.641278 16.6495C0.622753 16.6351 0.609428 16.6122 0.607478 16.5884C0.154429 11.7091 1.07775 6.76859 4.44832 1.70353C4.45645 1.69013 4.4688 1.67966 4.4831 1.67345C6.14157 0.907591 7.91834 0.344152 9.77539 0.0223746C9.80919 0.0171425 9.84299 0.0328389 9.86054 0.0629238C10.09 0.471686 10.3523 0.995883 10.5297 1.42427C12.4872 1.12342 14.4752 1.12342 16.4736 1.42427C16.6511 1.00504 16.9043 0.471686 17.1327 0.0629238C17.1409 0.047999 17.1535 0.0360421 17.1688 0.0287601C17.1841 0.021478 17.2012 0.0192432 17.2179 0.0223746C19.0759 0.345133 20.8527 0.908572 22.5098 1.67345C22.5245 1.67966 22.5365 1.69013 22.5436 1.70451ZM11.5249 10.9818C11.5453 9.53935 10.5001 8.34576 9.18811 8.34576C7.88682 8.34576 6.85169 9.52888 6.85169 10.9818C6.85169 12.4344 7.90729 13.6175 9.18811 13.6175C10.4897 13.6175 11.5249 12.4344 11.5249 10.9818ZM20.164 10.9818C20.1845 9.53935 19.1393 8.34576 17.8276 8.34576C16.526 8.34576 15.4908 9.52888 15.4908 10.9818C15.4908 12.4344 16.5464 13.6175 17.8276 13.6175C19.1393 13.6175 20.164 12.4344 20.164 10.9818Z" fill="#5865F2"/>
</svg>
