<svg width="22" height="22" viewBox="0 0 22 22" fill="none" xmlns="http://www.w3.org/2000/svg">
<path d="M10.9997 0.0209961C5.08575 0.0209961 0.5 4.35475 0.5 10.2057C0.5 13.2664 1.75472 15.9123 3.79691 17.7393C3.96753 17.8915 4.07253 18.1068 4.07778 18.3377L4.13553 20.2067C4.13973 20.3442 4.17765 20.4786 4.24595 20.598C4.31425 20.7174 4.41083 20.8183 4.52722 20.8916C4.64361 20.965 4.77624 21.0086 4.91345 21.0187C5.05065 21.0288 5.18824 21.0051 5.31412 20.9495L7.39831 20.0308C7.57418 19.9521 7.77368 19.9389 7.96005 19.9888C8.91815 20.2513 9.93662 20.3931 10.9997 20.3931C16.9137 20.3931 21.4994 16.0593 21.4994 10.2083C21.4994 4.35738 16.9137 0.0209961 10.9997 0.0209961Z" fill="url(#paint0_radial_2677_29455)"/>
<path d="M4.69463 13.185L7.77892 8.29214C7.89495 8.10793 8.04791 7.94977 8.22814 7.82766C8.40838 7.70554 8.61197 7.62211 8.82607 7.58265C9.04017 7.54318 9.26013 7.54853 9.47206 7.59836C9.68398 7.64819 9.88328 7.74142 10.0574 7.87216L12.5117 9.71223C12.6212 9.79426 12.7545 9.83838 12.8914 9.8379C13.0283 9.83743 13.1613 9.79239 13.2703 9.70961L16.5829 7.19492C17.0239 6.85893 17.6014 7.38917 17.3074 7.85903L14.2205 12.7493C14.1045 12.9335 13.9515 13.0916 13.7713 13.2138C13.591 13.3359 13.3875 13.4193 13.1734 13.4588C12.9593 13.4982 12.7393 13.4929 12.5274 13.4431C12.3154 13.3932 12.1161 13.3 11.9421 13.1693L9.48775 11.3292C9.37819 11.2472 9.24488 11.203 9.10801 11.2035C8.97114 11.204 8.83815 11.249 8.72915 11.3318L5.41649 13.8465C4.9755 14.1825 4.39802 13.6549 4.69463 13.185Z" fill="white"/>
<defs>
<radialGradient id="paint0_radial_2677_29455" cx="0" cy="0" r="1" gradientUnits="userSpaceOnUse" gradientTransform="translate(4.0174 21.0204) scale(23.0994 23.0994)">
<stop stop-color="#0099FF"/>
<stop offset="0.6" stop-color="#A033FF"/>
<stop offset="0.9" stop-color="#FF5280"/>
<stop offset="1" stop-color="#FF7061"/>
</radialGradient>
</defs>
</svg>
