<svg width="23" height="20" viewBox="0 0 23 20" fill="none" xmlns="http://www.w3.org/2000/svg">
<path d="M13.0021 0.0210256C12.8312 0.0229654 12.666 0.0822802 12.534 0.18916C12.4019 0.296039 12.3109 0.44408 12.2759 0.608797L11.146 5.94492C8.69493 6.01243 6.4805 6.74606 4.8456 7.91217C4.3957 7.59646 3.84693 7.40906 3.25241 7.40906C1.73208 7.40906 0.5 8.62168 0.5 10.118C0.5 11.1779 1.11957 12.0936 2.02086 12.5384C2.01536 12.6349 2.00131 12.7294 2.00131 12.8269C2.00131 16.6352 6.25854 19.7224 11.5096 19.7224C16.7607 19.7224 21.018 16.6352 21.018 12.8269C21.018 12.7294 21.0039 12.6349 20.9984 12.5384C21.8997 12.0936 22.5193 11.1779 22.5193 10.118C22.5193 8.62168 21.2872 7.40906 19.7669 7.40906C19.1723 7.40906 18.6236 7.59646 18.1737 7.91217C16.718 6.8739 14.8028 6.17728 12.6708 5.98821L13.5954 1.62177L16.5775 2.18068C16.775 2.9197 17.4535 3.46877 18.2655 3.46877C19.2314 3.46877 20.0171 2.69549 20.0171 1.7449C20.0171 0.794306 19.2314 0.0210256 18.2655 0.0210256C17.6868 0.0210256 17.1762 0.301959 16.8571 0.729045L13.1517 0.0344933C13.1024 0.0250962 13.0523 0.0205844 13.0021 0.0210256ZM7.75635 9.87173C8.72369 9.87173 9.50788 10.6435 9.50788 11.5956C9.50788 12.5477 8.72369 13.3195 7.75635 13.3195C6.789 13.3195 6.00482 12.5477 6.00482 11.5956C6.00482 10.6435 6.789 9.87173 7.75635 9.87173ZM15.2629 9.87173C16.2303 9.87173 17.0144 10.6435 17.0144 11.5956C17.0144 12.5477 16.2303 13.3195 15.2629 13.3195C14.2956 13.3195 13.5114 12.5477 13.5114 11.5956C13.5114 10.6435 14.2956 9.87173 15.2629 9.87173ZM8.25679 14.7971C8.44883 14.7971 8.64089 14.8692 8.78752 15.0135C8.81405 15.0377 9.63902 15.7822 11.5087 15.7822C13.3968 15.7822 14.2233 15.0214 14.2308 15.0135C14.524 14.7249 14.999 14.7249 15.2922 15.0135C15.5855 15.3022 15.586 15.7701 15.2932 16.0582C15.1681 16.1814 14.0008 17.2588 11.5096 17.2588C9.01845 17.2588 7.85116 16.1814 7.72605 16.0582C7.43279 15.7701 7.43279 15.3022 7.72605 15.0135C7.87268 14.8692 8.06474 14.7971 8.25679 14.7971Z" fill="#FE4500"/>
</svg>
