<svg width="19" height="17" viewBox="0 0 19 17" fill="none" xmlns="http://www.w3.org/2000/svg">
<path d="M1.60355 6.98903C1.60355 6.98903 9.56452 3.47674 12.3255 2.23997C13.3839 1.7453 16.9733 0.162235 16.9733 0.162235C16.9733 0.162235 18.6299 -0.530297 18.4918 1.15164C18.4458 1.84424 18.0777 4.2682 17.7095 6.8901C17.1573 10.6003 16.5591 14.6568 16.5591 14.6568C16.5591 14.6568 16.4671 15.7946 15.6848 15.9925C14.9025 16.1904 13.614 15.3 13.3839 15.102C13.1998 14.9537 9.93264 12.7275 8.7362 11.6392C8.41406 11.3424 8.04595 10.7488 8.78218 10.0562C10.4388 8.42367 12.4175 6.39544 13.614 5.10924C14.1662 4.51557 14.7184 3.13043 12.4175 4.81237C9.15036 7.2364 5.92916 9.512 5.92916 9.512C5.92916 9.512 5.19287 10.0067 3.81237 9.56143C2.43181 9.11627 0.821209 8.5226 0.821209 8.5226C0.821209 8.5226 -0.283137 7.78057 1.60355 6.98903Z" fill="#0089CC"/>
</svg>
