<svg width="23" height="23" viewBox="0 0 23 23" fill="none" xmlns="http://www.w3.org/2000/svg">
<path d="M11.5442 0.0209961C5.50804 0.0209961 0.588442 4.916 0.588442 10.922C0.588442 12.847 1.09698 14.717 2.04774 16.367L0.5 22.021L6.30402 20.503C7.90703 21.372 9.70904 21.834 11.5442 21.834C17.5804 21.834 22.5 16.939 22.5 10.933C22.5 8.018 21.3613 5.279 19.294 3.222C17.2266 1.154 14.4739 0.0209961 11.5442 0.0209961ZM11.5553 1.858C13.9874 1.858 16.2648 2.804 17.9894 4.52C19.703 6.236 20.6538 8.513 20.6538 10.933C20.6538 15.927 16.5633 19.986 11.5442 19.986C9.90804 19.986 8.30502 19.557 6.91206 18.721L6.5804 18.534L3.13116 19.436L4.04874 16.092L3.82764 15.74C2.92111 14.321 2.43467 12.638 2.43467 10.922C2.44573 5.928 6.52512 1.858 11.5553 1.858ZM7.66382 5.884C7.48693 5.884 7.18844 5.95 6.93417 6.225C6.69095 6.5 5.97236 7.171 5.97236 8.502C5.97236 9.844 6.95628 11.131 7.07789 11.318C7.23266 11.505 9.02362 14.255 11.7764 15.421C12.4286 15.718 12.9372 15.883 13.3352 16.004C13.9874 16.213 14.5844 16.18 15.0598 16.114C15.5905 16.037 16.6739 15.454 16.906 14.816C17.1382 14.178 17.1382 13.639 17.0719 13.518C16.9945 13.408 16.8176 13.342 16.5412 13.221C16.2648 13.067 14.9161 12.407 14.6729 12.319C14.4186 12.231 14.2638 12.187 14.0538 12.451C13.8769 12.726 13.3462 13.342 13.1915 13.518C13.0256 13.705 12.8709 13.727 12.6055 13.595C12.3181 13.452 11.4337 13.166 10.3945 12.242C9.57638 11.516 9.03467 10.625 8.86884 10.35C8.73618 10.086 8.85779 9.921 8.99045 9.8C9.11206 9.679 9.28894 9.481 9.3995 9.316C9.54322 9.162 9.58744 9.041 9.67588 8.865C9.76432 8.678 9.7201 8.524 9.65377 8.392C9.58744 8.271 9.03467 6.907 8.80251 6.368C8.58141 5.84 8.3603 5.906 8.18342 5.895C8.02864 5.895 7.85176 5.884 7.66382 5.884Z" fill="#29D168"/>
</svg>
