<svg width="21" height="20" viewBox="0 0 21 20" fill="none" xmlns="http://www.w3.org/2000/svg">
<path d="M5.75391 10H5.76391M10.2539 10H10.2639M14.7539 10H14.7639M10.2539 19C15.2245 19 19.2539 14.9706 19.2539 10C19.2539 5.02944 15.2245 1 10.2539 1C5.28334 1 1.25391 5.02944 1.25391 10C1.25391 11.1971 1.48764 12.3397 1.91197 13.3845C1.99318 13.5845 2.03379 13.6845 2.0519 13.7653C2.06962 13.8443 2.0761 13.9028 2.07611 13.9839C2.07612 14.0667 2.06109 14.1569 2.03101 14.3374L1.43803 17.8952C1.37594 18.2678 1.34489 18.4541 1.40267 18.5888C1.45324 18.7067 1.54719 18.8007 1.66509 18.8512C1.7998 18.909 1.98609 18.878 2.35867 18.8159L5.91656 18.2229C6.09699 18.1928 6.18721 18.1778 6.27004 18.1778C6.35106 18.1778 6.40957 18.1843 6.48863 18.202C6.56945 18.2201 6.66943 18.2607 6.8694 18.3419C7.91421 18.7663 9.05676 19 10.2539 19ZM6.25391 10C6.25391 10.2761 6.03005 10.5 5.75391 10.5C5.47776 10.5 5.25391 10.2761 5.25391 10C5.25391 9.72386 5.47776 9.5 5.75391 9.5C6.03005 9.5 6.25391 9.72386 6.25391 10ZM10.7539 10C10.7539 10.2761 10.53 10.5 10.2539 10.5C9.97776 10.5 9.75391 10.2761 9.75391 10C9.75391 9.72386 9.97776 9.5 10.2539 9.5C10.53 9.5 10.7539 9.72386 10.7539 10ZM15.2539 10C15.2539 10.2761 15.03 10.5 14.7539 10.5C14.4778 10.5 14.2539 10.2761 14.2539 10C14.2539 9.72386 14.4778 9.5 14.7539 9.5C15.03 9.5 15.2539 9.72386 15.2539 10Z" stroke="#F4801C" stroke-width="2" stroke-linecap="round" stroke-linejoin="round"/>
</svg>
