<svg width="20" height="22" viewBox="0 0 20 22" fill="none" xmlns="http://www.w3.org/2000/svg">
<path d="M12.7175 18C12.7175 19.6569 11.3743 21 9.71749 21C8.06064 21 6.71749 19.6569 6.71749 18M11.514 5.23856C11.9495 4.78864 12.2175 4.17562 12.2175 3.5C12.2175 2.11929 11.0982 1 9.71749 1C8.33678 1 7.21749 2.11929 7.21749 3.5C7.21749 4.17562 7.4855 4.78864 7.92099 5.23856M15.7175 10.2C15.7175 8.82087 15.0854 7.49823 13.9601 6.52304C12.8349 5.54786 11.3088 5 9.71749 5C8.1262 5 6.60007 5.54786 5.47485 6.52304C4.34964 7.49823 3.71749 8.82087 3.71749 10.2C3.71749 12.4818 3.15163 14.1506 2.44556 15.3447C1.64083 16.7056 1.23847 17.3861 1.25436 17.5486C1.27254 17.7346 1.30601 17.7933 1.45683 17.9036C1.58866 18 2.251 18 3.57568 18H15.8593C17.184 18 17.8463 18 17.9782 17.9036C18.129 17.7933 18.1625 17.7346 18.1806 17.5486C18.1965 17.3861 17.7942 16.7056 16.9894 15.3447C16.2834 14.1506 15.7175 12.4818 15.7175 10.2Z" stroke="#F4801C" stroke-width="2" stroke-linecap="round" stroke-linejoin="round"/>
</svg>
