<svg width="24" height="21" viewBox="0 0 24 21" fill="none" xmlns="http://www.w3.org/2000/svg">
<path d="M22.7539 8.45V5.44C22.7539 4.23589 22.7539 3.63383 22.5196 3.17392C22.3134 2.76937 21.9845 2.44046 21.58 2.23434C21.1201 2 20.518 2 19.3139 2H4.69391C3.48979 2 2.88774 2 2.42783 2.23434C2.02328 2.44046 1.69437 2.76937 1.48824 3.17392C1.25391 3.63383 1.25391 4.23589 1.25391 5.44V9.31C1.25391 10.5141 1.25391 11.1162 1.48824 11.5761C1.69437 11.9806 2.02328 12.3095 2.42783 12.5157C2.88774 12.75 3.48979 12.75 4.69391 12.75H10.9289M12.0039 7.375H12.0093M17.3789 7.375H17.3843M6.62891 7.375H6.63428M19.7977 14.9V13.0188C19.7977 11.9798 18.9554 11.1375 17.9164 11.1375C16.8774 11.1375 16.0352 11.9798 16.0352 13.0188V14.9M12.2727 7.375C12.2727 7.52343 12.1523 7.64375 12.0039 7.64375C11.8555 7.64375 11.7352 7.52343 11.7352 7.375C11.7352 7.22657 11.8555 7.10625 12.0039 7.10625C12.1523 7.10625 12.2727 7.22657 12.2727 7.375ZM17.6477 7.375C17.6477 7.52343 17.5273 7.64375 17.3789 7.64375C17.2305 7.64375 17.1102 7.52343 17.1102 7.375C17.1102 7.22657 17.2305 7.10625 17.3789 7.10625C17.5273 7.10625 17.6477 7.22657 17.6477 7.375ZM6.89766 7.375C6.89766 7.52343 6.77733 7.64375 6.62891 7.64375C6.48048 7.64375 6.36016 7.52343 6.36016 7.375C6.36016 7.22657 6.48048 7.10625 6.62891 7.10625C6.77733 7.10625 6.89766 7.22657 6.89766 7.375ZM15.8739 19.2H19.9589C20.561 19.2 20.862 19.2 21.0919 19.0828C21.2942 18.9798 21.4587 18.8153 21.5617 18.613C21.6789 18.3831 21.6789 18.0821 21.6789 17.48V16.62C21.6789 16.0179 21.6789 15.7169 21.5617 15.487C21.4587 15.2847 21.2942 15.1202 21.0919 15.0172C20.862 14.9 20.561 14.9 19.9589 14.9H15.8739C15.2719 14.9 14.9708 14.9 14.7409 15.0172C14.5386 15.1202 14.3741 15.2847 14.2711 15.487C14.1539 15.7169 14.1539 16.0179 14.1539 16.62V17.48C14.1539 18.0821 14.1539 18.3831 14.2711 18.613C14.3741 18.8153 14.5386 18.9798 14.7409 19.0828C14.9708 19.2 15.2719 19.2 15.8739 19.2Z" stroke="#F4801C" stroke-width="2.15" stroke-linecap="round" stroke-linejoin="round"/>
</svg>
