<svg width="19" height="26" viewBox="0 0 19 26" fill="none" xmlns="http://www.w3.org/2000/svg">
<path d="M10.4983 11.9765C9.57027 12.3738 8.51709 12.8242 7.15213 12.8242C6.58114 12.8231 6.01289 12.7447 5.46289 12.5913L6.40693 22.2837C6.44034 22.6888 6.62489 23.0665 6.92392 23.3419C7.22296 23.6172 7.61461 23.7699 8.02108 23.7699C8.02108 23.7699 9.35962 23.8394 9.80628 23.8394C10.287 23.8394 11.7284 23.7699 11.7284 23.7699C12.1348 23.7699 12.5264 23.617 12.8254 23.3416C13.1243 23.0663 13.3088 22.6888 13.3422 22.2837L14.3533 11.5733C13.9015 11.4189 13.4455 11.3164 12.9314 11.3164C12.0423 11.3161 11.3259 11.6223 10.4983 11.9765Z" fill="#FFDD00"/>
<path d="M18.719 6.94757L18.5769 6.23051C18.4493 5.58714 18.1598 4.97922 17.4994 4.74669C17.2877 4.67229 17.0475 4.64033 16.8852 4.48634C16.7229 4.33237 16.6749 4.09324 16.6374 3.87148C16.5678 3.46445 16.5025 3.05709 16.4312 2.65077C16.3697 2.30144 16.3211 1.90903 16.1608 1.58856C15.9523 1.15825 15.5195 0.906599 15.0892 0.740107C14.8687 0.657798 14.6437 0.588168 14.4153 0.53156C13.3402 0.247932 12.2099 0.143658 11.1039 0.0842211C9.77634 0.0109686 8.44528 0.0330386 7.1209 0.150261C6.13517 0.239937 5.09694 0.348384 4.16021 0.689361C3.81785 0.814143 3.46505 0.963949 3.20472 1.22846C2.88528 1.55345 2.78101 2.05605 3.01423 2.46133C3.18003 2.74913 3.46088 2.95247 3.75876 3.08698C4.14676 3.2603 4.55196 3.39219 4.96765 3.48045C6.12509 3.73627 7.3239 3.83671 8.50637 3.87948C9.81699 3.93236 11.1297 3.88949 12.434 3.7512C12.7566 3.71575 13.0786 3.67323 13.4 3.62365C13.7785 3.5656 14.0215 3.07064 13.9099 2.72583C13.7764 2.31362 13.4177 2.15373 13.0121 2.21595C12.9523 2.22532 12.8929 2.23401 12.8331 2.24269L12.79 2.24896C12.6526 2.26635 12.5152 2.28255 12.3777 2.29762C12.0939 2.3282 11.8093 2.35323 11.5241 2.37271C10.8852 2.41719 10.2446 2.43769 9.6044 2.43874C8.97527 2.43874 8.34579 2.42101 7.71806 2.37966C7.43165 2.36089 7.14593 2.33701 6.86092 2.30804C6.73127 2.29449 6.60197 2.28025 6.47268 2.26425L6.34962 2.24861L6.32288 2.2448L6.19531 2.22637C5.93462 2.18708 5.67393 2.14191 5.41603 2.08733C5.39001 2.08155 5.36672 2.06709 5.35003 2.04629C5.33335 2.0255 5.32426 1.99964 5.32426 1.97298C5.32426 1.94632 5.33335 1.92046 5.35003 1.89967C5.36672 1.87888 5.39001 1.8644 5.41603 1.85863H5.4209C5.6444 1.81101 5.86961 1.77034 6.09554 1.73489C6.17087 1.72307 6.2464 1.71148 6.32217 1.70013H6.32425C6.46571 1.69074 6.60789 1.66537 6.74865 1.64869C7.97341 1.52129 9.20545 1.47786 10.4362 1.51869C11.0336 1.53607 11.6308 1.57118 12.2255 1.63165C12.3534 1.64486 12.4806 1.65877 12.6078 1.67441C12.6565 1.68032 12.7055 1.68727 12.7545 1.69318L12.8532 1.70743C13.141 1.7503 13.4273 1.80232 13.7121 1.86349C14.1341 1.95526 14.676 1.98515 14.8636 2.44743C14.9234 2.59411 14.9505 2.75713 14.9836 2.91109L15.0256 3.10749C15.0267 3.111 15.0275 3.11462 15.0281 3.11825C15.1275 3.5817 15.227 4.04514 15.3266 4.50858C15.3339 4.54282 15.3341 4.5782 15.3271 4.6125C15.3202 4.64682 15.3062 4.6793 15.2861 4.70799C15.266 4.73665 15.2402 4.76087 15.2104 4.77913C15.1805 4.79739 15.1472 4.80929 15.1125 4.81412H15.1097L15.0489 4.82246L14.9888 4.83044C14.7983 4.85525 14.6076 4.87842 14.4167 4.89997C14.0406 4.94284 13.6639 4.97991 13.2867 5.0112C12.537 5.07352 11.7859 5.11442 11.0333 5.1339C10.6498 5.14408 10.2664 5.14885 9.88314 5.14814C8.35761 5.14695 6.83339 5.05827 5.31801 4.88258C5.15394 4.86313 4.98989 4.84226 4.82582 4.82107C4.95305 4.83741 4.73337 4.80854 4.68888 4.8023C4.58461 4.7877 4.48033 4.77253 4.37606 4.75677C4.02604 4.70427 3.67812 4.63963 3.32879 4.58296C2.90648 4.51345 2.50259 4.54822 2.1206 4.75677C1.80704 4.92836 1.55326 5.19147 1.39311 5.51102C1.22836 5.85165 1.17935 6.22251 1.10566 6.58853C1.03198 6.95452 0.917274 7.34834 0.960722 7.72407C1.05422 8.53498 1.62113 9.19399 2.43655 9.34138C3.20367 9.4804 3.97495 9.59302 4.74831 9.68895C7.78629 10.061 10.8554 10.1055 13.9029 9.82173C14.1511 9.79856 14.3989 9.77331 14.6464 9.74595C14.7237 9.73747 14.8019 9.74636 14.8753 9.77201C14.9487 9.79767 15.0155 9.83942 15.0707 9.89421C15.1259 9.94899 15.1681 10.0154 15.1943 10.0886C15.2205 10.1619 15.2299 10.24 15.222 10.3174L15.1448 11.0675C14.9894 12.5831 14.8339 14.0987 14.6784 15.6142C14.5162 17.2056 14.3529 18.797 14.1886 20.3881C14.1423 20.8364 14.096 21.2844 14.0496 21.7323C14.0051 22.1735 13.9989 22.6284 13.9151 23.0643C13.783 23.7497 13.319 24.1707 12.6419 24.3246C12.0216 24.4658 11.3879 24.54 10.7518 24.5456C10.0465 24.5495 9.34162 24.5181 8.63638 24.522C7.8835 24.5262 6.96138 24.4567 6.38023 23.8964C5.86961 23.4043 5.79905 22.6336 5.72954 21.9672C5.63686 21.085 5.54499 20.2031 5.4539 19.3211L4.94297 14.4171L4.61242 11.244C4.60685 11.1916 4.60129 11.1398 4.59608 11.0869C4.55645 10.7084 4.28847 10.3379 3.86615 10.357C3.50468 10.373 3.09384 10.6803 3.13624 11.0869L3.38127 13.4394L3.88805 18.3055C4.03242 19.6877 4.17643 21.0701 4.3201 22.4528C4.34792 22.7177 4.37397 22.9833 4.40316 23.2481C4.56202 24.6955 5.66732 25.4755 7.0361 25.695C7.83554 25.8237 8.65444 25.8502 9.4657 25.8633C10.5057 25.8801 11.5561 25.9201 12.579 25.7316C14.0948 25.4534 15.2321 24.4414 15.3944 22.8714C15.4408 22.4181 15.4871 21.9648 15.5334 21.5113C15.6875 20.0116 15.8414 18.5117 15.995 17.0118L16.4976 12.1109L16.7281 9.86484C16.7396 9.75345 16.7866 9.64873 16.8622 9.56617C16.9378 9.48361 17.038 9.42757 17.148 9.40636C17.5814 9.3219 17.9957 9.17765 18.304 8.84779C18.7948 8.32261 18.8925 7.63787 18.719 6.94757ZM2.41431 7.43211C2.42091 7.42898 2.40875 7.48562 2.40353 7.51204C2.40249 7.47207 2.40458 7.43661 2.41431 7.43211ZM2.45637 7.75744C2.45984 7.755 2.47027 7.76891 2.48104 7.7856C2.46471 7.77029 2.45428 7.75883 2.45602 7.75744H2.45637ZM2.49773 7.812C2.52067 7.85337 2.51268 7.83737 2.49773 7.812ZM2.5808 7.87943H2.58289C2.58289 7.88188 2.58671 7.8843 2.5881 7.88674C2.58579 7.88406 2.58324 7.88161 2.58045 7.87943H2.5808ZM17.1278 7.77863C16.9721 7.9267 16.7375 7.99553 16.5056 8.02995C13.9057 8.41576 11.2679 8.6111 8.63949 8.5249C6.75838 8.46061 4.89709 8.25169 3.03475 7.98858C2.85226 7.96286 2.65449 7.92949 2.52901 7.79497C2.29265 7.54123 2.40875 7.0303 2.47027 6.72373C2.52658 6.44288 2.63433 6.06854 2.96836 6.02857C3.48973 5.9674 4.09521 6.1874 4.61103 6.26562C5.23204 6.36038 5.85537 6.43628 6.48101 6.49328C9.15113 6.7366 11.8661 6.6987 14.5244 6.34279C15.0089 6.27766 15.4917 6.20201 15.9728 6.11581C16.4014 6.03899 16.8765 5.89476 17.1355 6.33861C17.3131 6.64101 17.3367 7.04559 17.3092 7.38726C17.3008 7.53612 17.2357 7.67613 17.1275 7.77863H17.1278Z" fill="white"/>
</svg>
