<svg width="16" height="16" viewBox="0 0 16 16" fill="none" xmlns="http://www.w3.org/2000/svg">
<path opacity="0.68" d="M11.5 15.021L5.97778 15.021C4.23539 15.021 3.3642 15.021 2.6987 14.6819C2.1133 14.3836 1.63736 13.9077 1.33909 13.3223C1 12.6568 1 11.7856 1 10.0432L1 4.521M12.5111 1.021L6.21111 1.021C5.33992 1.021 4.90432 1.021 4.57157 1.19054C4.27888 1.33968 4.04091 1.57765 3.89177 1.87034C3.72222 2.20309 3.72222 2.63869 3.72222 3.50988L3.72222 9.80988C3.72222 10.6811 3.72222 11.1167 3.89177 11.4494C4.04091 11.7421 4.27887 11.9801 4.57157 12.1292C4.90432 12.2988 5.33992 12.2988 6.21111 12.2988L12.5111 12.2988C13.3823 12.2988 13.8179 12.2988 14.1507 12.1292C14.4433 11.9801 14.6813 11.7421 14.8305 11.4494C15 11.1167 15 10.6811 15 9.80989L15 3.50989C15 2.63869 15 2.2031 14.8305 1.87034C14.6813 1.57765 14.4433 1.33968 14.1507 1.19054C13.8179 1.021 13.3823 1.021 12.5111 1.021Z" stroke="#161C36" stroke-width="1.55556" stroke-linecap="round" stroke-linejoin="round"/>
</svg>
