<svg width="22" height="23" viewBox="0 0 22 23" fill="none" xmlns="http://www.w3.org/2000/svg">
<path d="M15.0695 5.02148V4.22148C15.0695 3.10138 15.0695 2.54133 14.8414 2.1135C14.6407 1.73718 14.3205 1.43122 13.9267 1.23947C13.479 1.02148 12.8929 1.02148 11.7207 1.02148H10.0462C8.87404 1.02148 8.28794 1.02148 7.84021 1.23947C7.44639 1.43122 7.12619 1.73718 6.92553 2.1135C6.6974 2.54133 6.6974 3.10138 6.6974 4.22148V5.02148M8.79043 10.5215V15.5215M12.9765 10.5215V15.5215M1.46484 5.02148H20.3021M18.209 5.02148V16.2215C18.209 17.9016 18.209 18.7417 17.8668 19.3835C17.5658 19.9479 17.0856 20.4069 16.4948 20.6945C15.8232 21.0215 14.9441 21.0215 13.1858 21.0215H8.58112C6.82282 21.0215 5.94367 21.0215 5.27208 20.6945C4.68134 20.4069 4.20105 19.9479 3.90006 19.3835C3.55787 18.7417 3.55787 17.9016 3.55787 16.2215V5.02148" stroke="#F10000" stroke-width="2" stroke-linecap="round" stroke-linejoin="round"/>
</svg>
