<svg width="15" height="16" viewBox="0 0 15 16" fill="none" xmlns="http://www.w3.org/2000/svg">
<path d="M3.87695 13.8399C4.08185 13.784 4.18429 13.7561 4.27983 13.7132C4.36466 13.6751 4.4453 13.6283 4.52045 13.5736C4.60509 13.5119 4.68018 13.4368 4.83036 13.2866L11.7646 6.35236C11.8975 6.21949 11.9639 6.15305 11.9888 6.07644C12.0107 6.00905 12.0107 5.93646 11.9888 5.86908C11.9639 5.79247 11.8975 5.72603 11.7646 5.59315L9.83962 3.66815C9.70674 3.53528 9.64031 3.46884 9.5637 3.44395C9.49631 3.42205 9.42372 3.42205 9.35633 3.44395C9.27972 3.46884 9.21328 3.53528 9.08041 3.66815L2.14615 10.6024C1.99597 10.7526 1.92088 10.8277 1.85921 10.9123C1.80446 10.9875 1.75766 11.0681 1.71958 11.1529C1.67668 11.2485 1.64874 11.3509 1.59286 11.5558L0.736328 14.6964L3.87695 13.8399Z" fill="white"/>
<path d="M11.4732 1.27539L14.1574 3.9596M0.736328 14.6964L1.59286 11.5558C1.64874 11.3509 1.67668 11.2485 1.71958 11.1529C1.75766 11.0681 1.80446 10.9875 1.85921 10.9123C1.92088 10.8277 1.99597 10.7526 2.14615 10.6024L9.08041 3.66815C9.21328 3.53528 9.27972 3.46884 9.35633 3.44395C9.42372 3.42205 9.49631 3.42205 9.5637 3.44395C9.64031 3.46884 9.70674 3.53528 9.83962 3.66815L11.7646 5.59315C11.8975 5.72603 11.9639 5.79247 11.9888 5.86908C12.0107 5.93646 12.0107 6.00905 11.9888 6.07644C11.9639 6.15305 11.8975 6.21949 11.7646 6.35236L4.83036 13.2866C4.68018 13.4368 4.60509 13.5119 4.52045 13.5736C4.4453 13.6283 4.36466 13.6751 4.27983 13.7132C4.18429 13.7561 4.08185 13.784 3.87695 13.8399L0.736328 14.6964Z" stroke="white" stroke-width="1.34211" stroke-linecap="round" stroke-linejoin="round"/>
</svg>
