<svg width="20" height="18" viewBox="0 0 20 18" fill="none" xmlns="http://www.w3.org/2000/svg">
<path d="M8.63262 2.85984C8.99387 2.80643 9.36654 2.77778 9.75037 2.77778C14.2882 2.77778 17.2658 6.78208 18.2662 8.36606C18.3873 8.55778 18.4478 8.65364 18.4817 8.80149C18.5071 8.91252 18.5071 9.0877 18.4816 9.19873C18.4477 9.34658 18.3868 9.44307 18.2648 9.63606C17.9983 10.0579 17.5919 10.6508 17.0536 11.2937M5.06051 4.30226C3.13867 5.60596 1.83396 7.41722 1.23543 8.3647C1.11381 8.55722 1.053 8.65348 1.0191 8.80132C0.993642 8.91235 0.993632 9.0875 1.01908 9.19854C1.05296 9.34638 1.11349 9.44223 1.23456 9.63394C2.23493 11.2179 5.21259 15.2222 9.75037 15.2222C11.5801 15.2222 13.1561 14.5712 14.4512 13.6903M1.75037 1L17.7504 17M7.86475 7.11438C7.38218 7.59695 7.0837 8.26362 7.0837 9C7.0837 10.4728 8.27761 11.6667 9.75037 11.6667C10.4867 11.6667 11.1534 11.3682 11.636 10.8856" stroke="#BEC0CC" stroke-width="1.77778" stroke-linecap="round" stroke-linejoin="round"/>
</svg>
