<svg width="20" height="15" viewBox="0 0 20 15" fill="none" xmlns="http://www.w3.org/2000/svg">
<path d="M1.24124 8.16224C1.11674 7.962 1.05448 7.86188 1.01963 7.70746C0.993456 7.59146 0.993456 7.40854 1.01963 7.29254C1.05448 7.13812 1.11674 7.038 1.24124 6.83776C2.27015 5.18307 5.33276 1 10 1C14.6672 1 17.7299 5.18307 18.7588 6.83776C18.8833 7.038 18.9455 7.13812 18.9804 7.29254C19.0065 7.40854 19.0065 7.59146 18.9804 7.70746C18.9455 7.86188 18.8833 7.962 18.7588 8.16224C17.7299 9.81693 14.6672 14 10 14C5.33276 14 2.27015 9.81693 1.24124 8.16224Z" stroke="#BEC0CC" stroke-width="2" stroke-linecap="round" stroke-linejoin="round"/>
<path d="M10 10.2857C11.5148 10.2857 12.7427 9.03851 12.7427 7.5C12.7427 5.96149 11.5148 4.71429 10 4.71429C8.48522 4.71429 7.25726 5.96149 7.25726 7.5C7.25726 9.03851 8.48522 10.2857 10 10.2857Z" stroke="#BEC0CC" stroke-width="2" stroke-linecap="round" stroke-linejoin="round"/>
</svg>
