<svg width="21" height="19" viewBox="0 0 21 19" fill="none" xmlns="http://www.w3.org/2000/svg">
<path d="M9.7447 2.67064C9.9328 2.89263 10.209 3.02062 10.5 3.02062C10.791 3.02062 11.0672 2.89263 11.2553 2.67064C11.938 1.86503 13.0726 0.99 14.8167 0.99C17.8088 0.99 20.01 3.91107 20.01 6.84C20.01 8.25342 19.4641 9.65922 18.5621 11.011C17.6609 12.3617 16.4389 13.6052 15.18 14.6718C13.9249 15.7352 12.6596 16.6005 11.6965 17.1995C11.2156 17.4986 10.8143 17.7287 10.5325 17.8816C10.5215 17.8876 10.5106 17.8935 10.5 17.8992C10.4894 17.8935 10.4785 17.8876 10.4675 17.8816C10.1857 17.7287 9.78439 17.4986 9.30348 17.1995C8.34036 16.6005 7.07514 15.7352 5.81997 14.6718C4.56113 13.6052 3.33914 12.3617 2.43788 11.011C1.53588 9.65922 0.99 8.25342 0.99 6.84C0.99 3.91107 3.19124 0.99 6.18333 0.99C7.92739 0.99 9.06205 1.86503 9.7447 2.67064Z" fill="#FF7E29" stroke="#FF7E29" stroke-width="1.98" stroke-linecap="round" stroke-linejoin="round"/>
</svg>
