<svg width="20" height="22" viewBox="0 0 20 22" fill="none" xmlns="http://www.w3.org/2000/svg">
<path d="M7.35012 18.3711L7.93457 19.6856C8.1083 20.0768 8.39184 20.4093 8.75079 20.6426C9.10974 20.8759 9.52867 21.0001 9.95679 21C10.3849 21.0001 10.8038 20.8759 11.1628 20.6426C11.5217 20.4093 11.8053 20.0768 11.979 19.6856L12.5635 18.3711C12.7715 17.9047 13.1215 17.5159 13.5635 17.26C14.0082 17.0034 14.5228 16.8941 15.0335 16.9478L16.4635 17.1C16.8891 17.145 17.3187 17.0656 17.7001 16.8713C18.0816 16.6771 18.3984 16.3763 18.6123 16.0056C18.8265 15.635 18.9286 15.2103 18.9061 14.7829C18.8836 14.3555 18.7376 13.9438 18.4857 13.5978L17.639 12.4344C17.3375 12.0171 17.1764 11.5148 17.179 11C17.1789 10.4866 17.3415 9.98635 17.6435 9.57111L18.4901 8.40778C18.742 8.06175 18.888 7.65007 18.9105 7.22267C18.933 6.79528 18.831 6.37054 18.6168 6C18.4029 5.62923 18.086 5.32849 17.7046 5.13423C17.3232 4.93997 16.8936 4.86053 16.4679 4.90556L15.0379 5.05778C14.5272 5.11141 14.0127 5.00212 13.5679 4.74556C13.125 4.48825 12.775 4.09736 12.5679 3.62889L11.979 2.31444C11.8053 1.92317 11.5217 1.59072 11.1628 1.3574C10.8038 1.12408 10.3849 0.99993 9.95679 1C9.52867 0.99993 9.10974 1.12408 8.75079 1.3574C8.39184 1.59072 8.1083 1.92317 7.93457 2.31444L7.35012 3.62889C7.14305 4.09736 6.79299 4.48825 6.35012 4.74556C5.90534 5.00212 5.39079 5.11141 4.88012 5.05778L3.44568 4.90556C3.02001 4.86053 2.59042 4.93997 2.20899 5.13423C1.82757 5.32849 1.51069 5.62923 1.29679 6C1.08261 6.37054 0.98057 6.79528 1.00305 7.22267C1.02554 7.65007 1.17158 8.06175 1.42345 8.40778L2.27012 9.57111C2.57206 9.98635 2.73466 10.4866 2.73456 11C2.73466 11.5134 2.57206 12.0137 2.27012 12.4289L1.42345 13.5922C1.17158 13.9382 1.02554 14.3499 1.00305 14.7773C0.98057 15.2047 1.08261 15.6295 1.29679 16C1.5109 16.3706 1.82782 16.6712 2.20918 16.8654C2.59055 17.0596 3.02004 17.1392 3.44568 17.0944L4.87568 16.9422C5.38634 16.8886 5.90089 16.9979 6.34568 17.2544C6.7902 17.511 7.14188 17.902 7.35012 18.3711Z" stroke="#F4801C" stroke-width="2" stroke-linecap="round" stroke-linejoin="round"/>
<path d="M9.955 14C11.6119 14 12.955 12.6569 12.955 11C12.955 9.34315 11.6119 8 9.955 8C8.29815 8 6.955 9.34315 6.955 11C6.955 12.6569 8.29815 14 9.955 14Z" stroke="#F4801C" stroke-width="2" stroke-linecap="round" stroke-linejoin="round"/>
</svg>
