<svg width="29" height="29" viewBox="0 0 29 29" fill="none" xmlns="http://www.w3.org/2000/svg">
<circle cx="14.5" cy="14.5" r="14.5" fill="#BEC0CC" fill-opacity="0.21"/>
<path d="M20 21C20 19.9921 20 19.4881 19.8816 19.0781C19.615 18.1548 18.9272 17.4322 18.0483 17.1522C17.6579 17.0278 17.1782 17.0278 16.2187 17.0278H12.7813C11.8218 17.0278 11.3421 17.0278 10.9517 17.1522C10.0728 17.4322 9.38503 18.1548 9.11841 19.0781C9 19.4881 9 19.9921 9 21M17.5938 11.25C17.5938 13.0449 16.2086 14.5 14.5 14.5C12.7914 14.5 11.4063 13.0449 11.4063 11.25C11.4063 9.45507 12.7914 8 14.5 8C16.2086 8 17.5938 9.45507 17.5938 11.25Z" stroke="#AFB2C0" stroke-width="1.8" stroke-linecap="round" stroke-linejoin="round"/>
</svg>
