<svg width="16" height="19" viewBox="0 0 16 19" fill="none" xmlns="http://www.w3.org/2000/svg">
<path d="M15 17.5455C15 16.2627 15 15.6213 14.8493 15.0994C14.51 13.9243 13.6346 13.0047 12.516 12.6482C12.0192 12.4899 11.4086 12.4899 10.1875 12.4899H5.8125C4.59138 12.4899 3.98082 12.4899 3.484 12.6482C2.3654 13.0047 1.49004 13.9243 1.15071 15.0994C1 15.6213 1 16.2627 1 17.5455M11.9375 5.13636C11.9375 7.42081 10.1746 9.27273 8 9.27273C5.82538 9.27273 4.0625 7.42081 4.0625 5.13636C4.0625 2.85191 5.82538 1 8 1C10.1746 1 11.9375 2.85191 11.9375 5.13636Z" stroke="#BEC0CC" stroke-width="1.8" stroke-linecap="round" stroke-linejoin="round"/>
</svg>
