<svg width="333" height="283" viewBox="0 0 333 283" fill="none" xmlns="http://www.w3.org/2000/svg">
<rect x="40" y="3" width="88" height="12" rx="2" fill="#BEC0CC" fill-opacity="0.16"/>
<rect x="40" y="67" width="54" height="12" rx="2" fill="#BEC0CC" fill-opacity="0.16"/>
<rect x="113" y="67" width="24" height="12" rx="2" fill="#BEC0CC" fill-opacity="0.16"/>
<rect x="149" y="67" width="24" height="12" rx="2" fill="#BEC0CC" fill-opacity="0.16"/>
<rect x="40" y="23" width="293" height="32" rx="2" fill="#BEC0CC" fill-opacity="0.16"/>
<circle cx="16.5" cy="16.5" r="16.5" fill="#BEC0CC" fill-opacity="0.16"/>
<rect x="40" y="105" width="88" height="12" rx="2" fill="#BEC0CC" fill-opacity="0.16"/>
<rect x="40" y="169" width="54" height="12" rx="2" fill="#BEC0CC" fill-opacity="0.16"/>
<rect x="113" y="169" width="24" height="12" rx="2" fill="#BEC0CC" fill-opacity="0.16"/>
<rect x="149" y="169" width="24" height="12" rx="2" fill="#BEC0CC" fill-opacity="0.16"/>
<rect x="40" y="125" width="293" height="32" rx="2" fill="#BEC0CC" fill-opacity="0.16"/>
<circle cx="16.5" cy="118.5" r="16.5" fill="#BEC0CC" fill-opacity="0.16"/>
<rect x="40" y="207" width="88" height="12" rx="2" fill="#BEC0CC" fill-opacity="0.16"/>
<rect x="40" y="271" width="54" height="12" rx="2" fill="#BEC0CC" fill-opacity="0.16"/>
<rect x="113" y="271" width="24" height="12" rx="2" fill="#BEC0CC" fill-opacity="0.16"/>
<rect x="149" y="271" width="24" height="12" rx="2" fill="#BEC0CC" fill-opacity="0.16"/>
<rect x="40" y="227" width="293" height="32" rx="2" fill="#BEC0CC" fill-opacity="0.16"/>
<circle cx="16.5" cy="220.5" r="16.5" fill="#BEC0CC" fill-opacity="0.16"/>
<path d="M85.1937 177V166.629H89.1638C89.9133 166.629 90.5361 166.747 91.0324 166.984C91.532 167.217 91.9051 167.536 92.1515 167.941C92.4013 168.346 92.5262 168.805 92.5262 169.318C92.5262 169.74 92.4452 170.101 92.2832 170.402C92.1211 170.699 91.9034 170.94 91.6299 171.126C91.3565 171.312 91.051 171.445 90.7134 171.526V171.627C91.0813 171.647 91.4341 171.761 91.7717 171.966C92.1127 172.169 92.3912 172.456 92.6073 172.827C92.8233 173.199 92.9314 173.648 92.9314 174.174C92.9314 174.711 92.8014 175.194 92.5414 175.623C92.2815 176.048 91.8899 176.384 91.3666 176.63C90.8433 176.877 90.185 177 89.3917 177H85.1937ZM87.0724 175.43H89.0929C89.7748 175.43 90.266 175.3 90.5665 175.04C90.8703 174.777 91.0223 174.439 91.0223 174.027C91.0223 173.72 90.9463 173.443 90.7944 173.197C90.6425 172.947 90.4264 172.751 90.1462 172.61C89.866 172.464 89.5318 172.392 89.1435 172.392H87.0724V175.43ZM87.0724 171.04H88.9309C89.255 171.04 89.547 170.981 89.8069 170.863C90.0669 170.741 90.2711 170.571 90.4197 170.351C90.5716 170.128 90.6475 169.865 90.6475 169.561C90.6475 169.159 90.5057 168.829 90.2222 168.569C89.942 168.309 89.525 168.179 88.9714 168.179H87.0724V171.04ZM97.9282 177.152C97.1483 177.152 96.4748 176.99 95.9077 176.666C95.3439 176.338 94.9101 175.876 94.6063 175.278C94.3024 174.677 94.1505 173.97 94.1505 173.156C94.1505 172.356 94.3024 171.654 94.6063 171.05C94.9135 170.442 95.3422 169.97 95.8925 169.632C96.4428 169.291 97.0893 169.121 97.832 169.121C98.3114 169.121 98.7637 169.198 99.1891 169.353C99.6178 169.505 99.996 169.742 100.323 170.062C100.654 170.383 100.914 170.792 101.103 171.288C101.292 171.781 101.387 172.368 101.387 173.05V173.612H95.0114V172.377H99.6297C99.6263 172.026 99.5503 171.713 99.4018 171.44C99.2532 171.163 99.0456 170.945 98.7789 170.787C98.5156 170.628 98.2084 170.549 97.8573 170.549C97.4826 170.549 97.1534 170.64 96.8698 170.822C96.5862 171.001 96.3651 171.237 96.2064 171.531C96.0512 171.821 95.9718 172.14 95.9684 172.488V173.567C95.9684 174.019 96.0512 174.407 96.2166 174.731C96.382 175.052 96.6133 175.299 96.9103 175.471C97.2074 175.639 97.5551 175.724 97.9535 175.724C98.2202 175.724 98.4616 175.687 98.6776 175.612C98.8937 175.535 99.0811 175.422 99.2397 175.273C99.3984 175.125 99.5183 174.941 99.5993 174.721L101.311 174.914C101.203 175.366 100.997 175.761 100.693 176.099C100.393 176.433 100.008 176.693 99.5385 176.878C99.0693 177.061 98.5325 177.152 97.9282 177.152ZM110.359 169.222V170.64H105.887V169.222H110.359ZM106.991 167.358H108.824V174.66C108.824 174.907 108.862 175.096 108.936 175.228C109.014 175.356 109.115 175.444 109.24 175.491C109.365 175.538 109.503 175.562 109.655 175.562C109.77 175.562 109.874 175.553 109.969 175.537C110.067 175.52 110.141 175.504 110.192 175.491L110.501 176.924C110.403 176.958 110.263 176.995 110.08 177.035C109.901 177.076 109.682 177.1 109.422 177.106C108.963 177.12 108.549 177.051 108.181 176.899C107.813 176.743 107.521 176.504 107.305 176.18C107.093 175.856 106.988 175.45 106.991 174.964V167.358ZM113.892 172.442V177H112.059V166.629H113.852V170.544H113.943C114.125 170.105 114.407 169.759 114.789 169.505C115.173 169.249 115.663 169.121 116.257 169.121C116.797 169.121 117.268 169.234 117.67 169.46C118.072 169.686 118.382 170.017 118.602 170.452C118.824 170.888 118.936 171.42 118.936 172.047V177H117.103V172.331C117.103 171.808 116.968 171.401 116.698 171.111C116.431 170.817 116.056 170.67 115.573 170.67C115.249 170.67 114.959 170.741 114.702 170.883C114.449 171.021 114.25 171.222 114.105 171.485C113.963 171.749 113.892 172.068 113.892 172.442ZM124.248 177.152C123.468 177.152 122.795 176.99 122.227 176.666C121.664 176.338 121.23 175.876 120.926 175.278C120.622 174.677 120.47 173.97 120.47 173.156C120.47 172.356 120.622 171.654 120.926 171.05C121.233 170.442 121.662 169.97 122.212 169.632C122.762 169.291 123.409 169.121 124.152 169.121C124.631 169.121 125.083 169.198 125.509 169.353C125.938 169.505 126.316 169.742 126.643 170.062C126.974 170.383 127.234 170.792 127.423 171.288C127.612 171.781 127.707 172.368 127.707 173.05V173.612H121.331V172.377H125.949C125.946 172.026 125.87 171.713 125.722 171.44C125.573 171.163 125.365 170.945 125.099 170.787C124.835 170.628 124.528 170.549 124.177 170.549C123.802 170.549 123.473 170.64 123.19 170.822C122.906 171.001 122.685 171.237 122.526 171.531C122.371 171.821 122.292 172.14 122.288 172.488V173.567C122.288 174.019 122.371 174.407 122.536 174.731C122.702 175.052 122.933 175.299 123.23 175.471C123.527 175.639 123.875 175.724 124.273 175.724C124.54 175.724 124.781 175.687 124.997 175.612C125.213 175.535 125.401 175.422 125.559 175.273C125.718 175.125 125.838 174.941 125.919 174.721L127.631 174.914C127.523 175.366 127.317 175.761 127.013 176.099C126.712 176.433 126.327 176.693 125.858 176.878C125.389 177.061 124.852 177.152 124.248 177.152ZM136.734 169.222V170.64H132.136V169.222H136.734ZM133.286 177V168.488C133.286 167.964 133.394 167.529 133.61 167.181C133.829 166.833 134.123 166.573 134.491 166.401C134.859 166.229 135.267 166.143 135.716 166.143C136.034 166.143 136.316 166.168 136.562 166.219C136.809 166.27 136.991 166.315 137.109 166.356L136.744 167.774C136.667 167.75 136.569 167.726 136.451 167.703C136.333 167.676 136.201 167.662 136.056 167.662C135.715 167.662 135.473 167.745 135.332 167.91C135.193 168.072 135.124 168.305 135.124 168.609V177H133.286ZM138.17 177V169.222H140.003V177H138.17ZM139.092 168.118C138.801 168.118 138.551 168.022 138.342 167.829C138.133 167.633 138.028 167.399 138.028 167.125C138.028 166.849 138.133 166.614 138.342 166.421C138.551 166.226 138.801 166.128 139.092 166.128C139.385 166.128 139.635 166.226 139.841 166.421C140.05 166.614 140.155 166.849 140.155 167.125C140.155 167.399 140.05 167.633 139.841 167.829C139.635 168.022 139.385 168.118 139.092 168.118ZM141.888 177V169.222H143.666V170.518H143.747C143.888 170.069 144.131 169.723 144.476 169.48C144.823 169.234 145.22 169.11 145.666 169.11C145.767 169.11 145.88 169.115 146.005 169.126C146.133 169.132 146.24 169.144 146.324 169.161V170.847C146.246 170.82 146.123 170.797 145.954 170.776C145.789 170.753 145.629 170.741 145.473 170.741C145.139 170.741 144.839 170.814 144.572 170.959C144.309 171.101 144.101 171.298 143.949 171.551C143.797 171.804 143.721 172.096 143.721 172.427V177H141.888ZM153.69 171.278L152.018 171.46C151.971 171.291 151.888 171.133 151.77 170.984C151.656 170.836 151.5 170.716 151.304 170.625C151.109 170.533 150.869 170.488 150.585 170.488C150.204 170.488 149.883 170.571 149.623 170.736C149.367 170.901 149.24 171.116 149.243 171.379C149.24 171.605 149.323 171.789 149.492 171.931C149.664 172.073 149.947 172.189 150.342 172.28L151.669 172.564C152.405 172.723 152.952 172.974 153.31 173.319C153.671 173.663 153.853 174.114 153.857 174.671C153.853 175.16 153.71 175.592 153.426 175.967C153.146 176.338 152.756 176.629 152.256 176.838C151.757 177.047 151.183 177.152 150.535 177.152C149.583 177.152 148.816 176.953 148.236 176.554C147.655 176.153 147.309 175.594 147.198 174.878L148.985 174.706C149.066 175.057 149.238 175.322 149.502 175.501C149.765 175.68 150.108 175.769 150.53 175.769C150.965 175.769 151.315 175.68 151.578 175.501C151.845 175.322 151.978 175.101 151.978 174.838C151.978 174.615 151.892 174.431 151.72 174.286C151.551 174.141 151.288 174.029 150.93 173.952L149.603 173.673C148.857 173.518 148.305 173.256 147.947 172.888C147.589 172.517 147.412 172.047 147.415 171.48C147.412 171.001 147.542 170.586 147.805 170.235C148.072 169.88 148.442 169.607 148.914 169.414C149.39 169.218 149.939 169.121 150.56 169.121C151.472 169.121 152.189 169.315 152.712 169.703C153.239 170.091 153.565 170.616 153.69 171.278ZM159.252 169.222V170.64H154.781V169.222H159.252ZM155.885 167.358H157.718V174.66C157.718 174.907 157.755 175.096 157.829 175.228C157.907 175.356 158.008 175.444 158.133 175.491C158.258 175.538 158.396 175.562 158.548 175.562C158.663 175.562 158.768 175.553 158.862 175.537C158.96 175.52 159.035 175.504 159.085 175.491L159.394 176.924C159.296 176.958 159.156 176.995 158.974 177.035C158.795 177.076 158.575 177.1 158.315 177.106C157.856 177.12 157.443 177.051 157.075 176.899C156.707 176.743 156.415 176.504 156.199 176.18C155.986 175.856 155.881 175.45 155.885 174.964V167.358ZM167.715 177.152C166.956 177.152 166.297 176.985 165.74 176.651C165.183 176.316 164.751 175.849 164.444 175.248C164.14 174.647 163.988 173.945 163.988 173.141C163.988 172.338 164.14 171.634 164.444 171.03C164.751 170.425 165.183 169.956 165.74 169.622C166.297 169.288 166.956 169.121 167.715 169.121C168.475 169.121 169.133 169.288 169.69 169.622C170.247 169.956 170.678 170.425 170.982 171.03C171.289 171.634 171.442 172.338 171.442 173.141C171.442 173.945 171.289 174.647 170.982 175.248C170.678 175.849 170.247 176.316 169.69 176.651C169.133 176.985 168.475 177.152 167.715 177.152ZM167.725 175.683C168.137 175.683 168.482 175.57 168.759 175.344C169.035 175.115 169.241 174.807 169.376 174.422C169.515 174.038 169.584 173.609 169.584 173.136C169.584 172.66 169.515 172.23 169.376 171.845C169.241 171.457 169.035 171.148 168.759 170.918C168.482 170.689 168.137 170.574 167.725 170.574C167.303 170.574 166.952 170.689 166.672 170.918C166.395 171.148 166.188 171.457 166.049 171.845C165.914 172.23 165.847 172.66 165.847 173.136C165.847 173.609 165.914 174.038 166.049 174.422C166.188 174.807 166.395 175.115 166.672 175.344C166.952 175.57 167.303 175.683 167.725 175.683ZM174.831 172.442V177H172.998V169.222H174.75V170.544H174.842C175.02 170.108 175.306 169.762 175.697 169.505C176.092 169.249 176.58 169.121 177.161 169.121C177.698 169.121 178.165 169.235 178.564 169.465C178.965 169.694 179.276 170.027 179.495 170.462C179.718 170.898 179.828 171.426 179.824 172.047V177H177.991V172.331C177.991 171.811 177.856 171.404 177.586 171.111C177.319 170.817 176.95 170.67 176.477 170.67C176.156 170.67 175.871 170.741 175.621 170.883C175.375 171.021 175.181 171.222 175.039 171.485C174.901 171.749 174.831 172.068 174.831 172.442ZM185.131 177.152C184.352 177.152 183.678 176.99 183.111 176.666C182.547 176.338 182.113 175.876 181.809 175.278C181.506 174.677 181.354 173.97 181.354 173.156C181.354 172.356 181.506 171.654 181.809 171.05C182.117 170.442 182.545 169.97 183.096 169.632C183.646 169.291 184.293 169.121 185.035 169.121C185.515 169.121 185.967 169.198 186.392 169.353C186.821 169.505 187.199 169.742 187.527 170.062C187.858 170.383 188.117 170.792 188.307 171.288C188.496 171.781 188.59 172.368 188.59 173.05V173.612H182.215V172.377H186.833C186.83 172.026 186.754 171.713 186.605 171.44C186.456 171.163 186.249 170.945 185.982 170.787C185.719 170.628 185.412 170.549 185.061 170.549C184.686 170.549 184.357 170.64 184.073 170.822C183.789 171.001 183.568 171.237 183.41 171.531C183.254 171.821 183.175 172.14 183.172 172.488V173.567C183.172 174.019 183.254 174.407 183.42 174.731C183.585 175.052 183.816 175.299 184.114 175.471C184.411 175.639 184.758 175.724 185.157 175.724C185.423 175.724 185.665 175.687 185.881 175.612C186.097 175.535 186.284 175.422 186.443 175.273C186.602 175.125 186.721 174.941 186.803 174.721L188.514 174.914C188.406 175.366 188.2 175.761 187.896 176.099C187.596 176.433 187.211 176.693 186.742 176.878C186.272 177.061 185.736 177.152 185.131 177.152ZM197.562 169.222V170.64H193.091V169.222H197.562ZM194.195 167.358H196.028V174.66C196.028 174.907 196.065 175.096 196.139 175.228C196.217 175.356 196.318 175.444 196.443 175.491C196.568 175.538 196.706 175.562 196.858 175.562C196.973 175.562 197.078 175.553 197.172 175.537C197.27 175.52 197.344 175.504 197.395 175.491L197.704 176.924C197.606 176.958 197.466 176.995 197.284 177.035C197.105 177.076 196.885 177.1 196.625 177.106C196.166 177.12 195.753 177.051 195.385 176.899C195.017 176.743 194.725 176.504 194.509 176.18C194.296 175.856 194.191 175.45 194.195 174.964V167.358ZM202.404 177.152C201.645 177.152 200.987 176.985 200.43 176.651C199.873 176.316 199.44 175.849 199.133 175.248C198.829 174.647 198.677 173.945 198.677 173.141C198.677 172.338 198.829 171.634 199.133 171.03C199.44 170.425 199.873 169.956 200.43 169.622C200.987 169.288 201.645 169.121 202.404 169.121C203.164 169.121 203.822 169.288 204.379 169.622C204.936 169.956 205.367 170.425 205.671 171.03C205.978 171.634 206.132 172.338 206.132 173.141C206.132 173.945 205.978 174.647 205.671 175.248C205.367 175.849 204.936 176.316 204.379 176.651C203.822 176.985 203.164 177.152 202.404 177.152ZM202.415 175.683C202.826 175.683 203.171 175.57 203.448 175.344C203.724 175.115 203.93 174.807 204.065 174.422C204.204 174.038 204.273 173.609 204.273 173.136C204.273 172.66 204.204 172.23 204.065 171.845C203.93 171.457 203.724 171.148 203.448 170.918C203.171 170.689 202.826 170.574 202.415 170.574C201.993 170.574 201.642 170.689 201.361 170.918C201.084 171.148 200.877 171.457 200.738 171.845C200.603 172.23 200.536 172.66 200.536 173.136C200.536 173.609 200.603 174.038 200.738 174.422C200.877 174.807 201.084 175.115 201.361 175.344C201.642 175.57 201.993 175.683 202.415 175.683ZM217.372 171.278L215.701 171.46C215.654 171.291 215.571 171.133 215.453 170.984C215.338 170.836 215.183 170.716 214.987 170.625C214.791 170.533 214.552 170.488 214.268 170.488C213.886 170.488 213.566 170.571 213.306 170.736C213.049 170.901 212.923 171.116 212.926 171.379C212.923 171.605 213.005 171.789 213.174 171.931C213.346 172.073 213.63 172.189 214.025 172.28L215.352 172.564C216.088 172.723 216.634 172.974 216.992 173.319C217.354 173.663 217.536 174.114 217.539 174.671C217.536 175.16 217.392 175.592 217.109 175.967C216.829 176.338 216.439 176.629 215.939 176.838C215.439 177.047 214.866 177.152 214.217 177.152C213.265 177.152 212.499 176.953 211.918 176.554C211.338 176.153 210.992 175.594 210.88 174.878L212.668 174.706C212.749 175.057 212.921 175.322 213.184 175.501C213.448 175.68 213.79 175.769 214.212 175.769C214.648 175.769 214.997 175.68 215.26 175.501C215.527 175.322 215.661 175.101 215.661 174.838C215.661 174.615 215.574 174.431 215.402 174.286C215.233 174.141 214.97 174.029 214.612 173.952L213.286 173.673C212.539 173.518 211.988 173.256 211.63 172.888C211.272 172.517 211.095 172.047 211.098 171.48C211.095 171.001 211.225 170.586 211.488 170.235C211.755 169.88 212.124 169.607 212.597 169.414C213.073 169.218 213.621 169.121 214.243 169.121C215.154 169.121 215.872 169.315 216.395 169.703C216.921 170.091 217.247 170.616 217.372 171.278ZM220.884 172.442V177H219.051V166.629H220.843V170.544H220.935C221.117 170.105 221.399 169.759 221.78 169.505C222.165 169.249 222.655 169.121 223.249 169.121C223.789 169.121 224.26 169.234 224.662 169.46C225.063 169.686 225.374 170.017 225.593 170.452C225.816 170.888 225.928 171.42 225.928 172.047V177H224.095V172.331C224.095 171.808 223.959 171.401 223.689 171.111C223.423 170.817 223.048 170.67 222.565 170.67C222.241 170.67 221.951 170.741 221.694 170.883C221.441 171.021 221.242 171.222 221.097 171.485C220.955 171.749 220.884 172.068 220.884 172.442ZM230.034 177.157C229.542 177.157 229.098 177.069 228.703 176.894C228.311 176.715 228 176.451 227.771 176.104C227.545 175.756 227.432 175.327 227.432 174.817C227.432 174.379 227.513 174.016 227.675 173.729C227.837 173.442 228.058 173.212 228.338 173.04C228.618 172.868 228.934 172.738 229.285 172.65C229.639 172.559 230.006 172.493 230.384 172.453C230.84 172.405 231.209 172.363 231.493 172.326C231.776 172.285 231.982 172.225 232.111 172.144C232.242 172.059 232.308 171.929 232.308 171.754V171.723C232.308 171.342 232.195 171.047 231.969 170.837C231.743 170.628 231.417 170.523 230.992 170.523C230.543 170.523 230.186 170.621 229.923 170.817C229.663 171.013 229.488 171.244 229.396 171.511L227.685 171.268C227.82 170.795 228.043 170.4 228.353 170.083C228.664 169.762 229.044 169.522 229.493 169.364C229.942 169.202 230.438 169.121 230.981 169.121C231.356 169.121 231.729 169.164 232.101 169.252C232.472 169.34 232.811 169.485 233.118 169.688C233.426 169.887 233.672 170.159 233.858 170.503C234.047 170.847 234.141 171.278 234.141 171.794V177H232.379V175.932H232.318C232.207 176.148 232.05 176.35 231.847 176.539C231.648 176.725 231.397 176.875 231.093 176.99C230.792 177.101 230.44 177.157 230.034 177.157ZM230.51 175.81C230.878 175.81 231.197 175.737 231.468 175.592C231.738 175.444 231.945 175.248 232.09 175.005C232.239 174.762 232.313 174.497 232.313 174.21V173.293C232.256 173.34 232.158 173.384 232.02 173.425C231.885 173.465 231.733 173.501 231.564 173.531C231.395 173.562 231.228 173.589 231.062 173.612C230.897 173.636 230.754 173.656 230.632 173.673C230.359 173.71 230.114 173.771 229.898 173.855C229.682 173.94 229.511 174.058 229.386 174.21C229.261 174.358 229.199 174.551 229.199 174.787C229.199 175.125 229.322 175.38 229.569 175.552C229.815 175.724 230.129 175.81 230.51 175.81ZM235.985 177V169.222H237.762V170.518H237.843C237.985 170.069 238.228 169.723 238.572 169.48C238.92 169.234 239.317 169.11 239.762 169.11C239.864 169.11 239.977 169.115 240.102 169.126C240.23 169.132 240.336 169.144 240.421 169.161V170.847C240.343 170.82 240.22 170.797 240.051 170.776C239.885 170.753 239.725 170.741 239.57 170.741C239.236 170.741 238.935 170.814 238.668 170.959C238.405 171.101 238.198 171.298 238.046 171.551C237.894 171.804 237.818 172.096 237.818 172.427V177H235.985ZM244.762 177.152C243.982 177.152 243.308 176.99 242.741 176.666C242.177 176.338 241.744 175.876 241.44 175.278C241.136 174.677 240.984 173.97 240.984 173.156C240.984 172.356 241.136 171.654 241.44 171.05C241.747 170.442 242.176 169.97 242.726 169.632C243.276 169.291 243.923 169.121 244.665 169.121C245.145 169.121 245.597 169.198 246.023 169.353C246.451 169.505 246.829 169.742 247.157 170.062C247.488 170.383 247.748 170.792 247.937 171.288C248.126 171.781 248.22 172.368 248.22 173.05V173.612H241.845V172.377H246.463C246.46 172.026 246.384 171.713 246.235 171.44C246.087 171.163 245.879 170.945 245.612 170.787C245.349 170.628 245.042 170.549 244.691 170.549C244.316 170.549 243.987 170.64 243.703 170.822C243.42 171.001 243.199 171.237 243.04 171.531C242.885 171.821 242.805 172.14 242.802 172.488V173.567C242.802 174.019 242.885 174.407 243.05 174.731C243.215 175.052 243.447 175.299 243.744 175.471C244.041 175.639 244.389 175.724 244.787 175.724C245.054 175.724 245.295 175.687 245.511 175.612C245.727 175.535 245.915 175.422 246.073 175.273C246.232 175.125 246.352 174.941 246.433 174.721L248.144 174.914C248.036 175.366 247.83 175.761 247.527 176.099C247.226 176.433 246.841 176.693 246.372 176.878C245.903 177.061 245.366 177.152 244.762 177.152ZM120.099 196.917C119.849 196.917 119.618 196.897 119.405 196.856C119.196 196.819 119.028 196.775 118.904 196.724L119.329 195.296C119.596 195.374 119.834 195.411 120.043 195.408C120.252 195.404 120.436 195.339 120.595 195.21C120.757 195.085 120.894 194.876 121.005 194.582L121.162 194.162L118.341 186.222H120.286L122.079 192.096H122.16L123.957 186.222H125.907L122.793 194.942C122.648 195.354 122.455 195.707 122.215 196C121.976 196.297 121.682 196.524 121.334 196.679C120.99 196.837 120.578 196.917 120.099 196.917ZM130.304 194.152C129.544 194.152 128.886 193.985 128.329 193.651C127.772 193.316 127.34 192.849 127.032 192.248C126.729 191.647 126.577 190.945 126.577 190.141C126.577 189.338 126.729 188.634 127.032 188.03C127.34 187.425 127.772 186.956 128.329 186.622C128.886 186.288 129.544 186.121 130.304 186.121C131.063 186.121 131.722 186.288 132.279 186.622C132.836 186.956 133.266 187.425 133.57 188.03C133.877 188.634 134.031 189.338 134.031 190.141C134.031 190.945 133.877 191.647 133.57 192.248C133.266 192.849 132.836 193.316 132.279 193.651C131.722 193.985 131.063 194.152 130.304 194.152ZM130.314 192.683C130.726 192.683 131.07 192.57 131.347 192.344C131.624 192.115 131.83 191.807 131.965 191.422C132.103 191.038 132.172 190.609 132.172 190.136C132.172 189.66 132.103 189.23 131.965 188.845C131.83 188.457 131.624 188.148 131.347 187.918C131.07 187.689 130.726 187.574 130.314 187.574C129.892 187.574 129.541 187.689 129.261 187.918C128.984 188.148 128.776 188.457 128.638 188.845C128.503 189.23 128.435 189.66 128.435 190.136C128.435 190.609 128.503 191.038 128.638 191.422C128.776 191.807 128.984 192.115 129.261 192.344C129.541 192.57 129.892 192.683 130.314 192.683ZM140.544 190.729V186.222H142.377V194H140.6V192.618H140.519C140.343 193.053 140.055 193.409 139.653 193.686C139.255 193.963 138.763 194.101 138.179 194.101C137.67 194.101 137.219 193.988 136.827 193.762C136.439 193.532 136.135 193.2 135.916 192.764C135.696 192.326 135.587 191.796 135.587 191.174V186.222H137.42V190.891C137.42 191.384 137.555 191.775 137.825 192.066C138.095 192.356 138.449 192.501 138.888 192.501C139.158 192.501 139.42 192.435 139.673 192.304C139.926 192.172 140.134 191.976 140.296 191.716C140.462 191.453 140.544 191.124 140.544 190.729ZM144.262 194V186.222H146.04V187.518H146.121C146.263 187.069 146.506 186.723 146.85 186.48C147.198 186.234 147.594 186.11 148.04 186.11C148.141 186.11 148.254 186.115 148.379 186.126C148.508 186.132 148.614 186.144 148.698 186.161V187.847C148.621 187.82 148.498 187.797 148.329 187.776C148.163 187.753 148.003 187.741 147.848 187.741C147.513 187.741 147.213 187.814 146.946 187.959C146.683 188.101 146.475 188.298 146.323 188.551C146.172 188.804 146.096 189.096 146.096 189.427V194H144.262ZM157.337 186.222V187.64H152.866V186.222H157.337ZM153.97 184.358H155.803V191.66C155.803 191.907 155.84 192.096 155.915 192.228C155.992 192.356 156.093 192.444 156.218 192.491C156.343 192.538 156.482 192.562 156.634 192.562C156.748 192.562 156.853 192.553 156.948 192.537C157.045 192.52 157.12 192.504 157.17 192.491L157.479 193.924C157.381 193.958 157.241 193.995 157.059 194.035C156.88 194.076 156.661 194.1 156.401 194.106C155.942 194.12 155.528 194.051 155.16 193.899C154.792 193.743 154.5 193.504 154.284 193.18C154.071 192.856 153.967 192.45 153.97 191.964V184.358ZM160.871 189.442V194H159.038V183.629H160.83V187.544H160.921C161.104 187.105 161.386 186.759 161.767 186.505C162.152 186.249 162.642 186.121 163.236 186.121C163.776 186.121 164.247 186.234 164.649 186.46C165.05 186.686 165.361 187.017 165.58 187.452C165.803 187.888 165.914 188.42 165.914 189.047V194H164.081V189.331C164.081 188.808 163.946 188.401 163.676 188.111C163.41 187.817 163.035 187.67 162.552 187.67C162.228 187.67 161.938 187.741 161.681 187.883C161.428 188.021 161.229 188.222 161.084 188.485C160.942 188.749 160.871 189.068 160.871 189.442ZM171.176 194.152C170.416 194.152 169.758 193.985 169.201 193.651C168.644 193.316 168.212 192.849 167.905 192.248C167.601 191.647 167.449 190.945 167.449 190.141C167.449 189.338 167.601 188.634 167.905 188.03C168.212 187.425 168.644 186.956 169.201 186.622C169.758 186.288 170.416 186.121 171.176 186.121C171.935 186.121 172.594 186.288 173.151 186.622C173.708 186.956 174.138 187.425 174.442 188.03C174.749 188.634 174.903 189.338 174.903 190.141C174.903 190.945 174.749 191.647 174.442 192.248C174.138 192.849 173.708 193.316 173.151 193.651C172.594 193.985 171.935 194.152 171.176 194.152ZM171.186 192.683C171.598 192.683 171.942 192.57 172.219 192.344C172.496 192.115 172.702 191.807 172.837 191.422C172.975 191.038 173.044 190.609 173.044 190.136C173.044 189.66 172.975 189.23 172.837 188.845C172.702 188.457 172.496 188.148 172.219 187.918C171.942 187.689 171.598 187.574 171.186 187.574C170.764 187.574 170.413 187.689 170.133 187.918C169.856 188.148 169.648 188.457 169.51 188.845C169.375 189.23 169.307 189.66 169.307 190.136C169.307 190.609 169.375 191.038 169.51 191.422C169.648 191.807 169.856 192.115 170.133 192.344C170.413 192.57 170.764 192.683 171.186 192.683ZM181.416 190.729V186.222H183.25V194H181.472V192.618H181.391C181.216 193.053 180.927 193.409 180.525 193.686C180.127 193.963 179.636 194.101 179.052 194.101C178.542 194.101 178.091 193.988 177.699 193.762C177.311 193.532 177.007 193.2 176.788 192.764C176.569 192.326 176.459 191.796 176.459 191.174V186.222H178.292V190.891C178.292 191.384 178.427 191.775 178.697 192.066C178.967 192.356 179.322 192.501 179.761 192.501C180.031 192.501 180.292 192.435 180.545 192.304C180.799 192.172 181.006 191.976 181.168 191.716C181.334 191.453 181.416 191.124 181.416 190.729ZM188.517 197.079C187.859 197.079 187.294 196.989 186.821 196.81C186.348 196.635 185.968 196.399 185.681 196.102C185.395 195.804 185.195 195.475 185.084 195.114L186.735 194.714C186.809 194.866 186.917 195.016 187.059 195.165C187.201 195.317 187.391 195.442 187.631 195.539C187.874 195.641 188.18 195.691 188.548 195.691C189.068 195.691 189.498 195.565 189.839 195.312C190.18 195.062 190.35 194.65 190.35 194.076V192.602H190.259C190.165 192.791 190.026 192.986 189.844 193.185C189.665 193.384 189.427 193.551 189.13 193.686C188.836 193.821 188.467 193.889 188.021 193.889C187.423 193.889 186.882 193.748 186.396 193.468C185.913 193.185 185.528 192.763 185.241 192.202C184.957 191.639 184.816 190.933 184.816 190.086C184.816 189.231 184.957 188.511 185.241 187.923C185.528 187.333 185.914 186.885 186.401 186.581C186.887 186.274 187.429 186.121 188.026 186.121C188.482 186.121 188.857 186.198 189.15 186.353C189.447 186.505 189.684 186.689 189.859 186.905C190.035 187.118 190.168 187.319 190.259 187.508H190.361V186.222H192.168V194.127C192.168 194.792 192.01 195.342 191.692 195.777C191.375 196.213 190.941 196.539 190.391 196.755C189.841 196.971 189.216 197.079 188.517 197.079ZM188.532 192.45C188.921 192.45 189.252 192.356 189.525 192.167C189.798 191.978 190.006 191.706 190.148 191.352C190.29 190.997 190.361 190.572 190.361 190.075C190.361 189.586 190.29 189.157 190.148 188.789C190.009 188.421 189.804 188.136 189.53 187.933C189.26 187.727 188.927 187.625 188.532 187.625C188.124 187.625 187.783 187.731 187.51 187.944C187.236 188.156 187.03 188.448 186.892 188.82C186.753 189.188 186.684 189.606 186.684 190.075C186.684 190.551 186.753 190.968 186.892 191.326C187.034 191.681 187.241 191.958 187.515 192.157C187.791 192.353 188.131 192.45 188.532 192.45ZM195.88 189.442V194H194.047V183.629H195.84V187.544H195.931C196.113 187.105 196.395 186.759 196.777 186.505C197.161 186.249 197.651 186.121 198.245 186.121C198.785 186.121 199.256 186.234 199.658 186.46C200.06 186.686 200.37 187.017 200.59 187.452C200.812 187.888 200.924 188.42 200.924 189.047V194H199.091V189.331C199.091 188.808 198.956 188.401 198.686 188.111C198.419 187.817 198.044 187.67 197.561 187.67C197.237 187.67 196.947 187.741 196.69 187.883C196.437 188.021 196.238 188.222 196.093 188.485C195.951 188.749 195.88 189.068 195.88 189.442ZM206.677 186.222V187.64H202.205V186.222H206.677ZM203.309 184.358H205.142V191.66C205.142 191.907 205.179 192.096 205.254 192.228C205.331 192.356 205.432 192.444 205.557 192.491C205.682 192.538 205.821 192.562 205.973 192.562C206.087 192.562 206.192 192.553 206.287 192.537C206.384 192.52 206.459 192.504 206.509 192.491L206.818 193.924C206.72 193.958 206.58 193.995 206.398 194.035C206.219 194.076 206 194.1 205.74 194.106C205.281 194.12 204.867 194.051 204.499 193.899C204.131 193.743 203.839 193.504 203.623 193.18C203.41 192.856 203.306 192.45 203.309 191.964V184.358ZM214.246 188.278L212.575 188.46C212.527 188.291 212.445 188.133 212.327 187.984C212.212 187.836 212.057 187.716 211.861 187.625C211.665 187.533 211.425 187.488 211.142 187.488C210.76 187.488 210.439 187.571 210.179 187.736C209.923 187.901 209.796 188.116 209.8 188.379C209.796 188.605 209.879 188.789 210.048 188.931C210.22 189.073 210.504 189.189 210.899 189.28L212.225 189.564C212.961 189.723 213.508 189.974 213.866 190.319C214.227 190.663 214.41 191.114 214.413 191.671C214.41 192.16 214.266 192.592 213.982 192.967C213.702 193.338 213.312 193.629 212.813 193.838C212.313 194.047 211.739 194.152 211.091 194.152C210.139 194.152 209.373 193.953 208.792 193.554C208.211 193.153 207.865 192.594 207.754 191.878L209.541 191.706C209.622 192.057 209.795 192.322 210.058 192.501C210.321 192.68 210.664 192.769 211.086 192.769C211.521 192.769 211.871 192.68 212.134 192.501C212.401 192.322 212.534 192.101 212.534 191.838C212.534 191.615 212.448 191.431 212.276 191.286C212.107 191.141 211.844 191.029 211.486 190.952L210.159 190.673C209.413 190.518 208.861 190.256 208.503 189.888C208.145 189.517 207.968 189.047 207.972 188.48C207.968 188.001 208.098 187.586 208.362 187.235C208.628 186.88 208.998 186.607 209.471 186.414C209.947 186.218 210.495 186.121 211.116 186.121C212.028 186.121 212.745 186.315 213.268 186.703C213.795 187.091 214.121 187.616 214.246 188.278Z" fill="#656B86"/>
<g filter="url(#filter0_b_2980_31218)">
<circle cx="167.5" cy="117.5" r="31.5" fill="#F4801C" fill-opacity="0.19"/>
</g>
<path d="M157 113.748C157 111.736 157 110.73 157.392 109.961C157.736 109.285 158.285 108.736 158.961 108.392C159.73 108 160.736 108 162.748 108H172.806C174.818 108 175.824 108 176.592 108.392C177.268 108.736 177.818 109.285 178.162 109.961C178.554 110.73 178.554 111.736 178.554 113.748V120.573C178.554 122.247 178.554 123.084 178.28 123.744C177.916 124.624 177.216 125.323 176.336 125.688C175.676 125.961 174.839 125.961 173.165 125.961C172.58 125.961 172.288 125.961 172.016 126.025C171.654 126.111 171.317 126.279 171.032 126.518C170.818 126.696 170.642 126.93 170.291 127.398L168.543 129.729C168.283 130.076 168.153 130.249 167.994 130.311C167.854 130.366 167.699 130.366 167.56 130.311C167.4 130.249 167.27 130.076 167.01 129.729L165.262 127.398C164.911 126.93 164.736 126.696 164.522 126.518C164.236 126.279 163.899 126.111 163.537 126.025C163.266 125.961 162.973 125.961 162.388 125.961C160.715 125.961 159.878 125.961 159.218 125.688C158.337 125.323 157.638 124.624 157.273 123.744C157 123.084 157 122.247 157 120.573V113.748Z" stroke="#F4801C" stroke-width="2.7" stroke-linecap="round" stroke-linejoin="round"/>
<defs>
<filter id="filter0_b_2980_31218" x="101.8" y="51.8" width="131.4" height="131.4" filterUnits="userSpaceOnUse" color-interpolation-filters="sRGB">
<feFlood flood-opacity="0" result="BackgroundImageFix"/>
<feGaussianBlur in="BackgroundImageFix" stdDeviation="17.1"/>
<feComposite in2="SourceAlpha" operator="in" result="effect1_backgroundBlur_2980_31218"/>
<feBlend mode="normal" in="SourceGraphic" in2="effect1_backgroundBlur_2980_31218" result="shape"/>
</filter>
</defs>
</svg>
