<svg width="140" height="41" viewBox="0 0 140 41" fill="none" xmlns="http://www.w3.org/2000/svg">
<path d="M1.30452 32.1553C1.09745 32.1553 0.9318 32.1035 0.80756 32C0.704027 31.9172 0.65226 31.8136 0.65226 31.6894C0.65226 31.5445 0.71438 31.4202 0.83862 31.3167C0.96286 31.1924 1.11816 31.0993 1.30452 31.0371C2.00855 30.8508 2.50551 30.6334 2.7954 30.3849C3.106 30.1364 3.2613 29.6912 3.2613 29.0493V14.8238C3.2613 14.3683 3.20953 14.0163 3.106 13.7678C3.00247 13.5193 2.80575 13.3226 2.51586 13.1776C2.22597 13.0327 1.80148 12.8981 1.2424 12.7739C0.80756 12.6703 0.59014 12.4529 0.59014 12.1216C0.59014 11.9767 0.65226 11.8628 0.7765 11.7799C0.90074 11.6971 1.04569 11.6557 1.21134 11.6557C1.68759 11.6557 2.18455 11.6661 2.70222 11.6868C3.24059 11.7075 3.75826 11.7385 4.25522 11.7799C4.77289 11.8006 5.23879 11.811 5.65292 11.811C6.08776 11.811 6.57437 11.8006 7.11274 11.7799C7.65111 11.7592 8.19984 11.7385 8.75892 11.7178C9.33871 11.6971 9.85637 11.6868 10.3119 11.6868C10.4983 11.6868 10.6329 11.7282 10.7157 11.811C10.8192 11.8731 10.871 11.9767 10.871 12.1216C10.871 12.3287 10.8089 12.4736 10.6846 12.5564C10.5811 12.6393 10.4258 12.7117 10.2187 12.7739C9.36977 13.0016 8.78998 13.2501 8.47938 13.5193C8.18949 13.7678 8.04454 14.2026 8.04454 14.8238V28.8008C8.04454 29.3806 8.16878 29.7947 8.41726 30.0432C8.68645 30.2917 9.12129 30.4159 9.72178 30.4159H12.8899C13.3454 30.4159 13.7492 30.3435 14.1012 30.1985C14.474 30.0329 14.8053 29.8258 15.0952 29.5773C15.4472 29.246 15.7578 28.8733 16.027 28.4592C16.2961 28.0243 16.5343 27.5791 16.7413 27.1236C16.9484 26.7094 17.1037 26.4403 17.2072 26.316C17.3315 26.1918 17.4557 26.1297 17.58 26.1297C17.7456 26.1297 17.8595 26.2021 17.9216 26.3471C17.9837 26.492 18.0148 26.6266 18.0148 26.7509C18.0148 26.7923 17.9941 26.8855 17.9527 27.0304C17.9113 27.1753 17.8906 27.2892 17.8906 27.3721C17.7456 27.9726 17.611 28.5006 17.4868 28.9561C17.3625 29.391 17.259 29.8154 17.1762 30.2296C17.1141 30.623 17.0519 31.0682 16.9898 31.5652C16.9691 31.7101 16.9173 31.8447 16.8345 31.9689C16.7724 32.0932 16.6585 32.1553 16.4929 32.1553C16.058 32.1553 15.4265 32.1449 14.5982 32.1242C13.7699 32.1035 12.8381 32.0828 11.8028 32.0621C10.7882 32.0621 9.74249 32.0518 8.66574 32.0311C7.6097 32.0104 6.62613 32 5.71504 32C5.2802 32 4.78324 32.0104 4.22416 32.0311C3.66508 32.0518 3.11635 32.0725 2.57798 32.0932C2.06031 32.1346 1.63583 32.1553 1.30452 32.1553ZM19.3484 32.0932C19.2242 32.0932 19.1103 32.0621 19.0068 32C18.9032 31.9172 18.8515 31.8136 18.8515 31.6894C18.8515 31.5237 18.9032 31.3892 19.0068 31.2856C19.1103 31.1821 19.2449 31.1096 19.4106 31.0682C19.9489 30.944 20.3217 30.8094 20.5287 30.6644C20.7565 30.4988 20.8704 30.2503 20.8704 29.919V23.21C20.8704 22.506 20.7565 22.009 20.5287 21.7191C20.3217 21.4085 19.9903 21.2222 19.5348 21.1601C19.4106 21.1394 19.3174 21.0772 19.2553 20.9737C19.1931 20.8702 19.1621 20.7459 19.1621 20.601C19.1621 20.2904 19.276 20.1144 19.5037 20.073C20.5805 19.8659 21.533 19.576 22.3613 19.2033C23.2102 18.8306 23.8625 18.5407 24.318 18.3336C24.6493 18.1679 24.8564 18.0851 24.9392 18.0851C25.2084 18.0851 25.343 18.2094 25.343 18.4578C25.3223 18.8099 25.2705 19.255 25.1877 19.7934C25.1256 20.3111 25.0635 20.8495 25.0014 21.4085C24.9599 21.9676 24.9392 22.506 24.9392 23.0237V29.8879C24.9392 30.1778 25.0428 30.4056 25.2498 30.5712C25.4776 30.7369 25.871 30.9025 26.4301 31.0682C26.5958 31.1303 26.7304 31.2028 26.8339 31.2856C26.9374 31.3684 26.9892 31.4927 26.9892 31.6583C26.9892 31.9275 26.8339 32.0621 26.5233 32.0621C26.1299 32.0621 25.7157 32.0518 25.2809 32.0311C24.8461 32.0104 24.4216 31.9896 24.0074 31.9689C23.614 31.9482 23.2309 31.9379 22.8582 31.9379C22.5062 31.9379 22.1335 31.9482 21.7401 31.9689C21.3673 31.9896 20.9739 32.0104 20.5598 32.0311C20.1664 32.0725 19.7626 32.0932 19.3484 32.0932ZM22.765 16.6874C22.1231 16.6874 21.5537 16.4493 21.0567 15.973C20.5805 15.4968 20.3424 14.9274 20.3424 14.2647C20.3424 13.5607 20.5805 12.9706 21.0567 12.4943C21.5537 12.0181 22.1231 11.7799 22.765 11.7799C23.4898 11.7799 24.0903 12.0181 24.5665 12.4943C25.0428 12.9706 25.2809 13.5607 25.2809 14.2647C25.2809 14.9274 25.0428 15.4968 24.5665 15.973C24.0903 16.4493 23.4898 16.6874 22.765 16.6874ZM28.633 32.0932C28.488 32.0932 28.3431 32.0621 28.1981 32C28.0739 31.9172 28.0118 31.8033 28.0118 31.6583C28.0118 31.4927 28.0635 31.3684 28.1671 31.2856C28.2706 31.1821 28.4155 31.0993 28.6019 31.0371C29.1817 30.8715 29.544 30.7162 29.689 30.5712C29.8339 30.4056 29.9064 30.1571 29.9064 29.8258V20.9737C29.6993 20.9737 29.4612 20.9737 29.192 20.9737C28.9228 20.953 28.6226 20.9323 28.2913 20.9116C28.1671 20.8909 28.0635 20.777 27.9807 20.5699C27.8979 20.3421 27.8565 20.1558 27.8565 20.0108C27.8565 19.928 27.8875 19.8659 27.9496 19.8245C28.0118 19.7624 28.0739 19.7209 28.136 19.7002C28.4052 19.5967 28.6847 19.4828 28.9746 19.3586C29.2645 19.2343 29.5751 19.0997 29.9064 18.9548C29.9892 17.2776 30.2998 15.8695 30.8382 14.7306C31.3766 13.5918 32.0392 12.6807 32.8261 11.9974C33.6336 11.314 34.4826 10.8274 35.373 10.5375C36.2634 10.2269 37.102 10.0716 37.8888 10.0716C39.2969 10.0716 40.3115 10.2684 40.9327 10.6618C41.5746 11.0552 41.8956 11.6661 41.8956 12.4943C41.8956 12.9706 41.792 13.3536 41.585 13.6435C41.3779 13.9127 41.0777 14.0473 40.6842 14.0473C40.4979 14.0473 40.3115 13.9645 40.1252 13.7988C39.9388 13.6332 39.7421 13.4261 39.535 13.1776C39.183 12.7842 38.7689 12.4115 38.2926 12.0595C37.8164 11.6868 37.2469 11.5004 36.5843 11.5004C35.7353 11.5004 35.0831 11.8628 34.6275 12.5875C34.1927 13.2915 33.9753 14.4304 33.9753 16.0041V18.551C33.9753 18.7167 34.027 18.8306 34.1306 18.8927C34.2341 18.9548 34.348 18.9859 34.4722 18.9859H37.982C38.1477 18.9859 38.2719 19.0376 38.3547 19.1412C38.4376 19.2447 38.479 19.3586 38.479 19.4828C38.479 19.6692 38.4583 19.8659 38.4169 20.073C38.3754 20.28 38.3133 20.456 38.2305 20.601C38.127 20.7666 38.0441 20.8495 37.982 20.8495H35.1245C34.6689 20.8495 34.3583 20.9012 34.1927 21.0048C34.0477 21.1083 33.9753 21.2843 33.9753 21.5328V29.2978C33.9753 29.8362 34.0995 30.2192 34.348 30.447C34.5965 30.6541 35.1452 30.8508 35.9942 31.0371C36.4083 31.0993 36.6154 31.2856 36.6154 31.5962C36.6154 31.7205 36.5636 31.8343 36.4601 31.9379C36.3565 32.0414 36.2323 32.0932 36.0874 32.0932C35.4662 32.0932 34.7621 32.0621 33.9753 32C33.2091 31.9586 32.5569 31.9379 32.0185 31.9379C31.6665 31.9379 31.3041 31.9482 30.9314 31.9689C30.5794 31.9896 30.2067 32.0104 29.8132 32.0311C29.4405 32.0725 29.0471 32.0932 28.633 32.0932ZM44.317 32.4348C43.1989 32.4348 42.1946 32.1449 41.3042 31.5652C40.4345 30.9647 39.7409 30.1571 39.2232 29.1425C38.7262 28.1071 38.4778 26.9372 38.4778 25.6327C38.4778 24.3282 38.778 23.1479 39.3785 22.0919C39.979 21.0151 40.7969 20.1661 41.8322 19.5449C42.8676 18.903 44.0064 18.5821 45.2488 18.5821C46.1392 18.5821 46.9364 18.7788 47.6405 19.1722C48.3445 19.5449 48.9036 20.0523 49.3177 20.6942C49.7525 21.3361 49.97 22.0608 49.97 22.8684C49.97 23.6552 49.649 24.0486 49.0071 24.0486H42.7951C42.5052 24.0486 42.2878 24.1315 42.1428 24.2971C42.0186 24.4628 41.9565 24.7423 41.9565 25.1357C41.9565 25.9226 42.1325 26.6473 42.4845 27.3099C42.8365 27.9518 43.3128 28.4592 43.9133 28.8319C44.5138 29.2046 45.2074 29.391 45.9943 29.391C46.5948 29.391 47.1435 29.2771 47.6405 29.0493C48.1581 28.8215 48.6654 28.5109 49.1624 28.1175C49.2452 28.0554 49.3177 28.0036 49.3798 27.9622C49.4626 27.9001 49.5351 27.869 49.5972 27.869C49.8043 27.869 49.9078 28.0036 49.9078 28.2728C49.9078 28.5006 49.825 28.8112 49.6594 29.2046C49.4523 29.7223 49.1003 30.2399 48.6033 30.7576C48.1271 31.2546 47.5266 31.6583 46.8018 31.9689C46.0771 32.2795 45.2488 32.4348 44.317 32.4348ZM42.7951 22.7441H44.6587C45.2385 22.7441 45.6423 22.7338 45.87 22.7131C46.0978 22.6924 46.3049 22.6509 46.4912 22.5888C46.5948 22.5474 46.6776 22.4439 46.7397 22.2782C46.8018 22.1126 46.8329 21.9262 46.8329 21.7191C46.8329 21.1601 46.6362 20.7045 46.2428 20.3525C45.87 20.0005 45.4041 19.8245 44.8451 19.8245C44.4102 19.8245 43.9961 19.9487 43.6027 20.1972C43.2299 20.425 42.9193 20.7356 42.6709 21.129C42.4431 21.5017 42.3396 21.8951 42.3603 22.3093C42.3603 22.5992 42.5052 22.7441 42.7951 22.7441ZM51.3985 32.1553C51.1707 32.1553 50.974 32.1139 50.8083 32.0311C50.6634 31.9689 50.5909 31.8447 50.5909 31.6583C50.5909 31.4513 50.653 31.3063 50.7773 31.2235C50.9222 31.12 51.1086 31.0371 51.3364 30.975C51.9368 30.8094 52.4545 30.5505 52.8894 30.1985C53.3449 29.8465 53.6866 29.4117 53.9143 28.894C54.432 27.7344 54.9186 26.5956 55.3742 25.4774C55.8297 24.3385 56.2749 23.2204 56.7097 22.1229C57.1446 21.0048 57.5794 19.8762 58.0143 18.7374C58.4491 17.5778 58.8839 16.4079 59.3188 15.2276C59.6294 14.3786 59.8261 13.7678 59.9089 13.3951C59.9917 13.0016 60.0539 12.7739 60.0953 12.7117C60.468 12.6082 60.82 12.515 61.1513 12.4322C61.4826 12.3494 61.8346 12.2355 62.2074 12.0905C62.5801 11.9456 62.8907 11.7592 63.1392 11.5315C63.4083 11.3037 63.6051 11.1277 63.7293 11.0034C63.8121 10.9413 63.8949 10.9103 63.9778 10.9103C64.0606 10.8896 64.1434 10.9517 64.2263 11.0966C64.2884 11.2209 64.3401 11.3555 64.3816 11.5004C64.4437 11.6246 64.4954 11.7696 64.5369 11.9352C64.9717 13.3226 65.4169 14.741 65.8724 16.1905C66.328 17.6192 66.7835 19.048 67.2391 20.4767C67.7153 21.9055 68.1812 23.3239 68.6368 24.732C69.0923 26.1193 69.5375 27.4756 69.9724 28.8008C70.0966 29.215 70.283 29.567 70.5314 29.8569C70.8006 30.1468 71.1009 30.3745 71.4322 30.5402C71.7635 30.7058 72.1362 30.8508 72.5503 30.975C72.7781 31.0371 72.9541 31.12 73.0784 31.2235C73.2233 31.3063 73.2958 31.4409 73.2958 31.6273C73.2958 31.7722 73.2337 31.8861 73.1094 31.9689C72.9852 32.0518 72.8402 32.0932 72.6746 32.0932C72.2604 32.0932 71.7428 32.0725 71.1216 32.0311C70.5211 32.0104 69.9102 31.9896 69.289 31.9689C68.6678 31.9482 68.1191 31.9379 67.6429 31.9379C67.2494 31.9379 66.7628 31.9482 66.183 31.9689C65.624 31.9896 65.0545 32.0104 64.4747 32.0311C63.895 32.0518 63.398 32.0621 62.9839 32.0621C62.7975 32.0621 62.6318 32.0311 62.4869 31.9689C62.3627 31.8861 62.3005 31.7722 62.3005 31.6273C62.3005 31.4409 62.373 31.296 62.518 31.1924C62.6629 31.0889 62.8389 31.0164 63.046 30.975C63.8121 30.8094 64.3712 30.5919 64.7232 30.3228C65.0752 30.0536 65.1891 29.6498 65.0649 29.1114C64.9821 28.718 64.8785 28.3039 64.7543 27.869C64.63 27.4342 64.5058 26.9993 64.3816 26.5645C64.278 26.109 64.1641 25.6741 64.0399 25.26C63.9985 25.0943 63.9467 24.9701 63.8846 24.8873C63.8225 24.8044 63.6982 24.763 63.5119 24.763H58.0143C57.8693 24.763 57.7554 24.8044 57.6726 24.8873C57.5898 24.9701 57.5277 25.1047 57.4862 25.291C57.4034 25.5809 57.3102 25.8708 57.2067 26.1607C57.1032 26.4506 56.9996 26.7405 56.8961 27.0304C56.8133 27.3203 56.7304 27.6102 56.6476 27.9001C56.5648 28.19 56.482 28.4695 56.3991 28.7387C56.2542 29.3599 56.3163 29.8362 56.5855 30.1675C56.8547 30.4988 57.4345 30.768 58.3249 30.975C58.8218 31.0786 59.0703 31.296 59.0703 31.6273C59.0703 31.7722 59.0082 31.8861 58.8839 31.9689C58.7804 32.0311 58.6044 32.0621 58.3559 32.0621C57.7554 32.0621 57.1963 32.0414 56.6787 32C56.161 31.9793 55.5916 31.9689 54.9704 31.9689C54.3492 31.9689 53.759 32 53.2 32.0621C52.6409 32.1242 52.0404 32.1553 51.3985 32.1553ZM58.8839 23.0858H62.9217C63.2323 23.0858 63.3876 23.0133 63.3876 22.8684C63.3876 22.8062 63.3773 22.7545 63.3566 22.7131C63.3566 22.6716 63.3462 22.6199 63.3255 22.5578L61.2445 15.5382C61.1824 15.3104 61.1203 15.1965 61.0581 15.1965C61.0167 15.1965 60.9443 15.3104 60.8407 15.5382L58.387 22.5578C58.3456 22.6406 58.3249 22.7234 58.3249 22.8062C58.3249 22.9098 58.3766 22.9822 58.4802 23.0237C58.6044 23.0651 58.739 23.0858 58.8839 23.0858ZM83.6737 32.5901C83.6116 32.5901 83.5184 32.5177 83.3942 32.3727C83.2906 32.2485 83.2389 32.1449 83.2389 32.0621C83.2803 31.7515 83.3113 31.4616 83.332 31.1924C83.3734 30.9025 83.3942 30.6437 83.3942 30.4159V30.2296C82.98 30.8715 82.4002 31.3995 81.6548 31.8136C80.9301 32.2278 80.1432 32.4348 79.2942 32.4348C78.1347 32.4348 77.0993 32.1449 76.1882 31.5652C75.2978 30.9854 74.5938 30.1985 74.0762 29.2046C73.5585 28.2107 73.2997 27.1236 73.2997 25.9433C73.2997 24.5352 73.6103 23.2825 74.2315 22.185C74.8527 21.0876 75.7223 20.2283 76.8405 19.6071C77.9587 18.9652 79.2528 18.6442 80.723 18.6442C81.0336 18.6442 81.3545 18.6753 81.6859 18.7374C82.0379 18.7788 82.3588 18.8409 82.6487 18.9237C82.9386 18.9859 83.0732 19.0169 83.0525 19.0169C83.1353 19.0169 83.1767 18.8823 83.1767 18.6131V14.917C83.1767 14.1716 83.0836 13.6332 82.8972 13.3019C82.7108 12.9706 82.4002 12.7635 81.9654 12.6807C81.7169 12.6186 81.5927 12.4633 81.5927 12.2148C81.5927 11.9456 81.7066 11.7903 81.9343 11.7489C82.7005 11.5832 83.4873 11.3762 84.2949 11.1277C85.1232 10.8585 85.7961 10.61 86.3138 10.3822C86.583 10.258 86.7693 10.1855 86.8729 10.1648C86.9764 10.1234 87.0385 10.1027 87.0592 10.1027C87.287 10.1027 87.4009 10.2269 87.4009 10.4754C87.4009 10.4133 87.3905 10.4961 87.3698 10.7239C87.3491 10.931 87.3284 11.2105 87.3077 11.5625C87.287 11.9145 87.2663 12.2665 87.2456 12.6186L87.0903 28.2728C87.0903 28.9768 87.1421 29.4841 87.2456 29.7947C87.3491 30.1053 87.5355 30.2606 87.8047 30.2606C87.9082 30.2606 88.0117 30.2503 88.1153 30.2296C88.2395 30.2089 88.5398 30.1882 89.016 30.1675C89.3059 30.1468 89.4509 30.2503 89.4509 30.4781C89.4509 30.6437 89.3887 30.8197 89.2645 31.0061C89.1403 31.1924 89.0264 31.2856 88.9228 31.2856C88.1774 31.3684 87.3905 31.503 86.5623 31.6894C85.7547 31.8758 84.9679 32.1139 84.2017 32.4038C84.0775 32.4659 83.9739 32.5073 83.8911 32.528C83.8083 32.5694 83.7358 32.5901 83.6737 32.5901ZM80.8783 30.3228C81.1889 30.3228 81.572 30.2399 82.0275 30.0743C82.5038 29.9086 82.8868 29.6705 83.1767 29.3599L83.1457 22.4956C83.1457 22.1229 83.0007 21.7606 82.7108 21.4085C82.4416 21.0358 82.0896 20.7252 81.6548 20.4767C81.2407 20.2283 80.8265 20.104 80.4124 20.104C79.9154 20.104 79.4495 20.3111 79.0147 20.7252C78.6006 21.1186 78.2589 21.6881 77.9897 22.4335C77.7412 23.1583 77.617 24.0486 77.617 25.1047C77.617 25.9537 77.6998 26.6991 77.8655 27.341C78.0518 27.9829 78.3003 28.5316 78.6109 28.9872C78.9215 29.422 79.2735 29.7533 79.667 29.9811C80.0604 30.2089 80.4642 30.3228 80.8783 30.3228ZM96.6609 32.6523C96.5367 32.6523 96.4021 32.5177 96.2571 32.2485C96.1329 31.9793 95.9879 31.6583 95.8223 31.2856C95.6566 30.9129 95.4806 30.4988 95.2943 30.0432C95.1079 29.567 94.9319 29.1425 94.7662 28.7698C94.2486 27.5481 93.7102 26.3574 93.1511 25.1979C92.592 24.0383 92.0433 22.858 91.5049 21.657C91.3186 21.2015 91.1012 20.8184 90.8527 20.5078C90.6042 20.1765 90.2936 19.9487 89.9209 19.8245C89.7138 19.7417 89.5689 19.6588 89.486 19.576C89.4032 19.4725 89.3618 19.3379 89.3618 19.1722C89.3618 19.0066 89.4446 18.903 89.6103 18.8616C89.7966 18.8202 89.9623 18.7995 90.1072 18.7995C90.6042 18.7995 90.9873 18.8202 91.2565 18.8616C91.5464 18.8823 91.8259 18.9134 92.0951 18.9548C92.3643 18.9755 92.7266 18.9859 93.1822 18.9859C93.617 18.9859 94.0001 18.9755 94.3314 18.9548C94.6834 18.9134 95.0354 18.8823 95.3874 18.8616C95.7602 18.8202 96.1847 18.7995 96.6609 18.7995C96.8059 18.7995 96.9612 18.8306 97.1268 18.8927C97.3132 18.9548 97.4063 19.0583 97.4063 19.2033C97.4063 19.3896 97.3339 19.5139 97.1889 19.576C97.044 19.6381 96.8783 19.7106 96.692 19.7934C96.4849 19.8762 96.3089 20.0315 96.1639 20.2593C96.0397 20.4871 95.9776 20.777 95.9776 21.129C95.9776 21.3154 95.9776 21.4914 95.9776 21.657C95.9776 21.802 96.019 21.9573 96.1018 22.1229L98.1828 27.2478C98.2036 27.2478 98.2139 27.2478 98.2139 27.2478C98.2346 27.2478 98.2553 27.2478 98.276 27.2478L100.109 22.3403C100.191 22.154 100.243 21.978 100.264 21.8123C100.285 21.6467 100.295 21.4914 100.295 21.3464C100.295 20.9737 100.212 20.6631 100.046 20.4146C99.9015 20.1454 99.653 19.9487 99.301 19.8245C99.1146 19.7624 98.949 19.7002 98.804 19.6381C98.6798 19.5553 98.6177 19.4207 98.6177 19.2343C98.6177 19.0894 98.7005 18.9859 98.8662 18.9237C99.0318 18.8616 99.1871 18.8306 99.3321 18.8306C99.8911 18.8513 100.305 18.872 100.574 18.8927C100.864 18.9134 101.165 18.9237 101.475 18.9237C101.786 18.9237 102.086 18.9134 102.376 18.8927C102.666 18.872 103.08 18.8513 103.618 18.8306C103.763 18.8306 103.919 18.8513 104.084 18.8927C104.271 18.9341 104.364 19.0376 104.364 19.2033C104.364 19.4932 104.167 19.7106 103.774 19.8555C103.401 19.9798 103.049 20.2179 102.718 20.5699C102.407 20.9012 102.148 21.305 101.941 21.7813L99.5184 27.869C99.477 28.014 99.4045 28.19 99.301 28.397C99.2182 28.6041 99.125 28.8215 99.0215 29.0493C98.9386 29.2564 98.8558 29.4531 98.773 29.6394C98.6902 29.8258 98.6073 29.9915 98.5245 30.1364C98.4624 30.2813 98.3589 30.5195 98.2139 30.8508C98.069 31.1821 97.924 31.5134 97.7791 31.8447C97.6341 32.176 97.4995 32.4452 97.3753 32.6523H96.6609ZM105.37 32.0932C105.246 32.0932 105.132 32.0621 105.028 32C104.925 31.9172 104.873 31.8136 104.873 31.6894C104.873 31.5237 104.925 31.3892 105.028 31.2856C105.132 31.1821 105.267 31.1096 105.432 31.0682C105.971 30.944 106.343 30.8094 106.55 30.6644C106.778 30.4988 106.892 30.2503 106.892 29.919V23.21C106.892 22.506 106.778 22.009 106.55 21.7191C106.343 21.4085 106.012 21.2222 105.556 21.1601C105.432 21.1394 105.339 21.0772 105.277 20.9737C105.215 20.8702 105.184 20.7459 105.184 20.601C105.184 20.2904 105.298 20.1144 105.525 20.073C106.602 19.8659 107.555 19.576 108.383 19.2033C109.232 18.8306 109.884 18.5407 110.34 18.3336C110.671 18.1679 110.878 18.0851 110.961 18.0851C111.23 18.0851 111.365 18.2094 111.365 18.4578C111.344 18.8099 111.292 19.255 111.209 19.7934C111.147 20.3111 111.085 20.8495 111.023 21.4085C110.982 21.9676 110.961 22.506 110.961 23.0237V29.8879C110.961 30.1778 111.064 30.4056 111.271 30.5712C111.499 30.7369 111.893 30.9025 112.452 31.0682C112.617 31.1303 112.752 31.2028 112.856 31.2856C112.959 31.3684 113.011 31.4927 113.011 31.6583C113.011 31.9275 112.856 32.0621 112.545 32.0621C112.152 32.0621 111.737 32.0518 111.303 32.0311C110.868 32.0104 110.443 31.9896 110.029 31.9689C109.636 31.9482 109.253 31.9379 108.88 31.9379C108.528 31.9379 108.155 31.9482 107.762 31.9689C107.389 31.9896 106.996 32.0104 106.581 32.0311C106.188 32.0725 105.784 32.0932 105.37 32.0932ZM108.787 16.6874C108.145 16.6874 107.575 16.4493 107.078 15.973C106.602 15.4968 106.364 14.9274 106.364 14.2647C106.364 13.5607 106.602 12.9706 107.078 12.4943C107.575 12.0181 108.145 11.7799 108.787 11.7799C109.511 11.7799 110.112 12.0181 110.588 12.4943C111.064 12.9706 111.303 13.5607 111.303 14.2647C111.303 14.9274 111.064 15.4968 110.588 15.973C110.112 16.4493 109.511 16.6874 108.787 16.6874ZM119.935 32.4348C118.837 32.4348 117.843 32.1449 116.953 31.5652C116.083 30.9647 115.39 30.1675 114.872 29.1735C114.375 28.1589 114.127 27.02 114.127 25.7569C114.127 24.411 114.437 23.1997 115.058 22.1229C115.68 21.0462 116.508 20.1868 117.543 19.5449C118.599 18.903 119.769 18.5821 121.053 18.5821C122.751 18.5821 124.159 19.1412 125.277 20.2593C125.463 20.4664 125.557 20.6527 125.557 20.8184C125.557 20.9426 125.463 21.129 125.277 21.3775C125.091 21.6053 124.884 21.8123 124.656 21.9987C124.428 22.185 124.231 22.2782 124.066 22.2782C123.879 22.2782 123.693 22.2265 123.507 22.1229C123.341 21.9987 123.175 21.8641 123.01 21.7191C122.471 21.2636 121.923 20.9012 121.364 20.632C120.825 20.3421 120.359 20.1972 119.966 20.1972C119.179 20.1972 118.579 20.5285 118.164 21.1911C117.771 21.833 117.574 22.8891 117.574 24.3592C117.574 25.3739 117.73 26.2539 118.04 26.9993C118.371 27.7241 118.837 28.2832 119.438 28.6766C120.038 29.07 120.763 29.2667 121.612 29.2667C122.233 29.2667 122.772 29.1735 123.227 28.9872C123.683 28.7801 124.159 28.4695 124.656 28.0554C124.759 27.9933 124.842 27.9311 124.904 27.869C124.987 27.8069 125.08 27.7758 125.184 27.7758C125.432 27.7758 125.557 27.9415 125.557 28.2728C125.557 28.3556 125.536 28.4799 125.495 28.6455C125.474 28.7905 125.412 28.9561 125.308 29.1425C125.122 29.5566 124.759 30.0225 124.221 30.5402C123.703 31.0578 123.082 31.503 122.357 31.8758C121.633 32.2485 120.825 32.4348 119.935 32.4348ZM132.614 32.4348C131.495 32.4348 130.491 32.1449 129.601 31.5652C128.731 30.9647 128.037 30.1571 127.52 29.1425C127.023 28.1071 126.774 26.9372 126.774 25.6327C126.774 24.3282 127.075 23.1479 127.675 22.0919C128.276 21.0151 129.093 20.1661 130.129 19.5449C131.164 18.903 132.303 18.5821 133.545 18.5821C134.436 18.5821 135.233 18.7788 135.937 19.1722C136.641 19.5449 137.2 20.0523 137.614 20.6942C138.049 21.3361 138.267 22.0608 138.267 22.8684C138.267 23.6552 137.946 24.0486 137.304 24.0486H131.092C130.802 24.0486 130.584 24.1315 130.439 24.2971C130.315 24.4628 130.253 24.7423 130.253 25.1357C130.253 25.9226 130.429 26.6473 130.781 27.3099C131.133 27.9518 131.609 28.4592 132.21 28.8319C132.81 29.2046 133.504 29.391 134.291 29.391C134.891 29.391 135.44 29.2771 135.937 29.0493C136.455 28.8215 136.962 28.5109 137.459 28.1175C137.542 28.0554 137.614 28.0036 137.676 27.9622C137.759 27.9001 137.832 27.869 137.894 27.869C138.101 27.869 138.204 28.0036 138.204 28.2728C138.204 28.5006 138.122 28.8112 137.956 29.2046C137.749 29.7223 137.397 30.2399 136.9 30.7576C136.424 31.2546 135.823 31.6583 135.098 31.9689C134.374 32.2795 133.545 32.4348 132.614 32.4348ZM131.092 22.7441H132.955C133.535 22.7441 133.939 22.7338 134.167 22.7131C134.394 22.6924 134.601 22.6509 134.788 22.5888C134.891 22.5474 134.974 22.4439 135.036 22.2782C135.098 22.1126 135.129 21.9262 135.129 21.7191C135.129 21.1601 134.933 20.7045 134.539 20.3525C134.167 20.0005 133.701 19.8245 133.142 19.8245C132.707 19.8245 132.293 19.9487 131.899 20.1972C131.526 20.425 131.216 20.7356 130.967 21.129C130.74 21.5017 130.636 21.8951 130.657 22.3093C130.657 22.5992 130.802 22.7441 131.092 22.7441Z" fill="#F4801C"/>
</svg>
