<svg width="33" height="33" viewBox="0 0 33 33" fill="none" xmlns="http://www.w3.org/2000/svg">
<mask id="mask0_2466_28790" style="mask-type:alpha" maskUnits="userSpaceOnUse" x="0" y="0" width="33" height="33">
<circle cx="16.5" cy="16.5" r="16.5" fill="#D9D9D9"/>
</mask>
<g mask="url(#mask0_2466_28790)">
<path d="M-69.7344 125.565H151.649V-40.4723H-69.7344V125.565Z" fill="white"/>
<mask id="mask1_2466_28790" style="mask-type:luminance" maskUnits="userSpaceOnUse" x="-70" y="-41" width="222" height="167">
<path d="M-69.7324 -40.4718H151.651V125.566H-69.7324V-40.4718Z" fill="white"/>
</mask>
<g mask="url(#mask1_2466_28790)">
</g>
<mask id="mask2_2466_28790" style="mask-type:luminance" maskUnits="userSpaceOnUse" x="-70" y="-41" width="222" height="167">
<path d="M-69.7324 -40.4718H151.651V125.566H-69.7324V-40.4718Z" fill="white"/>
</mask>
<g mask="url(#mask2_2466_28790)">
</g>
<mask id="mask3_2466_28790" style="mask-type:luminance" maskUnits="userSpaceOnUse" x="-70" y="-41" width="222" height="167">
<path d="M-69.7324 -40.4718H151.651V125.566H-69.7324V-40.4718Z" fill="white"/>
</mask>
<g mask="url(#mask3_2466_28790)">
<path d="M33.2095 16.5339C33.2095 25.7039 25.7757 33.1377 16.6057 33.1377C7.43574 33.1377 0.00195312 25.7039 0.00195312 16.5339C0.00195312 7.36394 7.43574 -0.0698509 16.6057 -0.0698509C25.7757 -0.0698509 33.2095 7.36394 33.2095 16.5339Z" fill="#1D1433"/>
</g>
<mask id="mask4_2466_28790" style="mask-type:luminance" maskUnits="userSpaceOnUse" x="0" y="-1" width="34" height="35">
<path d="M0.00195312 16.5339C0.00195312 25.7039 7.43574 33.1377 16.6057 33.1377C25.7757 33.1377 33.2095 25.7039 33.2095 16.5339C33.2095 7.36394 25.7757 -0.0698509 16.6057 -0.0698509C7.43574 -0.0698509 0.00195312 7.36394 0.00195312 16.5339Z" fill="white"/>
</mask>
<g mask="url(#mask4_2466_28790)">
<path d="M26.5671 34.2451H6.64258V29.8174C6.64258 24.9268 10.6073 20.9621 15.4979 20.9621H17.7118C22.6024 20.9621 26.5671 24.9268 26.5671 29.8174V34.2451Z" fill="#F0EBFF"/>
<path d="M21.5858 40.8867H8.30273V34.2452C8.30273 30.5772 11.2762 27.6037 14.9442 27.6037C18.6123 27.6037 21.5858 30.5772 21.5858 34.2452V40.8867Z" fill="#DED4FF"/>
</g>
<mask id="mask5_2466_28790" style="mask-type:luminance" maskUnits="userSpaceOnUse" x="-70" y="-41" width="222" height="167">
<path d="M-69.7324 -40.4718H151.651V125.566H-69.7324V-40.4718Z" fill="white"/>
</mask>
<g mask="url(#mask5_2466_28790)">
<path d="M26.5691 24.2827H6.64453V14.3205C6.64453 8.84121 11.1276 4.35819 16.6068 4.35819C22.086 4.35819 26.5691 8.84121 26.5691 14.3205V24.2827Z" fill="#F0EBFF"/>
<path d="M16.6063 19.8555H11.0717C8.02768 19.8555 5.53711 17.3649 5.53711 14.3209C5.53711 11.2769 8.02768 8.78629 11.0717 8.78629H16.6063C19.6503 8.78629 22.1409 11.2769 22.1409 14.3209C22.1409 17.3649 19.6503 19.8555 16.6063 19.8555Z" fill="#3E257A"/>
<path d="M7.75095 14.3209C7.75095 11.2769 10.2415 8.78629 13.2855 8.78629H11.0717C8.02768 8.78629 5.53711 11.2769 5.53711 14.3209C5.53711 17.3649 8.02768 19.8555 11.0717 19.8555H13.2855C10.2415 19.8555 7.75095 17.3649 7.75095 14.3209Z" fill="#50338F"/>
<path d="M15.4988 22.0688H14.9453V20.9619H15.4988C15.8032 20.9619 16.0522 21.211 16.0522 21.5154C16.0522 21.8198 15.8032 22.0688 15.4988 22.0688Z" fill="#1D1433"/>
<path d="M26.5686 26.4966H6.64403C6.03522 26.4966 5.53711 25.9985 5.53711 25.3897C5.53711 24.7809 6.03522 24.2827 6.64403 24.2827H26.5686C27.1774 24.2827 27.6755 24.7809 27.6755 25.3897C27.6755 25.9985 27.1774 26.4966 26.5686 26.4966Z" fill="#A385FF"/>
<path d="M18.8213 14.3203C18.8213 14.9316 18.3256 15.4272 17.7143 15.4272C17.103 15.4272 16.6074 14.9316 16.6074 14.3203C16.6074 13.709 17.103 13.2134 17.7143 13.2134C18.3256 13.2134 18.8213 13.709 18.8213 14.3203Z" fill="#1D1433"/>
<path d="M23.8022 28.7107C23.8022 29.0162 23.5543 29.2642 23.2488 29.2642C22.9433 29.2642 22.6953 29.0162 22.6953 28.7107C22.6953 28.4052 22.9433 28.1572 23.2488 28.1572C23.5543 28.1572 23.8022 28.4052 23.8022 28.7107Z" fill="#F5463A"/>
<path d="M21.5874 28.7102C21.5874 29.0157 21.3394 29.2637 21.0339 29.2637C20.7284 29.2637 20.4805 29.0157 20.4805 28.7102C20.4805 28.4047 20.7284 28.1568 21.0339 28.1568C21.3394 28.1568 21.5874 28.4047 21.5874 28.7102Z" fill="#FFC036"/>
<path d="M14.3916 14.3203C14.3916 14.9316 13.8959 15.4272 13.2847 15.4272C12.6734 15.4272 12.1777 14.9316 12.1777 14.3203C12.1777 13.709 12.6734 13.2134 13.2847 13.2134C13.8959 13.2134 14.3916 13.709 14.3916 14.3203Z" fill="#1D1433"/>
<path d="M26.5688 18.748H25.4619C24.2443 18.748 23.248 17.7518 23.248 16.5342V14.3204C23.248 13.1028 24.2443 12.1065 25.4619 12.1065H26.5688C27.7864 12.1065 28.7826 13.1028 28.7826 14.3204V16.5342C28.7826 17.7518 27.7864 18.748 26.5688 18.748Z" fill="#A385FF"/>
<path d="M26.5674 18.748C25.3497 18.748 24.3535 17.7518 24.3535 16.5342V14.3204C24.3535 13.1028 25.3497 12.1065 26.5674 12.1065C27.785 12.1065 28.7812 13.1028 28.7812 14.3204V16.5342C28.7812 17.7518 27.785 18.748 26.5674 18.748Z" fill="#F0EBFF"/>
<path d="M26.5691 15.981C26.2633 15.981 26.0156 15.733 26.0156 15.4275V7.67907C26.0156 7.37356 26.2633 7.12561 26.5691 7.12561C26.8749 7.12561 27.1225 7.37356 27.1225 7.67907V15.4275C27.1225 15.733 26.8749 15.981 26.5691 15.981Z" fill="#A385FF"/>
<path d="M26.5679 8.78564C25.9591 8.78564 25.4609 8.28753 25.4609 7.67873C25.4609 7.06992 25.9591 6.57181 26.5679 6.57181C27.1767 6.57181 27.6748 7.06992 27.6748 7.67873C27.6748 8.28753 27.1767 8.78564 26.5679 8.78564Z" fill="#DED4FF"/>
<path d="M13.8374 22.0688H12.7305V20.9619H13.8374V22.0688Z" fill="#1D1433"/>
<path d="M12.7319 22.0688H12.1785C11.8729 22.0688 11.625 21.8209 11.625 21.5154C11.625 21.2099 11.8729 20.9619 12.1785 20.9619H12.7319V22.0688Z" fill="#1D1433"/>
<path d="M14.9448 22.0688H13.8379V20.9619H14.9448V22.0688Z" fill="#1D1433"/>
</g>
<mask id="mask6_2466_28790" style="mask-type:luminance" maskUnits="userSpaceOnUse" x="-70" y="-41" width="222" height="167">
<path d="M-69.7324 -40.4718H151.651V125.566H-69.7324V-40.4718Z" fill="white"/>
</mask>
<g mask="url(#mask6_2466_28790)">
</g>
</g>
</svg>
