<svg width="195" height="6" viewBox="0 0 195 6" fill="none" xmlns="http://www.w3.org/2000/svg">
<path d="M195 3.69467C195.005 5.59454 191.528 4.50344 187.478 4.52334C176.379 4.57572 152.615 3.56372 126.135 2.9409C124.59 2.90476 108.529 3.34319 83.3011 4.09329C58.0733 4.84339 23.4847 6.29331 25.2206 5.94759C26.4965 5.69302 48.2214 3.51133 71.0955 2.42494C94.8051 1.29874 119.662 1.27255 119.43 1.26627C114.395 1.1725 109.33 1.10912 104.338 1.08241C75.3514 0.934693 49.5045 3.72819 40.493 3.72819C24.8438 3.72819 11.3001 4.79363 4.54097 5.00368C1.89734 5.08592 0.19398 5.4023 0.0276227 4.64644C-0.138735 3.89058 -0.783912 2.33485 40.493 1.0845C58.4075 0.540785 90.3554 -0.346556 120.194 0.141639C149.113 0.617262 188.095 2.60357 188.156 2.60828C188.576 2.69471 194.994 1.7948 195 3.69467Z" fill="#F4801C"/>
</svg>
