<svg width="20" height="21" viewBox="0 0 20 21" fill="none" xmlns="http://www.w3.org/2000/svg">
<path d="M9 2.60498H5.8C4.11984 2.60498 3.27976 2.60498 2.63803 2.93196C2.07354 3.21958 1.6146 3.67852 1.32698 4.24301C1 4.88474 1 5.72482 1 7.40498V14.805C1 16.4851 1 17.3252 1.32698 17.967C1.6146 18.5314 2.07354 18.9904 2.63803 19.278C3.27976 19.605 4.11984 19.605 5.8 19.605H13.2C14.8802 19.605 15.7202 19.605 16.362 19.278C16.9265 18.9904 17.3854 18.5314 17.673 17.967C18 17.3252 18 16.4851 18 14.805V11.605M18.1213 2.48366C19.2929 3.65523 19.2929 5.55473 18.1213 6.7263C16.9497 7.89787 15.0503 7.89787 13.8787 6.7263C12.7071 5.55473 12.7071 3.65523 13.8787 2.48366C15.0503 1.31209 16.9497 1.31209 18.1213 2.48366Z" stroke="#F4801C" stroke-width="2" stroke-linecap="round" stroke-linejoin="round"/>
</svg>
