<svg width="20" height="21" viewBox="0 0 20 21" fill="none" xmlns="http://www.w3.org/2000/svg">
<path d="M9 2.02148H5.8C4.11984 2.02148 3.27976 2.02148 2.63803 2.34846C2.07354 2.63608 1.6146 3.09503 1.32698 3.65951C1 4.30125 1 5.14133 1 6.82148V14.2215C1 15.9016 1 16.7417 1.32698 17.3835C1.6146 17.9479 2.07354 18.4069 2.63803 18.6945C3.27976 19.0215 4.11984 19.0215 5.8 19.0215H13.2C14.8802 19.0215 15.7202 19.0215 16.362 18.6945C16.9265 18.4069 17.3854 17.9479 17.673 17.3835C18 16.7417 18 15.9016 18 14.2215V11.0215M11 15.0215H5M13 11.0215H5M18.1213 1.90016C19.2929 3.07174 19.2929 4.97123 18.1213 6.1428C16.9497 7.31438 15.0503 7.31438 13.8787 6.1428C12.7071 4.97123 12.7071 3.07174 13.8787 1.90016C15.0503 0.728591 16.9497 0.728591 18.1213 1.90016Z" stroke="#F4801C" stroke-width="2" stroke-linecap="round" stroke-linejoin="round"/>
</svg>
