<svg width="97" height="81" viewBox="0 0 97 81" fill="none" xmlns="http://www.w3.org/2000/svg">
<path fill-rule="evenodd" clip-rule="evenodd" d="M54.7352 80.8076C77.8656 80.8076 96.7285 79.482 96.7285 77.8228C96.7285 76.1636 77.8656 74.8076 54.7352 74.8076C31.5914 74.8076 12.7285 76.1636 12.7285 77.8228C12.7285 79.482 31.5914 80.8076 54.7352 80.8076Z" fill="#F78B31" fill-opacity="0.4"/>
<path fill-rule="evenodd" clip-rule="evenodd" d="M94.281 27.9838C90.298 33.5937 83.0914 37.676 74.5902 38.4096C66.0847 39.1432 58.2955 36.3469 53.4062 31.5008C57.3936 25.8908 64.5959 21.8085 73.0971 21.0749C81.6026 20.3456 89.4004 23.1377 94.281 27.9838Z" fill="#38C551"/>
<path d="M53.25 31.5183L53.3104 31.4363C57.4704 25.5847 64.8625 21.6707 73.0876 20.963C81.3169 20.2553 89.27 22.8488 94.3664 27.9064L94.4398 27.9754L94.3794 28.0574C90.2237 33.909 82.8316 37.823 74.6022 38.5307C66.3772 39.2384 58.4241 36.6449 53.3234 31.5873L53.25 31.5183ZM94.1248 28.0013C89.0759 23.043 81.2306 20.5012 73.1091 21.2003C64.992 21.8994 57.6948 25.7444 53.565 31.4924C58.6183 36.4507 66.4635 38.9924 74.5807 38.2933C82.7021 37.5943 89.9993 33.7493 94.1248 28.0013Z" fill="#38C551"/>
<path d="M53.2893 31.5134C53.285 31.4487 53.3325 31.3883 53.3972 31.384L94.272 27.867C94.3367 27.8627 94.3972 27.9101 94.4015 27.9749C94.4058 28.0396 94.3583 28.1 94.2936 28.1043L53.4188 31.6213C53.3541 31.6256 53.2937 31.5782 53.2893 31.5134Z" fill="white"/>
<path d="M87.0567 28.6097C87.0567 28.5882 87.0567 28.5666 87.0697 28.545C87.0999 28.4846 87.1732 28.463 87.2293 28.4932L91.8122 30.8235C91.8726 30.8537 91.8942 30.9271 91.864 30.9832C91.8338 31.0436 91.7604 31.0652 91.7043 31.035L87.1215 28.7047C87.0826 28.6831 87.061 28.6486 87.0567 28.6097ZM81.874 29.0542C81.8697 29.0197 81.8826 28.9852 81.9085 28.9593L87.4063 23.3062C87.4537 23.2587 87.5271 23.2587 87.5746 23.3019C87.622 23.3494 87.622 23.4227 87.5789 23.4702L82.0812 29.1233C82.0591 29.1456 82.0293 29.1586 81.9979 29.1594C81.9665 29.1602 81.936 29.1488 81.9129 29.1276C81.887 29.1103 81.8783 29.0801 81.874 29.0542ZM76.3935 29.5246C76.3892 29.4944 76.3979 29.4642 76.4194 29.4383C76.4626 29.3865 76.536 29.3822 76.5877 29.4253L84.2906 35.8811C84.3424 35.9242 84.3467 35.9976 84.3035 36.0494C84.2604 36.1011 84.187 36.1055 84.1353 36.0623L76.4324 29.6066C76.4108 29.585 76.3979 29.5548 76.3935 29.5246ZM67.8837 30.2582C67.8794 30.2237 67.8924 30.1892 67.9182 30.1633L77.3947 20.9241C77.4422 20.8767 77.5155 20.881 77.563 20.9285C77.6105 20.9759 77.6062 21.0493 77.563 21.0968L68.0865 30.3359C68.0391 30.3833 67.9657 30.379 67.9182 30.3316C67.8967 30.31 67.8837 30.2841 67.8837 30.2582ZM61.8207 30.7804C61.8164 30.7501 61.825 30.7199 61.8466 30.694C61.8897 30.6423 61.9631 30.6379 62.0149 30.6811L71.2238 38.4271C71.2756 38.4703 71.2799 38.5436 71.2367 38.5954C71.1936 38.6472 71.1202 38.6515 71.0684 38.6084L61.8595 30.8623C61.8379 30.8408 61.825 30.8106 61.8207 30.7804ZM57.419 31.1601C57.4147 31.1299 57.4234 31.0997 57.4449 31.0738L63.6072 23.3494C63.6504 23.2976 63.7237 23.2889 63.7755 23.3321C63.8273 23.3752 63.8359 23.4486 63.7928 23.5004L57.6305 31.2248C57.5873 31.2766 57.514 31.2852 57.4622 31.2421C57.4363 31.2205 57.4234 31.1903 57.419 31.1601Z" fill="white"/>
<path fill-rule="evenodd" clip-rule="evenodd" d="M77.124 0.374512C78.8113 7.04601 77.2534 15.1761 72.2994 22.1281C67.3454 29.0801 60.1691 33.2012 53.3077 33.7838C51.6204 27.1123 53.1782 18.9822 58.1322 12.0302C63.0905 5.07822 70.2669 0.952766 77.124 0.374512Z" fill="#61EA75"/>
<path d="M53.217 33.9091L53.1911 33.8098C51.4305 26.8492 53.2429 18.6803 58.0329 11.9613C62.8316 5.23371 69.9648 0.857973 77.1153 0.258142L77.2146 0.249512L77.2404 0.348764C79.0011 7.30507 77.193 15.474 72.3986 22.1973C67.6086 28.9205 60.4754 33.2963 53.3206 33.9004L53.217 33.9091ZM77.0333 0.504116C69.9864 1.13415 62.9653 5.46243 58.2314 12.0994C53.5018 18.7321 51.698 26.7845 53.3983 33.6545C60.4495 33.0201 67.4705 28.6918 72.2001 22.0592C76.9341 15.4179 78.7379 7.3698 77.0333 0.504116Z" fill="#61EA75"/>
<path d="M53.2399 33.8781C53.1881 33.8392 53.1752 33.7659 53.214 33.7098L77.0303 0.304822C77.0691 0.253038 77.1425 0.240092 77.1986 0.27893C77.2504 0.317768 77.2633 0.391128 77.2245 0.447228L53.4082 33.8522C53.3693 33.904 53.296 33.9169 53.2399 33.8781Z" fill="white"/>
<path d="M72.9125 6.28207C72.8953 6.26912 72.8823 6.25186 72.8737 6.23029C72.8478 6.16987 72.878 6.10083 72.9384 6.07493L77.681 4.09851C77.7414 4.07262 77.8104 4.10283 77.8363 4.16324C77.8622 4.22366 77.832 4.2927 77.7716 4.3186L73.0291 6.29502C72.9859 6.31228 72.9428 6.30796 72.9125 6.28207ZM69.8918 10.5197C69.8659 10.5025 69.8443 10.4679 69.8443 10.4334L69.1021 2.58383C69.0978 2.5191 69.1453 2.45869 69.21 2.45437C69.2747 2.45006 69.3351 2.49753 69.3394 2.56226L70.0817 10.4118C70.086 10.4766 70.0385 10.537 69.9738 10.5413C69.9436 10.5413 69.9134 10.537 69.8918 10.5197ZM66.6985 14.9947C66.6726 14.9775 66.6553 14.9516 66.651 14.917C66.6381 14.8523 66.6855 14.7919 66.7503 14.779L76.6582 13.096C76.723 13.083 76.7834 13.1305 76.7963 13.1952C76.8093 13.26 76.7618 13.3204 76.6971 13.3333L66.7891 15.0163C66.7589 15.0206 66.7244 15.0163 66.6985 14.9947ZM61.7402 21.9553C61.7143 21.9338 61.6927 21.9036 61.6884 21.8647L60.7951 8.65981C60.7908 8.59508 60.8383 8.53899 60.9073 8.53467C60.972 8.53035 61.0281 8.57782 61.0324 8.64687L61.9257 21.8518C61.93 21.9165 61.8826 21.9726 61.8135 21.9769C61.7919 21.9769 61.7617 21.9683 61.7402 21.9553ZM58.2102 26.9093C58.1843 26.8921 58.1671 26.8662 58.1627 26.8317C58.1498 26.7669 58.1973 26.7065 58.262 26.6936L70.1292 24.6999C70.1939 24.6869 70.2543 24.7344 70.2672 24.7991C70.2802 24.8639 70.2327 24.9243 70.168 24.9372L58.3008 26.9309C58.2663 26.9352 58.2361 26.9266 58.2102 26.9093ZM55.6469 30.504C55.621 30.4867 55.6038 30.4609 55.5994 30.4306L53.7093 20.7298C53.6964 20.6651 53.7395 20.6046 53.8043 20.5917C53.869 20.5788 53.9294 20.6219 53.9424 20.6866L55.8325 30.3875C55.8454 30.4522 55.8023 30.5126 55.7375 30.5256C55.703 30.5299 55.6685 30.5213 55.6469 30.504Z" fill="white"/>
<path fill-rule="evenodd" clip-rule="evenodd" d="M36.8659 33.6719C36.745 29.9046 33.2496 22.8749 28.4294 19.7722C26.9579 18.8099 21.8701 15.5173 20.0361 18.5165C20.3252 20.6051 24.3859 22.9915 20.8948 24.778C18.9486 25.1319 20.4201 19.8499 18.6767 19.0386C16.1738 18.2662 11.345 19.3795 10.236 22.1845C10.5078 23.4791 17.2397 26.7458 16.45 28.2777C15.3453 29.5335 12.6482 25.4685 10.7495 24.0617C8.68675 22.8491 6.17092 25.8525 4.45342 27.5226C7.50867 27.7987 9.9382 28.6057 9.65339 29.65C8.66518 32.0623 6.10187 27.2464 4.45342 27.5226C1.96347 29.9435 0.353857 29.5853 0 31.5574C1.05726 33.7409 1.60099 34.7248 3.53857 35.9806C7.81074 38.5957 12.385 32.1529 13.2178 33.6417C13.3042 35.1736 7.61655 36.5761 7.60792 37.5125C7.2627 39.4329 10.5941 41.6855 12.1951 41.0856C14.5685 40.1967 18.2193 34.5695 19.3672 35.3376C20.8258 36.2913 13.7961 40.9432 14.6074 43.8345C15.5007 46.1475 18.8407 47.4119 21.2098 47.8736C24.2867 49.1337 24.3471 37.3183 25.5424 37.3313C28.1834 39.0315 22.2369 48.9482 27.2211 48.8489C29.8923 48.5641 31.7824 46.6395 33.5172 44.6544C36.184 41.5948 37.0255 36.3517 36.8659 33.6719ZM18.4092 40.2312C18.3747 39.8169 18.7199 39.4458 19.1859 39.407C19.6477 39.3724 20.0533 39.6831 20.0879 40.0974C20.1181 40.516 19.7685 40.8871 19.3068 40.9216C18.845 40.9605 18.4394 40.6498 18.4092 40.2312ZM20.6532 30.539C21.6629 31.3157 21.5292 29.4558 21.0761 28.925C20.6488 28.1699 19.8419 27.1816 18.8839 27.3456C18.4049 28.3382 19.419 29.5292 20.6532 30.539ZM25.9308 29.6025C24.0709 29.7363 23.6437 25.9345 24.455 25.3088C25.3482 24.9895 27.1909 29.1581 25.9308 29.6025ZM28.8954 37.9959C28.9343 38.6949 29.6636 37.97 29.7197 37.5945C29.888 37.1457 30.0088 36.451 29.5945 36.1144C29.012 36.2611 28.8739 37.1112 28.8954 37.9959ZM13.1186 35.4757C13.2524 34.7033 14.1759 34.1552 14.8793 33.9222C15.328 34.3062 14.7153 34.9233 14.3657 35.3462C14.0076 35.8296 13.2222 36.0194 13.1186 35.4757Z" fill="#0EBAA0"/>
<path d="M48.5846 36.6784C48.5242 36.7043 48.4508 36.7086 48.3818 36.687C33.8305 32.5702 19.5683 31.1462 4.7754 32.3286C4.60278 32.3415 4.45175 32.212 4.43449 32.0394C4.42154 31.8668 4.551 31.7158 4.72361 31.6985C12.5171 31.0728 20.3624 31.1893 28.0436 32.0394C34.8489 32.7946 41.7491 34.1539 48.5544 36.0786C48.7227 36.126 48.8176 36.2987 48.7702 36.467C48.7443 36.5662 48.6709 36.6439 48.5846 36.6784Z" fill="#16888C"/>
<path d="M15.8764 31.9148C15.7253 31.9752 15.5484 31.9062 15.475 31.7552C14.2063 29.071 12.0616 27.4312 9.10131 26.8832C8.9287 26.8529 8.8165 26.689 8.84671 26.5163C8.87691 26.3437 9.04089 26.2315 9.21351 26.2617C10.7239 26.5422 12.0616 27.0989 13.1793 27.9188C14.3833 28.8035 15.3456 30.0031 16.0447 31.4833C16.118 31.6386 16.0533 31.8285 15.8936 31.9019C15.8893 31.9105 15.8807 31.9148 15.8764 31.9148Z" fill="#16888C"/>
<path d="M29.9996 32.8684C29.9565 32.8857 29.909 32.8943 29.8572 32.89C29.6846 32.877 29.5552 32.726 29.5681 32.5491C29.9867 27.3232 27.7384 22.982 23.0692 19.9958C22.9225 19.9009 22.8793 19.7067 22.9743 19.5599C23.0692 19.4132 23.2634 19.3701 23.4101 19.465C28.2865 22.585 30.634 27.1247 30.1981 32.6009C30.1895 32.726 30.1075 32.8296 29.9996 32.8684Z" fill="#16888C"/>
<path d="M19.2224 44.0023C19.1058 44.0498 18.9634 44.0196 18.8728 43.9203C18.7563 43.7909 18.7649 43.5924 18.8944 43.4759C22.174 40.5155 23.4169 37.1755 23.1752 31.9582C23.1666 31.7856 23.3003 31.6389 23.4773 31.6303C23.6499 31.6216 23.7966 31.7554 23.8052 31.9324C23.9261 34.5474 23.6974 36.6102 23.0846 38.414C22.3855 40.4767 21.1556 42.2848 19.313 43.9462C19.2871 43.9678 19.2569 43.9894 19.2224 44.0023Z" fill="#16888C"/>
<path d="M28.2931 46.1463C28.1766 46.1938 28.0342 46.1636 27.9436 46.0643C27.8271 45.9348 27.8357 45.7363 27.9608 45.6198C33.5578 40.4889 33.7779 36.2642 33.3421 33.1572C33.3162 32.9845 33.437 32.8249 33.6096 32.8033C33.7822 32.7774 33.9419 32.8982 33.9635 33.0708C34.4209 36.3289 34.2008 40.7521 28.3837 46.0859C28.3622 46.1161 28.3276 46.1333 28.2931 46.1463Z" fill="#16888C"/>
<path fill-rule="evenodd" clip-rule="evenodd" d="M41.763 26.6597C44.1709 23.7641 46.2207 16.1864 44.6629 10.6628C44.2011 8.97116 42.5743 3.12821 39.2126 4.15525C38.0432 5.91159 39.5017 10.3909 35.7086 9.41132C34.0127 8.38428 38.6214 5.41101 37.8533 3.64173C36.494 1.41071 32.1398 -0.962724 29.4513 0.400919C28.7911 1.5488 31.6651 8.46195 30.0555 9.08767C28.3984 9.29049 29.0759 4.46164 28.584 2.14863C27.8417 -0.11692 23.9666 0.461334 21.5759 0.569217C23.6818 2.80024 24.9634 5.02264 24.0529 5.60952C21.714 6.76171 22.9913 1.44954 21.5759 0.569217C18.1107 0.728884 17.144 -0.604552 15.5689 0.638262C14.9087 2.97717 14.6627 4.06895 15.2841 6.29566C16.7513 11.09 24.4456 9.29913 24.0788 10.9605C23.1294 12.1645 17.9381 9.44585 17.308 10.1406C15.7804 11.3446 16.7729 15.2413 18.3782 15.8541C20.743 16.7603 27.2031 14.9695 27.5569 16.3115C28.0143 17.9859 19.6642 16.8078 18.3566 19.5135C17.4936 21.8352 19.155 24.994 20.6179 26.9143C22.0894 29.9005 29.9649 21.0886 30.8538 21.8999C31.704 24.9206 20.6783 28.3988 24.4758 31.6353C26.6636 33.1931 29.3521 33.0075 31.9629 32.6709C35.9977 32.1445 40.1016 28.7785 41.763 26.6597ZM23.5954 19.3323C23.8501 19 24.3549 18.9525 24.7261 19.233C25.0972 19.5178 25.1921 20.0141 24.9375 20.3464C24.6872 20.683 24.178 20.7261 23.8069 20.4456C23.4401 20.1651 23.3452 19.6689 23.5954 19.3323ZM31.7039 13.5713C31.9413 14.8227 33.0762 13.3383 33.0892 12.6435C33.2704 11.7934 33.3222 10.5204 32.498 10.0112C31.4796 10.4254 31.445 11.9876 31.7039 13.5713ZM36.2696 16.3676C34.7937 15.2327 36.9902 12.0998 38.013 12.1731C38.8976 12.527 37.5124 16.8682 36.2696 16.3676ZM32.9295 24.6142C32.4937 25.1623 33.5207 25.1105 33.8141 24.8645C34.237 24.6358 34.7851 24.2 34.7031 23.6692C34.1637 23.393 33.4991 23.941 32.9295 24.6142ZM22.7885 12.2681C23.4013 11.7761 24.4542 11.9789 25.136 12.2767C25.218 12.855 24.3463 12.9197 23.8112 13.0017C23.2243 13.1182 22.5123 12.7428 22.7885 12.2681Z" fill="#24D1B3"/>
<path d="M48.7552 36.6798C48.6171 36.7359 48.4574 36.6841 48.3754 36.5546C40.2108 23.8244 30.4798 13.295 18.6256 4.37089C18.4875 4.26733 18.4573 4.06882 18.5651 3.93073C18.6687 3.79264 18.8672 3.76243 19.0053 3.87032C25.2539 8.57402 31.0494 13.8603 36.2321 19.5911C40.8236 24.6702 45.0871 30.2629 48.9062 36.2137C49.0011 36.3604 48.958 36.5546 48.8113 36.6495C48.794 36.6625 48.7724 36.6711 48.7552 36.6798Z" fill="#16888C"/>
<path d="M27.4321 11.4305C27.3674 11.4564 27.2984 11.4607 27.2293 11.4391C27.061 11.3917 26.9661 11.2147 27.0136 11.0508C27.8464 8.19832 27.3243 5.54871 25.473 3.17097C25.3651 3.03288 25.391 2.83437 25.5291 2.7308C25.6672 2.62292 25.8657 2.64881 25.9693 2.7869C27.9543 5.33295 28.511 8.17243 27.6177 11.232C27.5918 11.3226 27.5228 11.396 27.4321 11.4305Z" fill="#16888C"/>
<path d="M37.3684 21.5064C37.2518 21.5539 37.1181 21.528 37.0274 21.433C36.9066 21.3079 36.9109 21.1094 37.0361 20.9886C40.8163 17.3507 42.016 12.6125 40.5013 7.28308C40.4538 7.11479 40.5531 6.94217 40.717 6.8947C40.8853 6.84723 41.058 6.94649 41.1054 7.11047C42.6848 12.6772 41.4291 17.6356 37.4676 21.4417C37.4374 21.4676 37.4029 21.4891 37.3684 21.5064Z" fill="#16888C"/>
<path d="M26.7545 21.8128C25.2657 22.3997 23.6345 22.6932 21.8135 22.7104C21.6409 22.7104 21.4985 22.5723 21.4941 22.3997C21.4941 22.2271 21.6322 22.0847 21.8048 22.0804C26.2237 22.0415 29.3653 20.3672 32.6493 16.2978C32.7571 16.1641 32.9557 16.1425 33.0937 16.2504C33.2275 16.3583 33.2491 16.5568 33.1412 16.6949C31.4971 18.7317 29.9608 20.1212 28.3037 21.0706C27.8032 21.3554 27.2853 21.6014 26.7545 21.8128Z" fill="#16888C"/>
<path d="M34.1382 29.1274C32.356 29.8308 30.0991 30.2925 27.1905 30.34C27.0179 30.3443 26.8712 30.2062 26.8712 30.0293C26.8669 29.8567 27.005 29.71 27.1819 29.71C34.7726 29.5848 37.7329 26.5641 39.4676 23.949C39.5626 23.8023 39.7611 23.7635 39.9035 23.8584C40.0502 23.9533 40.089 24.1518 39.9941 24.2942C38.8419 26.029 37.1848 27.9277 34.1382 29.1274Z" fill="#16888C"/>
<path fill-rule="evenodd" clip-rule="evenodd" d="M43.4213 13.0696C44.4829 11.7793 46.4377 12.733 47.4863 13.6435C48.5393 14.5627 49.4455 15.853 49.3592 17.0785C48.2588 17.6093 46.6707 17.2425 45.4797 16.6168C44.2844 15.9997 42.7006 14.5454 43.4213 13.0696Z" fill="#ABACD5"/>
<path fill-rule="evenodd" clip-rule="evenodd" d="M50.0862 13.8038C54.7166 11.8921 60.1237 12.6775 63.9859 8.06868C65.712 3.58506 53.0034 6.6101 49.7582 6.33824C44.6618 6.58853 32.1258 -0.855414 34.4734 7.07184L50.0862 13.8038Z" fill="#DD6F1D"/>
<path fill-rule="evenodd" clip-rule="evenodd" d="M49.7763 16.8242L44.0671 16.6343C39.0096 35.229 13.6915 60.9743 32.4589 74.1749C35.9457 76.859 40.8997 78.7189 49.6641 78.775C58.5882 78.5592 63.6156 76.859 67.1023 74.1749C85.8697 60.9786 60.556 35.2333 55.4941 16.6343L49.7763 16.8242Z" fill="#F78B31"/>
<path fill-rule="evenodd" clip-rule="evenodd" d="M55.4948 16.6344H44.0678C40.9004 13.5662 35.2085 9.58313 34.5612 7.42115C32.3431 -0.583786 53.924 15.0981 63.9831 8.06845C63.0078 11.0935 58.3257 13.7776 55.4948 16.6344Z" fill="#F78B31"/>
<path fill-rule="evenodd" clip-rule="evenodd" d="M51.2981 16.6341C48.0918 14.9555 44.7905 13.2595 44.0267 11.8959C42.1107 8.27965 47.082 9.03915 53.6154 9.65193C53.7794 9.67782 53.9477 9.70371 54.1117 9.72097L54.267 9.73823C54.4137 9.75549 54.5691 9.77707 54.7158 9.79433C54.7978 9.79865 54.8755 9.80728 54.9575 9.81159C55.074 9.82454 55.1862 9.83748 55.3027 9.8418C55.4235 9.85475 55.54 9.85906 55.6522 9.87201C55.7213 9.87201 55.7989 9.87632 55.8766 9.88495C56.0363 9.8979 56.2003 9.90221 56.3642 9.91085H56.416C56.6145 9.91516 56.8044 9.92379 56.9986 9.92379H57.0504C57.1022 9.92811 57.154 9.92379 57.2101 9.92379C59.7259 9.91948 62.0648 9.40164 63.9894 8.05957C63.0142 11.0889 58.3277 13.7687 55.5012 16.6255H51.2981V16.6341Z" fill="#FEB542"/>
<path fill-rule="evenodd" clip-rule="evenodd" d="M44.7672 16.6354C48.4654 15.8931 52.2801 15.8802 55.7928 16.3419C55.9697 16.4584 56.0172 16.7001 56.0302 16.8857C56.0561 17.1618 55.9223 17.5891 55.8058 17.7099C51.8961 17.2309 47.8267 17.3388 43.5589 18.3227C43.2093 18.0206 43.7228 16.9418 44.0206 16.8037C44.2364 16.7519 44.4564 16.7001 44.6722 16.657L44.9268 16.6397H44.7672V16.6354Z" fill="#42C5A0"/>
<path fill-rule="evenodd" clip-rule="evenodd" d="M55.0845 18.6929L51.0583 18.5376C47.4938 34.1505 29.6629 55.7616 42.8807 66.8434C45.3318 69.0917 48.8272 70.6581 54.9982 70.7013C61.2856 70.5157 64.8242 69.0917 67.2753 66.8434C72.5443 62.4245 72.8766 56.3356 71.1547 49.6123C67.0034 39.3245 59.3221 28.1824 56.1115 18.6541L55.0845 18.6929Z" fill="#FEB542"/>
<path fill-rule="evenodd" clip-rule="evenodd" d="M43.4745 18.097C47.436 17.0872 52.0232 16.9707 55.8552 17.4195C56.4162 17.9762 56.2954 18.3473 56.0969 18.6149C51.9844 18.1186 47.6906 18.2696 43.1811 19.4132C42.9135 19.1068 42.9092 18.5933 43.4745 18.097Z" fill="#16888C"/>
<path fill-rule="evenodd" clip-rule="evenodd" d="M62.6398 52.2061C62.8124 53.1339 62.7994 53.9926 62.5966 54.7866C62.3852 55.572 62.0227 56.2754 61.4833 56.8882C60.9482 57.501 60.2707 58.0274 59.4464 58.4417C59.1573 58.5884 58.8595 58.7222 58.5402 58.843L58.6869 59.6112C58.7819 60.1031 58.4582 60.5778 57.9663 60.6727L57.2844 60.8022C56.7925 60.8971 56.3135 60.5735 56.2186 60.0815L56.102 59.4688C55.6489 59.5378 55.2088 59.5723 54.7816 59.5766C54.1731 59.5939 53.6337 59.5723 53.1331 59.499C52.6455 59.4342 52.2269 59.3522 51.8687 59.2487C51.5192 59.1408 51.2559 59.0372 51.0833 58.9337C50.9107 58.8301 50.764 58.6575 50.6561 58.4288C50.5396 58.2044 50.4447 57.8807 50.367 57.4578C50.3152 57.2075 50.2893 56.9918 50.285 56.8105C50.2807 56.625 50.285 56.4869 50.2979 56.3704C50.3238 56.2495 50.367 56.1675 50.4274 56.1028C50.4964 56.0381 50.5741 56.0079 50.669 55.9863C50.8158 55.9561 51.0531 56.0036 51.3724 56.133C51.6961 56.2625 52.0931 56.3876 52.5548 56.5214C53.008 56.6552 53.5517 56.7587 54.1601 56.8278C54.7729 56.9055 55.4504 56.8666 56.197 56.7242C56.758 56.6163 57.2586 56.4567 57.6858 56.2495C58.1259 56.0467 58.4841 55.7878 58.7732 55.4814C59.0667 55.188 59.2652 54.8341 59.3817 54.4328C59.4896 54.0358 59.4982 53.5913 59.399 53.0864C59.304 52.5815 59.0926 52.1715 58.7646 51.8781C58.441 51.576 58.0353 51.3344 57.5563 51.1445C57.0687 50.9589 56.5465 50.8122 55.9726 50.7087C55.3986 50.6051 54.8031 50.4843 54.1947 50.3721C53.5819 50.2426 52.9821 50.0959 52.3822 49.9103C51.7867 49.7248 51.2387 49.4615 50.7295 49.1292C50.2246 48.7926 49.7844 48.3611 49.4133 47.8303C49.0422 47.3082 48.7876 46.6436 48.6279 45.8323C48.4941 45.1289 48.5071 44.4212 48.6538 43.7178C48.8091 43.0101 49.1069 42.3628 49.5686 41.7673C50.0304 41.1718 50.6432 40.6496 51.407 40.1965C51.7004 40.0239 52.0197 39.8729 52.3607 39.7305L52.1708 38.7207C52.0758 38.2287 52.3995 37.7497 52.8914 37.6591L53.5733 37.5253C54.0652 37.4347 54.5442 37.7627 54.6391 38.246L54.7988 39.1134C55.0923 39.0745 55.3857 39.0573 55.6878 39.0486C56.184 39.0443 56.6415 39.0659 57.0557 39.1177C57.47 39.1695 57.8239 39.2385 58.1303 39.3334C58.4323 39.4284 58.6654 39.5104 58.825 39.601C58.989 39.683 59.1012 39.765 59.1616 39.8297C59.2263 39.9074 59.2781 39.9851 59.317 40.0843C59.3558 40.1749 59.399 40.2958 59.4464 40.4339C59.4982 40.5806 59.537 40.7575 59.5802 40.969C59.6234 41.1977 59.6492 41.3962 59.6622 41.5645C59.6751 41.7371 59.6622 41.8795 59.6363 41.9917C59.6104 42.1125 59.5673 42.1945 59.5068 42.2592C59.4507 42.3153 59.3774 42.3542 59.304 42.3671C59.1746 42.393 58.989 42.3499 58.7301 42.2377C58.4755 42.1341 58.1561 42.0348 57.7548 41.9313C57.3578 41.8277 56.9047 41.7543 56.3869 41.7026C55.8776 41.6465 55.2951 41.6767 54.6607 41.7975C54.0997 41.9054 53.6121 42.0607 53.2108 42.2722C52.8008 42.475 52.4815 42.7253 52.2528 43.0144C52.0241 43.2949 51.8644 43.6142 51.7867 43.9595C51.7047 44.3047 51.7047 44.6672 51.7738 45.0383C51.8687 45.5605 52.0931 45.9704 52.4254 46.2768C52.762 46.5832 53.1676 46.8249 53.6509 47.0104C54.1256 47.2003 54.665 47.3427 55.2562 47.4592C55.8518 47.5671 56.443 47.6836 57.0557 47.8044C57.6685 47.9253 58.2813 48.072 58.8897 48.2532C59.5025 48.4258 60.0592 48.6761 60.5641 48.9955C61.0733 49.3191 61.5092 49.7377 61.8716 50.2469C62.2341 50.7777 62.4887 51.4293 62.6398 52.2061Z" fill="white"/>
<path fill-rule="evenodd" clip-rule="evenodd" d="M67.5284 74.4341C69.0388 74.4341 70.4628 74.5592 71.6539 74.7707H75.2658V76.6392C75.2658 77.8475 71.7963 78.8271 67.5284 78.8271C63.2605 78.8271 59.791 77.8475 59.791 76.6392V74.7707H63.4029C64.594 74.5592 66.018 74.4341 67.5284 74.4341Z" fill="#FECB14"/>
<path fill-rule="evenodd" clip-rule="evenodd" d="M67.7617 74.4341C69.1858 74.4341 70.5192 74.5592 71.6585 74.7707H75.2704V76.6392C75.2704 77.8302 71.926 78.7926 67.766 78.8271V74.4341H67.7617Z" fill="#FE9F0E"/>
<path fill-rule="evenodd" clip-rule="evenodd" d="M67.5284 76.9757C71.7963 76.9757 75.2658 75.9789 75.2658 74.7706C75.2658 73.545 71.7963 72.5654 67.5284 72.5654C63.2605 72.5654 59.791 73.545 59.791 74.7706C59.791 75.9832 63.2605 76.9757 67.5284 76.9757Z" fill="#FEFE1E"/>
<path fill-rule="evenodd" clip-rule="evenodd" d="M67.5303 76.6946C71.427 76.6946 74.6074 75.8229 74.6074 74.7743C74.6074 73.7084 71.4227 72.854 67.5303 72.854C63.6335 72.854 60.4531 73.7084 60.4531 74.7743C60.4531 75.8229 63.6335 76.6946 67.5303 76.6946Z" fill="#FE9F0E"/>
<path fill-rule="evenodd" clip-rule="evenodd" d="M67.3361 76.6946C71.1422 76.6946 74.2363 75.8229 74.2363 74.7743C74.2363 73.7084 71.1422 72.854 67.3361 72.854C63.5472 72.854 60.4531 73.7084 60.4531 74.7743C60.4531 75.8229 63.5472 76.6946 67.3361 76.6946Z" fill="#FECB14"/>
<path fill-rule="evenodd" clip-rule="evenodd" d="M71.2289 75.1625C71.2289 75.2704 71.121 75.3739 70.9268 75.4645C70.7327 75.5552 70.4478 75.6242 70.0897 75.6976C69.7142 75.7494 69.2913 75.8055 68.7908 75.8227C68.6138 75.84 68.4369 75.8572 68.2384 75.8572V75.9996C68.2384 76.0903 67.9191 76.1593 67.5264 76.1593C67.1337 76.1593 66.8143 76.0903 66.8143 75.9996V75.8745C66.564 75.8745 66.3181 75.8745 66.0678 75.8572C65.7312 75.84 65.4291 75.84 65.1616 75.8055C64.894 75.7882 64.6653 75.7709 64.4841 75.7537C64.2899 75.7364 64.1647 75.7191 64.0741 75.7019C63.9835 75.6846 63.9317 75.6674 63.8972 75.6328C63.8626 75.6156 63.8281 75.5638 63.8281 75.5077C63.8281 75.4904 63.8454 75.4559 63.8626 75.4387L63.9144 75.3869C63.9317 75.3696 63.9662 75.3696 64.0051 75.3523H64.1647C64.2338 75.3523 64.3589 75.3696 64.5402 75.3869C64.6998 75.4041 64.9156 75.4214 65.1443 75.4559C65.3946 75.4732 65.6794 75.5077 66.016 75.525C66.2663 75.5422 66.5338 75.5595 66.8143 75.5595V74.7784L66.7065 74.7611C66.3871 74.7266 66.0678 74.7094 65.7441 74.6705C65.4421 74.636 65.1572 74.5799 64.907 74.5281C64.6567 74.4763 64.4625 74.4202 64.3201 74.3512C64.1604 74.2821 64.087 74.1915 64.087 74.1009C64.087 74.0103 64.1777 73.924 64.3201 73.8506C64.4797 73.76 64.73 73.6909 65.0494 73.6392C65.3687 73.5701 65.7614 73.5313 66.2231 73.4968C66.4173 73.4795 66.6158 73.4622 66.81 73.4622V73.3198C66.81 73.2292 67.1294 73.1602 67.522 73.1602C67.9147 73.1602 68.2341 73.2292 68.2341 73.3198V73.445H68.7303C69.0151 73.4622 69.2654 73.4795 69.4769 73.4968C69.7099 73.4968 69.9041 73.514 70.0638 73.5313C70.2234 73.5485 70.3486 73.5658 70.4176 73.5831C70.5083 73.6003 70.56 73.6176 70.5773 73.6176C70.6118 73.6348 70.6291 73.6348 70.6291 73.6521C70.6463 73.6694 70.6636 73.6694 70.6636 73.6866C70.6809 73.7212 70.6809 73.7384 70.6809 73.7557C70.6809 73.7902 70.6809 73.8075 70.6636 73.8247C70.6636 73.842 70.6463 73.8592 70.6118 73.8765C70.5946 73.8938 70.56 73.8938 70.5212 73.911H70.3788C70.3098 73.911 70.2191 73.911 70.0767 73.8938C69.9516 73.8765 69.7746 73.8592 69.5805 73.8247C69.369 73.8075 69.1187 73.7902 68.8339 73.7729C68.657 73.7557 68.4412 73.7557 68.2298 73.7557V74.485C68.3376 74.5022 68.4412 74.5022 68.5664 74.5195C68.8857 74.5367 69.2223 74.5713 69.5459 74.6101C69.8653 74.6446 70.1501 74.6792 70.3831 74.7353C70.6334 74.787 70.8448 74.8431 70.9873 74.9122C71.1426 74.9855 71.2289 75.0718 71.2289 75.1625ZM68.2427 75.5206C68.4196 75.5034 68.5793 75.4861 68.7217 75.4689C68.9159 75.4343 69.0583 75.3998 69.1662 75.361C69.2741 75.3092 69.3259 75.2531 69.3259 75.2013C69.3259 75.1323 69.2568 75.0762 69.0928 75.0416C68.9504 74.9899 68.7562 74.951 68.5059 74.9165C68.4153 74.9165 68.329 74.8992 68.2384 74.8992V75.5206H68.2427ZM66.8186 73.7945C66.659 73.7945 66.5338 73.8118 66.4087 73.8463C66.249 73.8636 66.1239 73.8981 66.0548 73.9369C65.9642 73.9714 65.9297 74.0275 65.9297 74.0621C65.9297 74.1311 65.9987 74.1872 66.1627 74.239C66.3224 74.2735 66.5166 74.308 66.7669 74.3469H66.8186V73.7945Z" fill="#FE7509"/>
<path fill-rule="evenodd" clip-rule="evenodd" d="M67.5284 71.8193C69.0388 71.8193 70.4628 71.9445 71.6539 72.1559H75.2658V74.0245C75.2658 75.2328 71.7963 76.2296 67.5284 76.2296C63.2605 76.2296 59.791 75.2328 59.791 74.0245V72.1559H63.4029C64.594 71.9445 66.018 71.8193 67.5284 71.8193Z" fill="#FECB14"/>
<path fill-rule="evenodd" clip-rule="evenodd" d="M67.7617 71.8193C69.1858 71.8193 70.5192 71.9445 71.6585 72.1559H75.2704V74.0245C75.2704 75.2155 71.926 76.1951 67.766 76.2123V71.8193H67.7617Z" fill="#FE9F0E"/>
<path fill-rule="evenodd" clip-rule="evenodd" d="M67.5284 74.3649C71.7963 74.3649 75.2658 73.368 75.2658 72.1597C75.2658 70.9514 71.7963 69.9546 67.5284 69.9546C63.2605 69.9546 59.791 70.9514 59.791 72.1597C59.791 73.368 63.2605 74.3649 67.5284 74.3649Z" fill="#FEFE1E"/>
<path fill-rule="evenodd" clip-rule="evenodd" d="M67.5303 74.0804C71.427 74.0804 74.6074 73.2087 74.6074 72.1601C74.6074 71.0942 71.4227 70.2397 67.5303 70.2397C63.6335 70.2397 60.4531 71.0942 60.4531 72.1601C60.4531 73.2087 63.6335 74.0804 67.5303 74.0804Z" fill="#FE9F0E"/>
<path fill-rule="evenodd" clip-rule="evenodd" d="M67.3361 74.0804C71.1422 74.0804 74.2363 73.2087 74.2363 72.1601C74.2363 71.0942 71.1422 70.2397 67.3361 70.2397C63.5472 70.2397 60.4531 71.0942 60.4531 72.1601C60.4531 73.2087 63.5472 74.0804 67.3361 74.0804Z" fill="#FECB14"/>
<path fill-rule="evenodd" clip-rule="evenodd" d="M71.2289 72.5482C71.2289 72.6561 71.121 72.7597 70.9268 72.8503C70.7327 72.9409 70.4478 73.01 70.0897 73.0833C69.7142 73.1351 69.2913 73.1912 68.7908 73.2257C68.6138 73.2257 68.4369 73.243 68.2384 73.243V73.3854C68.2384 73.476 67.9191 73.5451 67.5264 73.5451C67.1337 73.5451 66.8143 73.476 66.8143 73.3854V73.2602C66.564 73.2602 66.3181 73.2602 66.0678 73.243C65.7312 73.243 65.4291 73.2257 65.1616 73.2085C64.894 73.1912 64.6653 73.1567 64.4841 73.1394C64.2899 73.1221 64.1647 73.1049 64.0741 73.0876C63.9835 73.0704 63.9317 73.0531 63.8972 73.0186C63.8626 73.0013 63.8281 72.9495 63.8281 72.8934C63.8281 72.8762 63.8454 72.8417 63.8626 72.8244L63.9144 72.7726C63.9317 72.7553 63.9662 72.7553 64.0051 72.7553C64.0568 72.7381 64.1129 72.7381 64.1647 72.7381C64.2338 72.7381 64.3589 72.7553 64.5402 72.7726C64.6998 72.7899 64.9156 72.8244 65.1443 72.8417C65.3946 72.8589 65.6794 72.8934 66.016 72.9107C66.2663 72.928 66.5338 72.9452 66.8143 72.9452V72.1641L66.7065 72.1469C66.3871 72.1124 66.0678 72.0951 65.7441 72.0563C65.4421 72.0217 65.1572 71.9656 64.907 71.9139C64.6567 71.8793 64.4625 71.806 64.3201 71.7369C64.1604 71.6679 64.087 71.5773 64.087 71.4866C64.087 71.396 64.1777 71.3097 64.3201 71.2364C64.4797 71.1457 64.73 71.0767 65.0494 71.0249C65.3687 70.9731 65.7614 70.917 66.2231 70.8825C66.4173 70.8652 66.6158 70.848 66.81 70.848V70.7056C66.81 70.6149 67.1294 70.5459 67.522 70.5459C67.9147 70.5459 68.2341 70.6149 68.2341 70.7056V70.8307C68.3937 70.8307 68.5707 70.8307 68.7303 70.848C69.0151 70.848 69.2654 70.8652 69.4769 70.8825C69.7099 70.8998 69.9041 70.917 70.0638 70.9343C70.2234 70.9515 70.3486 70.9515 70.4176 70.9688C70.5083 70.9861 70.56 71.0033 70.5773 71.0033C70.6118 71.0206 70.6291 71.0206 70.6291 71.0378C70.6463 71.0551 70.6636 71.0724 70.6636 71.0896C70.6809 71.1069 70.6809 71.1242 70.6809 71.1414C70.6809 71.1759 70.6809 71.1932 70.6636 71.2105C70.6636 71.245 70.6463 71.2622 70.6118 71.2622C70.5946 71.2795 70.56 71.2795 70.5212 71.2968H70.3788C70.3098 71.2968 70.2191 71.2968 70.0767 71.2795C69.9516 71.2622 69.7746 71.245 69.5805 71.2105C69.369 71.1932 69.1187 71.1759 68.8339 71.1587C68.657 71.1587 68.4412 71.1414 68.2298 71.1414V71.8707C68.3376 71.888 68.4412 71.888 68.5664 71.9052C68.8857 71.9225 69.2223 71.957 69.5459 71.9958C69.8653 72.0304 70.1501 72.0649 70.3831 72.121C70.6334 72.1728 70.8448 72.2289 70.9873 72.2979C71.1426 72.3713 71.2289 72.4619 71.2289 72.5482ZM68.2427 72.9064C68.4196 72.8891 68.5793 72.8719 68.7217 72.8546C68.9159 72.8201 69.0583 72.7856 69.1662 72.7467C69.2741 72.6949 69.3259 72.6388 69.3259 72.5871C69.3259 72.518 69.2568 72.4619 69.0928 72.4274C68.9504 72.3929 68.7562 72.3368 68.5059 72.3195C68.4153 72.3022 68.329 72.285 68.2384 72.285V72.9064H68.2427ZM66.8186 71.1802C66.659 71.1975 66.5338 71.1975 66.4087 71.232C66.249 71.2493 66.1239 71.2838 66.0548 71.3227C65.9642 71.3744 65.9297 71.4133 65.9297 71.4651C65.9297 71.5168 65.9987 71.5729 66.1627 71.6247C66.3224 71.6593 66.5166 71.6938 66.7669 71.7326C66.7841 71.7326 66.8014 71.7326 66.8186 71.7499V71.1802Z" fill="#FE7509"/>
<path fill-rule="evenodd" clip-rule="evenodd" d="M67.5284 69.1689C69.0388 69.1689 70.4628 69.2941 71.6539 69.5055H75.2658V71.3741C75.2658 72.5824 71.7963 73.5792 67.5284 73.5792C63.2605 73.5792 59.791 72.5824 59.791 71.3741V69.5055H63.4029C64.594 69.2941 66.018 69.1689 67.5284 69.1689Z" fill="#FECB14"/>
<path fill-rule="evenodd" clip-rule="evenodd" d="M67.7617 69.1689C69.1858 69.1862 70.5192 69.3114 71.6585 69.5055H75.2704V71.3741C75.2704 72.5651 71.926 73.5447 67.766 73.5792V69.1689H67.7617Z" fill="#FE9F0E"/>
<path fill-rule="evenodd" clip-rule="evenodd" d="M67.5284 71.7106C71.7963 71.7106 75.2658 70.7137 75.2658 69.5054C75.2658 68.2971 71.7963 67.3003 67.5284 67.3003C63.2605 67.3003 59.791 68.2971 59.791 69.5054C59.791 70.718 63.2605 71.7106 67.5284 71.7106Z" fill="#FEFE1E"/>
<path fill-rule="evenodd" clip-rule="evenodd" d="M67.5303 71.43C71.427 71.43 74.6074 70.5756 74.6074 69.5097C74.6074 68.4611 71.4227 67.5894 67.5303 67.5894C63.6335 67.5894 60.4531 68.4611 60.4531 69.5097C60.4531 70.5756 63.6335 71.43 67.5303 71.43Z" fill="#FE9F0E"/>
<path fill-rule="evenodd" clip-rule="evenodd" d="M67.3361 71.43C71.1422 71.43 74.2363 70.5756 74.2363 69.5097C74.2363 68.4611 71.1422 67.5894 67.3361 67.5894C63.5472 67.5894 60.4531 68.4611 60.4531 69.5097C60.4531 70.5756 63.5472 71.43 67.3361 71.43Z" fill="#FECB14"/>
<path fill-rule="evenodd" clip-rule="evenodd" d="M71.2289 69.8987C71.2289 70.0239 71.121 70.1102 70.9268 70.2008C70.7327 70.2914 70.4478 70.3777 70.0897 70.4338C69.7142 70.4856 69.2913 70.5417 68.7908 70.5762C68.6138 70.5762 68.4369 70.5935 68.2384 70.5935V70.7532C68.2384 70.8222 67.9191 70.8956 67.5264 70.8956C67.1337 70.8956 66.8143 70.8265 66.8143 70.7532V70.6107C66.564 70.6107 66.3181 70.6107 66.0678 70.5935C65.7312 70.5935 65.4291 70.5762 65.1616 70.559C64.894 70.5417 64.6653 70.5244 64.4841 70.5072C64.2899 70.4727 64.1647 70.4554 64.0741 70.4381C63.9835 70.4381 63.9317 70.4036 63.8972 70.3864C63.8626 70.3518 63.8281 70.3173 63.8281 70.2612C63.8281 70.2267 63.8454 70.2094 63.8626 70.1706L63.9144 70.1188C63.9317 70.1188 63.9662 70.1015 64.0051 70.1015C64.0568 70.0843 64.1129 70.0843 64.1647 70.0843C64.2338 70.0843 64.3589 70.1015 64.5402 70.1188C64.6998 70.1361 64.9156 70.1706 65.1443 70.1878C65.3946 70.2224 65.6794 70.2396 66.016 70.2569C66.2663 70.2742 66.5338 70.2914 66.8143 70.2914V69.5103L66.7065 69.4931C66.3871 69.4758 66.0678 69.4413 65.7441 69.4025C65.4421 69.3679 65.1572 69.3334 64.907 69.2773C64.6567 69.2255 64.4625 69.1522 64.3201 69.0831C64.1604 69.0141 64.087 68.9407 64.087 68.8328C64.087 68.7422 64.1777 68.6559 64.3201 68.5825C64.4797 68.4919 64.73 68.4401 65.0494 68.3711C65.3687 68.3193 65.7614 68.2632 66.2231 68.2287C66.4173 68.2114 66.6158 68.2114 66.81 68.1942V68.0518C66.81 67.9611 67.1294 67.8921 67.522 67.8921C67.9147 67.8921 68.2341 67.9611 68.2341 68.0518V68.1769C68.3937 68.1769 68.5707 68.1769 68.7303 68.1942C69.0151 68.1942 69.2654 68.2114 69.4769 68.2287C69.7099 68.2459 69.9041 68.2632 70.0638 68.2805C70.2234 68.2977 70.3486 68.315 70.4176 68.315C70.5083 68.3323 70.56 68.3495 70.5773 68.3495C70.6118 68.3668 70.6291 68.384 70.6291 68.384C70.6463 68.4013 70.6636 68.4186 70.6636 68.4358C70.6809 68.4531 70.6809 68.4703 70.6809 68.5049C70.6809 68.5221 70.6809 68.5567 70.6636 68.5739C70.6636 68.5912 70.6463 68.6084 70.6118 68.6084C70.5946 68.6257 70.56 68.643 70.5212 68.643C70.4694 68.643 70.4306 68.6602 70.3788 68.6602C70.3098 68.6602 70.2191 68.643 70.0767 68.6257C69.9516 68.6084 69.7746 68.5912 69.5805 68.5739C69.369 68.5567 69.1187 68.5221 68.8339 68.5049C68.657 68.5049 68.4412 68.4876 68.2298 68.4876V69.2169C68.3376 69.2342 68.4412 69.2342 68.5664 69.2514C68.8857 69.2859 69.2223 69.3032 69.5459 69.342C69.8653 69.3766 70.1501 69.4327 70.3831 69.4672C70.6334 69.519 70.8448 69.5751 70.9873 69.6441C71.1426 69.7218 71.2289 69.8081 71.2289 69.8987ZM68.2427 70.2569C68.4196 70.2569 68.5793 70.2396 68.7217 70.2051C68.9159 70.1878 69.0583 70.1533 69.1662 70.0972C69.2741 70.0627 69.3259 70.0066 69.3259 69.9376C69.3259 69.8858 69.2568 69.8297 69.0928 69.7779C68.9504 69.7434 68.7562 69.7088 68.5059 69.67C68.4153 69.6527 68.329 69.6527 68.2384 69.6355V70.2569H68.2427ZM66.8186 68.5308C66.659 68.548 66.5338 68.5653 66.4087 68.5825C66.249 68.6171 66.1239 68.6343 66.0548 68.6904C65.9642 68.7249 65.9297 68.7595 65.9297 68.8156C65.9297 68.8674 65.9987 68.9235 66.1627 68.9752C66.3224 69.0098 66.5166 69.0659 66.7669 69.0831C66.7841 69.1004 66.8014 69.1004 66.8186 69.1004V68.5308Z" fill="#FE7509"/>
<path fill-rule="evenodd" clip-rule="evenodd" d="M64.8645 68.6558L65.2529 70.0237L66.6424 69.7562L65.2917 70.1489L65.5377 71.5514L65.1493 70.1834L63.7598 70.4509L65.1105 70.0582L64.8645 68.6558ZM67.4968 75.2366L67.8852 76.6046L69.292 76.337L67.9241 76.7297L68.1916 78.1322L67.7816 76.7643L66.3921 77.0318L67.7644 76.6391L67.4968 75.2366Z" fill="white"/>
<path fill-rule="evenodd" clip-rule="evenodd" d="M83.5557 74.4341C85.0661 74.4341 86.4902 74.5592 87.6812 74.7707H91.2931V76.6392C91.2931 77.8475 87.8409 78.8271 83.5557 78.8271C79.2879 78.8271 75.8184 77.8475 75.8184 76.6392V74.7707H79.4303C80.6213 74.5592 82.0411 74.4341 83.5557 74.4341Z" fill="#FECB14"/>
<path fill-rule="evenodd" clip-rule="evenodd" d="M83.7852 74.4341C85.2092 74.4341 86.5426 74.5592 87.6819 74.7707H91.2938V76.6392C91.2938 77.8302 87.9494 78.7926 83.7895 78.8271V74.4341H83.7852Z" fill="#FE9F0E"/>
<path fill-rule="evenodd" clip-rule="evenodd" d="M83.5557 76.9757C87.8236 76.9757 91.2931 75.9789 91.2931 74.7706C91.2931 73.545 87.8236 72.5654 83.5557 72.5654C79.2879 72.5654 75.8184 73.545 75.8184 74.7706C75.8184 75.9832 79.2836 76.9757 83.5557 76.9757Z" fill="#FEFE1E"/>
<path fill-rule="evenodd" clip-rule="evenodd" d="M83.5557 76.6946C87.4524 76.6946 90.6328 75.8229 90.6328 74.7743C90.6328 73.7084 87.4481 72.854 83.5557 72.854C79.6632 72.854 76.4785 73.7084 76.4785 74.7743C76.4742 75.8229 79.6589 76.6946 83.5557 76.6946Z" fill="#FE9F0E"/>
<path fill-rule="evenodd" clip-rule="evenodd" d="M83.3768 76.6946C87.1656 76.6946 90.2597 75.8229 90.2597 74.7743C90.2597 73.7084 87.1656 72.854 83.3768 72.854C79.5707 72.854 76.4766 73.7084 76.4766 74.7743C76.4766 75.8229 79.5707 76.6946 83.3768 76.6946Z" fill="#FECB14"/>
<path fill-rule="evenodd" clip-rule="evenodd" d="M87.2566 75.1625C87.2566 75.2704 87.1487 75.3739 86.9545 75.4645C86.7603 75.5552 86.4755 75.6242 86.1173 75.6976C85.7419 75.7494 85.319 75.8055 84.8184 75.8227C84.6415 75.84 84.4646 75.8572 84.2661 75.8572V75.9996C84.2661 76.0903 83.9467 76.1593 83.554 76.1593C83.1613 76.1593 82.842 76.0903 82.842 75.9996V75.8745C82.5917 75.8745 82.3457 75.8745 82.0954 75.8572C81.7588 75.84 81.4568 75.84 81.1892 75.8055C80.9217 75.7882 80.693 75.7709 80.5117 75.7537C80.3348 75.7364 80.1924 75.7191 80.1018 75.7019C80.0111 75.6846 79.9594 75.6674 79.9248 75.6328C79.8903 75.6156 79.873 75.5638 79.873 75.5077C79.873 75.4904 79.8731 75.4559 79.8903 75.4387L79.9421 75.3869C79.9594 75.3696 79.9939 75.3696 80.05 75.3523H80.1924C80.2614 75.3523 80.4038 75.3696 80.5678 75.3869C80.7275 75.4041 80.9433 75.4214 81.172 75.4559C81.4223 75.4732 81.7071 75.5077 82.0437 75.525C82.2939 75.5422 82.5615 75.5595 82.842 75.5595V74.7784L82.7341 74.7611C82.4148 74.7266 82.0954 74.7094 81.7718 74.6705C81.4697 74.636 81.1849 74.5799 80.9346 74.5281C80.6843 74.4763 80.4901 74.4202 80.3477 74.3512C80.1881 74.2821 80.1147 74.1915 80.1147 74.1009C80.1147 74.0103 80.2053 73.924 80.365 73.8506C80.5074 73.76 80.7577 73.6909 81.077 73.6392C81.3964 73.5701 81.7891 73.5313 82.2681 73.4968C82.445 73.4795 82.6435 73.4622 82.8377 73.4622V73.3198C82.8377 73.2292 83.157 73.1602 83.5497 73.1602C83.9424 73.1602 84.2617 73.2292 84.2617 73.3198V73.445H84.758C85.0428 73.4622 85.2931 73.4795 85.5218 73.4968C85.7333 73.4968 85.9318 73.514 86.0914 73.5313C86.2511 73.5485 86.3762 73.5658 86.4453 73.5831C86.5359 73.6003 86.5877 73.6176 86.605 73.6176C86.6395 73.6348 86.6567 73.6348 86.674 73.6521C86.674 73.6694 86.6913 73.6694 86.7085 73.6866V73.8247C86.6913 73.842 86.674 73.8592 86.6395 73.8765C86.6222 73.8938 86.5877 73.8938 86.5489 73.911H86.4237C86.3547 73.911 86.2468 73.911 86.1044 73.8938C85.9792 73.8765 85.8023 73.8592 85.6081 73.8247C85.3967 73.8075 85.1464 73.7902 84.8616 73.7729C84.6846 73.7557 84.4689 73.7557 84.2574 73.7557V74.485C84.3653 74.5022 84.4905 74.5022 84.594 74.5195C84.9134 74.5367 85.2543 74.5713 85.5736 74.6101C85.8929 74.6446 86.1777 74.6792 86.428 74.7353C86.6783 74.787 86.8725 74.8431 87.0149 74.9122C87.1832 74.9855 87.2566 75.0718 87.2566 75.1625ZM84.2661 75.5206C84.443 75.5034 84.6027 75.4861 84.7451 75.4689C84.9392 75.4343 85.0817 75.3998 85.1895 75.361C85.2974 75.3092 85.3492 75.2531 85.3492 75.2013C85.3492 75.1323 85.2802 75.0762 85.1162 75.0416C84.9738 74.9899 84.7796 74.951 84.5293 74.9165C84.4387 74.9165 84.3524 74.8992 84.2617 74.8992V75.5206H84.2661ZM82.8463 73.7945C82.6866 73.7945 82.5615 73.8118 82.4364 73.8463C82.2767 73.8636 82.1515 73.8981 82.0825 73.9369C81.9919 73.9714 81.9574 74.0275 81.9574 74.0621C81.9574 74.1311 82.0264 74.1872 82.1904 74.239C82.3501 74.2735 82.5442 74.308 82.7945 74.3469H82.8463V73.7945Z" fill="#FE7509"/>
<path fill-rule="evenodd" clip-rule="evenodd" d="M83.5557 71.8193C85.0661 71.8193 86.4902 71.9445 87.6812 72.1559H91.2931V74.0245C91.2931 75.2328 87.8409 76.2296 83.5557 76.2296C79.2879 76.2296 75.8184 75.2328 75.8184 74.0245V72.1559H79.4303C80.6213 71.9445 82.0411 71.8193 83.5557 71.8193Z" fill="#FECB14"/>
<path fill-rule="evenodd" clip-rule="evenodd" d="M83.7852 71.8193C85.2092 71.8193 86.5426 71.9445 87.6819 72.1559H91.2938V74.0245C91.2938 75.2155 87.9494 76.1951 83.7895 76.2123V71.8193H83.7852Z" fill="#FE9F0E"/>
<path fill-rule="evenodd" clip-rule="evenodd" d="M83.5557 74.3649C87.8236 74.3649 91.2931 73.368 91.2931 72.1597C91.2931 70.9514 87.8236 69.9546 83.5557 69.9546C79.2879 69.9546 75.8184 70.9514 75.8184 72.1597C75.8184 73.368 79.2836 74.3649 83.5557 74.3649Z" fill="#FEFE1E"/>
<path fill-rule="evenodd" clip-rule="evenodd" d="M83.5557 74.0804C87.4524 74.0804 90.6328 73.2087 90.6328 72.1601C90.6328 71.0942 87.4481 70.2397 83.5557 70.2397C79.6632 70.2397 76.4785 71.0942 76.4785 72.1601C76.4742 73.2087 79.6589 74.0804 83.5557 74.0804Z" fill="#FE9F0E"/>
<path fill-rule="evenodd" clip-rule="evenodd" d="M83.3768 74.0804C87.1656 74.0804 90.2597 73.2087 90.2597 72.1601C90.2597 71.0942 87.1656 70.2397 83.3768 70.2397C79.5707 70.2397 76.4766 71.0942 76.4766 72.1601C76.4766 73.2087 79.5707 74.0804 83.3768 74.0804Z" fill="#FECB14"/>
<path fill-rule="evenodd" clip-rule="evenodd" d="M87.2566 72.5482C87.2566 72.6561 87.1487 72.7597 86.9545 72.8503C86.7603 72.9409 86.4755 73.01 86.1173 73.0833C85.7419 73.1351 85.319 73.1912 84.8184 73.2257C84.6415 73.2257 84.4646 73.243 84.2661 73.243V73.3854C84.2661 73.476 83.9467 73.5451 83.554 73.5451C83.1613 73.5451 82.842 73.476 82.842 73.3854V73.2602C82.5917 73.2602 82.3457 73.2602 82.0954 73.243C81.7588 73.243 81.4568 73.2257 81.1892 73.2085C80.9217 73.1912 80.693 73.1567 80.5117 73.1394C80.3348 73.1221 80.1924 73.1049 80.1018 73.0876C80.0111 73.0704 79.9594 73.0531 79.9248 73.0186C79.8903 73.0013 79.873 72.9495 79.873 72.8934C79.873 72.8762 79.8731 72.8417 79.8903 72.8244L79.9421 72.7726C79.9594 72.7553 79.9939 72.7553 80.05 72.7553C80.0845 72.7381 80.1406 72.7381 80.1924 72.7381C80.2614 72.7381 80.4038 72.7553 80.5678 72.7726C80.7275 72.7899 80.9433 72.8244 81.172 72.8417C81.4223 72.8589 81.7071 72.8934 82.0437 72.9107C82.2939 72.928 82.5615 72.9452 82.842 72.9452V72.1641L82.7341 72.1469C82.4148 72.1124 82.0954 72.0951 81.7718 72.0563C81.4697 72.0217 81.1849 71.9656 80.9346 71.9139C80.6843 71.8793 80.4901 71.806 80.3477 71.7369C80.1881 71.6679 80.1147 71.5773 80.1147 71.4866C80.1147 71.396 80.2053 71.3097 80.365 71.2364C80.5074 71.1457 80.7577 71.0767 81.077 71.0249C81.3964 70.9731 81.7891 70.917 82.2681 70.8825C82.445 70.8652 82.6435 70.848 82.8377 70.848V70.7056C82.8377 70.6149 83.157 70.5459 83.5497 70.5459C83.9424 70.5459 84.2617 70.6149 84.2617 70.7056V70.8307C84.4214 70.8307 84.5983 70.8307 84.758 70.848C85.0428 70.848 85.2931 70.8652 85.5218 70.8825C85.7333 70.8998 85.9318 70.917 86.0914 70.9343C86.2511 70.9515 86.3762 70.9515 86.4453 70.9688C86.5359 70.9861 86.5877 71.0033 86.605 71.0033C86.6395 71.0206 86.6567 71.0206 86.674 71.0378C86.674 71.0551 86.6913 71.0724 86.7085 71.0896V71.2105C86.6913 71.245 86.674 71.2622 86.6395 71.2622C86.6222 71.2795 86.5877 71.2795 86.5489 71.2968H86.4237C86.3547 71.2968 86.2468 71.2968 86.1044 71.2795C85.9792 71.2622 85.8023 71.245 85.6081 71.2105C85.3967 71.1932 85.1464 71.1759 84.8616 71.1587C84.6846 71.1587 84.4689 71.1414 84.2574 71.1414V71.8707C84.3653 71.888 84.4905 71.888 84.594 71.9052C84.9134 71.9225 85.2543 71.957 85.5736 71.9958C85.8929 72.0304 86.1777 72.0649 86.428 72.121C86.6783 72.1728 86.8725 72.2289 87.0149 72.2979C87.1832 72.3713 87.2566 72.4619 87.2566 72.5482ZM84.2661 72.9064C84.443 72.8891 84.6027 72.8719 84.7451 72.8546C84.9392 72.8201 85.0817 72.7856 85.1895 72.7467C85.2974 72.6949 85.3492 72.6388 85.3492 72.5871C85.3492 72.518 85.2802 72.4619 85.1162 72.4274C84.9738 72.3929 84.7796 72.3368 84.5293 72.3195C84.4387 72.3022 84.3524 72.285 84.2617 72.285V72.9064H84.2661ZM82.8463 71.1802C82.6866 71.1975 82.5615 71.1975 82.4364 71.232C82.2767 71.2493 82.1515 71.2838 82.0825 71.3227C81.9919 71.3744 81.9574 71.4133 81.9574 71.4651C81.9574 71.5168 82.0264 71.5729 82.1904 71.6247C82.3501 71.6593 82.5442 71.6938 82.7945 71.7326C82.8118 71.7326 82.8291 71.7326 82.8463 71.7499V71.1802Z" fill="#FE7509"/>
<path fill-rule="evenodd" clip-rule="evenodd" d="M83.5557 69.1689C85.0661 69.1689 86.4902 69.2941 87.6812 69.5055H91.2931V71.3741C91.2931 72.5824 87.8409 73.5792 83.5557 73.5792C79.2879 73.5792 75.8184 72.5824 75.8184 71.3741V69.5055H79.4303C80.6213 69.2941 82.0411 69.1689 83.5557 69.1689Z" fill="#FECB14"/>
<path fill-rule="evenodd" clip-rule="evenodd" d="M83.7852 69.1689C85.2092 69.1862 86.5426 69.3114 87.6819 69.5055H91.2938V71.3741C91.2938 72.5651 87.9494 73.5447 83.7895 73.5792V69.1689H83.7852Z" fill="#FE9F0E"/>
<path fill-rule="evenodd" clip-rule="evenodd" d="M83.5557 71.7106C87.8236 71.7106 91.2931 70.7137 91.2931 69.5054C91.2931 68.2971 87.8236 67.3003 83.5557 67.3003C79.2879 67.3003 75.8184 68.2971 75.8184 69.5054C75.8184 70.718 79.2836 71.7106 83.5557 71.7106Z" fill="#FEFE1E"/>
<path fill-rule="evenodd" clip-rule="evenodd" d="M83.5557 71.43C87.4524 71.43 90.6328 70.5756 90.6328 69.5097C90.6328 68.4611 87.4481 67.5894 83.5557 67.5894C79.6632 67.5894 76.4785 68.4611 76.4785 69.5097C76.4742 70.5756 79.6589 71.43 83.5557 71.43Z" fill="#FE9F0E"/>
<path fill-rule="evenodd" clip-rule="evenodd" d="M83.3768 71.43C87.1656 71.43 90.2597 70.5756 90.2597 69.5097C90.2597 68.4611 87.1656 67.5894 83.3768 67.5894C79.5707 67.5894 76.4766 68.4611 76.4766 69.5097C76.4766 70.5756 79.5707 71.43 83.3768 71.43Z" fill="#FECB14"/>
<path fill-rule="evenodd" clip-rule="evenodd" d="M87.2566 69.8987C87.2566 70.0239 87.1487 70.1102 86.9545 70.2008C86.7603 70.2914 86.4755 70.3777 86.1173 70.4338C85.7419 70.4856 85.319 70.5417 84.8184 70.5762C84.6415 70.5762 84.4646 70.5935 84.2661 70.5935V70.7532C84.2661 70.8222 83.9467 70.8956 83.554 70.8956C83.1613 70.8956 82.842 70.8265 82.842 70.7532V70.6107C82.5917 70.6107 82.3457 70.6107 82.0954 70.5935C81.7588 70.5935 81.4568 70.5762 81.1892 70.559C80.9217 70.5417 80.693 70.5244 80.5117 70.5072C80.3348 70.4727 80.1924 70.4554 80.1018 70.4381C80.0111 70.4381 79.9594 70.4036 79.9248 70.3864C79.8903 70.3518 79.873 70.3173 79.873 70.2612C79.873 70.2267 79.8731 70.2094 79.8903 70.1706L79.9421 70.1188C79.9594 70.1188 79.9939 70.1015 80.05 70.1015C80.0845 70.0843 80.1406 70.0843 80.1924 70.0843C80.2614 70.0843 80.4038 70.1015 80.5678 70.1188C80.7275 70.1361 80.9433 70.1706 81.172 70.1878C81.4223 70.2224 81.7071 70.2396 82.0437 70.2569C82.2939 70.2742 82.5615 70.2914 82.842 70.2914V69.5103L82.7341 69.4931C82.4148 69.4758 82.0954 69.4413 81.7718 69.4025C81.4697 69.3679 81.1849 69.3334 80.9346 69.2773C80.6843 69.2255 80.4901 69.1522 80.3477 69.0831C80.1881 69.0141 80.1147 68.9407 80.1147 68.8328C80.1147 68.7422 80.2053 68.6559 80.365 68.5825C80.5074 68.4919 80.7577 68.4401 81.077 68.3711C81.3964 68.3193 81.7891 68.2632 82.2681 68.2287C82.445 68.2114 82.6435 68.2114 82.8377 68.1942V68.0518C82.8377 67.9611 83.157 67.8921 83.5497 67.8921C83.9424 67.8921 84.2617 67.9611 84.2617 68.0518V68.1769C84.4214 68.1769 84.5983 68.1769 84.758 68.1942C85.0428 68.1942 85.2931 68.2114 85.5218 68.2287C85.7333 68.2459 85.9318 68.2632 86.0914 68.2805C86.2511 68.2977 86.3762 68.315 86.4453 68.315C86.5359 68.3323 86.5877 68.3495 86.605 68.3495C86.6395 68.3668 86.6567 68.384 86.674 68.384C86.674 68.4013 86.6913 68.4186 86.7085 68.4358V68.5739C86.6913 68.5912 86.674 68.6084 86.6395 68.6084C86.6222 68.6257 86.5877 68.643 86.5489 68.643C86.4971 68.643 86.4582 68.6602 86.4237 68.6602C86.3547 68.6602 86.2468 68.643 86.1044 68.6257C85.9792 68.6084 85.8023 68.5912 85.6081 68.5739C85.3967 68.5567 85.1464 68.5221 84.8616 68.5049C84.6846 68.5049 84.4689 68.4876 84.2574 68.4876V69.2169C84.3653 69.2342 84.4905 69.2342 84.594 69.2514C84.9134 69.2859 85.2543 69.3032 85.5736 69.342C85.8929 69.3766 86.1777 69.4327 86.428 69.4672C86.6783 69.519 86.8725 69.5751 87.0149 69.6441C87.1832 69.7218 87.2566 69.8081 87.2566 69.8987ZM84.2661 70.2569C84.443 70.2569 84.6027 70.2396 84.7451 70.2051C84.9392 70.1878 85.0817 70.1533 85.1895 70.0972C85.2974 70.0627 85.3492 70.0066 85.3492 69.9376C85.3492 69.8858 85.2802 69.8297 85.1162 69.7779C84.9738 69.7434 84.7796 69.7088 84.5293 69.67C84.4387 69.6527 84.3524 69.6527 84.2617 69.6355V70.2569H84.2661ZM82.8463 68.5308C82.6866 68.548 82.5615 68.5653 82.4364 68.5825C82.2767 68.6171 82.1515 68.6343 82.0825 68.6904C81.9919 68.7249 81.9574 68.7595 81.9574 68.8156C81.9574 68.8674 82.0264 68.9235 82.1904 68.9752C82.3501 69.0098 82.5442 69.0659 82.7945 69.0831C82.8118 69.1004 82.8291 69.1004 82.8463 69.1004V68.5308Z" fill="#FE7509"/>
<path fill-rule="evenodd" clip-rule="evenodd" d="M83.5203 75.2368L83.913 76.6048L85.3198 76.3372L83.9476 76.7299L84.2151 78.1324L83.8224 76.7644L82.4199 77.032L83.7879 76.6393L83.5203 75.2368Z" fill="white"/>
<path fill-rule="evenodd" clip-rule="evenodd" d="M83.5557 66.4849C85.0661 66.4849 86.4902 66.61 87.6812 66.8215H91.2931V68.69C91.2931 69.8983 87.8409 70.8951 83.5557 70.8951C79.2879 70.8951 75.8184 69.8983 75.8184 68.69V66.8215H79.4303C80.6213 66.61 82.0411 66.4849 83.5557 66.4849Z" fill="#FECB14"/>
<path fill-rule="evenodd" clip-rule="evenodd" d="M83.7852 66.4849C85.2092 66.5021 86.5426 66.61 87.6819 66.8215H91.2938V68.69C91.2938 69.881 87.9494 70.8606 83.7895 70.8951V66.4849H83.7852Z" fill="#FE9F0E"/>
<path fill-rule="evenodd" clip-rule="evenodd" d="M83.5557 69.027C87.8236 69.027 91.2931 68.0301 91.2931 66.8218C91.2931 65.6135 87.8236 64.6167 83.5557 64.6167C79.2879 64.6167 75.8184 65.6135 75.8184 66.8218C75.8184 68.0301 79.2836 69.027 83.5557 69.027Z" fill="#FEFE1E"/>
<path fill-rule="evenodd" clip-rule="evenodd" d="M83.5557 68.742C87.4524 68.742 90.6328 67.8703 90.6328 66.8217C90.6328 65.7731 87.4481 64.9014 83.5557 64.9014C79.6632 64.9014 76.4785 65.7731 76.4785 66.8217C76.4742 67.8703 79.6589 68.742 83.5557 68.742Z" fill="#FE9F0E"/>
<path fill-rule="evenodd" clip-rule="evenodd" d="M83.3768 68.742C87.1656 68.742 90.2597 67.8703 90.2597 66.8217C90.2597 65.7731 87.1656 64.9014 83.3768 64.9014C79.5707 64.9014 76.4766 65.7731 76.4766 66.8217C76.4766 67.8703 79.5707 68.742 83.3768 68.742Z" fill="#FECB14"/>
<path fill-rule="evenodd" clip-rule="evenodd" d="M87.2566 67.2146C87.2566 67.3398 87.1487 67.4261 86.9545 67.5167C86.7603 67.6073 86.4755 67.6936 86.1173 67.7497C85.7419 67.8015 85.319 67.8576 84.8184 67.8921C84.6415 67.8921 84.4646 67.9094 84.2661 67.9094V68.0518C84.2661 68.1424 83.9467 68.2115 83.554 68.2115C83.1613 68.2115 82.842 68.1424 82.842 68.0518V67.9267C82.5917 67.9267 82.3457 67.9267 82.0954 67.9094C81.7588 67.9094 81.4568 67.8921 81.1892 67.8749C80.9217 67.8576 80.693 67.8404 80.5117 67.8058C80.3348 67.7886 80.1924 67.7713 80.1018 67.7541C80.0111 67.7368 79.9594 67.7195 79.9248 67.685C79.8903 67.6677 79.873 67.6332 79.873 67.5771C79.873 67.5426 79.8731 67.5081 79.8903 67.4865L79.9421 67.4347C79.9594 67.4347 79.9939 67.4175 80.05 67.4175C80.0845 67.4002 80.1406 67.4002 80.1924 67.4002C80.2614 67.4002 80.4038 67.4175 80.5678 67.4347C80.7275 67.452 80.9433 67.4865 81.172 67.5038C81.4223 67.5383 81.7071 67.5555 82.0437 67.5728C82.2939 67.5901 82.5615 67.6073 82.842 67.6073V66.8263L82.7341 66.809C82.4148 66.7917 82.0954 66.7572 81.7718 66.7184C81.4697 66.6838 81.1849 66.6277 80.9346 66.5932C80.6843 66.5414 80.4901 66.4681 80.3477 66.399C80.1881 66.33 80.1147 66.2566 80.1147 66.1487C80.1147 66.0581 80.2053 65.9718 80.365 65.8985C80.5074 65.8078 80.7577 65.7388 81.077 65.687C81.3964 65.6352 81.7891 65.5791 82.2681 65.5446C82.445 65.5273 82.6435 65.5101 82.8377 65.5101V65.3677C82.8377 65.2771 83.157 65.208 83.5497 65.208C83.9424 65.208 84.2617 65.2771 84.2617 65.3677V65.4928C84.4214 65.4928 84.5983 65.4928 84.758 65.5101C85.0428 65.5101 85.2931 65.5273 85.5218 65.5446C85.7333 65.5619 85.9318 65.5791 86.0914 65.5964C86.2511 65.6136 86.3762 65.6309 86.4453 65.6309C86.5359 65.6482 86.5877 65.6654 86.605 65.6654C86.6395 65.6827 86.6567 65.7 86.674 65.7C86.674 65.7172 86.6913 65.7345 86.7085 65.7517V65.8941C86.6913 65.9114 86.674 65.9287 86.6395 65.9287C86.6222 65.9459 86.5877 65.9632 86.5489 65.9632H86.4237C86.3547 65.9632 86.2468 65.9632 86.1044 65.9459C85.9792 65.9287 85.8023 65.9114 85.6081 65.8941C85.3967 65.8596 85.1464 65.8424 84.8616 65.8251C84.6846 65.8251 84.4689 65.8078 84.2574 65.8078V66.5371C84.3653 66.5544 84.4905 66.5544 84.594 66.5717C84.9134 66.5889 85.2543 66.6234 85.5736 66.6623C85.8929 66.6968 86.1777 66.7529 86.428 66.7874C86.6783 66.8392 86.8725 66.8953 87.0149 66.9643C87.1832 67.0334 87.2566 67.124 87.2566 67.2146ZM84.2661 67.5685C84.443 67.5512 84.6027 67.534 84.7451 67.5167C84.9392 67.4994 85.0817 67.4477 85.1895 67.4088C85.2974 67.357 85.3492 67.3009 85.3492 67.2492C85.3492 67.1801 85.2802 67.124 85.1162 67.0895C84.9738 67.055 84.7796 67.0204 84.5293 66.9816C84.4387 66.9643 84.3524 66.9471 84.2617 66.9471V67.5685H84.2661ZM82.8463 65.8424C82.6866 65.8596 82.5615 65.8769 82.4364 65.8941C82.2767 65.9114 82.1515 65.9459 82.0825 66.002C81.9919 66.0365 81.9574 66.0711 81.9574 66.1272C81.9574 66.179 82.0264 66.2351 82.1904 66.2868C82.3501 66.3214 82.5442 66.3559 82.7945 66.3947C82.8118 66.3947 82.8291 66.412 82.8463 66.412V65.8424Z" fill="#FE7509"/>
<path fill-rule="evenodd" clip-rule="evenodd" d="M83.5557 63.8696C85.0661 63.8696 86.4902 63.9948 87.6812 64.2062H91.2931V66.0748C91.2931 67.2831 87.8409 68.2799 83.5557 68.2799C79.2879 68.2799 75.8184 67.2831 75.8184 66.0748V64.2062H79.4303C80.6213 63.9948 82.0411 63.8696 83.5557 63.8696Z" fill="#FECB14"/>
<path fill-rule="evenodd" clip-rule="evenodd" d="M83.7852 63.8696C85.2092 63.8869 86.5426 64.012 87.6819 64.2062H91.2938V66.0748C91.2938 67.2658 87.9494 68.2454 83.7895 68.2799V63.8696H83.7852Z" fill="#FE9F0E"/>
<path fill-rule="evenodd" clip-rule="evenodd" d="M83.5557 66.4117C87.8236 66.4117 91.2931 65.4149 91.2931 64.2066C91.2931 62.9983 87.8236 62.0015 83.5557 62.0015C79.2879 62.0015 75.8184 62.9983 75.8184 64.2066C75.8184 65.4149 79.2836 66.4117 83.5557 66.4117Z" fill="#FEFE1E"/>
<path fill-rule="evenodd" clip-rule="evenodd" d="M83.5557 66.1268C87.4524 66.1268 90.6328 65.2723 90.6328 64.2065C90.6328 63.1578 87.4481 62.2861 83.5557 62.2861C79.6632 62.2861 76.4785 63.1578 76.4785 64.2065C76.4742 65.2723 79.6589 66.1268 83.5557 66.1268Z" fill="#FE9F0E"/>
<path fill-rule="evenodd" clip-rule="evenodd" d="M83.3768 66.1268C87.1656 66.1268 90.2597 65.2723 90.2597 64.2065C90.2597 63.1578 87.1656 62.2861 83.3768 62.2861C79.5707 62.2861 76.4766 63.1578 76.4766 64.2065C76.4766 65.2723 79.5707 66.1268 83.3768 66.1268Z" fill="#FECB14"/>
<path fill-rule="evenodd" clip-rule="evenodd" d="M87.2566 64.5999C87.2566 64.725 87.1487 64.8113 86.9545 64.902C86.7603 64.9926 86.4755 65.0789 86.1173 65.135C85.7419 65.1868 85.319 65.2429 84.8184 65.2774C84.6415 65.2774 84.4646 65.2947 84.2661 65.2947V65.4543C84.2661 65.5234 83.9467 65.5967 83.554 65.5967C83.1613 65.5967 82.842 65.5277 82.842 65.4543V65.3119C82.5917 65.3119 82.3457 65.3119 82.0954 65.2947C81.7588 65.2947 81.4568 65.2774 81.1892 65.2601C80.9217 65.2429 80.693 65.2256 80.5117 65.2084C80.3348 65.1738 80.1924 65.1566 80.1018 65.1393C80.0111 65.1393 79.9594 65.1048 79.9248 65.0875C79.8903 65.053 79.873 65.0185 79.873 64.9624C79.873 64.9279 79.8731 64.9106 79.8903 64.8718L79.9421 64.82C79.9594 64.82 79.9939 64.8027 80.05 64.8027C80.0845 64.7855 80.1406 64.7854 80.1924 64.7854C80.2614 64.7854 80.4038 64.8027 80.5678 64.82C80.7275 64.8372 80.9433 64.8718 81.172 64.889C81.4223 64.9235 81.7071 64.9408 82.0437 64.9581C82.2939 64.9753 82.5615 64.9926 82.842 64.9926V64.2115L82.7341 64.1943C82.4148 64.177 82.0954 64.1425 81.7718 64.1036C81.4697 64.0691 81.1849 64.0346 80.9346 63.9785C80.6843 63.9267 80.4901 63.8533 80.3477 63.7843C80.1881 63.7153 80.1147 63.6419 80.1147 63.534C80.1147 63.4434 80.2053 63.3571 80.365 63.2837C80.5074 63.1931 80.7577 63.1413 81.077 63.0723C81.3964 63.0205 81.7891 62.9644 82.2681 62.9299C82.445 62.9126 82.6435 62.9126 82.8377 62.8953V62.7529C82.8377 62.6623 83.157 62.5933 83.5497 62.5933C83.9424 62.5933 84.2617 62.6623 84.2617 62.7529V62.8781C84.4214 62.8781 84.5983 62.8781 84.758 62.8953C85.0428 62.8953 85.2931 62.9126 85.5218 62.9299C85.7333 62.9471 85.9318 62.9644 86.0914 62.9816C86.2511 62.9989 86.3762 63.0162 86.4453 63.0162C86.5359 63.0334 86.5877 63.0507 86.605 63.0507C86.6395 63.068 86.6567 63.0852 86.674 63.0852C86.674 63.1025 86.6913 63.1197 86.7085 63.137V63.2751C86.6913 63.2923 86.674 63.3096 86.6395 63.3096C86.6222 63.3269 86.5877 63.3441 86.5489 63.3441C86.4971 63.3441 86.4582 63.3614 86.4237 63.3614C86.3547 63.3614 86.2468 63.3441 86.1044 63.3269C85.9792 63.3096 85.8023 63.2923 85.6081 63.2751C85.3967 63.2578 85.1464 63.2233 84.8616 63.206C84.6846 63.206 84.4689 63.1888 84.2574 63.1888V63.9181C84.3653 63.9353 84.4905 63.9353 84.594 63.9526C84.9134 63.9871 85.2543 64.0044 85.5736 64.0432C85.8929 64.0777 86.1777 64.1338 86.428 64.1684C86.6783 64.2201 86.8725 64.2935 87.0149 64.3453C87.1832 64.423 87.2566 64.5093 87.2566 64.5999ZM84.2661 64.9537C84.443 64.9537 84.6027 64.9365 84.7451 64.902C84.9392 64.8847 85.0817 64.8502 85.1895 64.7941C85.2974 64.7596 85.3492 64.7035 85.3492 64.6344C85.3492 64.5826 85.2802 64.5265 85.1162 64.4747C84.9738 64.4402 84.7796 64.4057 84.5293 64.3669C84.4387 64.3496 84.3524 64.3496 84.2617 64.3323V64.9537H84.2661ZM82.8463 63.2276C82.6866 63.2449 82.5615 63.2621 82.4364 63.2794C82.2767 63.3139 82.1515 63.3312 82.0825 63.3873C81.9919 63.4218 81.9574 63.4563 81.9574 63.5124C81.9574 63.5642 82.0264 63.6203 82.1904 63.6721C82.3501 63.7066 82.5442 63.7627 82.7945 63.78C82.8118 63.7972 82.8291 63.7972 82.8463 63.7972V63.2276Z" fill="#FE7509"/>
<path fill-rule="evenodd" clip-rule="evenodd" d="M83.5557 61.2197C85.0661 61.2197 86.4902 61.3449 87.6812 61.5563H91.2931V63.4249C91.2931 64.6504 87.8409 65.63 83.5557 65.63C79.2879 65.63 75.8184 64.6504 75.8184 63.4249V61.5563H79.4303C80.6213 61.3449 82.0411 61.2197 83.5557 61.2197Z" fill="#FECB14"/>
<path fill-rule="evenodd" clip-rule="evenodd" d="M83.7852 61.2197C85.2092 61.237 86.5426 61.3621 87.6819 61.5563H91.2938V63.4249C91.2938 64.6159 87.9494 65.5955 83.7895 65.63V61.2197H83.7852Z" fill="#FE9F0E"/>
<path fill-rule="evenodd" clip-rule="evenodd" d="M83.5557 63.7628C87.8236 63.7628 91.2931 62.7832 91.2931 61.5577C91.2931 60.3494 87.8236 59.3525 83.5557 59.3525C79.2879 59.3525 75.8184 60.3494 75.8184 61.5577C75.8184 62.7832 79.2836 63.7628 83.5557 63.7628Z" fill="#FEFE1E"/>
<path fill-rule="evenodd" clip-rule="evenodd" d="M83.5557 63.4769C87.4524 63.4769 90.6328 62.6224 90.6328 61.5566C90.6328 60.5079 87.4481 59.6362 83.5557 59.6362C79.6632 59.6362 76.4785 60.5079 76.4785 61.5566C76.4742 62.6224 79.6589 63.4769 83.5557 63.4769Z" fill="#FE9F0E"/>
<path fill-rule="evenodd" clip-rule="evenodd" d="M83.3768 63.4769C87.1656 63.4769 90.2597 62.6224 90.2597 61.5566C90.2597 60.5079 87.1656 59.6362 83.3768 59.6362C79.5707 59.6362 76.4766 60.5079 76.4766 61.5566C76.4766 62.6224 79.5707 63.4769 83.3768 63.4769Z" fill="#FECB14"/>
<path fill-rule="evenodd" clip-rule="evenodd" d="M87.2566 61.9668C87.2566 62.0747 87.1487 62.1783 86.9545 62.2689C86.7603 62.3595 86.4755 62.4286 86.1173 62.4804C85.7419 62.5494 85.319 62.5882 84.8184 62.6228C84.6415 62.64 84.4646 62.64 84.2661 62.6573V62.7997C84.2661 62.8903 83.9467 62.9594 83.554 62.9594C83.1613 62.9594 82.842 62.8903 82.842 62.7997V62.6746C82.5917 62.6746 82.3457 62.6573 82.0954 62.6573C81.7588 62.64 81.4568 62.6228 81.1892 62.6055C80.9217 62.5882 80.693 62.571 80.5117 62.5537C80.3348 62.5365 80.1924 62.5192 80.1018 62.5019C80.0111 62.4847 79.9594 62.4674 79.9248 62.4329C79.8903 62.3984 79.873 62.3638 79.873 62.3077C79.873 62.2732 79.8731 62.256 79.8903 62.2387C79.9076 62.2042 79.9248 62.1869 79.9421 62.1869C79.9594 62.1697 79.9939 62.1524 80.05 62.1524H80.1924C80.2614 62.1524 80.4038 62.1524 80.5678 62.1697C80.7275 62.2042 80.9433 62.2214 81.172 62.2603C81.4223 62.2775 81.7071 62.2948 82.0437 62.3293C82.2939 62.3466 82.5615 62.3466 82.842 62.3466V61.5655H82.7341C82.4148 61.531 82.0954 61.4965 81.7718 61.4576C81.4697 61.4231 81.1849 61.3886 80.9346 61.3325C80.6843 61.2807 80.4901 61.2246 80.3477 61.1556C80.1881 61.0865 80.1147 60.9959 80.1147 60.888C80.1147 60.7974 80.2053 60.7283 80.365 60.6377C80.5074 60.5687 80.7577 60.4953 81.077 60.4263C81.3964 60.3745 81.7891 60.3184 82.2681 60.2839C82.445 60.2666 82.6435 60.2666 82.8377 60.2493V60.1069C82.8377 60.0163 83.157 59.9473 83.5497 59.9473C83.9424 59.9473 84.2617 60.0163 84.2617 60.1069V60.2321C84.4214 60.2321 84.5983 60.2493 84.758 60.2493C85.0428 60.2666 85.2931 60.2666 85.5218 60.2839C85.7333 60.3011 85.9318 60.3184 86.0914 60.3356C86.2511 60.3529 86.3762 60.3702 86.4453 60.3874C86.5359 60.4047 86.5877 60.4047 86.605 60.422C86.6395 60.422 86.6567 60.4392 86.674 60.4565L86.7085 60.491V60.6291C86.6913 60.6463 86.674 60.6636 86.6395 60.6809C86.6222 60.6981 86.5877 60.6981 86.5489 60.6981C86.4971 60.7154 86.4582 60.7154 86.4237 60.7154C86.3547 60.7154 86.2468 60.6981 86.1044 60.6809C85.9792 60.6636 85.8023 60.6463 85.6081 60.6291C85.3967 60.6118 85.1464 60.5946 84.8616 60.5773C84.6846 60.56 84.4689 60.56 84.2574 60.5428V61.2893C84.3653 61.2893 84.4905 61.3066 84.594 61.3066C84.9134 61.3411 85.2543 61.3756 85.5736 61.4145C85.8929 61.449 86.1777 61.4835 86.428 61.5396C86.6783 61.5741 86.8725 61.6475 87.0149 61.7166C87.1832 61.7899 87.2566 61.859 87.2566 61.9668ZM84.2661 62.3207C84.443 62.3034 84.6027 62.2862 84.7451 62.2689C84.9392 62.2344 85.0817 62.1999 85.1895 62.1438C85.2974 62.1092 85.3492 62.0531 85.3492 61.9841C85.3492 61.9323 85.2802 61.8762 85.1162 61.8244C84.9738 61.7899 84.7796 61.7554 84.5293 61.7166C84.4387 61.6993 84.3524 61.6993 84.2617 61.682V62.3207H84.2661ZM82.8463 60.5773C82.6866 60.5946 82.5615 60.6118 82.4364 60.6291C82.2767 60.6636 82.1515 60.6981 82.0825 60.737C81.9919 60.7715 81.9574 60.8276 81.9574 60.8621C81.9574 60.9312 82.0264 60.9873 82.1904 61.0218C82.3501 61.0736 82.5442 61.1124 82.7945 61.1469H82.8463V60.5773Z" fill="#FE7509"/>
<path fill-rule="evenodd" clip-rule="evenodd" d="M86.9735 65.6829L87.3662 67.0551L88.7515 66.7876L87.3835 67.176L87.6511 68.5828L87.2584 67.2148L85.8516 67.4824L87.2238 67.0897L86.9735 65.6829ZM88.2379 60.0298L88.6263 61.3977L90.0331 61.1302L88.6652 61.5401L88.9284 62.9254L88.54 61.5574L87.1332 61.825L88.5012 61.4323L88.2379 60.0298Z" fill="white"/>
<path fill-rule="evenodd" clip-rule="evenodd" d="M82.685 42.846C87.5743 42.5094 91.8292 46.2076 92.1831 51.0969C92.5197 56.0077 88.8214 60.2583 83.9322 60.5949C79.0213 60.9488 74.7707 57.2505 74.4341 52.344C74.076 47.4547 77.7742 43.1998 82.685 42.846Z" fill="#FEFE1E"/>
<path fill-rule="evenodd" clip-rule="evenodd" d="M82.72 43.4497C87.2899 43.1304 91.2557 46.5783 91.5794 51.1526C91.8987 55.7052 88.4507 59.671 83.8765 59.9904C79.3066 60.3097 75.358 56.879 75.0387 52.3048C74.715 47.7391 78.15 43.769 82.72 43.4497Z" fill="#FE9F0E"/>
<path fill-rule="evenodd" clip-rule="evenodd" d="M82.7551 44.0024C87.1654 43.7004 91.006 47.0275 91.3124 51.4378C91.6318 55.8653 88.2874 59.6887 83.8771 59.995C79.4669 60.3144 75.6435 56.97 75.3198 52.5597C75.0178 48.1452 78.3449 44.3218 82.7551 44.0024Z" fill="#FECB14"/>
<path fill-rule="evenodd" clip-rule="evenodd" d="M87.0233 54.1943C87.0406 54.6215 86.9888 55.0142 86.8464 55.3508C86.704 55.6874 86.4925 55.9895 86.2077 56.2398C85.9229 56.4728 85.5863 56.6843 85.1763 56.8267C85.0167 56.8784 84.8743 56.9173 84.7146 56.9518L84.7491 57.5042C84.7836 57.8235 84.5377 58.1083 84.214 58.1256C83.8774 58.1428 83.6099 57.8926 83.5753 57.5732L83.5408 57.1115C83.3294 57.1115 83.1136 57.1115 82.9194 57.0942C82.6346 57.0597 82.3843 57.0252 82.1556 56.9691C81.9226 56.9173 81.7457 56.8612 81.586 56.7921C81.4263 56.7231 81.3012 56.667 81.2321 56.6152C81.1631 56.5634 81.0897 56.4728 81.0552 56.3649C81.0207 56.257 80.9862 56.1146 80.9862 55.9204C80.9689 55.7953 80.9689 55.709 80.9862 55.6184C80.9862 55.5493 81.0034 55.476 81.0034 55.4242C81.0207 55.3724 81.0552 55.3336 81.094 55.3163C81.1286 55.299 81.1631 55.2818 81.2019 55.2818C81.271 55.2645 81.3789 55.299 81.5213 55.3724C81.6637 55.463 81.8406 55.5321 82.0564 55.6227C82.2678 55.6917 82.5181 55.7651 82.7856 55.8341C82.9971 55.8859 83.2301 55.9032 83.4804 55.9032L83.269 52.986L83.1783 52.9515C82.8935 52.8609 82.626 52.7746 82.3584 52.6494C82.0909 52.5415 81.8406 52.3991 81.6291 52.2222C81.4177 52.0453 81.2192 51.8295 81.0768 51.562C80.9344 51.3117 80.8653 51.0096 80.8265 50.6385C80.8092 50.3191 80.8437 49.9998 80.9516 49.6977C81.0768 49.3957 81.2537 49.1109 81.504 48.8778C81.7543 48.6275 82.0736 48.4334 82.4447 48.2564C82.6044 48.2046 82.7468 48.1485 82.9237 48.0968L82.8892 47.5617C82.872 47.2423 83.1007 46.9575 83.4416 46.9402C83.7609 46.9057 84.0457 47.1517 84.063 47.4753L84.0975 47.9543C84.2399 47.9543 84.3823 47.9544 84.5247 47.9716C84.7577 47.9889 84.9519 48.0234 85.1461 48.0795C85.3403 48.114 85.5 48.1701 85.6424 48.2219C85.7675 48.2909 85.8754 48.3298 85.9445 48.3816C86.0135 48.4334 86.0696 48.4722 86.0869 48.5067C86.1214 48.5412 86.1387 48.5758 86.1559 48.6319C86.1559 48.6664 86.1732 48.7225 86.1904 48.7915C86.2077 48.8606 86.2077 48.9339 86.225 49.0418V49.3094C86.225 49.3784 86.2077 49.4518 86.1904 49.5036C86.1732 49.5553 86.1559 49.5942 86.1214 49.6114C86.0869 49.6287 86.0523 49.646 86.0135 49.646C85.9617 49.646 85.8711 49.6287 85.746 49.5553C85.6381 49.5036 85.4957 49.4475 85.3187 49.3784C85.1246 49.3094 84.926 49.2533 84.6801 49.2015C84.5377 49.167 84.3607 49.1497 84.1622 49.1497L84.3564 51.8727C84.4643 51.9072 84.5506 51.9417 84.6412 51.9633C84.926 52.0539 85.2109 52.1575 85.4784 52.2654C85.7632 52.3732 86.0135 52.5157 86.225 52.6753C86.4364 52.8522 86.6177 53.0508 86.7601 53.2967C86.8982 53.5341 86.9888 53.8361 87.0233 54.1943ZM84.624 55.6874C84.7836 55.6356 84.9088 55.5623 85.0167 55.476C85.1763 55.3508 85.2842 55.2084 85.3533 55.0315C85.4439 54.8546 85.4611 54.6561 85.4439 54.4273C85.4266 54.1986 85.3533 54.0001 85.2109 53.8577C85.0857 53.7153 84.9088 53.5729 84.693 53.465C84.624 53.4305 84.5506 53.396 84.46 53.3571L84.624 55.6874ZM83.0057 49.3568C82.8806 49.4086 82.7554 49.482 82.6691 49.5683C82.544 49.6762 82.4577 49.8186 82.4016 49.961C82.3498 50.1206 82.3325 50.2803 82.3325 50.44C82.3498 50.6903 82.4404 50.8845 82.5656 51.0269C82.708 51.1865 82.8849 51.3117 83.1007 51.4196C83.1179 51.4368 83.1352 51.4368 83.1524 51.4541L83.0057 49.3568Z" fill="#FE7509"/>
<path fill-rule="evenodd" clip-rule="evenodd" d="M81.9023 46.9028L81.7987 48.5729L83.4342 48.9828L81.7599 48.8749L81.3542 50.5104L81.4578 48.8404L79.8223 48.4305L81.4966 48.5383L81.9023 46.9028Z" fill="white"/>
</svg>
