<svg width="94" height="60" viewBox="0 0 94 60" fill="none" xmlns="http://www.w3.org/2000/svg">
<path d="M17.9895 22.3113C17.962 22.3732 17.8933 22.4145 17.8314 22.4076C17.7661 22.4007 17.7317 22.3354 17.7557 22.27L20.3892 14.7783C20.4133 14.7094 20.4855 14.6613 20.5542 14.6681C20.6195 14.675 20.6539 14.7404 20.6299 14.8058L17.9964 22.2975C17.993 22.3009 17.9895 22.3078 17.9895 22.3113ZM20.5233 26.4202C20.4923 26.4856 20.4167 26.5269 20.3548 26.5131C20.2895 26.4993 20.262 26.4339 20.2929 26.3651L23.3115 19.5548C23.3424 19.486 23.418 19.4447 23.4834 19.4584C23.5487 19.4722 23.5762 19.5376 23.5452 19.6064L20.5233 26.4202C20.5267 26.4202 20.5267 26.4202 20.5233 26.4202Z" fill="#AECAE1"/>
<path d="M81.8008 37.7638C81.7939 37.812 81.818 37.867 81.8592 37.8877C81.9039 37.9118 81.952 37.8843 81.9658 37.8326L83.4338 32.1201C83.4476 32.0685 83.4235 32.0065 83.3788 31.9859C83.3341 31.9618 83.286 31.9893 83.2722 32.0409L81.8042 37.7535C81.8008 37.7569 81.8008 37.7604 81.8008 37.7638ZM78.5382 39.2505C78.5313 39.3021 78.5588 39.3606 78.6035 39.3778C78.6482 39.395 78.6929 39.3675 78.7032 39.3124L79.6555 33.8614C79.6658 33.8063 79.6349 33.7478 79.5902 33.7306C79.5455 33.7134 79.5008 33.7409 79.4905 33.796L78.5382 39.2505Z" fill="#B6CBDC"/>
<path d="M39.977 12.9493C40.0114 12.9114 40.0252 12.8633 40.0183 12.822C39.9839 12.6843 39.9426 12.5467 39.8945 12.4056C39.8498 12.2714 39.7982 12.1303 39.7432 11.9926L39.7398 11.9892C39.3582 11.1839 38.9044 10.4027 38.399 9.67662C38.2718 9.50456 38.1377 9.32905 37.9968 9.15699C37.8008 8.91266 37.5945 8.66833 37.3642 8.41367C37.1613 8.18654 36.9447 7.95253 36.7007 7.69788C36.5288 7.52237 36.3603 7.35375 36.1953 7.19545C35.5696 6.59322 35.1158 6.22156 35.1123 6.21812C35.0711 6.18371 34.9954 6.20435 34.9439 6.26286C34.8923 6.32136 34.882 6.39707 34.9267 6.43148C34.9301 6.43492 35.3805 6.80314 36.0027 7.40193C36.1643 7.56023 36.3328 7.72541 36.5047 7.90091C36.7488 8.15557 36.9619 8.38614 37.1648 8.61326C37.3917 8.86792 37.598 9.10881 37.7939 9.35314C37.9314 9.52521 38.0655 9.69727 38.1893 9.8659C38.6912 10.5851 39.1382 11.356 39.5163 12.1544C39.5713 12.2886 39.6195 12.4262 39.6642 12.557C39.7089 12.6912 39.7501 12.8289 39.7845 12.9596C39.7983 13.0147 39.8636 13.0319 39.9289 12.994C39.9461 12.9803 39.9633 12.9665 39.977 12.9493ZM40.3483 16.3906C40.3655 16.37 40.3793 16.3493 40.3861 16.3218C40.6715 15.3307 40.8262 14.0712 40.84 12.5742C40.8434 12.3574 40.8434 12.1337 40.8434 11.9169V11.7724C40.864 11.4317 40.8743 11.0807 40.8675 10.7297C40.864 10.4027 40.8503 10.0689 40.8228 9.71448C40.7574 8.8748 40.644 8.05577 40.5305 7.26083C40.424 6.50375 40.3139 5.71913 40.2521 4.93796C40.2486 4.87601 40.1902 4.85192 40.1214 4.87945C40.0561 4.91042 40.0045 4.98269 40.0114 5.04464C40.0733 5.83269 40.1867 6.62075 40.2933 7.38128C40.4033 8.17278 40.5202 8.98837 40.5821 9.82116C40.6096 10.1722 40.6234 10.4991 40.6268 10.8226C40.6302 11.1702 40.6234 11.5143 40.6027 11.8515V12.0064C40.6027 12.2197 40.6027 12.4434 40.5993 12.6602C40.5855 14.1331 40.4343 15.372 40.1558 16.339C40.1352 16.4078 40.173 16.456 40.2349 16.4525C40.2761 16.4525 40.3174 16.4285 40.3483 16.3906Z" fill="#BBCEE4"/>
<path d="M71.6904 19.1729C71.6801 19.1695 71.6698 19.1626 71.6629 19.1557C71.6045 19.111 71.5942 19.0284 71.6423 18.9733C73.0587 17.3903 74.5439 16.0826 76.0566 15.0846C77.2702 14.2863 78.5045 13.684 79.7284 13.2986C81.8221 12.6379 83.1388 12.8306 83.1938 12.8409C83.2695 12.8512 83.321 12.9201 83.3107 12.9923C83.297 13.0646 83.2248 13.1093 83.1491 13.099C83.1285 13.0956 81.8255 12.9097 79.8006 13.5533C77.9234 14.1521 75.0218 15.6043 71.8623 19.1385C71.8176 19.1867 71.7454 19.197 71.6904 19.1729ZM69.0432 22.7381C68.9779 22.7106 68.947 22.6383 68.971 22.5764C70.8241 17.8549 70.745 15.0399 70.3531 13.5085C69.9371 11.8808 69.1017 11.3508 69.0913 11.344C69.026 11.3027 69.0088 11.2235 69.0535 11.165C69.0982 11.1065 69.1842 11.0893 69.2495 11.1306C69.2873 11.1547 70.1846 11.7259 70.6281 13.45C70.8825 14.448 70.9341 15.6353 70.7759 16.9774C70.58 18.6464 70.0643 20.5598 69.2357 22.6658C69.2082 22.7347 69.1292 22.7691 69.0535 22.745C69.0535 22.7415 69.0467 22.7381 69.0432 22.7381Z" fill="#B9D0E6"/>
<path fill-rule="evenodd" clip-rule="evenodd" d="M69.4428 0.956055C69.4428 0.956055 69.4395 0.956058 69.4395 0.959361C69.4428 0.959361 69.4461 0.95936 69.4461 0.962663L69.4428 0.956055Z" fill="#82AED7"/>
<path fill-rule="evenodd" clip-rule="evenodd" d="M69.4434 0.956055L69.4468 0.95954C69.4642 0.963022 69.4851 0.966502 69.4955 0.966502C69.4851 0.966502 69.4642 0.959536 69.4434 0.956055ZM69.4955 0.969983C69.5025 0.969983 69.5025 0.969983 69.4955 0.969983ZM69.4955 0.969983C69.506 0.969983 69.5025 0.969983 69.4955 0.969983Z" fill="#82AED7"/>
<path fill-rule="evenodd" clip-rule="evenodd" d="M4.5559 26.1875L4.55226 26.1911C4.53772 26.1948 4.52318 26.2021 4.51592 26.2021C4.52318 26.2021 4.54136 26.1948 4.5559 26.1875ZM4.51592 26.2021C4.51228 26.2057 4.50865 26.2057 4.51592 26.2021Z" fill="#82AED7"/>
<path fill-rule="evenodd" clip-rule="evenodd" d="M4.51644 26.2012C4.51235 26.2053 4.50826 26.2053 4.51644 26.2012Z" fill="#82AED7"/>
<path fill-rule="evenodd" clip-rule="evenodd" d="M93.3379 21.6299V21.6335C93.3524 21.6408 93.3633 21.6481 93.3706 21.6517C93.367 21.6481 93.3524 21.6408 93.3379 21.6299ZM93.3742 21.6553C93.3779 21.659 93.3779 21.659 93.3742 21.6553Z" fill="#82AED7"/>
<path fill-rule="evenodd" clip-rule="evenodd" d="M93.3691 21.6543C93.3773 21.6584 93.3732 21.6584 93.3691 21.6543Z" fill="#82AED7"/>
<path d="M45.5876 59.2894C70.2784 59.2894 90.2943 57.6789 90.2943 55.6923C90.2943 53.7057 70.2784 52.0952 45.5876 52.0952C20.8967 52.0952 0.880859 53.7057 0.880859 55.6923C0.880859 57.6789 20.8967 59.2894 45.5876 59.2894Z" fill="#9CD168"/>
<path d="M85.4561 10.5186C85.4423 5.65256 82.9911 6.37523 82.9911 6.37523L46.8204 9.41046L10.8972 5.02968C10.8972 5.02968 8.22249 4.51005 8.12623 8.53637C8.02996 12.5627 8.09185 50.8024 8.09185 50.8024C8.09185 50.8024 8.28437 54.636 12.3068 55.0214C16.3292 55.4034 77.1947 55.1316 81.2309 54.9285C85.267 54.7255 84.8373 53.7275 84.8373 53.7275C84.8373 53.7275 85.4664 14.5449 85.4561 10.5186Z" fill="#2B4563"/>
<path d="M46.8692 54.5788L10.5645 53.801C10.5645 53.801 16.1408 45.098 46.8039 52.9889C46.8039 52.9889 74.1597 45.8929 82.9437 54.0523L46.8692 54.5788Z" fill="#B0B0B0"/>
<path d="M49.0819 11.5545L49.0234 50.0007C49.0234 50.0007 70.8888 48.5175 82.9457 54.0546L83.6299 7.4043C83.6264 7.4043 64.4942 8.50207 49.0819 11.5545Z" fill="#B0B0B0"/>
<path d="M48.451 11.3411L48.3926 49.7873C48.3926 49.7873 70.6224 47.9566 82.6793 53.4902L82.999 7.1875C82.9956 7.19094 63.8634 8.28871 48.451 11.3411Z" fill="#E0E0E0"/>
<path d="M47.5956 11.1287L47.5371 49.5749C47.5371 49.5749 69.9594 47.3243 82.0129 52.8614L82.1401 6.97852C82.1401 6.97508 63.0079 8.0763 47.5956 11.1287Z" fill="#EDEDED"/>
<path d="M46.7598 8.89742L46.9695 53.6481C46.9695 53.6481 60.405 52.9908 81.3043 52.6157V6.79479C81.3043 6.79479 62.4128 2.15936 46.7598 8.89742Z" fill="white"/>
<path d="M45.109 9.97833L47.0274 53.6622C47.0274 53.6622 22.6179 47.867 10.5645 53.6966V5.60788C10.5645 5.60788 29.456 3.24027 45.109 9.97833Z" fill="#B0B0B0"/>
<path d="M45.109 9.97854L47.0274 53.6624C47.0274 53.6624 24.3369 51.429 11.3414 53.6211L10.5645 5.60465C10.5645 5.60809 29.456 3.24047 45.109 9.97854Z" fill="#EDEDED"/>
<path d="M45.8297 9.79962L47.0295 53.6659C47.0295 53.6659 25.2329 48.7448 12.7085 52.4511L11.2852 5.42917C11.2852 5.42917 30.1767 3.06155 45.8297 9.79962Z" fill="#F7F7F7"/>
<path d="M47.0016 8.89825V53.5319C47.0016 53.5319 25.8307 44.822 13.7772 50.6515L12.457 4.5278C12.457 4.5278 31.3486 2.16019 47.0016 8.89825Z" fill="white"/>
<path d="M18.5138 47.138L14.543 4.32137C14.543 4.32137 20.1434 3.98412 21.0098 4.17339C21.8761 4.36266 22.2921 43.6245 22.2921 43.6245L18.5138 47.138Z" fill="#EDEDED"/>
<path d="M46.9984 8.89794L47.0293 53.6624C47.0293 53.6624 30.565 41.3047 18.5115 47.1342L17.8789 1.84328C17.8789 1.84328 33.7141 -3.47009 46.9984 8.89794Z" fill="white"/>
<path d="M46.9258 53.5908C46.9911 53.6389 47.0289 53.6665 47.0289 53.6665V52.0869C46.998 52.5928 46.967 53.0952 46.9258 53.5908Z" fill="#F7F7F7"/>
<path d="M44.358 15.3919C44.2961 15.3919 44.2308 15.3747 44.1724 15.3368C33.9616 8.66761 23.7131 10.3607 23.61 10.3814C23.4243 10.4123 23.2524 10.2919 23.218 10.1061C23.1871 9.92368 23.3074 9.74817 23.4931 9.71376C23.5997 9.69655 34.1129 7.95526 44.5402 14.7725C44.6949 14.8757 44.7396 15.0822 44.6399 15.2405C44.578 15.3368 44.468 15.3919 44.358 15.3919ZM44.4302 19.2875C44.3683 19.2875 44.3099 19.2703 44.2549 19.2393C33.0472 12.3532 23.7887 14.2528 23.6994 14.2735C23.5171 14.3148 23.3384 14.1978 23.2971 14.0154C23.2559 13.833 23.3728 13.654 23.555 13.6128C23.6512 13.5921 33.1709 11.634 44.609 18.6611C44.7671 18.7575 44.8187 18.9674 44.719 19.1257C44.6537 19.229 44.5437 19.2875 44.4302 19.2875ZM44.4302 23.269C44.3649 23.269 44.2996 23.2518 44.2411 23.2105C34.1885 16.4071 23.7853 18.0933 23.6822 18.1105C23.5 18.1415 23.3246 18.0176 23.2937 17.8352C23.2627 17.6528 23.3865 17.4773 23.5687 17.4464C23.6753 17.4292 34.3329 15.6913 44.6193 22.653C44.774 22.7563 44.8153 22.9662 44.7087 23.1211C44.6468 23.2174 44.5402 23.269 44.4302 23.269ZM44.358 27.2334C44.2961 27.2334 44.2343 27.2162 44.1758 27.1818C33.2534 20.2235 23.7165 22.1265 23.6203 22.1472C23.4381 22.185 23.2593 22.068 23.2215 21.8856C23.1837 21.7033 23.3006 21.5243 23.4828 21.4864C23.579 21.4658 33.3875 19.5077 44.5402 26.6105C44.6984 26.7103 44.7431 26.9203 44.6434 27.0786C44.578 27.1784 44.4715 27.2334 44.358 27.2334ZM44.0692 31.0429C44.0073 31.0429 43.942 31.0257 43.8836 30.9879C33.6041 24.2464 23.4278 26.084 23.3281 26.1012C23.1424 26.1356 22.9671 26.0152 22.9327 25.8328C22.8983 25.6504 23.0186 25.4715 23.2009 25.4371C23.3074 25.4164 33.7485 23.5306 44.2549 30.4201C44.4096 30.5233 44.4543 30.7332 44.3511 30.8881C44.2858 30.9879 44.1792 31.0429 44.0692 31.0429ZM44.0692 35.028C44.0073 35.028 43.9489 35.0108 43.8939 34.9763C32.4902 27.9561 23.359 29.9176 23.2662 29.9383C23.084 29.983 22.9052 29.866 22.8639 29.6836C22.8227 29.5012 22.9361 29.3223 23.1183 29.281C23.2112 29.2603 32.5933 27.23 44.248 34.4017C44.4061 34.498 44.4577 34.7079 44.358 34.8662C44.2927 34.9695 44.1827 35.028 44.0692 35.028ZM43.9248 38.9132C43.8664 38.9132 43.8079 38.8994 43.7529 38.8685C31.7614 31.8379 23.5068 33.9474 23.4243 33.968C23.2455 34.0162 23.0599 33.9095 23.0118 33.7306C22.9636 33.5517 23.0702 33.3658 23.249 33.3176C23.5962 33.2247 31.8645 31.1152 44.0967 38.2869C44.2583 38.3798 44.3133 38.5897 44.2171 38.748C44.1517 38.8512 44.0383 38.9132 43.9248 38.9132ZM43.9248 42.9636C43.8629 42.9636 43.8045 42.9464 43.7461 42.912C32.253 35.8126 23.4278 37.781 23.3418 37.8016C23.1596 37.8429 22.9774 37.7328 22.9361 37.5504C22.8949 37.3681 23.0049 37.1857 23.1871 37.1444C23.2765 37.1237 32.3767 35.0899 44.1036 42.3373C44.2618 42.4336 44.3099 42.6436 44.2136 42.8019C44.1483 42.9085 44.0383 42.9636 43.9248 42.9636ZM50.897 16.2763C50.7767 16.2763 50.6632 16.2075 50.6117 16.0905C50.5429 15.9322 50.6117 15.7498 50.7698 15.681C50.8695 15.6362 53.2211 14.597 57.6113 13.8846C60.1829 13.4648 62.9195 13.248 65.749 13.2377C69.2832 13.2239 72.9687 13.537 76.7023 14.1634C76.8707 14.1909 76.9876 14.3526 76.9567 14.5213C76.9292 14.6899 76.7676 14.8069 76.5991 14.7759C68.2346 13.3684 61.7266 13.8468 57.7385 14.4903C53.417 15.1889 51.0448 16.235 51.0208 16.2453C50.9829 16.2694 50.9383 16.2763 50.897 16.2763ZM50.897 20.2545C50.7767 20.2545 50.6632 20.1856 50.6117 20.0686C50.5429 19.9103 50.6117 19.7279 50.7698 19.6591C50.8695 19.6144 53.2211 18.5751 57.6113 17.8628C60.1829 17.4429 62.9195 17.2261 65.749 17.2158C69.2832 17.202 72.9687 17.5152 76.7023 18.1415C76.8707 18.169 76.9876 18.3308 76.9567 18.4994C76.9292 18.668 76.7676 18.785 76.5991 18.7541C68.2346 17.3466 61.7266 17.8249 57.7385 18.4684C53.417 19.167 51.0448 20.2132 51.0208 20.2235C50.9829 20.2441 50.9383 20.2545 50.897 20.2545ZM50.897 24.2292C50.7767 24.2292 50.6632 24.1603 50.6117 24.0433C50.5429 23.885 50.6117 23.7026 50.7698 23.6338C50.8695 23.5891 53.2211 22.5498 57.6113 21.8375C60.1829 21.4176 62.9195 21.2008 65.749 21.1905C69.2832 21.1767 72.9687 21.4899 76.7023 22.1162C76.8707 22.1437 76.9876 22.3055 76.9567 22.4741C76.9292 22.6427 76.7676 22.7597 76.5991 22.7288C68.2346 21.3213 61.7266 21.7996 57.7385 22.4431C53.417 23.1417 51.0448 24.1879 51.0208 24.1982C50.9829 24.2223 50.9383 24.2292 50.897 24.2292ZM50.897 28.2073C50.7767 28.2073 50.6632 28.1385 50.6117 28.0215C50.5429 27.8632 50.6117 27.6808 50.7698 27.612C50.8695 27.5672 53.2211 26.528 57.6113 25.8156C60.1829 25.3958 62.9195 25.179 65.749 25.1686C69.2832 25.1549 72.9687 25.468 76.7023 26.0943C76.8707 26.1219 76.9876 26.2836 76.9567 26.4522C76.9292 26.6209 76.7676 26.7379 76.5991 26.7069C68.2346 25.2994 61.7266 25.7777 57.7385 26.4213C53.417 27.1199 51.0448 28.166 51.0208 28.1763C50.9829 28.197 50.9383 28.2073 50.897 28.2073ZM50.897 32.182C50.7767 32.182 50.6632 32.1132 50.6117 31.9962C50.5429 31.8379 50.6117 31.6555 50.7698 31.5832C50.8695 31.5385 53.2211 30.4992 57.6113 29.7869C60.1829 29.367 62.9195 29.1502 65.749 29.1399C69.2832 29.1261 72.9687 29.4393 76.7023 30.0656C76.8707 30.0931 76.9876 30.2549 76.9567 30.4235C76.9292 30.5921 76.7676 30.7057 76.5991 30.6782C68.2208 29.2707 61.7025 29.749 57.711 30.3994C53.3998 31.1014 51.0448 32.1407 51.0208 32.151C50.9829 32.1751 50.9383 32.182 50.897 32.182ZM50.897 36.1602C50.7767 36.1602 50.6632 36.0913 50.6117 35.9743C50.5429 35.816 50.6117 35.6336 50.7698 35.5648C50.8695 35.5201 53.2211 34.4808 57.6113 33.7684C60.1829 33.3486 62.9195 33.1318 65.749 33.1215C69.2832 33.1077 72.9687 33.4209 76.7023 34.0472C76.8707 34.0747 76.9876 34.2365 76.9567 34.4051C76.9292 34.5737 76.7676 34.6873 76.5991 34.6597C68.2346 33.2523 61.7266 33.7306 57.7385 34.3741C53.417 35.0727 51.0448 36.1189 51.0208 36.1292C50.9829 36.1498 50.9383 36.1602 50.897 36.1602ZM50.897 40.1383C50.7767 40.1383 50.6632 40.0695 50.6117 39.9525C50.5429 39.7942 50.6117 39.6118 50.7698 39.5429C50.8695 39.4982 53.2211 38.4589 57.6113 37.7466C60.1829 37.3268 62.9195 37.11 65.749 37.0996C69.2832 37.0893 72.9687 37.399 76.7023 38.0253C76.8707 38.0529 76.9876 38.2146 76.9567 38.3832C76.9292 38.5519 76.7676 38.6689 76.5991 38.6379C68.2346 37.2304 61.7266 37.7087 57.7385 38.3523C53.417 39.0508 51.0448 40.097 51.0208 40.1073C50.9829 40.128 50.9383 40.1383 50.897 40.1383ZM50.897 44.113C50.7767 44.113 50.6632 44.0442 50.6117 43.9272C50.5429 43.7689 50.6117 43.5865 50.7698 43.5177C50.8695 43.4729 53.2211 42.4336 57.6113 41.7213C60.1829 41.3015 62.9195 41.0847 65.749 41.0743C69.2832 41.064 72.9687 41.3737 76.7023 42C76.8707 42.0276 76.9876 42.1893 76.9567 42.3579C76.9292 42.5266 76.7676 42.6436 76.5991 42.6126C68.2346 41.2051 61.7266 41.6834 57.7385 42.327C53.417 43.0255 51.0448 44.0717 51.0208 44.082C50.9829 44.1061 50.9383 44.113 50.897 44.113Z" fill="#3C5B7F"/>
<path d="M46.627 8.56104H47.2733V54.5643H46.627V8.56104Z" fill="#B0B0B0"/>
<path d="M51.4613 7.21774C51.2481 7.26936 51.0728 7.41389 50.9765 7.61005C50.2855 9.04507 47.6589 15.1568 51.7054 17.841C56.3088 20.8935 59.4751 21.4544 54.552 30.7184C54.552 30.7184 53.2456 33.2925 56.5219 30.2022C56.6491 30.0852 56.852 30.1953 56.8176 30.3674C56.5907 31.4927 56.271 33.7295 57.7974 31.6579C59.7742 28.9771 61.9401 20.9554 56.9276 17.8961C51.946 14.854 50.8699 12.7341 52.9637 8.24669C53.2593 7.61349 53.5378 7.24183 53.3384 6.90802C53.1906 6.65681 52.4755 6.96652 51.4613 7.21774Z" fill="#F76D7D"/>
<path d="M54.6503 30.5366C54.7053 30.4953 55.2898 30.1512 55.4514 29.9412C57.2975 27.5358 58.0401 25.3781 58.3496 23.2755C58.3702 23.1481 58.5833 21.2003 57.0706 19.7929C56.8781 19.6139 55.4307 18.5093 54.9872 18.2546C53.8802 17.6145 52.8248 16.8884 51.955 15.9489C50.9992 14.9165 50.3873 13.6295 50.1638 12.2426C50.016 11.3307 50.0435 10.4084 50.2085 9.51025C49.3765 11.9639 48.7027 15.8491 51.7074 17.8451C56.2765 20.8769 59.4325 21.4516 54.6503 30.5366Z" fill="#DE5868"/>
</svg>
