<svg width="90" height="90" viewBox="0 0 90 90" fill="none" xmlns="http://www.w3.org/2000/svg">
<mask id="mask0_2766_18054" style="mask-type:alpha" maskUnits="userSpaceOnUse" x="0" y="0" width="90" height="90">
<rect y="0.551758" width="89.2404" height="89.2404" fill="#D9D9D9"/>
</mask>
<g mask="url(#mask0_2766_18054)">
<path d="M44.5249 82.7314C65.8641 82.7314 83.163 65.4325 83.163 44.0932C83.163 22.754 65.8641 5.45508 44.5249 5.45508C23.1856 5.45508 5.88672 22.754 5.88672 44.0932C5.88672 65.4325 23.1856 82.7314 44.5249 82.7314Z" fill="white"/>
<path d="M44.5238 76.6112C62.483 76.6112 77.0418 62.0524 77.0418 44.0932C77.0418 26.134 62.483 11.5752 44.5238 11.5752C26.5647 11.5752 12.0059 26.134 12.0059 44.0932C12.0059 62.0524 26.5647 76.6112 44.5238 76.6112Z" fill="#DEECE6"/>
<path d="M58.3873 47.2639C65.1067 47.2639 70.5539 41.8167 70.5539 35.0973C70.5539 28.3778 65.1067 22.9307 58.3873 22.9307C51.6679 22.9307 46.2207 28.3778 46.2207 35.0973C46.2207 41.8167 51.6679 47.2639 58.3873 47.2639Z" fill="#9DC53B"/>
<path d="M59.2721 45.9367C65.9915 45.9367 71.4387 40.4895 71.4387 33.7701C71.4387 27.0507 65.9915 21.6035 59.2721 21.6035C52.5526 21.6035 47.1055 27.0507 47.1055 33.7701C47.1055 40.4895 52.5526 45.9367 59.2721 45.9367Z" fill="#B0D135"/>
<path d="M64.2119 30.3776C64.2119 30.3776 62.8846 28.4604 61.4836 28.4604C60.0826 28.4604 59.7139 27.8705 57.5756 28.4604C55.4372 29.0503 54.8473 28.6079 54.1837 31.4099C53.4463 34.2119 52.0453 34.2119 53.5938 35.9816C55.1423 37.7513 55.8059 38.9311 57.5018 39.6684C59.1241 40.4058 61.7048 40.1846 63.2533 38.9311C64.1382 38.1937 65.2442 35.6866 65.023 33.5483C64.8018 31.4836 64.2119 30.3776 64.2119 30.3776Z" fill="#CFDD3B"/>
<path d="M63.5487 30.8941C63.5487 30.8941 62.4427 29.2719 61.1892 29.2719C59.9356 29.2719 59.6407 28.7557 57.7973 29.2719C55.9538 29.788 55.4377 29.4194 54.774 31.8527C54.1104 34.286 52.9306 34.286 54.2579 35.8345C55.5851 37.3829 56.2488 38.4153 57.6498 39.0789C59.1245 39.6688 61.3366 39.5951 62.7376 38.4153C63.5487 37.7516 64.5073 35.5395 64.2861 33.6961C64.0649 31.8527 63.5487 30.8941 63.5487 30.8941Z" fill="#E8EA84"/>
<path d="M56.1751 40.2588C56.3963 40.1113 56.6175 39.9639 56.6175 39.9639C56.6175 39.9639 56.5438 40.1851 56.3963 40.4063C56.1751 40.6275 56.1014 40.775 55.9539 40.7012C55.8064 40.6275 55.9539 40.4063 56.1751 40.2588Z" fill="#18616A"/>
<path d="M57.1339 40.8487C57.2814 40.6275 57.4288 40.48 57.4288 40.48C57.4288 40.48 57.4288 40.7012 57.3551 40.9961C57.2814 41.2911 57.1339 41.4386 57.0602 41.3648C56.9864 41.2911 56.9864 41.0699 57.1339 40.8487Z" fill="#18616A"/>
<path d="M59.8599 27.0601C59.7861 27.2813 59.7124 27.4288 59.7124 27.4288C59.7124 27.4288 59.6387 27.2813 59.6387 27.0601C59.6387 26.8389 59.6387 26.6914 59.7861 26.6914C59.8599 26.6914 59.8599 26.8389 59.8599 27.0601Z" fill="#18616A"/>
<path d="M58.2379 26.4702C58.2379 26.6915 58.1642 26.8389 58.1642 26.8389C58.1642 26.8389 58.0167 26.6915 57.943 26.4702C57.8692 26.249 57.8692 26.1016 58.0167 26.1016C58.1642 26.1016 58.2379 26.249 58.2379 26.4702Z" fill="#18616A"/>
<path d="M58.3137 41.2911C58.3875 41.0698 58.4612 40.8486 58.4612 40.8486C58.4612 40.8486 58.535 41.0698 58.535 41.3648C58.535 41.6597 58.4612 41.8072 58.3875 41.8072C58.3137 41.7335 58.24 41.586 58.3137 41.2911Z" fill="#18616A"/>
<path d="M58.9029 27.4287C58.9029 27.65 58.8291 27.7974 58.8291 27.7974C58.8291 27.7974 58.7554 27.65 58.6816 27.4287C58.6816 27.2075 58.6816 27.0601 58.7554 27.0601C58.9029 27.1338 58.9766 27.2813 58.9029 27.4287Z" fill="#18616A"/>
<path d="M63.4019 27.5026C63.1807 27.6501 63.0332 27.7976 63.0332 27.7976C63.0332 27.7976 63.1069 27.5764 63.2544 27.3551C63.4019 27.1339 63.5494 26.9865 63.6231 27.0602C63.6968 27.1339 63.5494 27.2814 63.4019 27.5026Z" fill="#18616A"/>
<path d="M62.7359 26.544C62.5884 26.7652 62.3672 26.9127 62.3672 26.9127C62.3672 26.9127 62.3672 26.6915 62.5147 26.4702C62.6621 26.1753 62.8096 26.1016 62.8834 26.1016C62.9571 26.1016 62.8833 26.3228 62.7359 26.544Z" fill="#18616A"/>
<path d="M62.1465 28.0926C61.999 28.2401 61.8516 28.3138 61.8516 28.3138C61.8516 28.3138 61.8516 28.1664 61.999 27.9452C62.1465 27.7239 62.2203 27.6502 62.294 27.7239C62.3677 27.7977 62.294 27.9452 62.1465 28.0926Z" fill="#18616A"/>
<path d="M60.8941 26.6917C60.7466 26.8392 60.5254 26.913 60.5254 26.913C60.5254 26.913 60.5254 26.6917 60.6729 26.5443C60.8203 26.3231 60.8941 26.2493 61.0416 26.3231C61.1153 26.3968 61.0415 26.618 60.8941 26.6917Z" fill="#18616A"/>
<path d="M59.9351 25.5855C59.7876 25.8067 59.5664 25.9542 59.5664 25.9542C59.5664 25.9542 59.5664 25.733 59.7139 25.5118C59.8614 25.2168 59.9351 25.1431 60.0826 25.1431C60.1563 25.2168 60.0826 25.438 59.9351 25.5855Z" fill="#18616A"/>
<path d="M61.1158 28.0193C60.9681 28.0932 60.8203 28.1671 60.8203 28.1671C60.8203 28.1671 60.8942 28.0193 61.0419 27.8716C61.1897 27.7238 61.3374 27.6499 61.3374 27.7238C61.3374 27.7977 61.2636 27.9454 61.1158 28.0193Z" fill="#18616A"/>
<path d="M66.1314 29.567C65.8364 29.567 65.6152 29.567 65.6152 29.567C65.6152 29.567 65.8364 29.4196 66.0576 29.3458C66.3526 29.2721 66.5001 29.2721 66.5738 29.3458C66.5738 29.4933 66.4263 29.567 66.1314 29.567Z" fill="#18616A"/>
<path d="M65.3936 28.0187C65.1724 28.0924 64.9512 28.1662 64.9512 28.1662C64.9512 28.1662 65.0986 27.945 65.3199 27.7975C65.5411 27.65 65.7623 27.5763 65.7623 27.65C65.7623 27.7238 65.6148 27.8712 65.3936 28.0187Z" fill="#18616A"/>
<path d="M65.8355 30.7467C65.6143 30.8204 65.4668 30.8204 65.4668 30.8204C65.4668 30.8204 65.5405 30.673 65.688 30.5255C65.9092 30.378 65.9829 30.378 66.0567 30.4518C66.2042 30.5992 66.0567 30.7467 65.8355 30.7467Z" fill="#18616A"/>
<path d="M65.0972 28.9772C64.876 29.051 64.7285 29.1247 64.7285 29.1247C64.7285 29.1247 64.8022 28.9035 64.9497 28.756C65.0972 28.5348 65.2447 28.5348 65.3184 28.6086C65.3921 28.756 65.2447 28.9035 65.0972 28.9772Z" fill="#18616A"/>
<path d="M64.064 28.3132C63.8428 28.4606 63.6953 28.6081 63.6953 28.6081C63.6953 28.6081 63.7691 28.3869 63.9165 28.1657C64.064 27.9445 64.2115 27.797 64.2852 27.8707C64.3589 27.9445 64.2852 28.1657 64.064 28.3132Z" fill="#18616A"/>
<path d="M65.023 30.231C64.8755 30.3047 64.6543 30.3785 64.6543 30.3785C64.6543 30.3785 64.728 30.231 64.8755 30.0835C65.023 29.936 65.1705 29.936 65.2442 29.936C65.3179 30.0098 65.2442 30.0835 65.023 30.231Z" fill="#18616A"/>
<path d="M67.1621 34.065C67.0147 33.8438 66.8672 33.6963 66.8672 33.6963C66.8672 33.6963 67.0884 33.77 67.3096 33.9175C67.5308 34.065 67.6783 34.2124 67.6046 34.2862C67.5308 34.3599 67.3096 34.2862 67.1621 34.065Z" fill="#18616A"/>
<path d="M67.1612 33.0327C66.94 32.8853 66.7188 32.7378 66.7188 32.7378C66.7188 32.7378 66.94 32.7378 67.2349 32.8115C67.5299 32.8853 67.6773 32.959 67.6773 33.1065C67.6036 33.1802 67.3824 33.1802 67.1612 33.0327Z" fill="#18616A"/>
<path d="M66.0567 33.3277C65.9092 33.2539 65.7617 33.1064 65.7617 33.1064C65.7617 33.1064 65.9092 33.1064 66.1304 33.1064C66.3516 33.1802 66.4253 33.2539 66.4253 33.3277C66.4253 33.4014 66.2041 33.4014 66.0567 33.3277Z" fill="#18616A"/>
<path d="M66.646 31.5581C66.4248 31.4844 66.2773 31.3369 66.2773 31.3369C66.2773 31.3369 66.4986 31.2632 66.646 31.2632C66.8672 31.2632 67.0147 31.3369 67.0147 31.4844C67.0147 31.6319 66.8672 31.6319 66.646 31.5581Z" fill="#18616A"/>
<path d="M65.9815 35.0972C65.6865 35.0235 65.5391 34.9497 65.5391 34.9497C65.5391 34.9497 65.7603 34.876 65.9815 34.8022C66.2764 34.8022 66.4239 34.8022 66.4239 34.9497C66.4239 35.0972 66.2027 35.1709 65.9815 35.0972Z" fill="#18616A"/>
<path d="M65.6133 32.3692C65.4658 32.2954 65.3184 32.1479 65.3184 32.1479C65.3184 32.1479 65.4658 32.1479 65.687 32.1479C65.9083 32.2217 65.982 32.2954 65.982 32.3692C65.9083 32.4429 65.7608 32.4429 65.6133 32.3692Z" fill="#18616A"/>
<path d="M54.7 27.5023C54.9212 27.576 55.2161 27.576 55.2161 27.576C55.2161 27.576 55.0687 27.3548 54.8474 27.2811C54.5525 27.1336 54.405 27.0599 54.3313 27.2073C54.2576 27.2811 54.405 27.4286 54.7 27.5023Z" fill="#18616A"/>
<path d="M55.4388 26.6175C55.66 26.765 55.8812 26.8387 55.8812 26.8387C55.8812 26.8387 55.8075 26.6175 55.66 26.3963C55.4388 26.1751 55.2913 26.1014 55.2176 26.1751C55.0701 26.2488 55.2176 26.3963 55.4388 26.6175Z" fill="#18616A"/>
<path d="M55.9547 28.5348C56.1021 28.6086 56.3234 28.6823 56.3234 28.6823C56.3234 28.6823 56.2496 28.5348 56.1759 28.3873C56.0284 28.2399 55.8809 28.1661 55.8072 28.2399C55.6597 28.3136 55.7335 28.4611 55.9547 28.5348Z" fill="#18616A"/>
<path d="M56.6163 26.9867C56.7638 27.1341 56.9113 27.2079 56.9113 27.2079C56.9113 27.2079 56.9113 26.9867 56.8375 26.8392C56.69 26.618 56.6163 26.5442 56.5426 26.618C56.4688 26.6917 56.4688 26.8392 56.6163 26.9867Z" fill="#18616A"/>
<path d="M59.6406 41.439C59.5669 41.1441 59.4932 40.9966 59.4932 40.9966C59.4932 40.9966 59.4194 41.2178 59.3457 41.439C59.3457 41.734 59.3457 41.8814 59.4932 41.8814C59.6406 41.8814 59.7144 41.6602 59.6406 41.439Z" fill="#18616A"/>
<path d="M56.8408 28.2403C56.9885 28.3881 57.1363 28.462 57.1363 28.462C57.1363 28.462 57.0624 28.3142 56.9886 28.1665C56.8408 27.9448 56.7669 27.9448 56.693 27.9448C56.6192 27.9448 56.693 28.0926 56.8408 28.2403Z" fill="#18616A"/>
<path d="M52.1208 32.5901C52.4157 32.5901 52.6369 32.5164 52.6369 32.5164C52.6369 32.5164 52.4157 32.3689 52.1945 32.3689C51.8996 32.2952 51.7521 32.3689 51.6784 32.4427C51.6046 32.5901 51.8258 32.6639 52.1208 32.5901Z" fill="#18616A"/>
<path d="M53.5205 30.2311C53.8155 30.2311 54.0367 30.2311 54.0367 30.2311C54.0367 30.2311 53.8155 30.0836 53.5943 30.0099C53.2993 29.9362 53.1519 29.9362 53.0781 30.0099C53.0781 30.1574 53.2993 30.2311 53.5205 30.2311Z" fill="#18616A"/>
<path d="M52.7827 31.0418C53.004 31.0418 53.1514 30.9681 53.1514 30.9681C53.1514 30.9681 53.004 30.8943 52.7827 30.8206C52.5615 30.7468 52.4141 30.8206 52.4141 30.8943C52.4878 31.0418 52.6353 31.1155 52.7827 31.0418Z" fill="#18616A"/>
<path d="M54.9937 29.1248C55.2149 29.1248 55.3624 29.0511 55.3624 29.0511C55.3624 29.0511 55.2149 28.9036 54.9937 28.9036C54.7725 28.8299 54.625 28.9036 54.625 28.9773C54.625 29.0511 54.7725 29.1248 54.9937 29.1248Z" fill="#18616A"/>
<path d="M53.5212 29.0504C53.8161 29.0504 54.0373 29.0504 54.0373 29.0504C54.0373 29.0504 53.8898 28.903 53.5949 28.8292C53.3 28.7555 53.1525 28.7555 53.0787 28.8292C53.005 28.903 53.2262 28.9767 53.5212 29.0504Z" fill="#18616A"/>
<path d="M51.4546 30.3789C51.6758 30.3052 51.8233 30.3052 51.8233 30.3052C51.8233 30.3052 51.6758 30.2314 51.4546 30.2314C51.2334 30.2314 51.0859 30.2314 51.0859 30.3052C51.0859 30.3789 51.3071 30.4527 51.4546 30.3789Z" fill="#18616A"/>
<path d="M51.6018 36.0562C51.823 35.9087 51.8968 35.6875 51.8968 35.6875C51.8968 35.6875 51.6756 35.7612 51.4544 35.835C51.1594 35.9824 51.0857 36.1299 51.1594 36.2037C51.2331 36.2774 51.4544 36.2037 51.6018 36.0562Z" fill="#18616A"/>
<path d="M51.0142 34.3599C51.2354 34.2862 51.4566 34.1387 51.4566 34.1387C51.4566 34.1387 51.2354 34.065 50.9405 34.1387C50.6455 34.2125 50.498 34.2862 50.498 34.3599C50.5718 34.5074 50.793 34.5074 51.0142 34.3599Z" fill="#18616A"/>
<path d="M52.7082 36.7198C52.8557 36.6461 53.0031 36.4986 53.0031 36.4986C53.0031 36.4986 52.8556 36.4249 52.6344 36.4986C52.4132 36.5723 52.2658 36.6461 52.3395 36.7198C52.3395 36.7935 52.487 36.7935 52.7082 36.7198Z" fill="#18616A"/>
<path d="M51.9722 34.8765C52.1934 34.8027 52.3409 34.729 52.3409 34.729C52.3409 34.729 52.1934 34.6553 51.9722 34.6553C51.751 34.6553 51.6035 34.729 51.6035 34.8028C51.6035 34.9502 51.751 34.9502 51.9722 34.8765Z" fill="#18616A"/>
<path d="M52.1924 33.6961C52.4874 33.6961 52.7086 33.6224 52.7086 33.6224C52.7086 33.6224 52.4874 33.4749 52.2662 33.4749C51.9712 33.4011 51.8237 33.4749 51.75 33.5486C51.75 33.6224 51.8975 33.6961 52.1924 33.6961Z" fill="#18616A"/>
<path d="M52.634 35.6876C52.7814 35.6138 52.9289 35.5401 52.9289 35.5401C52.9289 35.5401 52.7814 35.4664 52.5602 35.5401C52.339 35.5401 52.1915 35.6138 52.2653 35.6876C52.2653 35.7613 52.4127 35.7613 52.634 35.6876Z" fill="#18616A"/>
<path d="M54.1092 39.8902C54.1092 39.5952 54.0354 39.374 54.0354 39.374C54.0354 39.374 53.888 39.5952 53.888 39.8164C53.8142 40.1114 53.888 40.2589 53.9617 40.3326C54.1092 40.4063 54.1829 40.1851 54.1092 39.8902Z" fill="#18616A"/>
<path d="M53.3727 39.2266C53.4464 39.0054 53.4464 38.7104 53.4464 38.7104C53.4464 38.7104 53.2989 38.8579 53.1515 39.0791C53.004 39.3741 53.004 39.5216 53.0777 39.5953C53.1515 39.669 53.2989 39.4478 53.3727 39.2266Z" fill="#18616A"/>
<path d="M54.3338 38.6368C54.4075 38.4155 54.3338 38.2681 54.3338 38.2681C54.3338 38.2681 54.1863 38.4155 54.1126 38.563C53.9651 38.7842 53.9651 38.9317 54.1126 38.9317C54.1863 38.9317 54.3338 38.7842 54.3338 38.6368Z" fill="#18616A"/>
<path d="M52.7086 37.7515C52.7824 37.5303 52.8561 37.3828 52.8561 37.3828C52.8561 37.3828 52.6349 37.4565 52.5612 37.604C52.4137 37.8252 52.34 37.899 52.4137 37.9727C52.4874 38.1202 52.5612 37.9727 52.7086 37.7515Z" fill="#18616A"/>
<path d="M55.7298 39.8164C55.8773 39.5952 55.951 39.374 55.951 39.374C55.951 39.374 55.7298 39.4478 55.5086 39.5952C55.2874 39.8164 55.2137 39.9639 55.2874 40.0377C55.3612 40.1114 55.5086 40.0377 55.7298 39.8164Z" fill="#18616A"/>
<path d="M53.963 37.6045C54.0367 37.4571 54.0367 37.2358 54.0367 37.2358C54.0367 37.2358 53.8893 37.3096 53.8155 37.5308C53.6681 37.752 53.6681 37.8257 53.7418 37.8995C53.8155 37.8995 53.963 37.8257 53.963 37.6045Z" fill="#18616A"/>
<path d="M65.6143 39.1529C65.5405 38.9317 65.4668 38.7104 65.4668 38.7104C65.4668 38.7104 65.688 38.8579 65.8355 39.0791C66.0567 39.3003 66.0567 39.5216 65.983 39.5216C65.8355 39.5953 65.688 39.4478 65.6143 39.1529Z" fill="#18616A"/>
<path d="M66.793 37.8994C66.6455 37.6782 66.498 37.5308 66.498 37.5308C66.498 37.5308 66.7193 37.6045 66.9405 37.752C67.2354 37.8994 67.3092 38.0469 67.2354 38.1207C67.1617 38.1944 66.9405 38.1207 66.793 37.8994Z" fill="#18616A"/>
<path d="M64.3618 39.3745C64.2144 39.2271 64.1406 39.0796 64.1406 39.0796C64.1406 39.0796 64.2881 39.0796 64.5093 39.2271C64.7305 39.3745 64.8043 39.4483 64.7305 39.522C64.583 39.5957 64.4356 39.522 64.3618 39.3745Z" fill="#18616A"/>
<path d="M65.6875 37.9732C65.54 37.8257 65.3926 37.6782 65.3926 37.6782C65.3926 37.6782 65.6138 37.6782 65.7613 37.752C65.9825 37.8257 66.0562 37.9732 66.0562 38.0469C66.0562 38.1944 65.9087 38.1206 65.6875 37.9732Z" fill="#18616A"/>
<path d="M65.9815 36.7935C65.7603 36.646 65.5391 36.4985 65.5391 36.4985C65.5391 36.4985 65.7603 36.4985 66.0552 36.4985C66.3502 36.5723 66.4976 36.646 66.4976 36.7935C66.4239 36.941 66.2027 36.941 65.9815 36.7935Z" fill="#18616A"/>
<path d="M64.5825 38.4151C64.4351 38.2676 64.3613 38.1201 64.3613 38.1201C64.3613 38.1201 64.5088 38.1201 64.73 38.2676C64.9512 38.4151 65.025 38.4888 64.9512 38.5625C64.8775 38.5625 64.73 38.5625 64.5825 38.4151Z" fill="#18616A"/>
<path d="M61.7766 41.7339C61.9241 41.5127 62.0716 41.2915 62.0716 41.2915C62.0716 41.2915 62.0716 41.5127 62.0716 41.8077C61.9978 42.1026 61.9241 42.2501 61.7766 42.2501C61.6291 42.1763 61.6291 41.9551 61.7766 41.7339Z" fill="#18616A"/>
<path d="M62.736 41.3653C62.736 41.0703 62.8097 40.9229 62.8097 40.9229C62.8097 40.9229 62.8834 41.1441 62.9572 41.3653C62.9572 41.6602 62.9572 41.8077 62.8834 41.8077C62.736 41.8814 62.6622 41.6602 62.736 41.3653Z" fill="#18616A"/>
<path d="M62.0755 40.48C62.1492 40.2588 62.2229 40.1113 62.2229 40.1113C62.2229 40.1113 62.2967 40.2588 62.2967 40.48C62.2967 40.7012 62.2967 40.8487 62.1492 40.8487C62.0755 40.8487 62.0017 40.6275 62.0755 40.48Z" fill="#18616A"/>
<path d="M63.918 40.3326C63.918 40.1113 63.9917 39.9639 63.9917 39.9639C63.9917 39.9639 64.1392 40.1113 64.2129 40.3326C64.2866 40.5538 64.2867 40.7012 64.1392 40.7012C63.9917 40.7012 63.918 40.5538 63.918 40.3326Z" fill="#18616A"/>
<path d="M60.3765 40.9961C60.3027 40.7749 60.3027 40.48 60.3027 40.48C60.3027 40.48 60.4502 40.6275 60.5977 40.8487C60.7452 41.1436 60.7452 41.2911 60.6714 41.3648C60.5239 41.4386 60.3765 41.2911 60.3765 40.9961Z" fill="#18616A"/>
<path d="M62.8121 39.6695C62.8121 39.4483 62.8859 39.3008 62.8859 39.3008C62.8859 39.3008 62.9596 39.4483 63.0333 39.6695C63.0333 39.8907 63.0333 40.0382 62.9596 40.0382C62.8121 40.0382 62.7384 39.8907 62.8121 39.6695Z" fill="#18616A"/>
<path d="M42.8287 76.0217C49.5481 76.0217 54.9953 70.5745 54.9953 63.8551C54.9953 57.1356 49.5481 51.6885 42.8287 51.6885C36.1093 51.6885 30.6621 57.1356 30.6621 63.8551C30.6621 70.5745 36.1093 76.0217 42.8287 76.0217Z" fill="#9DC53B"/>
<path d="M43.6412 74.6203C50.3606 74.6203 55.8078 69.1731 55.8078 62.4537C55.8078 55.7343 50.3606 50.2871 43.6412 50.2871C36.9218 50.2871 31.4746 55.7343 31.4746 62.4537C31.4746 69.1731 36.9218 74.6203 43.6412 74.6203Z" fill="#B0D135"/>
<path d="M48.6532 59.1354C48.6532 59.1354 47.3259 57.2182 45.9249 57.2182C44.5239 57.2182 44.1552 56.6283 42.0168 57.2182C39.8785 57.8081 39.2886 57.3657 38.6249 60.1677C37.9613 62.9697 36.4866 62.9697 38.035 64.7394C39.5835 66.5091 40.2471 67.6889 41.9431 68.4262C43.5653 69.1636 46.1461 68.9424 47.6946 67.6889C48.5794 66.9515 49.6855 64.4445 49.4643 62.3061C49.243 60.1677 48.6532 59.1354 48.6532 59.1354Z" fill="#CFDD3B"/>
<path d="M47.9899 59.5777C47.9899 59.5777 46.8838 57.9555 45.6303 57.9555C44.3768 57.9555 44.0818 57.4393 42.2384 57.9555C40.395 58.4716 39.8788 58.103 39.2152 60.5363C38.6253 63.0433 37.3718 62.9696 38.699 64.5181C40.0263 66.0665 40.6899 67.0989 42.0909 67.7625C43.4919 68.4261 45.7778 68.2787 47.1788 67.0989C47.9899 66.4352 48.9485 64.2231 48.7272 62.3797C48.506 60.5363 47.9899 59.5777 47.9899 59.5777Z" fill="#E8EA84"/>
<path d="M40.5416 68.9429C40.7628 68.7954 40.984 68.6479 40.984 68.6479C40.984 68.6479 40.9103 68.8692 40.7628 69.0904C40.5416 69.3116 40.4679 69.4591 40.3204 69.3853C40.2467 69.3116 40.3941 69.1641 40.5416 68.9429Z" fill="#18616A"/>
<path d="M41.5753 69.5323C41.7228 69.311 41.8702 69.1636 41.8702 69.1636C41.8702 69.1636 41.8702 69.3848 41.7965 69.6797C41.7228 69.9747 41.5753 70.1222 41.5016 70.0484C41.4278 69.9747 41.4278 69.7535 41.5753 69.5323Z" fill="#18616A"/>
<path d="M44.3032 55.7437C44.2295 55.9649 44.1558 56.1124 44.1558 56.1124C44.1558 56.1124 44.082 55.9649 44.082 55.7437C44.082 55.5225 44.082 55.375 44.2295 55.375C44.3032 55.375 44.3032 55.5225 44.3032 55.7437Z" fill="#18616A"/>
<path d="M42.6813 55.1538C42.6813 55.3751 42.6075 55.5225 42.6075 55.5225C42.6075 55.5225 42.4601 55.3751 42.3863 55.1538C42.3126 54.9326 42.3126 54.7852 42.4601 54.7852C42.6075 54.7852 42.6813 54.9326 42.6813 55.1538Z" fill="#18616A"/>
<path d="M42.7555 70.0484C42.8292 69.8272 42.9029 69.606 42.9029 69.606C42.9029 69.606 42.9767 69.8272 42.9767 70.1221C42.9767 70.4171 42.9029 70.5645 42.8292 70.5645C42.6817 70.4908 42.6817 70.2696 42.7555 70.0484Z" fill="#18616A"/>
<path d="M43.3443 56.1856C43.3443 56.4068 43.2705 56.5543 43.2705 56.5543C43.2705 56.5543 43.1968 56.4068 43.123 56.1856C43.123 55.9644 43.123 55.8169 43.1968 55.8169C43.3443 55.8169 43.3443 55.9644 43.3443 56.1856Z" fill="#18616A"/>
<path d="M47.7671 56.1857C47.5459 56.3332 47.3984 56.4807 47.3984 56.4807C47.3984 56.4807 47.4722 56.2595 47.6196 56.0383C47.7671 55.817 47.9146 55.6696 47.9883 55.7433C48.0621 55.817 47.9883 56.0383 47.7671 56.1857Z" fill="#18616A"/>
<path d="M47.1031 55.2276C46.9556 55.4488 46.7344 55.5963 46.7344 55.5963C46.7344 55.5963 46.7344 55.3751 46.8818 55.1538C47.0293 54.8589 47.1768 54.7852 47.2505 54.7852C47.398 54.8589 47.3243 55.0064 47.1031 55.2276Z" fill="#18616A"/>
<path d="M46.5879 56.7762C46.4404 56.9237 46.293 56.9974 46.293 56.9974C46.293 56.9974 46.293 56.8499 46.4404 56.6287C46.5879 56.4075 46.6616 56.3338 46.7354 56.4075C46.8091 56.555 46.7354 56.6287 46.5879 56.7762Z" fill="#18616A"/>
<path d="M45.3335 55.4491C45.1861 55.5965 44.9648 55.6703 44.9648 55.6703C44.9648 55.6703 44.9648 55.4491 45.1123 55.3016C45.2598 55.0804 45.3335 55.0066 45.481 55.0804C45.5547 55.1541 45.481 55.3016 45.3335 55.4491Z" fill="#18616A"/>
<path d="M44.3765 54.3423C44.229 54.5635 44.0078 54.711 44.0078 54.711C44.0078 54.711 44.0078 54.4898 44.1553 54.2686C44.3028 53.9736 44.3765 53.8999 44.524 53.8999C44.5977 53.8999 44.524 54.1211 44.3765 54.3423Z" fill="#18616A"/>
<path d="M45.4805 56.7755C45.333 56.8493 45.1855 56.923 45.1855 56.923C45.1855 56.923 45.2593 56.7755 45.4067 56.6281C45.5542 56.4806 45.7017 56.4069 45.7017 56.4806C45.7754 56.4806 45.7017 56.6281 45.4805 56.7755Z" fill="#18616A"/>
<path d="M50.5708 58.2506C50.2759 58.2506 50.0547 58.2506 50.0547 58.2506C50.0547 58.2506 50.2759 58.1032 50.4971 58.0294C50.7921 57.9557 50.9395 57.9557 51.0133 58.0294C51.0133 58.1769 50.7921 58.2506 50.5708 58.2506Z" fill="#18616A"/>
<path d="M49.7588 56.7023C49.5376 56.776 49.3164 56.8498 49.3164 56.8498C49.3164 56.8498 49.4639 56.6286 49.6851 56.4811C49.9063 56.3336 50.1275 56.2599 50.1275 56.3336C50.2013 56.4811 50.0538 56.6286 49.7588 56.7023Z" fill="#18616A"/>
<path d="M50.2749 59.504C50.0537 59.5778 49.9062 59.5778 49.9062 59.5778C49.9062 59.5778 49.98 59.4303 50.1275 59.2828C50.3487 59.1353 50.4224 59.1353 50.4961 59.2091C50.5699 59.3566 50.4961 59.4303 50.2749 59.504Z" fill="#18616A"/>
<path d="M49.4644 57.7346C49.2432 57.8083 49.0957 57.882 49.0957 57.882C49.0957 57.882 49.1694 57.6608 49.3169 57.5134C49.4644 57.2921 49.6119 57.2921 49.6856 57.3659C49.7593 57.4396 49.6856 57.5871 49.4644 57.7346Z" fill="#18616A"/>
<path d="M48.5035 57.0705C48.2822 57.218 48.1348 57.3654 48.1348 57.3654C48.1348 57.3654 48.2085 57.1442 48.356 56.923C48.5034 56.7018 48.6509 56.5543 48.7247 56.6281C48.7984 56.7018 48.6509 56.8493 48.5035 57.0705Z" fill="#18616A"/>
<path d="M49.4644 58.9146C49.3169 58.9883 49.0957 59.062 49.0957 59.062C49.0957 59.062 49.1694 58.9146 49.3169 58.7671C49.4644 58.6196 49.6119 58.6196 49.6856 58.6196C49.7593 58.6934 49.6856 58.8408 49.4644 58.9146Z" fill="#18616A"/>
<path d="M51.5313 62.7486C51.3838 62.5274 51.2363 62.3799 51.2363 62.3799C51.2363 62.3799 51.4575 62.4536 51.6787 62.6011C51.9 62.7486 52.0474 62.896 51.9737 62.9698C51.9 63.0435 51.7525 62.9698 51.5313 62.7486Z" fill="#18616A"/>
<path d="M51.6026 61.7163C51.3814 61.5689 51.1602 61.4214 51.1602 61.4214C51.1602 61.4214 51.3814 61.4214 51.6763 61.4951C51.9713 61.5689 52.1187 61.6426 52.1187 61.7901C52.045 61.9375 51.8238 61.8638 51.6026 61.7163Z" fill="#18616A"/>
<path d="M50.4961 62.0113C50.3487 61.9375 50.2012 61.79 50.2012 61.79C50.2012 61.79 50.3486 61.79 50.5699 61.79C50.7911 61.8638 50.8648 61.9375 50.8648 62.0113C50.7911 62.1587 50.6436 62.1587 50.4961 62.0113Z" fill="#18616A"/>
<path d="M51.0874 60.2412C50.8662 60.1675 50.7188 60.02 50.7188 60.02C50.7188 60.02 50.94 59.9463 51.0874 59.9463C51.3086 59.9463 51.4561 60.02 51.4561 60.1675C51.4561 60.315 51.2349 60.315 51.0874 60.2412Z" fill="#18616A"/>
<path d="M50.3487 63.854C50.0537 63.7803 49.9062 63.7066 49.9062 63.7066C49.9062 63.7066 50.1275 63.6328 50.3487 63.5591C50.6436 63.5591 50.7911 63.5591 50.7911 63.7066C50.8648 63.854 50.6436 63.854 50.3487 63.854Z" fill="#18616A"/>
<path d="M49.9805 61.0523C49.833 60.9785 49.6855 60.8311 49.6855 60.8311C49.6855 60.8311 49.833 60.8311 50.0542 60.8311C50.2754 60.9048 50.3492 60.9785 50.3492 61.0523C50.3492 61.1997 50.2017 61.126 49.9805 61.0523Z" fill="#18616A"/>
<path d="M39.1433 56.2601C39.3645 56.3338 39.6595 56.3338 39.6595 56.3338C39.6595 56.3338 39.512 56.1126 39.2908 56.0389C38.9959 55.8914 38.8484 55.8177 38.7747 55.9651C38.7009 56.0389 38.8484 56.1126 39.1433 56.2601Z" fill="#18616A"/>
<path d="M39.8055 55.3011C40.0267 55.4486 40.2479 55.5223 40.2479 55.5223C40.2479 55.5223 40.1742 55.3011 40.0267 55.0799C39.8055 54.8587 39.658 54.785 39.5843 54.8587C39.5106 54.9324 39.5843 55.1537 39.8055 55.3011Z" fill="#18616A"/>
<path d="M40.3229 57.2921C40.4704 57.3659 40.6916 57.4396 40.6916 57.4396C40.6916 57.4396 40.6178 57.2921 40.5441 57.1447C40.3966 56.9972 40.2491 56.9235 40.1754 56.9972C40.1017 57.0709 40.1754 57.1447 40.3229 57.2921Z" fill="#18616A"/>
<path d="M41.0584 55.744C41.2059 55.8915 41.3534 55.9652 41.3534 55.9652C41.3534 55.9652 41.3534 55.744 41.2796 55.5965C41.1322 55.3753 41.0584 55.3016 40.9847 55.3753C40.8372 55.449 40.9109 55.5965 41.0584 55.744Z" fill="#18616A"/>
<path d="M44.0801 70.1221C44.0064 69.8272 43.9326 69.6797 43.9326 69.6797C43.9326 69.6797 43.8589 69.9009 43.7852 70.1221C43.7852 70.4171 43.7852 70.5645 43.9326 70.5645C44.0801 70.6383 44.1538 70.4171 44.0801 70.1221Z" fill="#18616A"/>
<path d="M41.2783 56.9244C41.426 57.0722 41.5738 57.146 41.5738 57.146C41.5738 57.146 41.4999 56.9983 41.426 56.8505C41.2783 56.6289 41.2044 56.6289 41.1305 56.6289C41.0567 56.7028 41.1305 56.7767 41.2783 56.9244Z" fill="#18616A"/>
<path d="M36.4854 61.3479C36.7803 61.3479 37.0016 61.2742 37.0016 61.2742C37.0016 61.2742 36.7803 61.1267 36.5591 61.1267C36.2642 61.053 36.1167 61.1267 36.043 61.2005C36.043 61.2742 36.2642 61.3479 36.4854 61.3479Z" fill="#18616A"/>
<path d="M37.962 58.9884C38.2569 58.9884 38.4781 58.9884 38.4781 58.9884C38.4781 58.9884 38.2569 58.841 38.0357 58.7672C37.7407 58.6935 37.5933 58.6935 37.5195 58.7672C37.5195 58.841 37.667 58.9884 37.962 58.9884Z" fill="#18616A"/>
<path d="M37.2242 59.7991C37.4454 59.7991 37.5928 59.7254 37.5928 59.7254C37.5928 59.7254 37.4454 59.6516 37.2242 59.5779C37.0029 59.5042 36.8555 59.5779 36.8555 59.6516C36.8555 59.7254 37.0029 59.7991 37.2242 59.7991Z" fill="#18616A"/>
<path d="M39.4378 57.8084C39.659 57.8084 39.8065 57.7347 39.8065 57.7347C39.8065 57.7347 39.659 57.5872 39.4378 57.5872C39.2166 57.5134 39.0692 57.5872 39.0692 57.6609C38.9954 57.7347 39.2166 57.8084 39.4378 57.8084Z" fill="#18616A"/>
<path d="M37.8877 57.7345C38.1827 57.7345 38.4039 57.7345 38.4039 57.7345C38.4039 57.7345 38.2564 57.587 37.9615 57.5133C37.6665 57.4396 37.519 57.4396 37.4453 57.5133C37.4453 57.587 37.6665 57.7345 37.8877 57.7345Z" fill="#18616A"/>
<path d="M35.896 59.1362C36.1172 59.0625 36.2647 59.0625 36.2647 59.0625C36.2647 59.0625 36.1172 58.9888 35.896 58.9888C35.6748 58.9888 35.5273 58.9888 35.5273 59.0625C35.5273 59.1362 35.6748 59.1362 35.896 59.1362Z" fill="#18616A"/>
<path d="M36.0432 64.7398C36.2644 64.5923 36.3382 64.3711 36.3382 64.3711C36.3382 64.3711 36.117 64.4448 35.8958 64.5186C35.6008 64.6661 35.5271 64.8135 35.6008 64.8873C35.6746 65.0347 35.822 64.961 36.0432 64.7398Z" fill="#18616A"/>
<path d="M35.4517 63.1173C35.6729 63.0435 35.8941 62.8961 35.8941 62.8961C35.8941 62.8961 35.6729 62.8223 35.378 62.8961C35.083 62.9698 34.9355 63.0435 34.9355 63.1173C35.0093 63.2647 35.2305 63.191 35.4517 63.1173Z" fill="#18616A"/>
<path d="M37.0773 65.4034C37.2248 65.3297 37.3723 65.1822 37.3723 65.1822C37.3723 65.1822 37.2248 65.1084 37.0036 65.1822C36.7824 65.2559 36.6349 65.3297 36.7086 65.4034C36.7824 65.5509 36.9298 65.5509 37.0773 65.4034Z" fill="#18616A"/>
<path d="M36.4105 63.6333C36.6317 63.5596 36.7792 63.4858 36.7792 63.4858C36.7792 63.4858 36.6317 63.4121 36.4105 63.4121C36.1893 63.4121 36.0418 63.4858 36.0418 63.5596C35.9681 63.6333 36.1893 63.707 36.4105 63.6333Z" fill="#18616A"/>
<path d="M36.6345 62.4534C36.9294 62.4534 37.1506 62.3797 37.1506 62.3797C37.1506 62.3797 36.9294 62.2322 36.7082 62.2322C36.4132 62.1585 36.2658 62.2322 36.192 62.3059C36.1183 62.3797 36.3395 62.4534 36.6345 62.4534Z" fill="#18616A"/>
<path d="M37.2238 64.4449C37.3713 64.3712 37.5187 64.2974 37.5187 64.2974C37.5187 64.2974 37.3713 64.2237 37.1501 64.2974C36.9289 64.2974 36.7814 64.3712 36.8551 64.4449C36.9289 64.5186 37.0763 64.5186 37.2238 64.4449Z" fill="#18616A"/>
<path d="M38.5525 68.648C38.5525 68.353 38.4788 68.1318 38.4788 68.1318C38.4788 68.1318 38.3313 68.3531 38.3313 68.5743C38.2576 68.8692 38.3313 69.0167 38.4051 69.0904C38.4788 69.0904 38.5525 68.8692 38.5525 68.648Z" fill="#18616A"/>
<path d="M37.8141 67.9102C37.8878 67.689 37.8878 67.394 37.8878 67.394C37.8878 67.394 37.7404 67.5415 37.5929 67.7627C37.4454 68.0577 37.4454 68.2051 37.5191 68.2789C37.5929 68.3526 37.7404 68.2051 37.8141 67.9102Z" fill="#18616A"/>
<path d="M38.7732 67.3199C38.847 67.0986 38.7732 66.9512 38.7732 66.9512C38.7732 66.9512 38.6257 67.0987 38.552 67.2461C38.4045 67.4673 38.4045 67.6148 38.552 67.6148C38.6257 67.6885 38.6995 67.5411 38.7732 67.3199Z" fill="#18616A"/>
<path d="M37.0739 66.5088C37.1476 66.2876 37.2214 66.1401 37.2214 66.1401C37.2214 66.1401 37.0001 66.2139 36.9264 66.3613C36.7789 66.5826 36.7052 66.6563 36.7789 66.73C36.8527 66.8038 37.0001 66.73 37.0739 66.5088Z" fill="#18616A"/>
<path d="M40.099 68.5C40.2464 68.2788 40.3202 68.0576 40.3202 68.0576C40.3202 68.0576 40.099 68.1314 39.8778 68.2788C39.6565 68.5 39.5828 68.6475 39.6566 68.7213C39.804 68.8687 39.9515 68.7213 40.099 68.5Z" fill="#18616A"/>
<path d="M38.4044 66.3618C38.4781 66.2144 38.4781 65.9932 38.4781 65.9932C38.4781 65.9932 38.3307 66.0669 38.2569 66.2881C38.1095 66.5093 38.1095 66.5831 38.1832 66.6568C38.2569 66.6568 38.3307 66.5093 38.4044 66.3618Z" fill="#18616A"/>
<path d="M49.9815 67.9102C49.9077 67.689 49.834 67.4678 49.834 67.4678C49.834 67.4678 50.0552 67.6152 50.2027 67.8365C50.4239 68.0577 50.4239 68.2789 50.3502 68.2789C50.2764 68.2789 50.1289 68.1314 49.9815 67.9102Z" fill="#18616A"/>
<path d="M51.1602 66.5826C51.0127 66.3613 50.8652 66.2139 50.8652 66.2139C50.8652 66.2139 51.0864 66.2876 51.3076 66.4351C51.6026 66.5826 51.6763 66.73 51.6026 66.8038C51.5289 66.8775 51.3814 66.8038 51.1602 66.5826Z" fill="#18616A"/>
<path d="M48.7251 68.0581C48.5776 67.9107 48.5039 67.7632 48.5039 67.7632C48.5039 67.7632 48.6514 67.7632 48.8726 67.9107C49.0938 68.0581 49.1675 68.1319 49.0938 68.2056C49.0201 68.2793 48.8726 68.2793 48.7251 68.0581Z" fill="#18616A"/>
<path d="M50.1289 66.7305C49.9815 66.583 49.834 66.4355 49.834 66.4355C49.834 66.4355 50.0552 66.4356 50.2027 66.5093C50.4239 66.583 50.4976 66.7305 50.4976 66.8042C50.4976 66.878 50.2764 66.878 50.1289 66.7305Z" fill="#18616A"/>
<path d="M50.4229 65.5508C50.2017 65.4033 49.9805 65.2559 49.9805 65.2559C49.9805 65.2559 50.2017 65.2559 50.4966 65.2559C50.7916 65.3296 50.939 65.4033 50.939 65.5508C50.8653 65.6983 50.6441 65.6245 50.4229 65.5508Z" fill="#18616A"/>
<path d="M49.02 67.0992C48.8726 66.9517 48.7988 66.8042 48.7988 66.8042C48.7988 66.8042 48.9463 66.8042 49.1675 66.9517C49.3887 67.0991 49.4625 67.1729 49.3887 67.2466C49.315 67.3204 49.1675 67.2466 49.02 67.0992Z" fill="#18616A"/>
<path d="M46.1496 70.417C46.2971 70.1958 46.4446 69.9746 46.4446 69.9746C46.4446 69.9746 46.4446 70.1958 46.4446 70.4908C46.3708 70.7857 46.2971 70.9332 46.1496 70.9332C46.0021 70.9332 46.0759 70.712 46.1496 70.417Z" fill="#18616A"/>
<path d="M47.1813 70.1221C47.1813 69.8272 47.255 69.6797 47.255 69.6797C47.255 69.6797 47.3287 69.9009 47.4025 70.1221C47.4025 70.4171 47.4025 70.5645 47.3287 70.5645C47.1813 70.5645 47.1075 70.4171 47.1813 70.1221Z" fill="#18616A"/>
<path d="M46.5149 69.1636C46.5887 68.9424 46.6624 68.7949 46.6624 68.7949C46.6624 68.7949 46.7361 68.9424 46.7361 69.1636C46.7361 69.3848 46.7361 69.5323 46.5887 69.5323C46.5149 69.5323 46.4412 69.3848 46.5149 69.1636Z" fill="#18616A"/>
<path d="M48.3594 69.0899C48.3594 68.8687 48.4331 68.7212 48.4331 68.7212C48.4331 68.7212 48.5806 68.8687 48.6543 69.0899C48.7281 69.3111 48.7281 69.4586 48.5806 69.4586C48.4331 69.4586 48.3594 69.3111 48.3594 69.0899Z" fill="#18616A"/>
<path d="M44.7456 69.7535C44.6719 69.5323 44.6719 69.2373 44.6719 69.2373C44.6719 69.2373 44.8194 69.3848 44.9668 69.606C45.1143 69.9009 45.1143 70.0484 45.0406 70.1221C44.9668 70.1959 44.8194 69.9747 44.7456 69.7535Z" fill="#18616A"/>
<path d="M47.1777 68.4263C47.1777 68.2051 47.2515 68.0576 47.2515 68.0576C47.2515 68.0576 47.3252 68.2051 47.3989 68.4263C47.3989 68.6475 47.3989 68.795 47.3252 68.795C47.2515 68.7212 47.1777 68.5738 47.1777 68.4263Z" fill="#18616A"/>
<path d="M47.0293 58.9885C47.1768 58.841 47.2506 58.6936 47.398 58.5461C52.3384 52.2785 51.2323 43.2088 44.9647 38.2684C38.6971 33.3281 29.6274 34.4341 24.687 40.7018C24.5396 40.8492 24.4658 40.9967 24.3184 41.1442L47.0293 58.9885Z" fill="#EBB921"/>
<path d="M46.3666 58.4721C46.4403 58.3984 46.5141 58.3247 46.5878 58.2509C51.2333 52.352 50.2009 43.7985 44.3757 39.153C38.4768 34.5076 29.9233 35.5399 25.2778 41.3652C25.2041 41.4389 25.1304 41.5864 25.0566 41.6601L46.3666 58.4721Z" fill="#FFF7EA"/>
<path d="M45.1847 57.2923C45.2585 57.2186 45.2585 57.2186 45.3322 57.1449C49.3877 51.9833 48.5029 44.5359 43.3413 40.4803C38.1797 36.4248 30.7323 37.3096 26.6768 42.4712C26.603 42.545 26.603 42.6187 26.5293 42.6924L45.1847 57.2923Z" fill="#FAC818"/>
<path d="M43.5559 39.0415L35.1973 49.6348L36.2971 50.5026L44.6557 39.9093L43.5559 39.0415Z" fill="#FFF7EA"/>
<path d="M26.2096 40.8889L25.3418 41.9888L46.0083 58.2938L46.8761 57.1939L26.2096 40.8889Z" fill="#FFF7EA"/>
<path d="M35.8239 50.1399L49.0228 48.5914L48.8016 47.1904L34.2754 48.8864L35.8239 50.1399Z" fill="#FFF7EA"/>
<path d="M37.1477 51.2464L35.378 36.2041L34.0508 36.3516L35.5993 49.9929L37.1477 51.2464Z" fill="#FFF7EA"/>
<path d="M33.6827 40.628C33.6827 40.9967 33.609 41.3654 33.609 41.3654C33.609 41.3654 33.3878 41.0704 33.3141 40.628C33.2403 40.1856 33.2403 39.8906 33.3878 39.8906C33.609 39.8906 33.6827 40.2593 33.6827 40.628Z" fill="#FFE594"/>
<path d="M31.6925 40.923C31.84 41.2917 31.84 41.6604 31.84 41.6604C31.84 41.6604 31.545 41.4392 31.3238 41.0705C31.1026 40.6281 31.0289 40.4069 31.1763 40.3332C31.3975 40.2594 31.6188 40.5544 31.6925 40.923Z" fill="#FFE594"/>
<path d="M33.0934 43.2824C33.1671 43.5036 33.1671 43.6511 33.1671 43.6511C33.1671 43.6511 33.0196 43.5036 32.8722 43.3561C32.7247 43.1349 32.7247 42.9874 32.7984 42.9874C32.9459 42.9137 33.0196 43.0612 33.0934 43.2824Z" fill="#FFE594"/>
<path d="M31.8375 43.5773C31.9113 43.7985 31.9113 43.946 31.9113 43.946C31.9113 43.946 31.7638 43.7985 31.6163 43.651C31.4688 43.4298 31.4688 43.2824 31.5426 43.2824C31.6163 43.2086 31.7638 43.3561 31.8375 43.5773Z" fill="#FFE594"/>
<path d="M29.9955 41.808C30.2167 42.103 30.3642 42.4716 30.3642 42.4716C30.3642 42.4716 29.9955 42.3242 29.7006 42.103C29.3319 41.808 29.1844 41.5868 29.3319 41.4393C29.4794 41.2919 29.7743 41.4393 29.9955 41.808Z" fill="#FFE594"/>
<path d="M44.4498 54.3433C44.1548 54.0484 43.9336 53.7534 43.9336 53.7534C43.9336 53.7534 44.3023 53.8272 44.671 53.9746C45.1134 54.1958 45.2609 54.4171 45.1871 54.5645C45.1134 54.7857 44.8184 54.6383 44.4498 54.3433Z" fill="#FFE594"/>
<path d="M45.5562 52.7213C45.1875 52.5738 44.8926 52.3526 44.8926 52.3526C44.8926 52.3526 45.2613 52.2789 45.6299 52.3526C46.0724 52.4263 46.3673 52.5738 46.2936 52.7213C46.2936 52.8688 45.9249 52.8688 45.5562 52.7213Z" fill="#FFE594"/>
<path d="M42.8999 52.2046C42.6787 52.1309 42.5312 51.9834 42.5312 51.9834C42.5312 51.9834 42.7525 51.9834 42.8999 51.9834C43.1211 52.0571 43.2686 52.0571 43.2686 52.2046C43.2686 52.2783 43.0474 52.2783 42.8999 52.2046Z" fill="#FFE594"/>
<path d="M43.4898 51.0249C43.2686 50.9512 43.1211 50.8037 43.1211 50.8037C43.1211 50.8037 43.3423 50.8037 43.4898 50.8037C43.711 50.8774 43.8585 50.8775 43.8585 51.0249C43.8585 51.1724 43.711 51.1724 43.4898 51.0249Z" fill="#FFE594"/>
<path d="M45.9991 50.8776C45.6304 50.8776 45.2617 50.7302 45.2617 50.7302C45.2617 50.7302 45.5567 50.509 45.9991 50.4352C46.4415 50.3615 46.7365 50.3615 46.7365 50.5827C46.7365 50.8039 46.4415 50.8776 45.9991 50.8776Z" fill="#FFE594"/>
<path d="M40.7613 40.9233C40.4663 41.1445 40.0977 41.3657 40.0977 41.3657C40.0977 41.3657 40.1714 40.997 40.4663 40.7021C40.7613 40.3334 40.9825 40.1859 41.13 40.2596C41.2775 40.4071 41.0562 40.7021 40.7613 40.9233Z" fill="#FFE594"/>
<path d="M39.2139 40.038C38.9927 40.4066 38.7715 40.6279 38.7715 40.6279C38.7715 40.6279 38.7715 40.2592 38.8452 39.8905C38.9927 39.4481 39.1402 39.2269 39.2877 39.3006C39.5089 39.3743 39.4351 39.6693 39.2139 40.038Z" fill="#FFE594"/>
<path d="M39.2129 42.9141C39.0654 43.1353 38.918 43.2828 38.918 43.2828C38.918 43.2828 38.918 43.0616 38.9917 42.8404C39.0654 42.5454 39.2129 42.4717 39.2867 42.4717C39.3604 42.4717 39.3604 42.6929 39.2129 42.9141Z" fill="#FFE594"/>
<path d="M37.4449 41.9556C37.2974 42.1768 37.1499 42.398 37.1499 42.398C37.1499 42.398 37.0762 42.1768 37.0762 41.8819C37.0762 41.5869 37.2236 41.4395 37.3711 41.4395C37.5186 41.5132 37.5923 41.7344 37.4449 41.9556Z" fill="#FFE594"/>
<path d="M37.4449 39.3008C37.3711 39.6695 37.2236 40.0382 37.2236 40.0382C37.2236 40.0382 37.0762 39.6695 37.0762 39.3008C37.0762 38.8584 37.1499 38.5635 37.2974 38.5635C37.5186 38.6372 37.5923 38.9322 37.4449 39.3008Z" fill="#FFE594"/>
<path d="M37.7388 44.1672C37.6651 44.3146 37.5176 44.4621 37.5176 44.4621C37.5176 44.4621 37.5176 44.2409 37.5176 44.0934C37.5913 43.8722 37.6651 43.7247 37.7388 43.7985C37.8863 43.7985 37.8125 43.946 37.7388 44.1672Z" fill="#FFE594"/>
<path d="M43.416 43.061C43.2686 43.4297 43.1211 43.7984 43.1211 43.7984C43.1211 43.7984 43.416 43.6509 43.711 43.2823C44.0059 42.9136 44.0797 42.6924 44.0059 42.5449C43.8585 42.4712 43.6372 42.6924 43.416 43.061Z" fill="#FFE594"/>
<path d="M44.6705 44.3152C44.3755 44.6101 44.1543 44.9051 44.1543 44.9051C44.1543 44.9051 44.523 44.8314 44.8917 44.6101C45.3341 44.3889 45.4816 44.1677 45.4078 44.0202C45.2603 43.9465 44.9654 44.0202 44.6705 44.3152Z" fill="#FFE594"/>
<path d="M41.9414 45.0523C41.794 45.2735 41.6465 45.421 41.6465 45.421C41.6465 45.421 41.8677 45.421 42.0889 45.2735C42.3101 45.1261 42.4576 44.9786 42.3839 44.9049C42.3101 44.7574 42.0889 44.8311 41.9414 45.0523Z" fill="#FFE594"/>
<path d="M43.1949 46.5272C42.9736 46.6746 42.8262 46.8958 42.8262 46.8958C42.8262 46.8958 43.1211 46.8959 43.3423 46.8221C43.6373 46.7484 43.7848 46.6009 43.711 46.4534C43.6373 46.306 43.4898 46.3797 43.1949 46.5272Z" fill="#FFE594"/>
<path d="M45.775 45.8632C45.4063 46.0107 45.1113 46.2319 45.1113 46.2319C45.1113 46.2319 45.48 46.3057 45.8487 46.2319C46.2911 46.1582 46.5123 46.0107 46.5123 45.8632C46.5123 45.642 46.1436 45.7158 45.775 45.8632Z" fill="#FFE594"/>
<path d="M41.0586 46.7482C40.9111 46.8957 40.7637 47.0431 40.7637 47.0431C40.7637 47.0431 40.9849 47.0431 41.1324 46.8956C41.3536 46.7482 41.4273 46.6744 41.4273 46.6007C41.3536 46.527 41.2061 46.6007 41.0586 46.7482Z" fill="#FFE594"/>
<path d="M15.3262 54.8588C15.3999 55.0062 15.4736 55.2275 15.4736 55.3749C18.2019 62.8961 26.4604 66.7304 33.9816 64.0021C41.5028 61.2739 45.3371 53.0154 42.6088 45.4942C42.5351 45.3467 42.4614 45.1255 42.3876 44.978L15.3262 54.8588Z" fill="#EBB921"/>
<path d="M16.1367 54.638C16.1367 54.7118 16.2105 54.8592 16.2105 54.933C18.7913 62.0117 26.5336 65.6248 33.6124 63.1178C40.6911 60.537 44.3042 52.7946 41.7972 45.7159C41.7234 45.5684 41.7234 45.4946 41.6497 45.4209L16.1367 54.638Z" fill="#FFF7EA"/>
<path d="M17.7598 54.195C17.7598 54.2688 17.8335 54.3425 17.8335 54.4163C20.0456 60.6102 26.9031 63.7809 33.0233 61.5687C39.2172 59.3566 42.3879 52.4991 40.1758 46.3789C40.1758 46.3052 40.1021 46.2315 40.1021 46.1577L17.7598 54.195Z" fill="#FAC818"/>
<path d="M29.5012 49.7188L28.1836 50.1948L32.7687 62.8858L34.0863 62.4098L29.5012 49.7188Z" fill="#FFF7EA"/>
<path d="M41.7163 46.7498L41.2402 45.4321L16.4825 54.3772L16.9586 55.6948L41.7163 46.7498Z" fill="#FFF7EA"/>
<path d="M28.7466 49.9922L23.1426 62.0851L24.3961 62.675L30.59 49.3286L28.7466 49.9922Z" fill="#FFF7EA"/>
<path d="M27.123 50.5821L40.7644 56.9972L41.3543 55.7437L28.9665 49.9185L27.123 50.5821Z" fill="#FFF7EA"/>
<path d="M37.8887 53.2364C37.52 53.0152 37.2988 52.7939 37.2988 52.7939C37.2988 52.7939 37.6675 52.7939 38.0362 52.9414C38.4786 53.0889 38.6998 53.3101 38.6261 53.3838C38.5524 53.5313 38.2574 53.4576 37.8887 53.2364Z" fill="#FFE594"/>
<path d="M38.7022 51.3931C38.3335 51.3194 37.9648 51.1719 37.9648 51.1719C37.9648 51.1719 38.3335 51.0244 38.7022 51.0244C39.1446 51.0244 39.4396 51.0982 39.4396 51.2456C39.4396 51.4668 39.1446 51.4668 38.7022 51.3931Z" fill="#FFE594"/>
<path d="M35.9722 51.3194C35.751 51.2456 35.6035 51.1719 35.6035 51.1719C35.6035 51.1719 35.751 51.0981 35.9722 51.0981C36.1934 51.0981 36.3409 51.1719 36.3409 51.2456C36.4146 51.3194 36.1934 51.3931 35.9722 51.3194Z" fill="#FFE594"/>
<path d="M36.4156 50.1397C36.1943 50.0659 36.0469 49.9922 36.0469 49.9922C36.0469 49.9922 36.1943 49.9185 36.4156 49.9185C36.6368 49.9185 36.7842 49.9922 36.7842 50.0659C36.7842 50.1397 36.6368 50.1397 36.4156 50.1397Z" fill="#FFE594"/>
<path d="M38.8487 49.5491C38.48 49.6229 38.1113 49.5491 38.1113 49.5491C38.1113 49.5491 38.4063 49.3279 38.775 49.1804C39.2174 49.033 39.5123 49.033 39.5123 49.1804C39.5861 49.3279 39.2911 49.4754 38.8487 49.5491Z" fill="#FFE594"/>
<path d="M20.5603 55.1538C20.9289 55.0801 21.2976 55.0063 21.2976 55.0063C21.2976 55.0063 21.0764 55.3013 20.7077 55.4488C20.2653 55.67 20.0441 55.7437 19.9704 55.5962C19.8966 55.4488 20.1916 55.2276 20.5603 55.1538Z" fill="#FFE594"/>
<path d="M21.4447 56.9239C21.7397 56.7026 22.1084 56.5552 22.1084 56.5552C22.1084 56.5552 21.9609 56.9239 21.7397 57.2188C21.4447 57.5875 21.2235 57.735 21.076 57.5875C20.9286 57.44 21.076 57.2188 21.4447 56.9239Z" fill="#FFE594"/>
<path d="M23.2899 54.9326C23.4374 54.7852 23.6586 54.7114 23.6586 54.7114C23.6586 54.7114 23.5848 54.8589 23.4374 55.0801C23.2899 55.3013 23.1424 55.3013 23.0687 55.3013C22.9949 55.2276 23.0687 55.0801 23.2899 54.9326Z" fill="#FFE594"/>
<path d="M23.8814 56.0386C24.0288 55.8911 24.25 55.8174 24.25 55.8174C24.25 55.8174 24.1763 55.9649 24.0288 56.1861C23.8814 56.4073 23.7339 56.4073 23.6602 56.4073C23.6602 56.3335 23.7339 56.1861 23.8814 56.0386Z" fill="#FFE594"/>
<path d="M22.7722 58.3243C22.9934 58.0293 23.2883 57.7344 23.2883 57.7344C23.2883 57.7344 23.2883 58.1031 23.1409 58.4717C22.9934 58.9142 22.7722 59.1354 22.6247 59.0616C22.4035 58.9879 22.4772 58.6192 22.7722 58.3243Z" fill="#FFE594"/>
<path d="M33.9058 59.0616C33.8321 58.6929 33.9058 58.3242 33.9058 58.3242C33.9058 58.3242 34.127 58.6192 34.2745 58.9879C34.422 59.4303 34.422 59.7252 34.2745 59.7252C34.127 59.799 33.9796 59.504 33.9058 59.0616Z" fill="#FFE594"/>
<path d="M35.5293 58.251C35.3818 57.8824 35.2344 57.5137 35.2344 57.5137C35.2344 57.5137 35.5293 57.6611 35.8243 58.0298C36.1192 58.3985 36.193 58.6197 36.1192 58.7672C35.9717 58.8409 35.6768 58.6197 35.5293 58.251Z" fill="#FFE594"/>
<path d="M33.0967 56.7022C33.023 56.481 32.9492 56.2598 32.9492 56.2598C32.9492 56.2598 33.1704 56.3335 33.3179 56.5547C33.5391 56.7759 33.5391 56.9234 33.4654 56.9971C33.3916 57.1446 33.2442 56.9971 33.0967 56.7022Z" fill="#FFE594"/>
<path d="M34.7915 55.7432C34.6441 55.522 34.5703 55.3008 34.5703 55.3008C34.5703 55.3008 34.7915 55.3745 35.0127 55.522C35.2339 55.7432 35.3814 55.8907 35.234 55.9644C35.1602 56.0381 35.0127 55.9644 34.7915 55.7432Z" fill="#FFE594"/>
<path d="M37.0787 57.1451C36.7837 56.8501 36.5625 56.5552 36.5625 56.5552C36.5625 56.5552 36.9312 56.6289 37.2999 56.7764C37.7423 56.9976 37.8898 57.2188 37.816 57.3663C37.6686 57.5137 37.3736 57.44 37.0787 57.1451Z" fill="#FFE594"/>
<path d="M32.8018 54.7847C32.728 54.6372 32.6543 54.416 32.6543 54.416C32.6543 54.416 32.8018 54.4898 32.9492 54.6372C33.0967 54.7847 33.1704 54.9322 33.0967 55.0059C33.023 55.0797 32.9492 55.0059 32.8018 54.7847Z" fill="#FFE594"/>
<path d="M30.7393 60.2418C30.5181 59.8731 30.2969 59.6519 30.2969 59.6519C30.2969 59.6519 30.2969 60.0205 30.4444 60.3892C30.5918 60.8316 30.7393 61.0529 30.8868 60.9791C31.0342 60.9054 30.9605 60.6104 30.7393 60.2418Z" fill="#FFE594"/>
<path d="M28.9663 60.6109C28.8926 60.2422 28.7451 59.8735 28.7451 59.8735C28.7451 59.8735 28.5977 60.2422 28.5977 60.6109C28.5977 61.0533 28.6714 61.3483 28.8189 61.3483C29.0401 61.3483 29.1138 61.0533 28.9663 60.6109Z" fill="#FFE594"/>
<path d="M29.8535 57.9561C29.7798 57.7349 29.6323 57.5137 29.6323 57.5137C29.6323 57.5137 29.5586 57.7349 29.5586 57.9561C29.5586 58.251 29.6323 58.3985 29.7798 58.3985C29.9273 58.3985 29.9273 58.1773 29.8535 57.9561Z" fill="#FFE594"/>
<path d="M27.9347 58.2505C27.9347 57.9556 27.7872 57.7344 27.7872 57.7344C27.7872 57.7344 27.6398 57.9556 27.566 58.1768C27.4923 58.4717 27.566 58.693 27.7135 58.693C27.861 58.693 27.9347 58.5455 27.9347 58.2505Z" fill="#FFE594"/>
<path d="M27.1238 60.7579C27.1976 60.3892 27.1238 60.0205 27.1238 60.0205C27.1238 60.0205 26.9026 60.3155 26.7551 60.6841C26.6077 61.1266 26.6077 61.4215 26.7551 61.4215C26.9026 61.4215 27.0501 61.1266 27.1238 60.7579Z" fill="#FFE594"/>
<path d="M28.8194 56.2593C28.7456 56.0381 28.7456 55.8906 28.7456 55.8906C28.7456 55.8906 28.6719 56.0381 28.6719 56.2593C28.6719 56.4805 28.6719 56.628 28.7456 56.628C28.8931 56.628 28.8931 56.4805 28.8194 56.2593Z" fill="#FFE594"/>
<path d="M48.2891 50.2872C48.3628 50.4346 48.4365 50.6558 48.5103 50.8033C51.7547 58.1033 60.2344 61.3477 67.5344 58.1033C74.8344 54.8588 78.0788 46.3791 74.8344 39.0791C74.7606 38.9317 74.6869 38.7105 74.6131 38.563L48.2891 50.2872Z" fill="#EBB921"/>
<path d="M49.0996 49.9184C49.1733 49.9922 49.1734 50.1397 49.2471 50.2134C52.2703 57.0709 60.3076 60.1679 67.1652 57.1447C74.0227 54.1215 77.1197 46.0841 74.0964 39.2266C74.0227 39.1529 74.0227 39.0054 73.949 38.9316L49.0996 49.9184Z" fill="#FFF7EA"/>
<path d="M50.7227 49.4017C50.7227 49.4755 50.7964 49.5492 50.7964 49.6229C53.4509 55.5956 60.4559 58.3239 66.5024 55.6694C72.475 53.0148 75.2033 46.0098 72.5488 39.9634C72.5488 39.8897 72.475 39.8159 72.4013 39.7422L50.7227 49.4017Z" fill="#FAC818"/>
<path d="M62.0799 44.1033L60.7988 44.6704L66.2612 57.0092L67.5423 56.4421L62.0799 44.1033Z" fill="#FFF7EA"/>
<path d="M74.0886 40.2889L73.5215 39.0078L49.4507 49.664L50.0178 50.945L74.0886 40.2889Z" fill="#FFF7EA"/>
<path d="M61.4159 44.4625L56.623 56.8503L57.8766 57.3664L63.1856 43.6514L61.4159 44.4625Z" fill="#FFF7EA"/>
<path d="M59.793 45.1251L73.8767 50.5816L74.3929 49.3281L61.5627 44.3877L59.793 45.1251Z" fill="#FFF7EA"/>
<path d="M70.7794 46.9683C70.4107 46.7471 70.1895 46.5259 70.1895 46.5259C70.1895 46.5259 70.5581 46.5259 70.9268 46.5996C71.3692 46.7471 71.5905 46.8946 71.5167 47.042C71.443 47.2632 71.0743 47.1895 70.7794 46.9683Z" fill="#FFE594"/>
<path d="M71.4444 45.125C71.0757 45.0513 70.707 44.9038 70.707 44.9038C70.707 44.9038 71.002 44.7563 71.4444 44.7563C71.8868 44.7563 72.1818 44.8301 72.1818 44.9776C72.108 45.125 71.8131 45.1988 71.4444 45.125Z" fill="#FFE594"/>
<path d="M68.7144 45.2725C68.4932 45.1987 68.3457 45.1987 68.3457 45.1987C68.3457 45.1987 68.4932 45.125 68.7144 45.125C68.9356 45.125 69.0831 45.125 69.0831 45.1987C69.0831 45.2725 68.9356 45.2725 68.7144 45.2725Z" fill="#FFE594"/>
<path d="M69.0113 44.0191C68.7901 43.9453 68.6426 43.9453 68.6426 43.9453C68.6426 43.9453 68.7901 43.8716 69.0113 43.8716C69.2325 43.8716 69.3799 43.8716 69.3799 43.9453C69.4537 44.019 69.2325 44.0191 69.0113 44.0191Z" fill="#FFE594"/>
<path d="M71.4444 43.2083C71.0757 43.282 70.707 43.282 70.707 43.282C70.707 43.282 71.002 43.0608 71.3707 42.8396C71.8131 42.6184 72.108 42.6184 72.108 42.7659C72.108 42.9871 71.8868 43.2083 71.4444 43.2083Z" fill="#FFE594"/>
<path d="M53.598 50.1392C53.9667 49.9917 54.3354 49.9917 54.3354 49.9917C54.3354 49.9917 54.1142 50.2867 53.7455 50.5079C53.3768 50.8028 53.0819 50.8028 53.0081 50.6553C52.9344 50.5079 53.1556 50.2867 53.598 50.1392Z" fill="#FFE594"/>
<path d="M54.5563 51.835C54.8512 51.6138 55.2199 51.3926 55.2199 51.3926C55.2199 51.3926 55.1461 51.7613 54.8512 52.0562C54.5562 52.4249 54.335 52.5724 54.1876 52.4986C54.0401 52.4249 54.2613 52.1299 54.5563 51.835Z" fill="#FFE594"/>
<path d="M56.2554 49.771C56.4029 49.6235 56.5504 49.5498 56.5504 49.5498C56.5504 49.5498 56.4767 49.6973 56.4029 49.9185C56.2554 50.1397 56.108 50.2134 56.108 50.1397C55.9605 49.9922 56.108 49.8448 56.2554 49.771Z" fill="#FFE594"/>
<path d="M56.9147 50.8028C57.0622 50.6553 57.2096 50.5815 57.2096 50.5815C57.2096 50.5815 57.1359 50.729 57.0622 50.9502C56.9147 51.1714 56.7672 51.2452 56.7672 51.1714C56.6935 51.0977 56.7672 50.9502 56.9147 50.8028Z" fill="#FFE594"/>
<path d="M55.9593 53.1627C56.1805 52.794 56.4017 52.5728 56.4017 52.5728C56.4017 52.5728 56.4017 52.9414 56.3279 53.3101C56.1805 53.7525 56.033 53.9738 55.8855 53.9C55.6643 53.8263 55.738 53.4576 55.9593 53.1627Z" fill="#FFE594"/>
<path d="M67.1655 53.0884C67.0918 52.7198 67.0918 52.3511 67.0918 52.3511C67.0918 52.3511 67.3867 52.5723 67.5342 52.941C67.7554 53.3834 67.7554 53.6046 67.608 53.6783C67.3867 53.8258 67.2393 53.5309 67.1655 53.0884Z" fill="#FFE594"/>
<path d="M68.7149 52.2037C68.4937 51.835 68.4199 51.54 68.4199 51.54C68.4199 51.54 68.7149 51.6875 69.0098 51.9825C69.3785 52.3511 69.4522 52.5724 69.3048 52.6461C69.1573 52.7198 68.9361 52.5724 68.7149 52.2037Z" fill="#FFE594"/>
<path d="M66.2061 50.877C66.0586 50.6558 66.0586 50.4346 66.0586 50.4346C66.0586 50.4346 66.2798 50.5083 66.4273 50.7295C66.6485 50.9507 66.7222 51.0982 66.5748 51.1719C66.501 51.1719 66.2798 51.0982 66.2061 50.877Z" fill="#FFE594"/>
<path d="M67.8301 49.6968C67.6826 49.4756 67.5352 49.2544 67.5352 49.2544C67.5352 49.2544 67.8301 49.2544 68.0513 49.4756C68.3463 49.6231 68.42 49.8443 68.3463 49.918C68.1988 49.9918 67.9776 49.918 67.8301 49.6968Z" fill="#FFE594"/>
<path d="M70.1158 50.9507C69.8208 50.7295 69.5996 50.4346 69.5996 50.4346C69.5996 50.4346 69.9683 50.4346 70.337 50.6558C70.7794 50.877 70.9269 51.0245 70.8531 51.1719C70.7794 51.3194 70.4845 51.2457 70.1158 50.9507Z" fill="#FFE594"/>
<path d="M65.7642 48.9595C65.6167 48.812 65.543 48.5908 65.543 48.5908C65.543 48.5908 65.6904 48.6646 65.8379 48.812C65.9854 48.9595 66.0591 49.107 66.0591 49.1807C65.9854 49.1807 65.8379 49.107 65.7642 48.9595Z" fill="#FFE594"/>
<path d="M64.0689 54.4893C63.8477 54.1944 63.5527 53.8994 63.5527 53.8994C63.5527 53.8994 63.5527 54.2681 63.7002 54.6368C63.9214 55.0792 64.0689 55.3004 64.2164 55.2267C64.4376 55.1529 64.2901 54.858 64.0689 54.4893Z" fill="#FFE594"/>
<path d="M62.3726 55.0059C62.2251 54.6372 62.0776 54.3423 62.0776 54.3423C62.0776 54.3423 62.0039 54.711 62.0039 55.0797C62.0039 55.5221 62.1514 55.817 62.2989 55.7433C62.4463 55.7433 62.4463 55.3746 62.3726 55.0059Z" fill="#FFE594"/>
<path d="M63.0371 52.2774C62.9634 52.0562 62.8159 51.835 62.8159 51.835C62.8159 51.835 62.7422 52.0562 62.7422 52.2774C62.7422 52.5723 62.8159 52.7198 62.9634 52.7198C63.1109 52.7198 63.1109 52.4986 63.0371 52.2774Z" fill="#FFE594"/>
<path d="M61.1203 52.7198C61.0465 52.4248 60.9728 52.2036 60.9728 52.2036C60.9728 52.2036 60.8253 52.4248 60.7516 52.7198C60.6778 53.0147 60.7516 53.2359 60.8991 53.2359C61.0465 53.1622 61.1203 53.0147 61.1203 52.7198Z" fill="#FFE594"/>
<path d="M60.4559 55.3013C60.4559 54.9326 60.4559 54.564 60.4559 54.564C60.4559 54.564 60.2346 54.8589 60.0872 55.2276C59.9397 55.67 59.9397 55.965 60.0872 55.965C60.3084 55.965 60.4559 55.67 60.4559 55.3013Z" fill="#FFE594"/>
<path d="M61.9282 50.6553C61.8545 50.4341 61.7808 50.2866 61.7808 50.2866C61.7808 50.2866 61.707 50.4341 61.707 50.6553C61.707 50.8765 61.7808 51.024 61.8545 51.024C61.9282 51.024 61.9282 50.8765 61.9282 50.6553Z" fill="#FFE594"/>
<path d="M67.9715 45.9364C70.2114 45.9364 72.0271 43.6915 72.0271 40.9223C72.0271 38.1531 70.2114 35.9082 67.9715 35.9082C65.7317 35.9082 63.916 38.1531 63.916 40.9223C63.916 43.6915 65.7317 45.9364 67.9715 45.9364Z" fill="#90278C"/>
<path d="M72.0285 40.4802C71.9548 39.3742 71.5861 38.4156 71.0699 37.6782C71.1437 37.9732 71.2911 38.3419 71.2174 38.7105C70.7013 45.1994 64.9498 43.6509 64.1387 42.4711C64.7286 44.6832 66.4245 46.158 68.4154 45.9368C70.6275 45.6418 72.2497 43.2085 72.0285 40.4802Z" fill="#6F256D"/>
<path d="M68.1055 39.6766C68.8553 38.712 68.9157 37.5046 68.2405 36.9798C67.5653 36.4549 66.4101 36.8114 65.6604 37.7759C64.9106 38.7405 64.8501 39.9479 65.5253 40.4728C66.2005 40.9976 67.3557 40.6412 68.1055 39.6766Z" fill="#B565A7"/>
<path d="M26.1669 32.5907C28.4067 32.5907 30.2224 30.3458 30.2224 27.5766C30.2224 24.8074 28.4067 22.5625 26.1669 22.5625C23.9271 22.5625 22.1113 24.8074 22.1113 27.5766C22.1113 30.3458 23.9271 32.5907 26.1669 32.5907Z" fill="#90278C"/>
<path d="M30.2238 27.0603C30.1501 25.9543 29.7814 24.9957 29.2653 24.2583C29.339 24.5532 29.4865 24.9219 29.4127 25.2906C28.8966 31.7795 23.1451 30.231 22.334 29.0512C22.9239 31.2633 24.6198 32.738 26.6107 32.5168C28.8228 32.2219 30.4451 29.7886 30.2238 27.0603Z" fill="#6F256D"/>
<path d="M26.2715 26.265C27.0213 25.3004 27.0817 24.093 26.4065 23.5681C25.7313 23.0433 24.5762 23.3998 23.8264 24.3643C23.0766 25.3289 23.0161 26.5363 23.6913 27.0612C24.3665 27.586 25.5217 27.2296 26.2715 26.265Z" fill="#B565A7"/>
<path d="M49.909 30.3046C52.1489 30.3046 53.9646 28.0597 53.9646 25.2905C53.9646 22.5213 52.1489 20.2764 49.909 20.2764C47.6692 20.2764 45.8535 22.5213 45.8535 25.2905C45.8535 28.0597 47.6692 30.3046 49.909 30.3046Z" fill="#90278C"/>
<path d="M53.966 24.8484C53.8923 23.7423 53.5236 22.7838 53.0074 22.0464C53.0812 22.3413 53.2286 22.71 53.1549 23.0787C52.6388 29.5676 46.8873 28.0191 46.0762 26.8393C46.6661 29.0514 48.362 30.5261 50.3529 30.3049C52.565 30.01 54.1872 27.5767 53.966 24.8484Z" fill="#6F256D"/>
<path d="M50.0137 24.0199C50.7635 23.0553 50.8239 21.8479 50.1487 21.323C49.4735 20.7982 48.3183 21.1546 47.5686 22.1192C46.8188 23.0838 46.7583 24.2912 47.4335 24.8161C48.1087 25.3409 49.2639 24.9844 50.0137 24.0199Z" fill="#B565A7"/>
<path d="M58.8316 21.824C58.7579 21.6765 58.6841 21.4553 58.5366 21.3079C54.6286 14.3766 45.7802 11.9433 38.8489 15.9251C31.9176 19.8331 29.4843 28.6816 33.4661 35.6128C33.5398 35.7603 33.6873 35.9078 33.761 36.129L58.8316 21.824Z" fill="#EBB921"/>
<path d="M58.096 22.2662C58.0222 22.1925 58.0222 22.045 57.9485 21.9713C54.2617 15.4824 45.9294 13.1966 39.4405 16.8834C32.9517 20.5703 30.6658 28.9026 34.3527 35.3914C34.4264 35.4652 34.5002 35.6126 34.5739 35.6864L58.096 22.2662Z" fill="#FFF7EA"/>
<path d="M56.5461 22.9299C56.5461 22.8562 56.4723 22.7824 56.4723 22.7087C53.2279 17.0309 46.0017 14.9663 40.2502 18.2107C34.5724 21.4552 32.5078 28.6814 35.7522 34.4329C35.826 34.5066 35.826 34.5803 35.8997 34.6541L56.5461 22.9299Z" fill="#FAC818"/>
<path d="M40.2964 16.8947L39.0781 17.5864L45.7408 29.3207L46.9592 28.6289L40.2964 16.8947Z" fill="#FFF7EA"/>
<path d="M34.2124 34.2974L34.9043 35.5156L57.7945 22.5159L57.1027 21.2976L34.2124 34.2974Z" fill="#FFF7EA"/>
<path d="M46.4435 28.903L49.9092 16.0728L48.5819 15.7041L44.6738 29.9353L46.4435 28.903Z" fill="#FFF7EA"/>
<path d="M47.9183 28.0184L33.3921 24.0366L33.0234 25.3639L46.2223 29.0507L47.9183 28.0184Z" fill="#FFF7EA"/>
<path d="M36.8565 27.2805C37.2252 27.428 37.5201 27.6492 37.5201 27.6492C37.5201 27.6492 37.1515 27.7229 36.7828 27.6492C36.3403 27.5755 36.1191 27.428 36.1191 27.2805C36.1191 27.1331 36.4878 27.1331 36.8565 27.2805Z" fill="#FFE594"/>
<path d="M36.3428 29.2718C36.7115 29.2718 37.0802 29.4193 37.0802 29.4193C37.0802 29.4193 36.7853 29.5667 36.3428 29.6405C35.9004 29.7142 35.6055 29.6405 35.6055 29.493C35.6055 29.2718 35.9742 29.1981 36.3428 29.2718Z" fill="#FFE594"/>
<path d="M39.0699 28.8296C39.2911 28.8296 39.4385 28.9033 39.4385 28.9033C39.4385 28.9033 39.2911 28.9771 39.0699 29.0508C38.8486 29.1245 38.7012 29.0508 38.7012 28.9771C38.7012 28.9033 38.8486 28.8296 39.0699 28.8296Z" fill="#FFE594"/>
<path d="M38.8492 30.082C39.0704 30.082 39.2178 30.1558 39.2178 30.1558C39.2178 30.1558 39.0704 30.2295 38.8492 30.3032C38.6279 30.377 38.4805 30.3032 38.4805 30.2295C38.4805 30.1558 38.6279 30.082 38.8492 30.082Z" fill="#FFE594"/>
<path d="M36.4899 31.1148C36.8586 31.041 37.2273 30.9673 37.2273 30.9673C37.2273 30.9673 37.0061 31.2622 36.6374 31.4097C36.195 31.6309 35.9738 31.7047 35.9 31.5572C35.8263 31.4097 36.1213 31.1885 36.4899 31.1148Z" fill="#FFE594"/>
<path d="M53.5987 22.4883C53.23 22.6358 52.8613 22.7096 52.8613 22.7096C52.8613 22.7096 53.0825 22.4146 53.3775 22.1197C53.7462 21.8247 53.9674 21.751 54.1149 21.8984C54.1886 22.0459 53.9674 22.2671 53.5987 22.4883Z" fill="#FFE594"/>
<path d="M52.4903 20.8653C52.1953 21.1603 51.9004 21.3815 51.9004 21.3815C51.9004 21.3815 51.9741 21.0128 52.1953 20.6441C52.4166 20.2017 52.6378 20.0542 52.7852 20.128C52.859 20.2754 52.7852 20.5704 52.4903 20.8653Z" fill="#FFE594"/>
<path d="M51.0176 23.1512C50.8701 23.2987 50.7227 23.3724 50.7227 23.3724C50.7227 23.3724 50.7227 23.1512 50.8701 23.0037C51.0176 22.7825 51.0913 22.7088 51.1651 22.7825C51.2388 22.8563 51.1651 23.0037 51.0176 23.1512Z" fill="#FFE594"/>
<path d="M50.2071 22.1195C50.0596 22.267 49.9121 22.3407 49.9121 22.3407C49.9121 22.3407 49.9121 22.1195 50.0596 21.972C50.2071 21.7508 50.2808 21.6771 50.3545 21.7508C50.4283 21.8245 50.3545 21.972 50.2071 22.1195Z" fill="#FFE594"/>
<path d="M50.9405 19.7598C50.793 20.1285 50.5718 20.4235 50.5718 20.4235C50.5718 20.4235 50.4981 20.0548 50.5718 19.6861C50.6456 19.2437 50.793 19.0225 50.9405 19.0225C51.1617 19.0225 51.088 19.3911 50.9405 19.7598Z" fill="#FFE594"/>
<path d="M39.8077 20.8659C39.9552 21.2346 39.9552 21.6033 39.9552 21.6033C39.9552 21.6033 39.6603 21.3821 39.439 21.0134C39.2178 20.571 39.1441 20.3498 39.2916 20.276C39.439 20.2023 39.6603 20.4972 39.8077 20.8659Z" fill="#FFE594"/>
<path d="M38.3315 21.9716C38.5527 22.2665 38.7002 22.6352 38.7002 22.6352C38.7002 22.6352 38.3315 22.4877 38.0365 22.2665C37.6678 21.9716 37.5204 21.7504 37.6678 21.6029C37.8153 21.4554 38.1103 21.6029 38.3315 21.9716Z" fill="#FFE594"/>
<path d="M40.9876 23.0037C41.1351 23.225 41.2089 23.4462 41.2089 23.4462C41.2089 23.4462 40.9877 23.3724 40.7664 23.225C40.5452 23.0037 40.4715 22.8563 40.5452 22.7825C40.6927 22.7088 40.8402 22.7825 40.9876 23.0037Z" fill="#FFE594"/>
<path d="M39.4392 24.3306C39.6604 24.5519 39.7342 24.7731 39.7342 24.7731C39.7342 24.7731 39.4392 24.7731 39.218 24.6256C38.9231 24.4781 38.8493 24.3306 38.9231 24.1832C39.0706 24.0357 39.2918 24.1094 39.4392 24.3306Z" fill="#FFE594"/>
<path d="M37.0795 23.2989C37.4482 23.5201 37.6694 23.7413 37.6694 23.7413C37.6694 23.7413 37.3007 23.7413 36.932 23.5939C36.4896 23.4464 36.2684 23.2252 36.3421 23.1514C36.4158 23.004 36.7108 23.0777 37.0795 23.2989Z" fill="#FFE594"/>
<path d="M41.576 24.8468C41.7235 24.9943 41.7972 25.1418 41.7972 25.1418C41.7972 25.1418 41.6498 25.068 41.4286 24.9943C41.2073 24.8468 41.1336 24.6993 41.2073 24.6993C41.3548 24.6256 41.5023 24.6993 41.576 24.8468Z" fill="#FFE594"/>
<path d="M42.7574 19.17C43.0524 19.465 43.3473 19.6862 43.3473 19.6862C43.3473 19.6862 43.2736 19.3175 43.1261 18.9488C42.9049 18.5064 42.6837 18.3589 42.5362 18.4327C42.315 18.5801 42.4625 18.8751 42.7574 19.17Z" fill="#FFE594"/>
<path d="M44.3801 18.506C44.5276 18.8747 44.7488 19.1696 44.7488 19.1696C44.7488 19.1696 44.8226 18.8009 44.7488 18.4323C44.6751 17.9898 44.5276 17.6949 44.3801 17.7686C44.2327 17.7686 44.2327 18.1373 44.3801 18.506Z" fill="#FFE594"/>
<path d="M44.009 21.3079C44.1565 21.5291 44.304 21.6766 44.304 21.6766C44.304 21.6766 44.3777 21.4554 44.304 21.2342C44.2302 20.9392 44.1565 20.7917 44.009 20.8655C43.8616 20.8655 43.8616 21.0867 44.009 21.3079Z" fill="#FFE594"/>
<path d="M45.8531 20.6441C45.9269 20.939 46.0744 21.1602 46.0744 21.1602C46.0744 21.1602 46.2218 20.939 46.2218 20.6441C46.2218 20.3491 46.1481 20.1279 46.0006 20.1279C45.8531 20.2017 45.7794 20.4229 45.8531 20.6441Z" fill="#FFE594"/>
<path d="M46.2246 18.0635C46.2246 18.4322 46.2984 18.8009 46.2984 18.8009C46.2984 18.8009 46.5196 18.506 46.5933 18.0635C46.667 17.6211 46.667 17.3262 46.5196 17.3262C46.2983 17.3262 46.2246 17.6211 46.2246 18.0635Z" fill="#FFE594"/>
<path d="M45.2662 22.7818C45.34 23.003 45.4137 23.1505 45.4137 23.1505C45.4137 23.1505 45.4874 23.003 45.4137 22.7818C45.4137 22.5606 45.34 22.4131 45.2662 22.4131C45.1925 22.4131 45.1925 22.5606 45.2662 22.7818Z" fill="#FFE594"/>
<path d="M60.9657 20.9403C59.3435 19.5393 57.2789 20.5717 57.2789 20.5717C57.2789 20.5717 55.6567 18.9494 53.6658 19.6868C51.6749 20.4979 50.3476 22.1939 51.6749 26.3231C52.486 28.6827 53.2971 30.01 54.2557 30.6736C54.9931 31.1898 56.0254 31.3372 56.9102 31.116C58.0163 30.8211 59.2698 29.9362 60.7445 27.7979C63.1041 24.2585 62.588 22.3413 60.9657 20.9403Z" fill="#D21F26"/>
<path d="M60.6713 21.235C59.1228 19.9077 57.5006 20.4976 57.5006 20.4976C57.5006 20.4976 55.6571 19.3916 53.8137 20.129C51.8966 20.8663 50.643 22.4885 51.9703 26.3229C52.7077 28.535 53.5188 29.7885 54.3299 30.3784C55.0672 30.8946 55.9521 31.042 56.8369 30.8208C57.8692 30.5259 59.049 29.7148 60.45 27.7239C62.6621 24.332 62.2197 22.4885 60.6713 21.235Z" fill="#ED2F26"/>
<path d="M56.6878 21.1616C56.909 21.4566 57.2777 21.5303 57.5726 21.2354C57.9413 20.9404 58.31 20.6455 58.605 20.9404C59.1211 21.5303 58.2363 26.0283 56.8353 28.2404C55.4343 30.4525 55.2868 30.6737 55.2131 29.8626C55.0656 29.0515 54.5494 24.7747 54.9918 23.1525C55.4343 21.5303 55.508 20.3505 56.2454 20.7192C56.4666 20.8667 56.6141 21.0142 56.6878 21.1616Z" fill="#F06060"/>
<path d="M58.2378 22.71C58.2378 22.71 58.9752 23.0049 59.5651 22.9312C60.155 22.8574 60.7449 22.6362 60.7449 22.6362C60.7449 22.6362 60.3762 23.0049 59.7863 23.1524C58.9752 23.2999 58.1641 23.0049 58.1641 23.0049L58.2378 22.71Z" fill="#F06060"/>
<path d="M57.9429 24.3325C57.9429 24.3325 58.6802 24.6275 59.2701 24.5537C59.86 24.48 60.4499 24.2588 60.4499 24.2588C60.4499 24.2588 60.0812 24.6275 59.4914 24.7749C58.6802 24.9224 57.8691 24.6275 57.8691 24.6275L57.9429 24.3325Z" fill="#F06060"/>
<path d="M56.6154 23.2257C56.6892 23.3732 56.8367 23.3732 56.9841 23.2995C57.1316 23.152 57.3528 23.0045 57.4265 23.152C57.6478 23.4469 57.2053 25.8803 56.5417 27.0601C55.8781 28.2398 55.8781 28.3873 55.8043 27.9449C55.7306 27.5025 55.5831 25.2166 55.8043 24.3318C56.0255 23.4469 56.0993 22.857 56.3942 23.0045C56.468 23.0045 56.5417 23.152 56.6154 23.2257Z" fill="#EF4F4B"/>
<path d="M57.2046 26.3228C57.2046 26.3228 57.942 26.6177 58.5319 26.544C59.1218 26.4702 59.7117 26.249 59.7117 26.249C59.7117 26.249 59.343 26.6177 58.7531 26.7652C57.942 26.9127 57.1309 26.6177 57.1309 26.6177L57.2046 26.3228Z" fill="#F06060"/>
<path d="M56.3941 28.0923C56.3941 28.0923 57.1314 28.3872 57.7213 28.3135C58.3112 28.2398 58.9011 28.0186 58.9011 28.0186C58.9011 28.0186 58.5324 28.3872 57.9425 28.5347C57.1314 28.6822 56.3203 28.3872 56.3203 28.3872L56.3941 28.0923Z" fill="#F06060"/>
<path d="M55.7307 22.3419C55.7307 22.3419 54.9196 22.3419 54.4034 22.1207C53.8873 21.8994 53.3711 21.5308 53.3711 21.5308C53.3711 21.5308 53.5923 21.9732 54.1085 22.2681C54.7721 22.7106 55.6569 22.6368 55.6569 22.6368L55.7307 22.3419Z" fill="#F06060"/>
<path d="M55.51 23.9639C55.51 23.9639 54.6989 23.9639 54.1827 23.7427C53.6666 23.5215 53.1504 23.1528 53.1504 23.1528C53.1504 23.1528 53.3716 23.5953 53.8878 23.8902C54.5514 24.3326 55.4362 24.2589 55.4362 24.2589L55.51 23.9639Z" fill="#F06060"/>
<path d="M55.5822 26.0279C55.5822 26.0279 54.7711 26.0279 54.255 25.8067C53.7388 25.5855 53.2227 25.2168 53.2227 25.2168C53.2227 25.2168 53.4439 25.6592 53.96 25.9542C54.6237 26.3966 55.5085 26.3229 55.5085 26.3229L55.5822 26.0279Z" fill="#F06060"/>
<path d="M55.8049 28.0191C55.8049 28.0191 54.9938 28.0191 54.4776 27.7979C53.9615 27.5767 53.4453 27.208 53.4453 27.208C53.4453 27.208 53.6665 27.6504 54.1827 27.9454C54.8463 28.3878 55.7312 28.3141 55.7312 28.3141L55.8049 28.0191Z" fill="#F06060"/>
<path d="M59.6388 22.2676C59.6388 22.2676 60.0075 21.8989 60.0812 21.5303C60.155 21.1616 60.1549 21.1616 60.1549 21.1616C60.1549 21.1616 61.1873 20.9404 61.6297 21.309C61.9984 21.6777 61.9984 21.6777 61.9984 21.6777C61.9984 21.6777 61.7772 20.5717 60.0812 20.203C58.3853 19.8343 57.4267 20.203 57.4267 20.203C57.4267 20.203 57.5742 19.4656 55.362 19.1707C53.1499 18.8757 52.7812 19.0232 52.7812 19.0232C52.7812 19.0232 54.4035 19.9818 54.4035 20.4979C54.4035 21.0141 54.4035 21.0141 54.4035 21.0141L57.3529 20.6454C57.3529 20.6454 56.9843 21.1616 58.3115 21.604C59.565 22.0464 59.6388 22.2676 59.6388 22.2676Z" fill="#00A96E"/>
<path d="M30.5894 69.5323C32.7278 69.4586 33.5389 67.3202 33.5389 67.3202C33.5389 67.3202 35.8247 67.4677 36.7833 65.4768C37.7419 63.5596 37.5207 61.3475 33.7601 59.2829C31.6217 58.1031 30.0732 57.6607 28.9672 57.8081C28.0086 57.9556 27.1975 58.4718 26.7551 59.2829C26.1652 60.2415 25.7965 61.7899 26.1652 64.297C26.8288 68.5 28.451 69.606 30.5894 69.5323Z" fill="#D21F26"/>
<path d="M30.5883 69.0895C32.5792 69.0158 33.3903 67.4673 33.3903 67.4673C33.3903 67.4673 35.5286 67.0986 36.4135 65.2552C37.2983 63.4118 37.0771 61.3471 33.5377 59.43C31.5469 58.3239 30.0721 57.8815 29.0398 58.029C28.1549 58.1764 27.4176 58.6189 26.9014 59.43C26.3115 60.3148 26.0166 61.7896 26.3853 64.1491C27.0489 68.1309 28.5974 69.1633 30.5883 69.0895Z" fill="#ED2F26"/>
<path d="M33.5416 66.4345C33.173 66.3608 32.878 66.582 32.8043 66.9507C32.7305 67.3931 32.6568 67.9093 32.2144 67.8355C31.477 67.7618 29.0437 63.8537 28.6013 61.2729C28.1588 58.6921 28.0851 58.4709 28.7487 58.9871C29.4124 59.5033 32.6568 62.3053 33.4679 63.78C34.279 65.2547 34.9426 66.1396 34.2053 66.4345C33.9841 66.5083 33.7628 66.5083 33.5416 66.4345Z" fill="#F06060"/>
<path d="M31.3986 66.3618C31.3986 66.3618 30.6612 66.6568 30.2925 67.0992C29.9238 67.5416 29.6289 68.0578 29.6289 68.0578C29.6289 68.0578 29.6289 67.5416 29.9976 67.0255C30.44 66.3618 31.2511 65.9932 31.2511 65.9932L31.3986 66.3618Z" fill="#F06060"/>
<path d="M30.5158 64.961C30.5158 64.961 29.7784 65.2559 29.4097 65.6983C29.041 66.1408 28.7461 66.6569 28.7461 66.6569C28.7461 66.6569 28.7461 66.1408 29.1148 65.6246C29.5572 64.961 30.3683 64.5923 30.3683 64.5923L30.5158 64.961Z" fill="#F06060"/>
<path d="M32.2858 64.8868C32.1383 64.8131 31.9908 64.9605 31.9908 65.108C31.9908 65.3292 31.9171 65.5504 31.7696 65.5504C31.4009 65.4767 30.1474 63.412 29.7787 62.0848C29.41 60.7575 29.41 60.61 29.705 60.905C30.0736 61.1999 31.6958 62.7484 32.1383 63.5595C32.5807 64.3706 32.9494 64.8131 32.5807 64.8868C32.507 64.9605 32.3595 64.8868 32.2858 64.8868Z" fill="#EF4F4B"/>
<path d="M29.7052 63.0435C29.7052 63.0435 28.9679 63.3384 28.5992 63.7809C28.2305 64.2233 27.9355 64.7394 27.9355 64.7394C27.9355 64.7394 27.9355 64.2233 28.3042 63.7071C28.7467 63.0435 29.5578 62.6748 29.5578 62.6748L29.7052 63.0435Z" fill="#F06060"/>
<path d="M29.1154 61.126C29.1154 61.126 28.378 61.421 28.0093 61.8634C27.6407 62.3058 27.3457 62.822 27.3457 62.822C27.3457 62.822 27.3457 62.3058 27.7144 61.7896C28.1568 61.126 28.9679 60.7573 28.9679 60.7573L29.1154 61.126Z" fill="#F06060"/>
<path d="M33.54 64.9604C33.54 64.9604 34.1299 64.4443 34.6461 64.2231C35.1623 64.0019 35.8259 64.0019 35.8259 64.0019C35.8259 64.0019 35.3835 63.7807 34.7936 63.9281C33.9825 64.0756 33.3926 64.6655 33.3926 64.6655L33.54 64.9604Z" fill="#F06060"/>
<path d="M32.6533 63.5596C32.6533 63.5596 33.2432 63.0434 33.7594 62.8222C34.2756 62.601 34.9392 62.601 34.9392 62.601C34.9392 62.601 34.4968 62.3798 33.9069 62.5273C33.0958 62.6747 32.5059 63.2646 32.5059 63.2646L32.6533 63.5596Z" fill="#F06060"/>
<path d="M31.1787 62.0845C31.1787 62.0845 31.7686 61.5683 32.2848 61.3471C32.8009 61.1259 33.4646 61.1259 33.4646 61.1259C33.4646 61.1259 33.0222 60.9047 32.4323 61.0522C31.6212 61.1996 31.0312 61.7895 31.0312 61.7895L31.1787 62.0845Z" fill="#F06060"/>
<path d="M29.6318 60.7578C29.6318 60.7578 30.2217 60.2417 30.7379 60.0204C31.2541 59.7992 31.9177 59.7992 31.9177 59.7992C31.9177 59.7992 31.4753 59.578 30.8854 59.7255C30.0743 59.873 29.4844 60.4629 29.4844 60.4629L29.6318 60.7578Z" fill="#F06060"/>
<path d="M30.6642 67.615C30.6642 67.615 30.6642 68.1311 30.8854 68.4261C31.1066 68.721 31.1066 68.721 31.1066 68.721C31.1066 68.721 30.5167 69.6059 30.0005 69.6059C29.4844 69.6059 29.4844 69.6059 29.4844 69.6059C29.4844 69.6059 30.3692 70.2695 31.9177 69.3847C33.3924 68.4998 33.8349 67.5412 33.8349 67.5412C33.8349 67.5412 34.2773 68.2049 36.047 66.8776C37.8166 65.5503 38.0379 65.2554 38.0379 65.2554C38.0379 65.2554 36.1944 65.6241 35.8257 65.2554C35.4571 64.8867 35.4571 64.8867 35.4571 64.8867L33.4662 67.1726C33.4662 67.1726 33.3924 66.5827 32.1389 67.0988C30.8116 67.7625 30.6642 67.615 30.6642 67.615Z" fill="#00A96E"/>
<path d="M23.9498 56.3327C30.6692 56.3327 36.1164 50.8855 36.1164 44.1661C36.1164 37.4467 30.6692 31.9995 23.9498 31.9995C17.2304 31.9995 11.7832 37.4467 11.7832 44.1661C11.7832 50.8855 17.2304 56.3327 23.9498 56.3327Z" fill="#9DC53B"/>
<path d="M24.7603 55.0056C31.4798 55.0056 36.9269 49.5584 36.9269 42.839C36.9269 36.1195 31.4798 30.6724 24.7603 30.6724C18.0409 30.6724 12.5938 36.1195 12.5938 42.839C12.5938 49.5584 18.0409 55.0056 24.7603 55.0056Z" fill="#B0D135"/>
<path d="M29.7039 39.4469C29.7039 39.4469 28.3767 37.5298 26.9757 37.5298C25.5747 37.5298 25.206 36.9399 23.0676 37.5298C20.9292 38.1196 20.3393 37.6772 19.6757 40.4792C19.0121 43.2812 17.5373 43.2812 19.0858 45.0509C20.6343 46.8206 21.2979 48.0004 22.9939 48.7378C24.6898 49.4751 27.1969 49.2539 28.7454 48.0004C29.6302 47.263 30.7362 44.756 30.515 42.6176C30.2938 40.4792 29.7039 39.4469 29.7039 39.4469Z" fill="#CFDD3B"/>
<path d="M29.111 39.8892C29.111 39.8892 28.0049 38.267 26.7514 38.267C25.4979 38.267 25.2029 37.7508 23.3595 38.267C21.5161 38.7832 20.9999 38.4145 20.3363 40.8478C19.7464 43.3549 18.4929 43.2811 19.8201 44.8296C21.1474 46.3781 21.811 47.4104 23.212 48.074C24.6868 48.6639 26.8989 48.5902 28.2999 47.4104C29.111 46.7467 30.0696 44.5346 29.8483 42.6912C29.6271 40.8478 29.111 39.8892 29.111 39.8892Z" fill="#E8EA84"/>
<path d="M21.661 49.2544C21.8822 49.1069 22.1034 48.9595 22.1034 48.9595C22.1034 48.9595 22.0297 49.1807 21.8822 49.4019C21.661 49.6231 21.5872 49.7706 21.4398 49.6968C21.366 49.6231 21.4398 49.4756 21.661 49.2544Z" fill="#18616A"/>
<path d="M22.6983 49.8443C22.8458 49.6231 22.9933 49.4756 22.9933 49.4756C22.9933 49.4756 22.9933 49.6968 22.9196 49.9917C22.8458 50.2867 22.6983 50.4342 22.6246 50.3604C22.5509 50.2867 22.5509 50.1392 22.6983 49.8443Z" fill="#18616A"/>
<path d="M25.3501 36.0552C25.2764 36.2764 25.2026 36.4239 25.2026 36.4239C25.2026 36.4239 25.1289 36.2764 25.1289 36.0552C25.1289 35.834 25.1289 35.6865 25.2764 35.6865C25.3501 35.6865 25.4239 35.834 25.3501 36.0552Z" fill="#18616A"/>
<path d="M23.8024 35.4649C23.8024 35.6861 23.7286 35.8336 23.7286 35.8336C23.7286 35.8336 23.5812 35.6861 23.5074 35.4649C23.4337 35.2437 23.4337 35.0962 23.5812 35.0962C23.6549 35.0962 23.8024 35.2437 23.8024 35.4649Z" fill="#18616A"/>
<path d="M23.8047 50.3599C23.8784 50.1387 23.9522 49.9175 23.9522 49.9175C23.9522 49.9175 24.0259 50.1387 24.0259 50.4336C24.0259 50.7286 23.9522 50.8761 23.8784 50.8761C23.8047 50.8023 23.8047 50.5811 23.8047 50.3599Z" fill="#18616A"/>
<path d="M24.4654 36.4981C24.4654 36.7193 24.3916 36.8668 24.3916 36.8668C24.3916 36.8668 24.3179 36.7193 24.2441 36.4981C24.2441 36.2769 24.2441 36.1294 24.3179 36.1294C24.4654 36.1294 24.4654 36.2769 24.4654 36.4981Z" fill="#18616A"/>
<path d="M28.8902 36.4977C28.669 36.6452 28.5215 36.7927 28.5215 36.7927C28.5215 36.7927 28.5952 36.5715 28.7427 36.3503C28.8902 36.1291 29.0376 35.9816 29.1114 36.0553C29.1851 36.1291 29.1114 36.3503 28.8902 36.4977Z" fill="#18616A"/>
<path d="M28.2261 35.5386C28.0786 35.7598 27.8574 35.9073 27.8574 35.9073C27.8574 35.9073 27.8574 35.6861 28.0049 35.4649C28.1524 35.1699 28.2998 35.0962 28.3736 35.0962C28.5211 35.1699 28.4473 35.3174 28.2261 35.5386Z" fill="#18616A"/>
<path d="M27.709 37.0877C27.5615 37.2352 27.4141 37.309 27.4141 37.309C27.4141 37.309 27.4141 37.1615 27.5615 36.9403C27.709 36.7191 27.7827 36.6453 27.8565 36.7191C27.9302 36.8665 27.8565 37.014 27.709 37.0877Z" fill="#18616A"/>
<path d="M26.3843 35.7601C26.2368 35.9076 26.0156 35.9813 26.0156 35.9813C26.0156 35.9813 26.0156 35.7601 26.1631 35.6126C26.3106 35.3914 26.3843 35.3177 26.5318 35.3914C26.6793 35.4652 26.6055 35.6126 26.3843 35.7601Z" fill="#18616A"/>
<path d="M25.4976 34.6538C25.3501 34.8751 25.1289 35.0225 25.1289 35.0225C25.1289 35.0225 25.1289 34.8013 25.2764 34.5801C25.4239 34.2852 25.4976 34.2114 25.6451 34.2114C25.7188 34.2114 25.6451 34.4326 25.4976 34.6538Z" fill="#18616A"/>
<path d="M26.6035 37.0875C26.4561 37.1613 26.3086 37.235 26.3086 37.235C26.3086 37.235 26.3823 37.0875 26.5298 36.9401C26.6773 36.7926 26.8248 36.7189 26.8248 36.7926C26.8985 36.8663 26.751 36.9401 26.6035 37.0875Z" fill="#18616A"/>
<path d="M31.6919 38.5622C31.397 38.5622 31.1758 38.5622 31.1758 38.5622C31.1758 38.5622 31.397 38.4147 31.6182 38.3409C31.9131 38.2672 32.0606 38.2672 32.1344 38.3409C32.1344 38.4884 31.9131 38.5622 31.6919 38.5622Z" fill="#18616A"/>
<path d="M30.8799 37.0138C30.6587 37.0876 30.4375 37.1613 30.4375 37.1613C30.4375 37.1613 30.585 36.9401 30.8062 36.7926C31.0274 36.6451 31.2486 36.5714 31.2486 36.6451C31.3223 36.7926 31.1749 36.9401 30.8799 37.0138Z" fill="#18616A"/>
<path d="M31.398 39.8155C31.1768 39.8893 31.0293 39.8893 31.0293 39.8893C31.0293 39.8893 31.103 39.7418 31.2505 39.5943C31.4717 39.4469 31.5455 39.4469 31.6192 39.5206C31.6929 39.6681 31.6192 39.7418 31.398 39.8155Z" fill="#18616A"/>
<path d="M30.5855 38.0461C30.3643 38.1198 30.2168 38.1936 30.2168 38.1936C30.2168 38.1936 30.2905 37.9724 30.438 37.8249C30.5855 37.6037 30.733 37.6037 30.8067 37.6774C30.8804 37.8249 30.8067 37.9723 30.5855 38.0461Z" fill="#18616A"/>
<path d="M29.5542 37.3825C29.333 37.53 29.1855 37.6774 29.1855 37.6774C29.1855 37.6774 29.2593 37.4562 29.4068 37.235C29.5542 37.0138 29.7017 36.8663 29.7754 36.9401C29.9229 37.0138 29.7754 37.1613 29.5542 37.3825Z" fill="#18616A"/>
<path d="M30.5855 39.2261C30.438 39.2998 30.2168 39.3736 30.2168 39.3736C30.2168 39.3736 30.2905 39.2261 30.438 39.0786C30.5855 38.9312 30.733 38.9312 30.8067 38.9312C30.8804 39.0049 30.733 39.1524 30.5855 39.2261Z" fill="#18616A"/>
<path d="M32.6524 43.0606C32.5049 42.8394 32.3574 42.6919 32.3574 42.6919C32.3574 42.6919 32.5786 42.7656 32.7998 42.9131C33.0211 43.0606 33.1685 43.2081 33.0948 43.2818C33.0211 43.3555 32.8736 43.2818 32.6524 43.0606Z" fill="#18616A"/>
<path d="M32.7237 42.0279C32.5025 41.8804 32.2812 41.7329 32.2812 41.7329C32.2812 41.7329 32.5025 41.7329 32.7974 41.8067C33.0924 41.8804 33.2398 41.9541 33.2398 42.1016C33.1661 42.2491 32.9449 42.1753 32.7237 42.0279Z" fill="#18616A"/>
<path d="M31.6192 42.3233C31.4717 42.2495 31.3242 42.1021 31.3242 42.1021C31.3242 42.1021 31.4717 42.1021 31.6929 42.1021C31.9141 42.1758 31.9878 42.2495 31.9878 42.3233C31.9141 42.4707 31.7666 42.4707 31.6192 42.3233Z" fill="#18616A"/>
<path d="M32.1363 40.5532C31.9151 40.4795 31.7676 40.332 31.7676 40.332C31.7676 40.332 31.9888 40.2583 32.1363 40.2583C32.3575 40.2583 32.5049 40.332 32.5049 40.4795C32.5787 40.627 32.3575 40.627 32.1363 40.5532Z" fill="#18616A"/>
<path d="M31.4717 44.166C31.1768 44.0923 31.0293 44.0186 31.0293 44.0186C31.0293 44.0186 31.2505 43.9448 31.4717 43.8711C31.7667 43.8711 31.9141 43.8711 31.9141 44.0186C31.9879 44.166 31.7667 44.166 31.4717 44.166Z" fill="#18616A"/>
<path d="M31.1016 41.3648C30.9541 41.291 30.8066 41.1436 30.8066 41.1436C30.8066 41.1436 30.9541 41.1436 31.1753 41.1436C31.3965 41.2173 31.4703 41.291 31.4703 41.3648C31.4703 41.5122 31.3228 41.5122 31.1016 41.3648Z" fill="#18616A"/>
<path d="M20.189 36.5716C20.4102 36.6454 20.7052 36.6454 20.7052 36.6454C20.7052 36.6454 20.5577 36.4241 20.3365 36.3504C20.0415 36.2029 19.894 36.1292 19.8203 36.2767C19.8203 36.3504 19.9678 36.4979 20.189 36.5716Z" fill="#18616A"/>
<path d="M20.9246 35.6127C21.1459 35.7601 21.3671 35.8339 21.3671 35.8339C21.3671 35.8339 21.2933 35.6126 21.1459 35.3914C20.9246 35.1702 20.7772 35.0965 20.7034 35.1702C20.6297 35.244 20.7034 35.4652 20.9246 35.6127Z" fill="#18616A"/>
<path d="M21.444 37.6037C21.5915 37.6774 21.8127 37.7511 21.8127 37.7511C21.8127 37.7511 21.7389 37.6037 21.6652 37.4562C21.5177 37.3087 21.3702 37.235 21.2965 37.3087C21.2228 37.3824 21.2965 37.4562 21.444 37.6037Z" fill="#18616A"/>
<path d="M22.1795 36.0555C22.327 36.203 22.4745 36.2767 22.4745 36.2767C22.4745 36.2767 22.4745 36.0555 22.4007 35.908C22.2532 35.6868 22.1795 35.6131 22.1058 35.6868C21.9583 35.7606 22.032 35.908 22.1795 36.0555Z" fill="#18616A"/>
<path d="M25.2032 50.4341C25.1294 50.1392 25.0557 49.9917 25.0557 49.9917C25.0557 49.9917 24.9819 50.2129 24.9082 50.4341C24.9082 50.7291 24.9082 50.8766 25.0557 50.8766C25.2032 50.9503 25.2032 50.7291 25.2032 50.4341Z" fill="#18616A"/>
<path d="M22.4013 37.2354C22.5491 37.3832 22.6968 37.4571 22.6968 37.4571C22.6968 37.4571 22.623 37.3093 22.5491 37.1616C22.4013 36.9399 22.3275 36.9399 22.2536 36.9399C22.1797 37.0138 22.2536 37.0877 22.4013 37.2354Z" fill="#18616A"/>
<path d="M17.6084 41.6585C17.9034 41.6585 18.1246 41.5848 18.1246 41.5848C18.1246 41.5848 17.9034 41.4373 17.6822 41.4373C17.3872 41.3635 17.2398 41.4373 17.166 41.511C17.166 41.5848 17.3135 41.6585 17.6084 41.6585Z" fill="#18616A"/>
<path d="M19.083 39.3C19.378 39.3 19.5992 39.3 19.5992 39.3C19.5992 39.3 19.378 39.1525 19.1568 39.0787C18.8618 39.005 18.7144 39.005 18.6406 39.0787C18.6406 39.1525 18.7881 39.3 19.083 39.3Z" fill="#18616A"/>
<path d="M18.3452 40.1106C18.5665 40.1106 18.7139 40.0369 18.7139 40.0369C18.7139 40.0369 18.5665 39.9632 18.3452 39.8894C18.124 39.8157 17.9766 39.8894 17.9766 39.9632C17.9766 40.0369 18.124 40.1106 18.3452 40.1106Z" fill="#18616A"/>
<path d="M20.4859 38.1199C20.7071 38.1199 20.8546 38.0462 20.8546 38.0462C20.8546 38.0462 20.7071 37.8987 20.4859 37.8987C20.2647 37.825 20.1172 37.8987 20.1172 37.9724C20.1172 38.1199 20.2647 38.1199 20.4859 38.1199Z" fill="#18616A"/>
<path d="M19.0088 38.046C19.3038 38.046 19.525 38.046 19.525 38.046C19.525 38.046 19.3775 37.8986 19.0826 37.8248C18.7876 37.7511 18.6401 37.7511 18.5664 37.8248C18.5664 37.9723 18.7139 38.046 19.0088 38.046Z" fill="#18616A"/>
<path d="M17.0171 39.4478C17.2383 39.374 17.3858 39.374 17.3858 39.374C17.3858 39.374 17.2383 39.3003 17.0171 39.3003C16.7959 39.3003 16.6484 39.3003 16.6484 39.374C16.6484 39.4478 16.7959 39.4478 17.0171 39.4478Z" fill="#18616A"/>
<path d="M17.1682 45.0513C17.3894 44.9038 17.4632 44.6826 17.4632 44.6826C17.4632 44.6826 17.242 44.7564 17.0208 44.8301C16.7258 44.9776 16.6521 45.125 16.7258 45.1988C16.7258 45.3462 16.947 45.2725 17.1682 45.0513Z" fill="#18616A"/>
<path d="M16.5748 43.4288C16.796 43.3551 17.0172 43.2076 17.0172 43.2076C17.0172 43.2076 16.796 43.1338 16.501 43.2076C16.2061 43.2813 16.0586 43.3551 16.0586 43.4288C16.1323 43.5763 16.3535 43.5763 16.5748 43.4288Z" fill="#18616A"/>
<path d="M18.2726 45.7149C18.4201 45.6412 18.5676 45.4937 18.5676 45.4937C18.5676 45.4937 18.4201 45.42 18.1989 45.4937C17.9777 45.5674 17.8302 45.6412 17.9039 45.7149C17.9039 45.8624 18.0514 45.8624 18.2726 45.7149Z" fill="#18616A"/>
<path d="M17.4605 43.9453C17.6817 43.8716 17.8292 43.7979 17.8292 43.7979C17.8292 43.7979 17.6817 43.7241 17.4605 43.7241C17.2393 43.7241 17.0918 43.7979 17.0918 43.8716C17.0918 43.9453 17.313 44.0191 17.4605 43.9453Z" fill="#18616A"/>
<path d="M17.7555 42.7654C18.0505 42.7654 18.2717 42.6917 18.2717 42.6917C18.2717 42.6917 18.0505 42.5442 17.8293 42.5442C17.5343 42.4705 17.3869 42.5442 17.3131 42.6179C17.2394 42.6917 17.4606 42.7654 17.7555 42.7654Z" fill="#18616A"/>
<path d="M18.1984 44.7559C18.3459 44.6822 18.4934 44.6085 18.4934 44.6085C18.4934 44.6085 18.3459 44.5347 18.1247 44.6085C17.9035 44.6085 17.756 44.6822 17.8297 44.7559C17.9035 44.8297 18.0509 44.8297 18.1984 44.7559Z" fill="#18616A"/>
<path d="M19.6756 48.9595C19.6756 48.6646 19.6018 48.4434 19.6018 48.4434C19.6018 48.4434 19.4544 48.6646 19.4544 48.8858C19.3806 49.1807 19.4544 49.3282 19.5281 49.4019C19.6018 49.4019 19.6756 49.1807 19.6756 48.9595Z" fill="#18616A"/>
<path d="M18.8629 48.2217C18.9367 48.0005 18.9367 47.7056 18.9367 47.7056C18.9367 47.7056 18.7892 47.853 18.6417 48.0743C18.4942 48.3692 18.4942 48.5167 18.568 48.5904C18.7154 48.6641 18.7892 48.5167 18.8629 48.2217Z" fill="#18616A"/>
<path d="M19.8963 47.6319C19.97 47.4107 19.8963 47.2632 19.8963 47.2632C19.8963 47.2632 19.7488 47.4107 19.6751 47.5581C19.5276 47.7793 19.5276 47.9268 19.6751 47.9268C19.7488 48.0006 19.8225 47.8531 19.8963 47.6319Z" fill="#18616A"/>
<path d="M18.1969 46.8208C18.2707 46.5996 18.3444 46.4521 18.3444 46.4521C18.3444 46.4521 18.1232 46.5259 18.0495 46.6734C17.902 46.8946 17.8282 46.9683 17.902 47.042C17.9757 47.1158 18.1232 47.042 18.1969 46.8208Z" fill="#18616A"/>
<path d="M21.2201 48.8121C21.3675 48.5908 21.4413 48.3696 21.4413 48.3696C21.4413 48.3696 21.2201 48.4434 20.9989 48.5908C20.7777 48.8121 20.7039 48.9595 20.7777 49.0333C20.9251 49.1807 21.0726 49.0333 21.2201 48.8121Z" fill="#18616A"/>
<path d="M19.5255 46.6739C19.5992 46.5264 19.5992 46.3052 19.5992 46.3052C19.5992 46.3052 19.4518 46.3789 19.378 46.6001C19.2306 46.8213 19.2306 46.8951 19.3043 46.9688C19.378 46.9688 19.4518 46.8213 19.5255 46.6739Z" fill="#18616A"/>
<path d="M31.1025 48.2217C31.0288 48.0005 30.9551 47.7793 30.9551 47.7793C30.9551 47.7793 31.1763 47.9268 31.3238 48.148C31.545 48.3692 31.545 48.5904 31.4712 48.5904C31.3975 48.5904 31.25 48.4429 31.1025 48.2217Z" fill="#18616A"/>
<path d="M32.2832 46.8946C32.1358 46.6734 31.9883 46.5259 31.9883 46.5259C31.9883 46.5259 32.2095 46.5996 32.4307 46.7471C32.7257 46.8946 32.7994 47.042 32.7257 47.1158C32.6519 47.1895 32.5044 47.1158 32.2832 46.8946Z" fill="#18616A"/>
<path d="M29.8462 48.3692C29.6987 48.2217 29.625 48.0742 29.625 48.0742C29.625 48.0742 29.7725 48.0742 29.9937 48.2217C30.2149 48.3692 30.2886 48.4429 30.2149 48.5166C30.1412 48.6641 29.9937 48.5904 29.8462 48.3692Z" fill="#18616A"/>
<path d="M31.25 47.042C31.1025 46.8945 30.9551 46.7471 30.9551 46.7471C30.9551 46.7471 31.1763 46.7471 31.3238 46.8208C31.545 46.8945 31.6187 47.042 31.6187 47.1158C31.545 47.1895 31.3975 47.1895 31.25 47.042Z" fill="#18616A"/>
<path d="M31.4717 45.8628C31.2505 45.7154 31.0293 45.5679 31.0293 45.5679C31.0293 45.5679 31.2505 45.5679 31.5455 45.5679C31.8404 45.6416 31.9879 45.7154 31.9879 45.8628C31.9879 46.0103 31.7667 45.9366 31.4717 45.8628Z" fill="#18616A"/>
<path d="M30.145 47.4107C29.9976 47.2632 29.9238 47.1157 29.9238 47.1157C29.9238 47.1157 30.0713 47.1157 30.2925 47.2632C30.5137 47.4107 30.5875 47.4844 30.5137 47.5581C30.44 47.6319 30.2925 47.5581 30.145 47.4107Z" fill="#18616A"/>
<path d="M27.2688 50.8028C27.4163 50.5816 27.5638 50.3604 27.5638 50.3604C27.5638 50.3604 27.5638 50.5816 27.5638 50.8765C27.49 51.1715 27.4163 51.3189 27.2688 51.3189C27.1213 51.2452 27.1213 51.024 27.2688 50.8028Z" fill="#18616A"/>
<path d="M28.2285 50.4341C28.2285 50.1392 28.3023 49.9917 28.3023 49.9917C28.3023 49.9917 28.376 50.2129 28.4497 50.4341C28.4497 50.7291 28.4497 50.8766 28.376 50.8766C28.3023 50.8766 28.2285 50.7291 28.2285 50.4341Z" fill="#18616A"/>
<path d="M27.6363 49.4756C27.7101 49.2544 27.7838 49.1069 27.7838 49.1069C27.7838 49.1069 27.8575 49.2544 27.8575 49.4756C27.8575 49.6968 27.8575 49.8443 27.7101 49.8443C27.5626 49.8443 27.5626 49.6968 27.6363 49.4756Z" fill="#18616A"/>
<path d="M29.4785 49.4014C29.4785 49.1802 29.5523 49.0327 29.5523 49.0327C29.5523 49.0327 29.6997 49.1802 29.7735 49.4014C29.8472 49.6226 29.8472 49.7701 29.6997 49.7701C29.5522 49.7701 29.4785 49.6226 29.4785 49.4014Z" fill="#18616A"/>
<path d="M25.8648 50.065C25.791 49.8438 25.791 49.5488 25.791 49.5488C25.791 49.5488 25.9385 49.6963 26.086 49.9175C26.2334 50.2125 26.2334 50.3599 26.1597 50.4337C26.0122 50.5074 25.9385 50.3599 25.8648 50.065Z" fill="#18616A"/>
<path d="M28.3008 48.7383C28.3008 48.5171 28.3745 48.3696 28.3745 48.3696C28.3745 48.3696 28.4483 48.5171 28.522 48.7383C28.522 48.9595 28.522 49.107 28.4483 49.107C28.3008 49.107 28.3008 48.8858 28.3008 48.7383Z" fill="#18616A"/>
<path d="M56.913 65.7724C59.1528 65.7724 60.9685 63.5275 60.9685 60.7583C60.9685 57.989 59.1528 55.7441 56.913 55.7441C54.6731 55.7441 52.8574 57.989 52.8574 60.7583C52.8574 63.5275 54.6731 65.7724 56.913 65.7724Z" fill="#90278C"/>
<path d="M60.968 60.2419C60.8942 59.1359 60.5256 58.1773 60.0094 57.4399C60.0831 57.7349 60.2306 58.1036 60.1569 58.4723C59.6407 64.9611 53.8892 63.4126 53.0781 62.2328C53.668 64.445 55.364 65.9197 57.3549 65.6985C59.567 65.4773 61.1892 63.044 60.968 60.2419Z" fill="#6F256D"/>
<path d="M57.0449 59.4925C57.7947 58.528 57.8552 57.3205 57.18 56.7957C56.5048 56.2708 55.3496 56.6273 54.5998 57.5919C53.85 58.5564 53.7895 59.7639 54.4647 60.2887C55.1399 60.8136 56.2951 60.4571 57.0449 59.4925Z" fill="#B565A7"/>
<path d="M45.1864 43.724C47.4262 43.724 49.2419 41.4791 49.2419 38.7099C49.2419 35.9407 47.4262 33.6958 45.1864 33.6958C42.9466 33.6958 41.1309 35.9407 41.1309 38.7099C41.1309 41.4791 42.9466 43.724 45.1864 43.724Z" fill="#90278C"/>
<path d="M49.2434 38.2673C49.1696 37.1613 48.801 36.2027 48.2848 35.4653C48.3585 35.7603 48.506 36.129 48.4323 36.4977C47.9161 42.9865 42.1646 41.438 41.3535 40.2582C41.9434 42.4703 43.6394 43.9451 45.6303 43.7239C47.8424 43.4289 49.4646 40.9956 49.2434 38.2673Z" fill="#6F256D"/>
<path d="M45.3105 37.4691C46.0603 36.5045 46.1208 35.2971 45.4456 34.7722C44.7704 34.2474 43.6152 34.6039 42.8654 35.5684C42.1156 36.533 42.0552 37.7404 42.7304 38.2653C43.4056 38.7901 44.5608 38.4337 45.3105 37.4691Z" fill="#B565A7"/>
<path d="M30.2906 52.3521C32.4289 52.2784 33.2401 50.14 33.2401 50.14C33.2401 50.14 35.5259 50.2875 36.4845 48.2966C37.4431 46.3794 37.2219 44.1673 33.4613 42.1027C31.3229 40.9229 29.7744 40.4805 28.6684 40.628C27.7098 40.7754 26.8987 41.2916 26.4563 42.1027C25.8664 43.0613 25.4977 44.6098 25.8664 47.1168C26.4563 51.3936 28.1522 52.4996 30.2906 52.3521Z" fill="#D21F26"/>
<path d="M30.2894 51.9836C32.2803 51.9098 33.0914 50.3613 33.0914 50.3613C33.0914 50.3613 35.2298 49.9927 36.1147 48.1492C36.9995 46.3058 36.7783 44.2412 33.2389 42.324C31.248 41.218 29.7733 40.7755 28.741 40.923C27.8561 41.0705 27.1188 41.5129 26.6026 42.324C26.0127 43.2089 25.7178 44.6836 26.0864 47.0432C26.6763 51.025 28.2985 52.0573 30.2894 51.9836Z" fill="#ED2F26"/>
<path d="M33.2428 49.3291C32.8741 49.2553 32.5792 49.4765 32.5054 49.8452C32.4317 50.2876 32.358 50.8038 31.9155 50.7301C31.1782 50.6563 28.7449 46.7483 28.3024 44.1675C27.86 41.5867 27.7863 41.3655 28.4499 41.8816C29.1135 42.3978 32.358 45.1998 33.1691 46.6745C33.9802 48.1493 34.6438 49.0341 33.9064 49.3291C33.6852 49.4028 33.464 49.4028 33.2428 49.3291Z" fill="#F06060"/>
<path d="M31.0998 49.1817C31.0998 49.1817 30.3624 49.4766 29.9937 49.919C29.625 50.3615 29.3301 50.8776 29.3301 50.8776C29.3301 50.8776 29.3301 50.3615 29.6988 49.8453C30.1412 49.1817 30.9523 48.813 30.9523 48.813L31.0998 49.1817Z" fill="#F06060"/>
<path d="M30.1408 47.8545C30.1408 47.8545 29.4034 48.1495 29.0347 48.5919C28.666 49.0343 28.3711 49.5505 28.3711 49.5505C28.3711 49.5505 28.3711 49.0343 28.7398 48.5182C29.1822 47.8545 29.9933 47.4858 29.9933 47.4858L30.1408 47.8545Z" fill="#F06060"/>
<path d="M31.9127 47.7803C31.7652 47.7066 31.6177 47.8541 31.6177 48.0015C31.6177 48.2228 31.544 48.444 31.3965 48.444C31.0279 48.3702 29.7743 46.3056 29.4056 44.9783C29.037 43.6511 29.037 43.5036 29.3319 43.7985C29.7006 44.0935 31.3228 45.642 31.7652 46.4531C32.2076 47.2642 32.5763 47.7066 32.2076 47.7803C32.1339 47.7803 32.0602 47.7803 31.9127 47.7803Z" fill="#EF4F4B"/>
<path d="M29.4025 45.8633C29.4025 45.8633 28.6651 46.1583 28.2964 46.6007C27.9278 47.0431 27.6328 47.5593 27.6328 47.5593C27.6328 47.5593 27.6328 47.0431 28.0015 46.5269C28.4439 45.8633 29.255 45.4946 29.255 45.4946L29.4025 45.8633Z" fill="#F06060"/>
<path d="M28.8166 44.0201C28.8166 44.0201 28.0792 44.315 27.7105 44.7574C27.3418 45.1998 27.0469 45.716 27.0469 45.716C27.0469 45.716 27.0469 45.1998 27.4156 44.6837C27.858 44.02 28.6691 43.6514 28.6691 43.6514L28.8166 44.0201Z" fill="#F06060"/>
<path d="M33.167 47.854C33.167 47.854 33.7569 47.3378 34.2731 47.1166C34.7892 46.8954 35.4528 46.8954 35.4528 46.8954C35.4528 46.8954 35.0104 46.6742 34.4205 46.8217C33.6094 46.9692 33.0195 47.5591 33.0195 47.5591L33.167 47.854Z" fill="#F06060"/>
<path d="M32.2803 46.4536C32.2803 46.4536 32.8702 45.9375 33.3863 45.7163C33.9025 45.495 34.5661 45.495 34.5661 45.495C34.5661 45.495 34.1237 45.2738 33.5338 45.4213C32.7227 45.5688 32.1328 46.1587 32.1328 46.1587L32.2803 46.4536Z" fill="#F06060"/>
<path d="M30.8037 44.979C30.8037 44.979 31.3936 44.4629 31.9098 44.2416C32.4259 44.0204 33.0896 44.0204 33.0896 44.0204C33.0896 44.0204 32.6472 43.7992 32.0573 43.9467C31.2462 44.0942 30.6562 44.6841 30.6562 44.6841L30.8037 44.979Z" fill="#F06060"/>
<path d="M29.3311 43.6514C29.3311 43.6514 29.921 43.1352 30.4371 42.914C30.9533 42.6928 31.6169 42.6928 31.6169 42.6928C31.6169 42.6928 31.1745 42.4716 30.5846 42.6191C29.7735 42.7665 29.1836 43.3564 29.1836 43.3564L29.3311 43.6514Z" fill="#F06060"/>
<path d="M30.3634 50.5095C30.3634 50.5095 30.3634 51.0257 30.5846 51.3206C30.8058 51.6156 30.8058 51.6156 30.8058 51.6156C30.8058 51.6156 30.2159 52.5004 29.6998 52.5004C29.1836 52.5004 29.1836 52.5004 29.1836 52.5004C29.1836 52.5004 30.0684 53.1641 31.6169 52.2792C33.0916 51.3944 33.5341 50.4358 33.5341 50.4358C33.5341 50.4358 33.9765 51.0994 35.7462 49.7722C37.5896 48.4449 37.7371 48.1499 37.7371 48.1499C37.7371 48.1499 35.8937 48.5186 35.525 48.1499C35.1563 47.7812 35.1563 47.7812 35.1563 47.7812L33.1654 50.0671C33.1654 50.0671 33.0917 49.4772 31.8381 49.9934C30.5109 50.5833 30.3634 50.5095 30.3634 50.5095Z" fill="#00A96E"/>
<path d="M58.7598 49.8448C58.1699 47.7802 55.8841 47.4852 55.8841 47.4852C55.8841 47.4852 55.4416 45.1994 53.377 44.757C51.3124 44.3145 49.174 44.9782 48.0679 49.1812C47.4043 51.5408 47.3306 53.163 47.773 54.1953C48.1417 55.0801 48.8053 55.7438 49.6902 56.0387C50.7962 56.4074 52.3447 56.4074 54.7043 55.4488C58.6861 53.8266 59.3497 51.9094 58.7598 49.8448Z" fill="#D21F26"/>
<path d="M58.3898 49.918C57.7999 48.0008 56.1777 47.5584 56.1777 47.5584C56.1777 47.5584 55.2929 45.5675 53.302 45.1251C51.3111 44.6827 49.3939 45.3463 48.2879 49.2544C47.698 51.4665 47.6242 53.015 47.9929 53.9735C48.2879 54.7846 48.9515 55.4483 49.8364 55.6695C50.8687 55.9644 52.3434 56.0382 54.5555 55.0796C58.3161 53.6786 58.906 51.9089 58.3898 49.918Z" fill="#ED2F26"/>
<path d="M55.0706 47.7067C55.0706 48.0754 55.3656 48.2966 55.7343 48.2966C56.1767 48.2228 56.6929 48.2228 56.7666 48.6653C56.8403 49.4026 53.5959 52.647 51.2363 53.6794C48.8767 54.7117 48.5818 54.8592 48.9505 54.1218C49.3192 53.3107 51.2363 49.5501 52.5636 48.444C53.8171 47.338 54.5545 46.4531 54.9232 47.1168C55.0706 47.2643 55.0706 47.4855 55.0706 47.7067Z" fill="#F06060"/>
<path d="M55.5142 49.8442C55.5142 49.8442 55.9566 50.5079 56.4728 50.7291C56.9889 50.9503 57.5788 51.1715 57.5788 51.1715C57.5788 51.1715 57.0627 51.319 56.5465 51.0978C55.8091 50.8028 55.293 50.0655 55.293 50.0655L55.5142 49.8442Z" fill="#F06060"/>
<path d="M54.3364 51.0239C54.3364 51.0239 54.7789 51.6876 55.295 51.9088C55.8112 52.2037 56.4011 52.3512 56.4011 52.3512C56.4011 52.3512 55.8849 52.4987 55.3688 52.2775C54.6314 51.9825 54.1152 51.2451 54.1152 51.2451L54.3364 51.0239Z" fill="#F06060"/>
<path d="M53.892 49.3278C53.892 49.4752 54.0395 49.6227 54.1869 49.549C54.4082 49.4752 54.6294 49.4752 54.6294 49.6964C54.6294 50.0651 52.9334 51.8348 51.6799 52.4247C50.4264 53.0146 50.3526 53.1621 50.5738 52.7197C50.795 52.351 51.9011 50.3601 52.6385 49.7702C53.3758 49.1803 53.6708 48.6641 53.8183 48.9591C53.892 49.1065 53.892 49.254 53.892 49.3278Z" fill="#EF4F4B"/>
<path d="M52.6392 52.2041C52.6392 52.2041 53.0816 52.8677 53.5978 53.089C54.1139 53.3839 54.7038 53.5314 54.7038 53.5314C54.7038 53.5314 54.1877 53.6788 53.6715 53.4576C52.9341 53.1627 52.418 52.4253 52.418 52.4253L52.6392 52.2041Z" fill="#F06060"/>
<path d="M50.9419 53.2363C50.9419 53.2363 51.3843 53.9 51.9005 54.1212C52.4166 54.4161 53.0065 54.5636 53.0065 54.5636C53.0065 54.5636 52.4904 54.7111 51.9742 54.4899C51.2369 54.1949 50.7207 53.4575 50.7207 53.4575L50.9419 53.2363Z" fill="#F06060"/>
<path d="M53.6721 48.0749C53.6721 48.0749 53.0084 47.6325 52.7135 47.19C52.4186 46.6739 52.1973 46.084 52.1973 46.084C52.1973 46.084 52.1236 46.6001 52.3448 47.1163C52.7135 47.8537 53.4509 48.2961 53.4509 48.2961L53.6721 48.0749Z" fill="#F06060"/>
<path d="M52.4924 49.3283C52.4924 49.3283 51.8288 48.8859 51.5338 48.4435C51.2389 48.001 51.0177 47.3374 51.0177 47.3374C51.0177 47.3374 50.9439 47.8536 51.1651 48.3697C51.5338 49.1071 52.2712 49.5495 52.2712 49.5495L52.4924 49.3283Z" fill="#F06060"/>
<path d="M51.385 51.0978C51.385 51.0978 50.7213 50.6554 50.4264 50.213C50.1314 49.6968 49.9102 49.1069 49.9102 49.1069C49.9102 49.1069 49.8365 49.6231 50.0577 50.1393C50.4264 50.8766 51.1638 51.319 51.1638 51.319L51.385 51.0978Z" fill="#F06060"/>
<path d="M50.5022 52.7931C50.5022 52.7931 49.8385 52.3507 49.5436 51.9083C49.2486 51.3921 49.0274 50.8022 49.0274 50.8022C49.0274 50.8022 48.9537 51.3184 49.1749 51.8346C49.5436 52.5719 50.2809 53.0144 50.2809 53.0144L50.5022 52.7931Z" fill="#F06060"/>
<path d="M56.9159 50.213C56.9159 50.213 57.432 50.0655 57.6532 49.7706C57.8745 49.4756 57.8745 49.4756 57.8745 49.4756C57.8745 49.4756 58.9068 49.8443 58.9805 50.3605C59.128 50.8766 59.128 50.8766 59.128 50.8766C59.128 50.8766 59.5704 49.8443 58.3906 48.5908C57.2108 47.3372 56.1785 47.116 56.1785 47.116C56.1785 47.116 56.7684 46.5261 55.0724 45.1251C53.3765 43.6504 53.0078 43.5767 53.0078 43.5767C53.0078 43.5767 53.8189 45.2726 53.524 45.715C53.229 46.1575 53.229 46.1575 53.229 46.1575L55.8836 47.5585C55.8836 47.5585 55.2937 47.7797 56.1048 48.8857C56.9159 49.9918 56.9159 50.213 56.9159 50.213Z" fill="#00A96E"/>
<path d="M35.2306 19.7603L35.8205 20.7188L37.0741 20.94L36.1892 21.6774L36.3367 22.8572L35.2306 22.2673L34.1246 22.8572L34.3458 21.6774L33.4609 20.94L34.7145 20.7188L35.2306 19.7603Z" fill="#402E7C"/>
<path d="M35.2313 30.452C37.4711 30.452 39.2868 28.4382 39.2868 25.954C39.2868 23.4699 37.4711 21.4561 35.2313 21.4561C32.9915 21.4561 31.1758 23.4699 31.1758 25.954C31.1758 28.4382 32.9915 30.452 35.2313 30.452Z" fill="#5A459B"/>
<path d="M39.2883 25.5119C39.2146 24.5534 38.8459 23.6685 38.3297 23.0049C38.4035 23.2998 38.4772 23.5948 38.4772 23.9635C38.8459 29.8624 32.7257 30.526 31.3984 27.3554C31.9883 29.3463 33.6843 30.6735 35.6752 30.4523C37.8873 30.1574 39.5095 27.9453 39.2883 25.5119Z" fill="#402E7C"/>
<path d="M34.0396 23.6677C34.3917 23.3288 34.4941 22.8638 34.2681 22.629C34.0422 22.3943 33.5736 22.4787 33.2215 22.8176C32.8694 23.1564 32.7671 23.6214 32.993 23.8562C33.2189 24.0909 33.6875 24.0065 34.0396 23.6677Z" fill="#805CA5"/>
<path d="M32.689 25.1719C32.9237 24.946 32.9767 24.6201 32.8073 24.444C32.6378 24.268 32.3102 24.3084 32.0754 24.5343C31.8407 24.7602 31.7877 25.0861 31.9572 25.2621C32.1266 25.4382 32.4543 25.3978 32.689 25.1719Z" fill="#805CA5"/>
<path d="M34.1356 25.0654C34.2823 24.9242 34.3097 24.7146 34.1968 24.5972C34.0838 24.4798 33.8733 24.4991 33.7266 24.6403C33.5799 24.7815 33.5525 24.9911 33.6655 25.1085C33.7784 25.2259 33.9889 25.2066 34.1356 25.0654Z" fill="#805CA5"/>
<path d="M62.8836 37.3106L62.3674 38.3429L63.0311 39.449L61.8513 39.2278L61.0402 40.0389L60.8189 38.8591L59.7129 38.2692L60.7452 37.753L60.8927 36.5732L61.7775 37.4581L62.8836 37.3106Z" fill="#402E7C"/>
<path d="M60.2886 44.2762C62.2905 42.8054 62.8383 40.1498 61.5121 38.3448C60.186 36.5398 57.488 36.2688 55.4861 37.7397C53.4842 39.2105 52.9364 41.8661 54.2625 43.6711C55.5887 45.4761 58.2866 45.747 60.2886 44.2762Z" fill="#5A459B"/>
<path d="M60.6721 44.0205C61.4095 43.3569 61.9257 42.5457 62.1469 41.7346C61.9257 41.9558 61.7782 42.2508 61.4832 42.3983C56.9116 46.1589 52.7823 41.5872 54.552 38.7114C53.2985 40.3336 53.2247 42.5457 54.552 44.0205C56.0267 45.6427 58.755 45.6427 60.6721 44.0205Z" fill="#402E7C"/>
<path d="M59.9946 38.2197C60.0501 37.8987 59.7046 37.571 59.223 37.4879C58.7415 37.4048 58.3062 37.5977 58.2507 37.9187C58.1953 38.2397 58.5408 38.5674 59.0223 38.6505C59.5039 38.7336 59.9392 38.5408 59.9946 38.2197Z" fill="#805CA5"/>
<path d="M57.6461 38.1197C57.6876 37.8789 57.4611 37.6388 57.14 37.5834C56.819 37.528 56.525 37.6782 56.4835 37.919C56.4419 38.1598 56.6685 38.3999 56.9895 38.4553C57.3105 38.5107 57.6045 38.3605 57.6461 38.1197Z" fill="#805CA5"/>
<path d="M58.3569 39.2899C58.3846 39.1293 58.2444 38.9711 58.0437 38.9365C57.8431 38.9019 57.658 39.0039 57.6302 39.1644C57.6025 39.325 57.7427 39.4832 57.9434 39.5178C58.144 39.5524 58.3292 39.4504 58.3569 39.2899Z" fill="#805CA5"/>
<path d="M37.8864 49.4028L38.4025 50.4351L39.6561 50.5826L38.7712 51.3937L38.9924 52.4998L37.8864 51.9836L36.7803 52.4998L37.0016 51.3937L36.043 50.5826L37.2965 50.4351L37.8864 49.4028Z" fill="#402E7C"/>
<path d="M37.8856 60.0945C40.1254 60.0945 41.9411 58.0807 41.9411 55.5966C41.9411 53.1124 40.1254 51.0986 37.8856 51.0986C35.6458 51.0986 33.8301 53.1124 33.8301 55.5966C33.8301 58.0807 35.6458 60.0945 37.8856 60.0945Z" fill="#5A459B"/>
<path d="M41.9426 55.1545C41.8688 54.1959 41.5002 53.3111 40.984 52.6475C41.0577 52.9424 41.1315 53.2374 41.1315 53.606C41.5002 59.505 35.38 60.1686 34.0527 56.9979C34.6426 58.9888 36.3386 60.3161 38.3295 60.0949C40.4679 59.8737 42.1638 57.6616 41.9426 55.1545Z" fill="#402E7C"/>
<path d="M36.6607 53.2873C37.0128 52.9484 37.1151 52.4834 36.8892 52.2487C36.6633 52.0139 36.1947 52.0983 35.8426 52.4372C35.4905 52.7761 35.3882 53.2411 35.6141 53.4758C35.84 53.7106 36.3086 53.6262 36.6607 53.2873Z" fill="#805CA5"/>
<path d="M35.3081 54.792C35.5429 54.5661 35.5958 54.2402 35.4264 54.0642C35.257 53.8881 34.9293 53.9285 34.6946 54.1544C34.4598 54.3803 34.4069 54.7062 34.5763 54.8823C34.7458 55.0583 35.0734 55.0179 35.3081 54.792Z" fill="#805CA5"/>
<path d="M36.7548 54.6855C36.9015 54.5443 36.9289 54.3347 36.8159 54.2173C36.7029 54.0999 36.4924 54.1193 36.3457 54.2605C36.199 54.4017 36.1716 54.6113 36.2846 54.7286C36.3976 54.846 36.6081 54.8267 36.7548 54.6855Z" fill="#805CA5"/>
<path d="M12.9947 40.1933C10.375 35.6415 5.9645 33.2425 3.1407 34.8677C0.31691 36.4929 0.175589 41.5116 2.79529 46.0634C4.97838 49.8565 8.42343 52.1379 11.1308 51.8702L27.4897 81.5614C28.0476 82.5308 29.2671 82.8949 30.2364 82.337L30.5315 82.1672C31.5008 81.6093 31.8407 80.3477 31.2164 79.3604L13.3773 50.8017C15.4579 48.7626 15.3475 44.2815 12.9947 40.1933Z" fill="#18616A"/>
<path d="M4.06157 36.4698C3.85084 36.5911 3.70651 36.7303 3.56218 36.8694C5.76773 36.2173 8.83741 38.0414 10.7294 41.3288C12.6214 44.6162 12.6566 48.1868 10.9847 49.7662C11.1775 49.7113 11.4125 49.6322 11.5811 49.5351C13.8148 48.2495 13.9113 44.3227 11.8495 40.7403C9.78767 37.1578 6.25317 35.2085 4.06157 36.4698Z" fill="#217680"/>
<path d="M85.0124 23.6935C84.7193 23.6503 84.4983 23.8797 84.455 24.1729L83.4985 31.9315L82.2526 31.7479L83.2404 24.0313C83.2416 23.7694 83.1274 23.5279 82.8763 23.4535C82.552 23.3682 82.2264 23.5448 82.2144 23.88L81.2158 31.6699L80.1478 31.5499L81.0731 23.7492C81.1163 23.4561 80.9289 23.2038 80.6357 23.1606C80.3426 23.1174 80.0483 23.3361 80.0051 23.6292L79.0377 31.4611L77.7918 31.2775L78.7484 23.5188C78.7916 23.2257 78.6042 22.9734 78.311 22.9302C78.0179 22.887 77.7236 23.1057 77.6804 23.3988L76.1153 36.0471C75.9305 37.5549 76.9614 38.9424 78.4163 39.2317L73.28 75.0899C73.1179 76.1892 73.9302 77.2824 75.0715 77.4132L75.4379 77.4672C76.5793 77.598 77.6412 76.7437 77.7299 75.6336L80.8347 39.5882C82.3641 39.6265 83.6579 38.4694 83.8847 36.9304L85.439 24.3554C85.5663 23.9998 85.3476 23.7054 85.0124 23.6935Z" fill="#18616A"/>
</g>
</svg>
