<svg width="90" height="85" viewBox="0 0 90 85" fill="none" xmlns="http://www.w3.org/2000/svg">
<path d="M57.238 58.025C57.7775 65.6578 51.7949 84.4595 51.7949 84.4595C65.243 84.4595 80.6814 84.4035 80.6814 84.4035C87.8265 84.4035 87.3672 84.3754 87.3672 84.3754C87.3672 79.8204 87.7546 62.0375 87.9869 51.7661C88.1432 44.8675 84.5158 38.4272 78.699 35.8395C67.3428 30.7881 58.8557 44.5556 58.8557 44.5556C58.8557 50.6163 57.238 58.025 57.238 58.025Z" fill="#B76BFE"/>
<path d="M68.2557 10.9741C66.8911 13.969 66.2519 16.8599 65.9788 19.2664C65.0798 27.1864 63.1343 34.923 59.9679 42.1083C58.857 44.6287 58.0403 46.3991 58.0403 46.3991C55.7928 54.4707 58.2447 68.1472 58.2447 68.1472C59.2662 72.8557 58.6535 75.3221 58.6535 75.3221C58.4491 80.9273 74.7937 80.9273 74.7937 80.9273C83.3747 79.3577 83.7831 70.6136 83.7831 70.6136C85.0016 64.4299 84.2899 44.542 83.8485 34.8167C83.707 31.6969 83.3541 28.598 82.8447 25.525C81.949 20.1187 81.8886 16.1784 81.9155 14.5257C81.9262 13.8678 81.8712 13.208 81.7098 12.5746C79.6928 4.65553 72.7502 6.71465 72.7502 6.71465C69.8904 7.38664 68.2557 10.9741 68.2557 10.9741Z" fill="#011FFD"/>
<path d="M36.7832 26.7793C37.198 28.6017 36.7832 33.8421 36.7832 33.8421C41.7592 33.8421 45.2841 33.6142 45.2841 33.6142C44.4549 32.9309 45.906 27.0072 45.906 27.0072C41.3448 28.8297 36.7832 26.7793 36.7832 26.7793Z" fill="#FF9A66"/>
<path d="M35.7755 26.7277C34.5534 29.6312 31.7021 25.3875 31.7021 25.3875C27.6287 26.2808 30.8875 20.4734 30.8875 20.4734C26.4066 16.2296 30.6838 14.8894 30.6838 14.8894C27.6287 9.52886 31.9059 8.18862 31.9059 8.18862C30.8875 2.15774 34.1463 3.72144 34.1463 3.72144C34.5538 -0.298849 39.0343 1.26439 39.0343 1.26439C42.4969 -2.30944 44.1261 2.82809 44.1261 2.82809C48.1995 1.0414 48.8103 3.94488 48.8103 3.94488C55.9388 3.49799 53.6983 7.07182 53.6983 7.07182C59.1976 10.4222 54.5129 13.1027 54.5129 13.1027C58.9938 15.7832 54.5129 18.2398 54.5129 18.2398C57.1605 21.8136 52.68 24.0472 52.68 24.0472C53.4946 27.8445 48.4028 27.3976 48.4028 27.3976C48.4028 30.748 41.8852 30.0781 41.8852 30.0781C37.4051 32.3117 35.7755 26.7277 35.7755 26.7277Z" fill="#FE2281"/>
<path d="M35.6074 33.7805C37.2602 40.2917 40.7729 38.6641 40.7729 38.6641C44.6987 38.8968 45.3188 33.5479 45.3188 33.5479L35.6074 33.7805Z" fill="#FF9A66"/>
<path d="M29.69 34.5604C42.2907 32.0864 47.7783 33.8859 47.7783 33.8859C52.0464 35.0103 54.0789 37.0343 54.0789 37.0343L56.3146 45.3556C59.7698 61.7729 58.7026 84.4592 58.7026 84.4592C46.3304 84.4592 25.0156 84.4592 25.0156 84.4592C26.4385 66.2421 29.69 34.5604 29.69 34.5604Z" fill="white"/>
<path d="M39.3963 42.9049C39.3963 43.7703 38.7564 44.472 37.9672 44.472C37.178 44.472 36.5381 43.7703 36.5381 42.9049C36.5381 42.0395 37.178 41.3378 37.9672 41.3378C38.7564 41.3378 39.3963 42.0395 39.3963 42.9049ZM43.241 33.5479C42.4518 33.5479 41.8119 34.2496 41.8119 35.115C41.8119 35.9804 42.4518 36.6821 43.241 36.6821C44.0302 36.6821 44.6701 35.9804 44.6701 35.115C44.6701 34.2496 44.0302 33.5479 43.241 33.5479ZM40.3831 55.4851C39.594 55.4851 38.954 56.1868 38.954 57.0522C38.954 57.9176 39.594 58.6194 40.3831 58.6194C41.1723 58.6194 41.8123 57.9176 41.8123 57.0522C41.8123 56.1868 41.1723 55.4851 40.3831 55.4851ZM32.7278 35.1145C31.9386 35.1145 31.2986 35.8163 31.2986 36.6817C31.2986 37.5471 31.9386 38.2488 32.7278 38.2488C33.517 38.2488 34.1569 37.5471 34.1569 36.6817C34.1569 35.8163 33.517 35.1145 32.7278 35.1145ZM34.1569 48.9618C33.3677 48.9618 32.7278 49.6635 32.7278 50.5289C32.7278 51.3943 33.3677 52.096 34.1569 52.096C34.9461 52.096 35.586 51.3943 35.586 50.5289C35.586 49.6635 34.9461 48.9618 34.1569 48.9618ZM53.958 52.0956C53.1688 52.0956 52.5289 52.7973 52.5289 53.6627C52.5289 54.5281 53.1688 55.2299 53.958 55.2299C54.7472 55.2299 55.3871 54.5281 55.3871 53.6627C55.3871 52.7973 54.7472 52.0956 53.958 52.0956ZM30.2709 60.0795C29.4817 60.0795 28.8418 60.7813 28.8418 61.6466C28.8418 62.512 29.4817 63.2138 30.2709 63.2138C31.0601 63.2138 31.7001 62.512 31.7001 61.6466C31.7001 60.7813 31.0601 60.0795 30.2709 60.0795ZM46.3539 47.1136C45.5647 47.1136 44.9248 47.8153 44.9248 48.6807C44.9248 49.5461 45.5647 50.2478 46.3539 50.2478C47.1431 50.2478 47.783 49.5461 47.783 48.6807C47.783 47.8153 47.1431 47.1136 46.3539 47.1136ZM30.4822 72.2739C29.693 72.2739 29.053 72.9757 29.053 73.841C29.053 74.7064 29.693 75.4082 30.4822 75.4082C31.2714 75.4082 31.9113 74.7064 31.9113 73.841C31.9113 72.9757 31.2714 72.2739 30.4822 72.2739ZM47.2216 59.5101C46.4324 59.5101 45.7925 60.2119 45.7925 61.0773C45.7925 61.9427 46.4324 62.6444 47.2216 62.6444C48.0108 62.6444 48.6508 61.9427 48.6508 61.0773C48.6508 60.2119 48.0108 59.5101 47.2216 59.5101ZM54.4867 66.5611C53.6976 66.5611 53.0576 67.2629 53.0576 68.1283C53.0576 68.9937 53.6976 69.6954 54.4867 69.6954C55.2759 69.6954 55.9159 68.9937 55.9159 68.1283C55.9159 67.2629 55.2759 66.5611 54.4867 66.5611ZM37.0147 78.5724C36.2256 78.5724 35.5856 79.2741 35.5856 80.1395C35.5856 81.0049 36.2256 81.7067 37.0147 81.7067C37.8039 81.7067 38.4439 81.0049 38.4439 80.1395C38.4439 79.2741 37.8039 78.5724 37.0147 78.5724ZM37.0147 66.5611C36.2256 66.5611 35.5856 67.2629 35.5856 68.1283C35.5856 68.9937 36.2256 69.6954 37.0147 69.6954C37.8039 69.6954 38.4439 68.9937 38.4439 68.1283C38.4439 67.2629 37.8039 66.5611 37.0147 66.5611ZM46.0042 68.8359C45.215 68.8359 44.575 69.5377 44.575 70.403C44.575 71.2684 45.215 71.9702 46.0042 71.9702C46.7933 71.9702 47.4333 71.2684 47.4333 70.403C47.4333 69.5377 46.7933 68.8359 46.0042 68.8359ZM46.2158 81.0303C45.4266 81.0303 44.7867 81.7321 44.7867 82.5974C44.7867 83.4628 45.4266 84.1646 46.2158 84.1646C47.005 84.1646 47.6449 83.4628 47.6449 82.5974C47.6449 81.7321 47.005 81.0303 46.2158 81.0303ZM50.9873 36.8571C50.1981 36.8571 49.5582 37.5589 49.5582 38.4243C49.5582 39.2896 50.1981 39.9914 50.9873 39.9914C51.7765 39.9914 52.4164 39.2896 52.4164 38.4243C52.4164 37.5589 51.7765 36.8571 50.9873 36.8571ZM52.7484 75.3175C51.9592 75.3175 51.3193 76.0193 51.3193 76.8847C51.3193 77.7501 51.9592 78.4518 52.7484 78.4518C53.5376 78.4518 54.1775 77.7501 54.1775 76.8847C54.1775 76.0193 53.5376 75.3175 52.7484 75.3175Z" fill="#011FFD"/>
<path d="M53.8555 37.0791C57.9557 39.7482 77.6371 40.8602 77.6371 40.8602C80.9369 40.8602 84.1259 41.2989 86.7066 41.8052C90.2185 42.4938 89.3496 48.2905 87.9259 48.3828C75.3279 49.1994 63.0815 46.8654 63.0815 46.8654C59.8012 46.8654 56.1111 45.3084 56.1111 45.3084L53.8555 37.0791Z" fill="#FF9A66"/>
<path d="M19.1425 35.2939C18.9738 36.9339 18.9845 38.9643 19.6853 40.6175C19.6853 40.6175 15.6119 42.1881 11.9461 40.1687C11.9461 40.1687 12.5718 38.2905 12.9347 35.9803C11.5794 35.5528 10.3594 34.5565 9.7061 32.5412C9.7061 32.5412 7.26194 26.4838 10.5207 18.4079C10.5207 18.4079 11.1719 17.0223 12.1499 16.389C12.1499 16.389 17.2415 11.6777 20.2965 15.0428C20.2965 15.0428 24.7774 16.1645 24.7774 24.6893C24.7774 24.6893 25.7957 31.8684 19.2782 35.2335C19.2778 35.2335 19.2275 35.2571 19.1425 35.2939ZM64.3167 32.2986C64.6871 31.1742 64.2391 29.8994 63.2427 29.3578C62.2462 28.8163 61.055 29.1997 60.4702 30.2069L60.4574 30.2001L58.7478 34.015L62.6199 36.1203L64.3295 32.3054L64.3167 32.2986Z" fill="#FFCAB3"/>
<path d="M5.62272 46.772C6.98604 44.1156 9.16604 41.1738 12.5322 39.5859C12.5322 39.5859 22.477 38.2455 24.9127 44.5006C24.9127 44.5006 25.2061 45.9437 25.6044 48.3734C32.8431 48.2943 50.4853 41.8944 50.4853 41.8944C55.1532 39.6606 58.4006 32.959 58.4006 32.959C60.4302 33.8524 63.2715 35.8628 63.2715 35.8628C59.7203 53.4519 33.4896 57.8753 26.9805 58.7072C27.7791 66.4701 28.2279 76.1592 26.9422 84.4305C26.9422 84.4305 26.0795 84.4586 2.13077 84.4586C2.13077 84.4586 1.76333 68.8831 2.70947 58.4751L3.41025 54.3313C3.71234 52.5458 4.14596 50.7905 4.7074 49.0823L4.96428 48.3011L5.62272 46.772Z" fill="#FE2281"/>
<path d="M24.67 21.4335C25.1266 31.8386 22.3154 35.6846 20.763 35.8557C15.0966 36.4807 11.4243 36.8681 10.6787 35.9292C8.57902 33.2858 7.23766 27.7723 6.19274 24.7566C5.71031 23.3642 18.7565 11.6876 20.2469 12.7187C23.2778 14.8155 24.484 17.186 24.67 21.4335Z" fill="#011FFD"/>
<path d="M6.96896 31.0224C3.59517 33.6669 0.502418 35.2557 0.052579 34.5627C-0.386943 33.8855 1.97698 31.1739 5.35078 28.5294C5.35078 28.5294 5.87449 28.143 5.86128 28.0885C4.22989 23.1655 5.81011 17.3707 9.98577 14.0976C14.9831 10.1809 21.8487 11.3256 25.3084 16.656L7.17778 30.8669C7.17778 30.8669 6.97721 31.0242 6.96896 31.0224Z" fill="white"/>
<path d="M29.7244 35.019C20.9838 38.2531 13.8015 38.9378 8.91621 38.849C4.39357 38.7671 3.19391 45.7523 5.70822 46.3018C11.4958 47.567 15.8328 46.9184 15.8328 46.9184C20.0918 47.1409 28.6093 43.8046 28.6093 43.8046C28.8118 42.0254 29.7244 35.019 29.7244 35.019Z" fill="#FF9A66"/>
</svg>
