<svg width="86" height="86" viewBox="0 0 86 86" fill="none" xmlns="http://www.w3.org/2000/svg">
<mask id="mask0_2766_18519" style="mask-type:alpha" maskUnits="userSpaceOnUse" x="0" y="0" width="86" height="86">
<rect width="86" height="86" transform="matrix(1 0 0 -1 0 86)" fill="#D9D9D9"/>
</mask>
<g mask="url(#mask0_2766_18519)">
<path d="M36.6192 113.475C36.5593 113.475 36.5002 113.447 36.462 113.395C36.398 113.308 36.4164 113.186 36.5032 113.122C45.3398 106.602 46.0594 96.8719 46.8212 86.5706C47.0815 83.0506 47.3507 79.4106 47.9416 75.7659C48.4626 72.5523 49.7687 69.3072 50.7726 67.1508C51.8594 64.8164 52.8375 63.2168 52.8473 63.201C52.9037 63.1091 53.0239 63.0804 53.1157 63.1368C53.2075 63.1932 53.2363 63.3134 53.1799 63.4053C53.1703 63.421 52.2018 65.0052 51.1241 67.3206C50.1315 69.4533 48.8404 72.6607 48.3269 75.8284C47.7387 79.4564 47.4701 83.0877 47.2104 86.5994C46.8189 91.8939 46.449 96.8947 45.054 101.457C44.3043 103.908 43.3234 106.022 42.055 107.918C40.6405 110.034 38.9002 111.839 36.7348 113.436C36.7 113.462 36.6594 113.475 36.6192 113.475Z" fill="#2D355B"/>
<path d="M53.4135 62.3075C40.0603 40.8089 48.2009 27.6097 56.5232 27.2934C64.8455 26.977 67.3474 37.1635 67.3474 37.1635C67.3474 37.1635 77.3097 33.8875 81.4518 41.1144C85.5939 48.3412 80.0027 62.8512 53.4135 62.3075Z" fill="#E3001B"/>
<path d="M53.2149 61.3574C53.2149 61.3574 52.581 62.3744 50.8691 63.1676C50.8691 63.1676 51.0731 64.3305 52.5263 64.5683C53.304 64.6956 53.6523 64.6105 54.2735 65.6469C54.2735 65.6469 54.1964 62.93 54.8322 61.6197L53.2149 61.3574Z" fill="#FF5354"/>
<path d="M74.8747 36.632C71.047 35.9469 67.3473 37.1635 67.3473 37.1635C67.3473 37.1635 64.8453 26.977 56.5231 27.2934C49.5041 27.5602 42.6145 36.9908 48.6396 52.8356C62.8043 60.6967 72.6177 41.5932 74.8747 36.632Z" fill="#EF1516"/>
<path d="M52.6194 61.6929C53.1875 62.2151 53.9029 62.5298 54.6703 62.6024C54.632 62.5099 54.5936 62.4173 54.5553 62.3248C53.8927 62.9405 52.9242 62.5027 52.2467 62.1629C52.0601 62.0693 51.8952 62.3499 52.0825 62.4438C52.5463 62.6764 53.0263 62.9087 53.5513 62.9497C53.9976 62.9846 54.4535 62.8632 54.7853 62.5548C54.8973 62.4507 54.8014 62.2895 54.6703 62.2771C53.9927 62.213 53.35 61.923 52.8494 61.4628C52.6955 61.3214 52.4649 61.5508 52.6194 61.6929Z" fill="#2D355B"/>
<path d="M28.9408 131.054C28.936 131.054 28.9311 131.054 28.9263 131.053C28.8188 131.046 28.7381 130.952 28.746 130.844C28.9016 128.738 27.6033 125.821 26.1 122.443C24.5609 118.985 22.8165 115.066 21.8576 110.577C20.7396 105.343 20.9528 100.463 22.5094 95.659C27.0513 81.641 27.4453 72.1196 26.9761 66.6006C26.4698 60.6465 24.8862 57.9741 24.8703 57.9478C24.8144 57.8556 24.8438 57.7355 24.936 57.6797C25.0282 57.6238 25.1482 57.6532 25.2041 57.7454C25.2211 57.7734 25.6254 58.4481 26.0958 59.8786C26.5268 61.1894 27.0969 63.4139 27.365 66.5676C27.6658 70.1049 27.5335 74.0703 26.972 78.3533C26.2709 83.7016 24.8943 89.5646 22.8808 95.7794C19.4174 106.469 23.4859 115.61 26.4566 122.284C28.0442 125.851 29.2981 128.669 29.1353 130.873C29.1277 130.976 29.042 131.054 28.9408 131.054Z" fill="#2D355B"/>
<path d="M24.9966 57.0687C6.32141 56.2155 1.68704 45.7372 4.97394 40.5345C8.26085 35.3318 15.5103 38.0665 15.5103 38.0665C15.5103 38.0665 17.6806 30.627 23.8134 31.125C29.9462 31.623 36.4447 41.0961 24.9966 57.0687Z" fill="#E3001B"/>
<path d="M24.0449 56.6335C24.0449 56.6335 24.2837 57.595 23.7695 59.0676C23.7695 59.0676 24.577 59.6156 25.5542 58.8896C26.0772 58.5011 26.227 58.2454 27.1995 58.4729C27.1995 58.4729 25.5428 56.9555 25.131 55.8242L24.0449 56.6335Z" fill="#FF5354"/>
<path d="M18.1794 33.4185C16.275 35.445 15.5103 38.0663 15.5103 38.0663C15.5103 38.0663 8.26089 35.3316 4.97395 40.5343C2.45739 44.5176 4.5842 51.5935 14.1007 55.0743C23.6677 47.0163 20.1083 37.2023 18.1794 33.4185Z" fill="#EF1516"/>
<path d="M23.9681 57.0736C24.5149 57.4238 25.1727 57.1224 25.6748 56.835C25.6006 56.7608 25.5264 56.6866 25.4523 56.6124C25.2053 57.1294 24.6725 57.4538 24.0992 57.4289C23.8899 57.4198 23.8904 57.7452 24.0992 57.7543C24.7773 57.7837 25.44 57.3901 25.7331 56.7766C25.8008 56.6351 25.6599 56.4686 25.5107 56.5541C25.1158 56.7801 24.5701 57.0731 24.1323 56.7927C23.9555 56.6795 23.7922 56.9609 23.9681 57.0736Z" fill="#2D355B"/>
<path d="M31.9178 128.202C31.8959 128.202 31.8735 128.199 31.8517 128.191C31.7503 128.154 31.6977 128.042 31.7343 127.941C37.7508 111.246 36.1941 102.886 33.6155 96.3388C31.0479 89.8197 31.7199 84.7653 36.6112 73.8048C38.3025 70.0149 37.5716 67.4943 36.56 64.0057C35.7957 61.3697 34.9293 58.3821 34.8455 54.0224C34.8008 51.6949 34.9381 49.5645 35.2538 47.6904C35.5071 46.1863 35.8754 44.8421 36.3484 43.6952C37.1628 41.7206 38.0039 41.0127 38.0393 40.9835C38.1225 40.915 38.2455 40.9269 38.314 41.0101C38.3824 41.0931 38.3707 41.2158 38.2879 41.2845C38.2799 41.2912 37.4697 41.9819 36.6925 43.8849C35.9729 45.6465 35.1361 48.8339 35.2358 54.0149C35.3186 58.3229 36.1773 61.2842 36.9349 63.8969C37.9307 67.331 38.7172 70.0434 36.9677 73.9638C32.1281 84.8083 31.4577 89.7949 33.9787 96.1957C35.0643 98.9522 36.3062 102.814 36.273 108.258C36.2386 113.898 34.8741 120.38 32.1015 128.073C32.0728 128.153 31.9978 128.202 31.9178 128.202Z" fill="#2D355B"/>
<path d="M38.6295 40.0119C22.9745 15.758 31.9971 0.543204 41.4821 0.0173969C50.9671 -0.50841 54.0225 11.0594 54.0225 11.0594C54.0225 11.0594 65.3194 7.12567 70.1866 15.2856C75.0537 23.4455 68.9647 40.1046 38.6295 40.0119Z" fill="#E3001B"/>
<path d="M38.2461 39.0728C38.2461 39.0728 37.4415 40.2471 35.3691 41.1004C35.3691 41.1004 35.5514 42.4911 37.2639 42.848C38.1803 43.039 38.598 42.9559 39.282 44.2179C39.282 44.2179 39.3302 40.9896 40.152 39.4672L38.2461 39.0728Z" fill="#FF5354"/>
<path d="M32.1237 26.9458C48.6882 34.5682 61.5462 14.1723 63.6801 10.5248C58.9372 9.34823 54.0221 11.0594 54.0221 11.0594C54.0221 11.0594 50.9668 -0.50841 41.4817 0.0173969C33.8387 0.441094 26.4964 10.4027 32.1237 26.9458Z" fill="#EF1516"/>
<path d="M37.8401 38.8243C38.469 39.424 39.2097 39.8847 40.0233 40.1885C40.0233 40.0839 40.0233 39.9793 40.0233 39.8748C39.2 40.0563 38.3791 39.711 37.6367 39.3891C37.505 39.332 37.3103 39.462 37.4142 39.6116C37.9662 40.4064 38.761 40.9984 39.6824 41.2953C39.8821 41.3596 39.9676 41.0456 39.7689 40.9815C38.9322 40.712 38.1968 40.1699 37.695 39.4474C37.6209 39.5216 37.5467 39.5958 37.4725 39.6699C38.3029 40.03 39.1905 40.3911 40.1098 40.1885C40.2795 40.151 40.2482 39.9264 40.1098 39.8747C39.3503 39.5911 38.6566 39.1535 38.0701 38.5942C37.9186 38.4498 37.6883 38.6795 37.8401 38.8243Z" fill="#2D355B"/>
</g>
</svg>
