<svg width="96" height="73" viewBox="0 0 96 73" fill="none" xmlns="http://www.w3.org/2000/svg">
<path d="M32.1571 11.0947C32.1571 11.0947 36.88 2.66217 47.197 8.72144C47.197 8.72144 56.0692 6.42074 58.2475 14.0277C58.2475 14.0277 65.5126 8.78639 67.7551 20.0391C67.7551 20.0391 80.5925 14.7363 83.6164 27.77C83.6164 27.77 94.0602 29.5504 90.721 40.544C90.721 40.544 96.444 43.3581 94.8369 49.8873C93.2297 56.4166 86.4001 57.8581 86.4001 57.8581C86.4001 57.8581 78.114 70.3233 66.66 64.066C66.66 64.066 62.1774 71.5314 52.7135 67.6682C52.7135 67.6682 47.479 73.3057 39.7091 67.735C39.7091 67.735 30.1405 70.0573 26.187 64.282C26.187 64.282 16.2387 70.9381 8.97751 62.788C8.97751 62.788 1.26703 62.3441 0.839147 54.9575C0.411267 47.571 3.5301 44.564 3.5301 44.564C3.5301 44.564 -0.262869 31.7685 10.7072 28.6704C10.7072 28.6704 9.99015 18.8169 20.5285 17.469C20.5285 17.469 22.8741 9.38837 32.1571 11.0947Z" fill="#D4E7F9"/>
<path d="M32.6349 13.7584L31.6662 11.0283L21.4888 14.6397L19.4902 9.00747L29.6677 5.39612L28.6993 2.66699L36.7131 6.06678L32.6349 13.7584Z" stroke="#96BFE0" stroke-width="0.85876" stroke-linecap="round" stroke-linejoin="round"/>
<path d="M90.7949 55.264L89.3007 53.4194L82.4243 58.9895L79.3418 55.1841L86.2182 49.614L84.7246 47.77L91.8446 48.2076L90.7949 55.264Z" stroke="#96BFE0" stroke-width="0.85876" stroke-linecap="round" stroke-linejoin="round"/>
<path d="M58.594 13.6022L59.3572 11.2616L68.0825 14.1067L69.657 9.27815L60.9317 6.43299L61.6947 4.09326L54.9609 7.15702L58.594 13.6022Z" stroke="#96BFE0" stroke-width="0.85876" stroke-linecap="round" stroke-linejoin="round"/>
<path d="M2.45183 53.8837L3.84836 51.8562L11.4063 57.0623L14.2873 52.8797L6.72937 47.6737L8.12538 45.647L0.798828 46.6722L2.45183 53.8837Z" stroke="#96BFE0" stroke-width="0.85876" stroke-linecap="round" stroke-linejoin="round"/>
<path d="M49.7752 61.5699C49.7752 61.5699 53.6109 66.1821 54.7002 72.1124L58.6055 72.2751C58.6055 72.2751 59.2978 68.062 58.7137 61.9999C58.7137 61.9999 66.0068 61.5533 67.4702 55.4486C67.4702 55.4486 76.0815 55.8375 76.4605 44.7219C76.4605 44.7219 86.0101 36.5956 77.3157 27.2287C77.3157 27.2287 79.4912 18.5812 65.2104 16.527C65.2104 16.527 53.3218 7.08596 43.5656 15.3478C43.5656 15.3478 33.6937 11.497 26.9274 21.8439C26.9274 21.8439 10.5092 24.785 15.1904 38.9726C15.1904 38.9726 5.34212 54.5902 22.4201 58.3079C22.4201 58.3079 29.476 66.2825 39.8085 60.291C39.8085 60.291 45.4147 63.2805 49.7752 61.5699Z" fill="#E86994"/>
<path d="M26.9277 21.8444C26.9277 21.8444 32.9257 24.1451 36.2315 19.7373" stroke="#A82A50" stroke-width="0.85876" stroke-linecap="round" stroke-linejoin="round"/>
<path d="M22.4199 58.3084C22.4199 58.3084 29.9866 56.469 29.6193 49.9798C29.252 43.4905 23.179 45.3271 22.4199 47.2861" stroke="#A82A50" stroke-width="0.85876" stroke-linecap="round" stroke-linejoin="round"/>
<path d="M39.8102 60.291C39.8102 60.291 35.3066 54.9992 39.8102 50.7139" stroke="#A82A50" stroke-width="0.85876" stroke-linecap="round" stroke-linejoin="round"/>
<path d="M49.7734 61.5701C49.7734 61.5701 52.5138 61.0045 54.3504 58.3081" stroke="#A82A50" stroke-width="0.85876" stroke-linecap="round" stroke-linejoin="round"/>
<path d="M58.7131 62.0001C58.7131 62.0001 58.6369 56.3462 56.3105 53.4077" stroke="#A82A50" stroke-width="0.85876" stroke-linecap="round" stroke-linejoin="round"/>
<path d="M40.6387 19.7377C40.6387 19.7377 43.4548 11.9016 53.2499 14.7177C63.045 17.5338 60.8645 23.6557 58.7134 25.0025" stroke="#A82A50" stroke-width="0.85876" stroke-linecap="round" stroke-linejoin="round"/>
<path d="M50.5945 19.5547C50.5945 19.5547 48.2299 26.7166 40.6387 25.0025" stroke="#A82A50" stroke-width="0.85876" stroke-linecap="round" stroke-linejoin="round"/>
<path d="M76.4593 44.7226C76.4593 44.7226 76.6275 39.0339 70.7578 36.022" stroke="#A82A50" stroke-width="0.85876" stroke-linecap="round" stroke-linejoin="round"/>
<path d="M77.3178 27.2289C77.3178 27.2289 76.2708 32.7156 69.1693 30.0219C62.0679 27.3283 67.8225 20.1044 71.9854 24.1449" stroke="#A82A50" stroke-width="0.85876" stroke-linecap="round" stroke-linejoin="round"/>
<path d="M70.7579 44.1025C70.7579 44.1025 67.393 44.9596 65.5859 47.7757" stroke="#A82A50" stroke-width="0.85876" stroke-linecap="round" stroke-linejoin="round"/>
<path d="M67.47 55.4483C67.47 55.4483 59.2717 54.0953 60.1066 45.9385" stroke="#A82A50" stroke-width="0.85876" stroke-linecap="round" stroke-linejoin="round"/>
<path d="M68.1709 45.2765C68.1709 45.2765 66.8388 41.5313 62.3086 41.0415" stroke="#A82A50" stroke-width="0.85876" stroke-linecap="round" stroke-linejoin="round"/>
<path d="M36.2306 48.8771C36.2306 48.8771 33.7818 41.2634 43.3321 42.1929" stroke="#A82A50" stroke-width="0.85876" stroke-linecap="round" stroke-linejoin="round"/>
<path d="M15.1895 38.9726C15.1895 38.9726 16.7624 33.3276 24.2312 33.6949" stroke="#A82A50" stroke-width="0.85876" stroke-linecap="round" stroke-linejoin="round"/>
<path d="M26.0258 25.8599C26.0258 25.8599 19.3432 28.3699 20.0733 34.2164" stroke="#A82A50" stroke-width="0.85876" stroke-linecap="round" stroke-linejoin="round"/>
<path d="M44.9664 25.0024C44.9664 25.0024 41.25 31.4917 33.7812 31.4917" stroke="#A82A50" stroke-width="0.85876" stroke-linecap="round" stroke-linejoin="round"/>
<path d="M37.8036 43.0727C37.8036 43.0727 33.9015 35.4346 25.0859 38.9725" stroke="#A82A50" stroke-width="0.85876" stroke-linecap="round" stroke-linejoin="round"/>
<path d="M47.373 45.9395C47.373 45.9395 48.9186 38.8155 57.5124 42.1939" stroke="#A82A50" stroke-width="0.85876" stroke-linecap="round" stroke-linejoin="round"/>
<path d="M45.5494 29.0425C45.5494 29.0425 50.3088 33.9357 44.0645 36.3254" stroke="#A82A50" stroke-width="0.85876" stroke-linecap="round" stroke-linejoin="round"/>
<path d="M40.2806 28.8204L61.123 28.5891C63.5521 28.5622 65.5122 30.5722 65.4582 33.0281C65.3926 36.0142 65.0764 40.1937 64.043 44.6354C63.5705 46.6661 61.7254 48.0668 59.6657 47.9781L52.1392 47.6539C52.1392 47.6539 51.3241 51.257 47.2769 52.4737C46.4686 52.7167 45.7098 51.9913 45.8604 51.1525C46.0048 50.3486 46.0974 49.2523 45.9905 47.8559L40.2475 47.6333C38.2193 47.5547 36.5325 46.0526 36.1842 44.0313C35.7668 41.6091 35.4828 37.8769 36.043 32.6918C36.2792 30.5056 38.1064 28.8445 40.2806 28.8204Z" fill="white"/>
<path d="M49.648 43.1737C49.0207 43.0702 48.584 42.4941 48.6538 41.8623L49.7376 32.052C49.8923 31.1139 50.7782 30.4788 51.7163 30.6336C52.6544 30.7883 53.2895 31.6742 53.1348 32.6123L51.0106 42.251C50.8738 42.8718 50.2752 43.2772 49.648 43.1737Z" fill="#D72B3F"/>
<path d="M49.2282 46.6888C50.0381 46.6888 50.6947 46.0323 50.6947 45.2223C50.6947 44.4124 50.0381 43.7559 49.2282 43.7559C48.4183 43.7559 47.7617 44.4124 47.7617 45.2223C47.7617 46.0323 48.4183 46.6888 49.2282 46.6888Z" fill="#D72B3F"/>
<path d="M48.9624 43.1737C48.3352 43.0702 47.8985 42.4941 47.9683 41.8623L49.052 32.052C49.2068 31.1139 50.0927 30.4788 51.0308 30.6336C51.9689 30.7883 52.6039 31.6742 52.4492 32.6123L50.3251 42.251C50.1883 42.8718 49.5897 43.2772 48.9624 43.1737Z" fill="black"/>
<path d="M48.5407 46.6888C49.3506 46.6888 50.0072 46.0323 50.0072 45.2223C50.0072 44.4124 49.3506 43.7559 48.5407 43.7559C47.7308 43.7559 47.0742 44.4124 47.0742 45.2223C47.0742 46.0323 47.7308 46.6888 48.5407 46.6888Z" fill="black"/>
<path d="M90.6737 41.9658C89.2223 45.0333 86.6563 47.0943 84.2157 48.4426C83.5836 48.7913 82.9602 49.0918 82.3659 49.3512C82.1873 49.4302 82.0104 49.504 81.8369 49.5745C81.1155 49.8682 80.3804 50.1292 79.6333 50.3559C78.6165 50.6651 77.5774 50.9141 76.5263 51.0996C75.9337 51.2044 75.3377 51.2903 74.7383 51.3538C75.3309 50.38 75.8186 49.1743 76.1244 47.6817C77.4555 47.4361 78.7642 47.072 80.0232 46.5963C80.1966 46.531 80.3684 46.464 80.5401 46.3936C80.7016 46.3283 80.8682 46.2579 81.0365 46.184C81.5191 45.9728 82.0241 45.7289 82.5342 45.4472C83.1199 45.1243 83.7125 44.7551 84.2827 44.3325C85.6035 43.3569 86.8109 42.098 87.5684 40.4973C88.6109 38.2936 88.6831 35.5198 87.8105 32.8284C87.6388 32.2943 87.4292 31.7652 87.1836 31.2431C87.1373 31.1469 87.0875 31.0508 87.0342 30.9546C86.6976 30.3517 86.2029 29.7592 85.5898 29.1889C85.3132 28.933 85.0109 28.6805 84.6898 28.4332C83.0667 27.1914 80.9232 26.1042 78.723 25.3279C78.2644 25.1647 77.8024 25.0153 77.3438 24.8813C77.1635 23.7271 76.6585 22.2913 75.4064 20.9155C76.2858 21.0667 77.2202 21.2814 78.1768 21.5544C81.0262 22.3703 84.0714 23.71 86.476 25.4773C86.883 25.7762 87.2695 26.0853 87.6336 26.4065C88.197 26.9046 88.7071 27.4284 89.1485 27.9798C89.3735 28.258 89.5796 28.5431 89.7668 28.8351C89.9643 29.1426 90.1395 29.4569 90.2907 29.7781C92.2126 33.8521 92.3569 38.407 90.6737 41.9658Z" fill="#FFCE00"/>
<path d="M77.3456 24.8813C77.1653 23.7271 76.6603 22.2913 75.4082 20.9155C76.2876 21.0667 77.2219 21.2814 78.1786 21.5544C78.7969 22.7859 78.7814 24.4794 78.7248 25.3279C78.2662 25.1647 77.8042 25.0153 77.3456 24.8813Z" fill="#FFAC27"/>
<path d="M82.5353 45.4478L82.367 49.3518C82.1884 49.4308 82.0115 49.5046 81.838 49.575C81.1166 49.8687 80.3815 50.1298 79.6344 50.3565C78.6176 50.6657 77.5785 50.9147 76.5273 51.1002C78.4647 49.8447 79.5674 47.6788 80.0242 46.5968C80.1977 46.5315 80.3695 46.4646 80.5412 46.3941C80.7027 46.3289 80.8693 46.2585 81.0376 46.1846C81.5202 45.9733 82.0252 45.7294 82.5353 45.4478Z" fill="#FFAC27"/>
<path d="M89.7669 28.8358C88.6728 30.148 88.0974 31.7471 87.8106 32.8291C87.6389 32.295 87.4293 31.766 87.1837 31.2438C87.1374 31.1476 87.0875 31.0515 87.0343 30.9553C86.6977 30.3524 86.203 29.7599 85.5898 29.1896L87.6337 26.4072C88.1971 26.9053 88.7072 27.4292 89.1486 27.9805C89.3736 28.2587 89.5797 28.5438 89.7669 28.8358Z" fill="#FFAC27"/>
<path d="M49.6837 25.8799C49.3539 26.1804 48.9383 26.3282 48.5261 26.3282C48.0607 26.3282 47.5952 26.1409 47.2568 25.77C45.845 24.2242 43.753 23.3018 41.6594 23.3018H41.6422C40.1479 23.3053 38.6347 23.745 37.0323 24.2087C35.6703 24.6037 34.2602 25.0125 32.7642 25.1808C29.1728 25.5827 25.7514 24.5539 22.6564 23.2143C21.7873 22.8381 20.944 22.4362 20.1299 22.036C20.02 21.9828 19.9101 21.9278 19.8019 21.8746C19.357 21.6547 18.9157 21.4314 18.4845 21.1978C18.0019 20.9385 17.533 20.6637 17.0813 20.3649C16.5746 20.0334 16.0903 19.671 15.6368 19.2622C15.3277 18.9857 15.034 18.6868 14.7574 18.3622C12.9918 16.2908 12.4869 13.5702 13.471 11.4285C14.7059 8.74736 17.8387 7.90406 22.0656 9.11151C24.2761 9.74355 26.9503 11.6414 28.9598 13.8296C29.8461 14.7949 30.6018 15.8134 31.1291 16.8044C31.1943 16.9229 31.2527 17.0397 31.3094 17.1565C31.1033 17.3042 30.8972 17.4588 30.6911 17.6219C29.9526 18.2111 29.2209 18.9067 28.5116 19.7294C28.5098 19.6675 28.5098 19.604 28.515 19.5387C28.5356 19.2725 28.2333 18.4189 27.3213 17.2166C27.0087 16.8027 26.6205 16.3458 26.1499 15.858C25.5316 15.2174 24.8635 14.6265 24.1953 14.1164C23.103 13.2834 22.0072 12.6685 21.1227 12.4143C20.2261 12.1584 17.2513 11.4336 16.5918 12.8661C16.1092 13.9155 16.6571 15.2964 17.3715 16.1328C17.5914 16.3922 17.8388 16.6309 18.1084 16.8576C18.5274 17.2097 18.9981 17.5292 19.5013 17.8263C20.0784 18.1681 20.6967 18.4841 21.3288 18.7967C21.3442 18.8036 21.3597 18.8122 21.3751 18.8208C21.5589 18.9118 21.7462 19.0028 21.9333 19.0939C23.6303 19.92 25.4526 20.7324 27.3247 21.2545C28.9908 21.72 30.6928 21.9553 32.3795 21.7664C33.5852 21.6324 34.7961 21.282 36.0756 20.9093C37.8361 20.3992 39.6567 19.8719 41.6336 19.8668H41.6594C44.7029 19.8668 47.7412 21.2064 49.7936 23.453C50.4326 24.1538 50.3845 25.2392 49.6837 25.8799Z" fill="#FFCE00"/>
<path d="M21.936 19.0932C21.4963 19.6033 20.5019 20.8468 20.1326 22.0354C20.0227 21.9821 19.9128 21.9272 19.8046 21.8739C19.3597 21.6541 18.9184 21.4308 18.4872 21.1972C18.0046 20.9379 17.5357 20.6631 17.084 20.3642L18.1094 18.2379L19.504 17.8257C20.0811 18.1675 20.6994 18.4835 21.3315 18.7961C21.3469 18.803 21.3624 18.8116 21.3778 18.8201C21.5616 18.9112 21.7489 19.0022 21.936 19.0932Z" fill="#FFAC27"/>
<path d="M31.3119 17.1559C31.1058 17.3036 30.8996 17.4582 30.6935 17.6213C29.955 18.2105 29.2233 18.9061 28.514 19.7288C28.5123 19.6669 28.5123 19.6034 28.5174 19.5381C28.538 19.2719 28.2358 18.4183 27.3237 17.216C27.0111 16.8021 26.6229 16.3452 26.1523 15.8574L31.1315 16.8038C31.1968 16.9223 31.2552 17.0391 31.3119 17.1559Z" fill="#FFAC27"/>
<path d="M44.1152 27.3459L50.7491 21.2134L51.9447 28.6572L44.1152 27.3459Z" fill="#FFCE00"/>
<path d="M34.5219 15.4578C34.4824 15.4716 34.4429 15.487 34.4034 15.5025C34.3484 15.5231 34.2934 15.5437 34.2368 15.566C34.1286 15.6072 34.0221 15.6519 33.9139 15.6983C33.8486 15.7257 33.7833 15.7532 33.7181 15.7824C33.5789 15.8425 33.4398 15.9078 33.299 15.9765C33.2303 16.0091 33.1616 16.0435 33.0946 16.0778C33.0259 16.1122 32.9572 16.1483 32.8885 16.1843C32.3509 16.466 31.8116 16.7958 31.274 17.1839C31.1864 17.2458 31.0971 17.311 31.0095 17.3763C31.0026 17.3814 30.9958 17.3866 30.9872 17.3935C30.891 17.4673 30.7931 17.5412 30.6969 17.6185C30.6952 17.6202 30.6935 17.6202 30.6917 17.6219C29.6011 17.3282 28.4624 17.1942 27.3219 17.2166C25.2454 17.2543 23.1672 17.804 21.3758 18.8208C20.4415 19.3498 19.5844 20.0059 18.8493 20.7839C18.7222 20.9179 18.602 21.0553 18.4851 21.1978C17.0493 22.9566 16.4654 25.2959 16.5237 27.7159C15.2459 29.3665 14.3716 31.4516 14.3493 34.0674C14.2737 33.8699 14.2016 33.6689 14.1329 33.4663C14.1209 33.4353 14.1106 33.4044 14.102 33.3735C13.731 32.2829 13.4528 31.1441 13.281 29.9899C12.7211 26.2131 13.3085 22.2679 15.6375 19.2622C15.8591 18.9736 16.0995 18.6937 16.3554 18.4223C16.8982 17.8503 17.4856 17.3282 18.109 16.8576C19.9039 15.5059 22.001 14.5801 24.196 14.1164C25.759 13.7832 27.3718 13.6836 28.9605 13.8296C30.4977 13.9687 32.0126 14.3362 33.4398 14.9425C33.8057 15.0988 34.1681 15.2706 34.5219 15.4578Z" fill="#2F92C9"/>
<path d="M60.4015 10.5965C60.2452 11.2131 60.0409 11.8108 59.8055 12.3879C59.6785 12.7039 59.541 13.0148 59.3985 13.3171C58.9949 14.1724 58.5483 14.9779 58.1275 15.7337C57.6672 16.5632 56.6229 16.8621 55.7934 16.4035C55.3348 16.1476 55.0359 15.7131 54.9398 15.2356V15.2339C54.8968 15.014 54.8968 14.7856 54.9415 14.5623C54.9758 14.394 55.0359 14.2274 55.1235 14.0677C55.443 13.4923 55.7659 12.9083 56.063 12.3192C56.4856 11.4776 56.8531 10.6223 57.0712 9.75663C57.4302 8.32934 57.3151 6.96562 56.7569 6.01581C56.0905 4.88566 54.6151 4.1248 53.0848 4.12308H53.0797C51.6043 4.12308 49.9984 4.74999 48.5556 5.88872C48.1074 6.24252 47.6797 6.63757 47.2743 7.07553C46.4448 7.96695 45.7028 9.03012 45.0433 10.2788C44.2978 11.682 43.6555 13.3171 43.111 15.1961C42.4876 15.0106 41.2612 14.7117 39.6914 14.6568C40.0452 13.3858 40.442 12.2059 40.8817 11.11C41.5171 9.52475 42.2437 8.11981 43.0664 6.8866C44.0471 5.41639 45.1652 4.19006 46.4259 3.19388C48.4715 1.57766 50.8348 0.687988 53.0797 0.687988H53.0883C55.8346 0.691427 58.4367 2.09809 59.7162 4.2725C60.3053 5.27382 60.6369 6.43832 60.7021 7.68698C60.7519 8.6196 60.6523 9.60032 60.4015 10.5965Z" fill="#2F92C9"/>
<path d="M41.2987 45.1386C41.096 45.6658 40.8659 46.2189 40.6082 46.7908C38.384 51.7253 34.152 58.0648 29.0904 62.1508C27.2183 63.664 25.2311 64.8662 23.1906 65.5739C21.8338 66.0445 20.5147 66.2798 19.242 66.2798C17.4162 66.2798 15.6833 65.7955 14.0601 64.8267C11.0699 63.044 9.33006 60.7098 8.88864 57.8879C8.34419 54.4081 9.98441 51.0984 11.2365 49.1696C11.7329 48.4002 12.1708 47.8505 12.3804 47.5963C12.3014 49.2194 12.5315 50.894 13.3044 52.445C12.7995 53.448 12.3546 54.6434 12.2413 55.8766C12.2241 56.0724 12.2138 56.2699 12.2138 56.4675C12.2138 56.768 12.2361 57.0686 12.2842 57.3692C12.5676 59.152 13.7235 60.6274 15.8189 61.8777C17.6876 62.9907 19.7298 63.1384 22.0639 62.3277C23.1615 61.9464 24.2744 61.3642 25.3788 60.6256C30.4112 57.2524 35.2598 50.6158 37.6833 44.9153C37.8293 44.5769 37.9632 44.242 38.0903 43.9122C38.4287 43.026 39.4232 42.5828 40.3077 42.9212C41.194 43.2595 41.637 44.2523 41.2987 45.1386Z" fill="#2F92C9"/>
<path d="M34.8301 43.0883L43.7415 48.7972L42.7669 40.814L34.8301 43.0883Z" fill="#2F92C9"/>
<path d="M13.305 52.4453C12.8 53.4483 12.3552 54.6438 12.2418 55.877C10.9314 53.7283 11.0104 50.915 11.2371 49.17C11.7335 48.4005 12.1714 47.8509 12.381 47.5967C12.302 49.2198 12.5321 50.8944 13.305 52.4453Z" fill="#067DB2"/>
<path d="M65.694 44.3032L64.2825 53.9125L58.582 48.1035L65.694 44.3032Z" fill="#FFCE00"/>
<path d="M53.6016 12.4629L60.8708 16.1142L54.2345 19.2248L53.6016 12.4629Z" fill="#2F92C9"/>
<path d="M76.1279 47.6819C76.1279 47.6819 70.9638 48.5218 64.1889 47.2974L63.834 50.6939C63.834 50.6939 68.6839 51.9823 74.7418 51.354L77.0858 49.3924L76.1279 47.6819Z" fill="#FFCE00"/>
<path d="M84.2153 48.443C83.5816 51.1962 81.8073 53.7571 79.231 55.3664C77.1871 56.6426 74.7053 57.2969 72.1255 57.2969C71.7889 57.2969 71.4488 57.2849 71.1087 57.2626C69.8137 57.1784 68.5049 56.9294 67.2236 56.5137C67.1962 56.5051 67.1704 56.4948 67.1446 56.4845C67.2717 56.1582 67.38 55.8147 67.4675 55.4489C67.4675 55.4489 70.0336 55.5657 72.4244 53.8636C72.9774 53.8498 73.5219 53.7966 74.0526 53.7038C75.2755 53.4926 76.4176 53.0735 77.4121 52.4535C78.2949 51.9021 79.0472 51.1773 79.6329 50.3563C80.5295 49.1042 81.0379 47.6254 81.0362 46.1844C81.0362 45.7619 80.9915 45.3411 80.8987 44.9323C80.617 43.6802 79.9644 42.569 79.1159 41.5075C78.3241 40.5199 77.3657 39.577 76.3782 38.6083C75.1707 37.4249 73.9238 36.2003 72.8881 34.7971C70.937 32.1555 69.8103 28.8956 69.7124 25.6134C69.6883 24.8182 69.7244 24.035 69.7914 23.2638C69.848 22.5802 69.9305 21.9052 70.0181 21.2405C70.0456 21.0292 70.0748 20.8197 70.1022 20.6102C70.1658 20.1396 70.2259 19.681 70.2809 19.2275C70.3393 18.7415 70.3874 18.2623 70.4217 17.7848C70.4303 17.6783 70.4371 17.5701 70.4423 17.4636C70.4457 17.3846 70.4509 17.3056 70.4526 17.2249C70.5299 15.3201 70.2706 12.8366 68.7128 11.3165C66.492 9.14728 62.4746 9.97687 60.259 12.0791C60.1216 12.2097 59.967 12.3127 59.8038 12.3883C59.1529 12.694 58.3525 12.5652 57.8304 12.0156C57.1777 11.3268 57.2069 10.2396 57.8957 9.58699C58.7029 8.82095 59.6596 8.17687 60.7004 7.68737C64.0702 6.09692 68.3091 6.12097 71.1122 8.85875C73.1251 10.8236 73.7709 13.5287 73.8808 15.8783C73.9083 16.4486 73.9049 16.9982 73.8791 17.5117C73.8774 17.5598 73.874 17.6062 73.8722 17.6526C73.8396 18.2571 73.7812 18.8566 73.7125 19.4491C73.7074 19.4989 73.7022 19.5487 73.6954 19.5985C73.6524 19.9678 73.6043 20.3337 73.5562 20.6943C73.5494 20.7493 73.5408 20.8043 73.5339 20.8575C73.5253 20.9279 73.5167 20.9983 73.5064 21.0687C73.3673 22.101 73.2334 23.0955 73.1749 24.071C73.144 24.5554 73.132 25.0346 73.1457 25.5121C73.223 28.1004 74.1127 30.6733 75.6499 32.7549C76.5259 33.94 77.6234 35.0169 78.7844 36.1574C79.4062 36.7688 80.0331 37.3837 80.6325 38.0261C82.2642 39.7677 83.6915 41.6896 84.2497 44.18C84.2617 44.2316 84.272 44.2814 84.2823 44.3329C84.5623 45.6898 84.5262 47.0896 84.2153 48.443Z" fill="#2F92C9"/>
<path d="M74.0544 53.7036C73.6405 54.6414 72.7199 56.1511 71.1106 57.2624C69.8156 57.1782 68.5068 56.9292 67.2255 56.5135C67.198 56.5049 67.1723 56.4946 67.1465 56.4843C67.2736 56.158 67.3818 55.8145 67.4694 55.4487C67.4694 55.4487 70.0354 55.5655 72.4262 53.8634C72.9793 53.8496 73.5237 53.7964 74.0544 53.7036Z" fill="#067DB2"/>
<path d="M73.8807 17.5115C73.879 17.5596 73.8756 17.606 73.8738 17.6524C73.8412 18.257 73.7828 18.8564 73.7141 19.4489C73.7089 19.4988 73.7038 19.5486 73.6969 19.5984C73.654 19.9676 73.6059 20.3335 73.5578 20.6942C73.5509 20.7491 73.5423 20.8041 73.5355 20.8573C72.5513 21.1253 70.8647 21.7797 69.793 23.2636C69.8496 22.58 69.9321 21.905 70.0197 21.2403C70.0472 21.0291 70.0763 20.8195 70.1038 20.61C70.1674 20.1394 70.2275 19.6808 70.2824 19.2274L73.6093 17.4497L73.8807 17.5115Z" fill="#067DB2"/>
<path d="M89.1497 27.9794C89.0415 28.1941 88.9247 28.4071 88.7993 28.6184C88.2909 29.4788 87.6898 30.2552 87.0354 30.9542C85.5257 32.5721 83.7343 33.7778 82.1387 34.6796C81.7334 34.9097 81.34 35.1193 80.969 35.3116C80.9553 34.1952 80.7492 33.0135 80.2735 31.7855C80.9879 31.3853 81.6372 30.9817 82.2263 30.5695C83.2087 29.8842 84.0245 29.1766 84.691 28.4329C85.1409 27.9313 85.5239 27.4109 85.8434 26.8699C86.0959 26.4439 86.3106 25.9733 86.4772 25.477C87.123 23.5688 87.0646 21.2947 85.7129 19.7593C84.7906 18.7133 83.2654 18.0434 81.5307 17.9232C79.6294 17.7927 77.6954 18.2873 76.2217 18.7322C75.4214 18.9743 74.6279 19.244 73.8464 19.5411C73.7965 19.5583 73.7468 19.5772 73.697 19.5978C72.4431 20.077 71.2151 20.6266 70.0197 21.2398C66.8096 22.8835 63.8382 24.9892 61.2327 27.4796C60.5474 28.1357 59.4602 28.1117 58.8041 27.4246C58.148 26.7393 58.1738 25.6522 58.8591 24.9961C62.0503 21.9457 65.7464 19.4243 69.7449 17.5488C69.9802 17.4389 70.2172 17.3289 70.4542 17.2242C71.5758 16.7244 72.7197 16.2744 73.8824 15.8776C74.3273 15.7248 74.7773 15.5805 75.2273 15.4448C76.9809 14.9141 79.3099 14.3284 81.7677 14.4967C84.3972 14.6788 86.7743 15.7694 88.2892 17.4887C90.6474 20.1629 90.9668 24.388 89.1497 27.9794Z" fill="#A669D1"/>
<path d="M56.2414 21.8618L65.0146 29.7378L55.9922 30.8843L56.2414 21.8618Z" fill="#A669D1"/>
<path d="M82.1406 34.6804C81.7353 34.9106 81.342 35.1201 80.971 35.3124C80.9573 34.196 80.7512 33.0144 80.2754 31.7863C80.9899 31.3861 81.6391 30.9825 82.2282 30.5703C82.2952 31.4119 82.3673 33.0041 82.1406 34.6804Z" fill="#844FB2"/>
<path d="M33.1109 34.3814C32.2779 33.928 31.2337 34.2355 30.7802 35.0684C29.7205 37.0144 28.5526 39.0377 26.9552 40.5113C25.3682 41.9747 23.4274 42.7201 21.7614 42.5054C21.6051 42.4848 21.4505 42.4556 21.2977 42.4178C21.4093 42.2942 21.5175 42.1705 21.6223 42.0417C21.9538 41.6363 22.2457 41.2052 22.4948 40.7552C24.0698 37.8904 23.6267 34.3316 21.4402 32.2963C20.949 31.8377 20.4028 31.4891 19.8326 31.2624C19.8326 31.2624 16.5847 30.1425 14.4017 33.0761C14.5443 31.575 14.9771 30.2645 15.6023 29.1206C15.2553 29.2391 14.8912 29.3679 14.5168 29.5071C14.1149 29.6565 13.701 29.8162 13.2819 29.9897C12.9023 30.146 12.5193 30.3091 12.1397 30.4843C10.0168 31.4496 7.96438 32.6862 6.96304 34.1358C4.99986 36.9784 4.71648 41.6656 7.68268 44.2865C8.93649 45.3961 10.642 45.9938 12.5433 46.0436C12.6292 46.0453 12.7168 46.047 12.8044 46.047C13.6357 46.047 14.5048 45.9439 15.3859 45.7327C15.604 45.6812 15.8256 45.621 16.0454 45.5558C16.7753 45.3394 17.4658 45.0714 18.1082 44.7571C19.1026 45.3634 20.1933 45.7653 21.3217 45.9113C24.0234 46.2617 26.9261 45.2123 29.2842 43.0362C31.2663 41.2069 32.6008 38.9089 33.798 36.7104C34.2514 35.8774 33.9439 34.8349 33.1109 34.3814ZM13.4742 42.581H13.4725C12.0229 42.727 10.7674 42.4299 9.95671 41.7119C8.45213 40.3825 8.65484 37.7306 9.79011 36.0887C10.2178 35.4704 11.1968 34.7971 12.4661 34.1427C12.5656 34.0912 12.667 34.0396 12.7701 33.9881C13.1909 33.7786 13.6374 33.5742 14.1028 33.3732C14.1424 33.3561 14.1802 33.3406 14.2197 33.3234C14.1905 33.3698 14.163 33.4179 14.1338 33.466C14.0428 33.6274 13.9569 33.794 13.8796 33.9675C13.2218 35.46 13.1943 37.26 13.8006 39.1768C13.95 39.6491 14.1321 40.1043 14.3433 40.5423C14.6233 41.1245 14.9548 41.6724 15.3275 42.1825C15.2364 42.2117 15.1506 42.2392 15.0681 42.2633C14.9788 42.289 14.8912 42.3148 14.8036 42.3371C14.3468 42.459 13.9019 42.5415 13.4742 42.581ZM17.0759 38.1394C17.069 38.1205 17.0639 38.0999 17.0588 38.081C16.7307 37.0127 16.7153 36.0492 17.0227 35.357C17.258 34.8228 17.8008 34.4089 18.2473 34.3952C18.2559 34.3935 18.2645 34.3935 18.2731 34.3935C18.3143 34.3935 18.3538 34.3969 18.3933 34.4038C18.6097 34.4433 18.8605 34.5875 19.0992 34.8091C20.0524 35.6971 20.262 37.406 19.6248 38.8179C19.5818 38.914 19.5355 39.0068 19.4839 39.0995C19.1851 39.644 18.7986 40.106 18.3692 40.4942C17.8059 39.8209 17.3542 39.0171 17.0759 38.1394Z" fill="#A669D1"/>
<path d="M66.9938 64.3896C64.3471 65.4717 61.6608 66.473 58.9419 67.3868C57.2571 67.9518 55.5601 68.4843 53.8546 68.9824C50.9949 69.8188 48.1077 70.5591 45.2067 71.2014C44.056 71.4556 42.919 71.6806 41.7459 71.6806C41.4264 71.6806 41.1036 71.6634 40.7772 71.6257C37.6959 71.2736 34.9496 68.9446 34.0994 65.9629C34.0204 65.6881 33.9586 65.4099 33.9139 65.1299C33.7662 64.2265 33.7851 63.2973 33.9568 62.3973C35.2605 62.2152 36.6516 61.8271 38.1184 61.1624C37.7698 61.6519 37.5173 62.2152 37.3765 62.8043C37.2013 63.5377 37.1996 64.3089 37.4022 65.02C37.8746 66.674 39.4581 68.0171 41.1671 68.2129C42.1667 68.328 43.2522 68.115 44.4648 67.8471C47.151 67.2545 49.8253 66.5726 52.4771 65.8066C54.6189 65.1883 56.7452 64.515 58.8509 63.7868C61.1576 62.9933 63.4419 62.1328 65.6936 61.2105C66.5713 60.8515 67.5743 61.2706 67.9333 62.1482C68.2923 63.0259 67.8715 64.029 66.9938 64.3896Z" fill="#A669D1"/>
<path d="M54.2429 12.0373C52.929 11.9068 51.5584 11.9274 50.1706 12.1764C50.0367 12.0476 49.8958 11.9256 49.7498 11.8123C48.6609 10.9604 47.3109 10.5379 46.4109 10.4142C45.9249 10.3472 45.4697 10.3009 45.042 10.2785C43.7418 10.2047 42.6959 10.3301 41.813 10.6598C41.4884 10.7818 41.1775 10.9329 40.8804 11.1098C39.5905 11.8793 38.5497 13.1382 37.6085 14.6222C37.581 14.6617 37.5552 14.7029 37.5295 14.7441C36.5797 14.8558 35.5646 15.0774 34.5221 15.4569C33.9845 15.6544 33.4366 15.8932 32.8887 16.1834C32.9161 15.9911 32.9763 15.8022 33.0742 15.6218C33.191 15.4037 33.3129 15.177 33.44 14.9417C33.6032 14.6428 33.7732 14.3319 33.957 14.0142C35.3722 11.5375 37.4024 8.64172 40.6107 7.44288C41.4266 7.13887 42.2596 6.96883 43.0651 6.88637C44.4993 6.73867 45.851 6.8692 46.8781 7.01177C47.0086 7.03064 47.1409 7.05127 47.2731 7.0753C49.4973 7.47034 51.8194 8.64515 53.3257 10.5602C53.6813 11.0119 53.9904 11.5049 54.2429 12.0373Z" fill="#A669D1"/>
<path d="M28.0996 34.548L35.8507 38.818L34.9224 30.9741L28.0996 34.548Z" fill="#A669D1"/>
<path d="M63.834 59.8057L67.4543 67.1003L70.9125 60.8323L63.834 59.8057Z" fill="#A669D1"/>
<path d="M15.603 29.1206C14.9778 30.2645 14.545 31.575 14.4025 33.0761L14.2204 33.3234C14.1809 33.3406 14.1431 33.3561 14.1036 33.3732C13.6381 33.5742 13.1916 33.7786 12.7708 33.9881C12.6677 34.0396 12.5664 34.0912 12.4668 34.1427C13.0078 32.0422 13.9026 30.4379 14.5175 29.5071C14.8919 29.3679 15.2561 29.2391 15.603 29.1206Z" fill="#844FB2"/>
<path d="M33.957 14.015C35.5818 14.003 36.7995 14.3139 37.6085 14.623C37.581 14.6625 37.5552 14.7037 37.5295 14.7449C36.5797 14.8566 35.5646 15.0782 34.5221 15.4577C33.9845 15.6552 33.4366 15.894 32.8887 16.1842C32.9161 15.9919 32.9763 15.803 33.0742 15.6226C33.191 15.4045 33.3129 15.1778 33.44 14.9425C33.6032 14.6436 33.7732 14.3327 33.957 14.015Z" fill="#844FB2"/>
<path d="M54.2431 12.0377C52.9292 11.9071 51.5586 11.9277 50.1708 12.1768C50.0369 12.0479 49.896 11.926 49.75 11.8126C51.1017 10.9504 52.4431 10.6567 53.3259 10.5605C53.6815 11.0123 53.9906 11.5052 54.2431 12.0377Z" fill="#844FB2"/>
<path d="M38.1184 61.1631C37.7698 61.6526 37.5173 62.2159 37.3765 62.805C36.4078 63.3135 34.9788 64.1482 33.9139 65.1306C33.7662 64.2272 33.7851 63.298 33.9568 62.398C35.2605 62.2159 36.6516 61.8278 38.1184 61.1631Z" fill="#844FB2"/>
<path d="M21.6203 42.0417C21.5155 42.1705 21.4072 42.2942 21.2956 42.4178C19.2311 41.7824 18.3672 40.4942 18.3672 40.4942C18.7966 40.106 19.183 39.644 19.4819 39.0996C19.5334 39.0068 19.5798 38.9141 19.6227 38.8179C19.4991 41.1108 20.9693 41.8339 21.6203 42.0417Z" fill="#844FB2"/>
<path d="M18.1073 44.7567C17.4649 45.071 16.7745 45.339 16.0445 45.5554C15.8247 45.6207 15.6031 45.6808 15.385 45.7323C15.4193 44.8615 15.373 43.4067 14.8027 42.3367C14.8903 42.3144 14.9779 42.2886 15.0672 42.2629C15.1497 42.2388 15.2356 42.2113 15.3266 42.1821C15.3266 42.1821 17.0355 44.0834 18.1073 44.7567Z" fill="#844FB2"/>
</svg>
