<svg width="81" height="88" viewBox="0 0 81 88" fill="none" xmlns="http://www.w3.org/2000/svg">
<path d="M45.9629 59.6473C45.9629 59.6473 46.8162 65.2613 47.3079 67.5229C48.1151 71.2424 49.9412 75.364 49.9412 75.364C49.9412 75.364 50.0678 65.987 50.6744 65.0896C51.3024 64.1619 57.1437 78.6804 57.1437 78.6804C57.1437 78.6804 56.695 71.3588 57.7843 71.1472C58.746 70.9608 71.8425 86.6395 71.8425 86.6395C71.8425 86.6395 61.516 66.3318 61.8775 66.0239C62.5607 65.4522 73.0579 74.0747 73.0579 74.0747C73.0579 74.0747 60.6009 60.1279 61.1524 59.503C61.8193 58.7424 69.2735 62.2745 71.1811 63.0833C71.1811 63.0833 67.0975 59.0543 61.8963 55.7217C60.4657 54.8077 56.3466 52.4185 56.3466 52.4185L45.9629 59.6473Z" fill="white"/>
<path d="M54.3502 51.1025C54.3502 51.1025 52.7014 45.7529 52.509 40.9388C52.314 36.0935 56.1257 24.5665 44.5888 18.9605C33.0518 13.3545 16.541 26.8428 21.1581 39.3491C24.8291 49.2972 33.7628 49.8168 37.8054 51.9421C41.8482 54.0675 45.3738 57.1034 45.3738 57.1034L54.3502 51.1025Z" fill="#FFD020"/>
<path d="M50.56 45.1871C50.4313 45.1866 50.3058 45.1441 50.2035 45.0651C50.1017 44.9861 50.0282 44.8757 49.9953 44.7511C49.5077 42.9039 49.5563 40.1809 49.5593 40.0697C49.5608 39.9928 49.5776 39.917 49.6084 39.8466C49.6393 39.7763 49.6839 39.7126 49.7391 39.6593C49.7948 39.6061 49.8601 39.5643 49.9315 39.5363C50.0029 39.5083 50.0794 39.4947 50.1564 39.4962C50.2333 39.4977 50.3088 39.5144 50.3792 39.5452C50.4496 39.5761 50.5134 39.6204 50.5666 39.6759C50.6197 39.7313 50.6618 39.7967 50.6896 39.8683C50.718 39.9399 50.7311 40.0162 50.7296 40.0931C50.7296 40.1194 50.68 42.7674 51.1266 44.4544C51.1464 44.5288 51.1514 44.6063 51.1413 44.6828C51.1307 44.7587 51.1059 44.8327 51.0669 44.899C51.0284 44.9653 50.9767 45.0236 50.9155 45.0702C50.8547 45.1167 50.7848 45.1507 50.7104 45.1704C50.6612 45.1821 50.6106 45.1876 50.56 45.1871Z" fill="white"/>
<path d="M51.5811 49.3683C51.452 49.3683 51.3264 49.3252 51.2241 49.2462C51.1218 49.1672 51.0484 49.0568 51.0155 48.9318L50.4762 46.8834C50.4569 46.8089 50.4519 46.7314 50.4625 46.6555C50.4731 46.5795 50.4985 46.5061 50.5369 46.4398C50.5759 46.3729 50.6271 46.3152 50.6884 46.2686C50.7496 46.222 50.8195 46.1881 50.8939 46.1683C50.9679 46.1491 51.0454 46.1445 51.1218 46.1547C51.1978 46.1653 51.2712 46.1906 51.3376 46.2291C51.4039 46.2681 51.4621 46.3192 51.5087 46.3805C51.5553 46.4418 51.5892 46.5117 51.6085 46.5861L52.1478 48.6391C52.1675 48.7135 52.1721 48.791 52.162 48.8669C52.1513 48.9434 52.126 49.0168 52.087 49.0832C52.048 49.1495 51.9964 49.2077 51.9351 49.2543C51.8738 49.3004 51.804 49.3343 51.7295 49.3541C51.6809 49.3647 51.6313 49.3698 51.5811 49.3683Z" fill="white"/>
<path d="M23.3997 33.9685C23.2444 33.9685 23.0956 33.9069 22.9859 33.7971C22.8761 33.6873 22.8145 33.5385 22.8145 33.3833C22.8203 30.475 24.532 28.0533 24.6041 27.9509C24.649 27.8884 24.7057 27.8353 24.771 27.7948C24.8364 27.7541 24.909 27.7268 24.9849 27.7143C25.0608 27.7018 25.1384 27.7044 25.2133 27.7219C25.2882 27.7394 25.359 27.7715 25.4215 27.8163C25.4839 27.8611 25.537 27.9179 25.5776 27.9832C25.6182 28.0485 25.6455 28.1212 25.658 28.1971C25.6705 28.273 25.6679 28.3506 25.6504 28.4255C25.6329 28.5004 25.6009 28.5711 25.5561 28.6336C25.5366 28.6609 23.9897 30.8641 23.9848 33.3872C23.9838 33.5417 23.9217 33.6896 23.8121 33.7985C23.7024 33.9074 23.5542 33.9685 23.3997 33.9685Z" fill="white"/>
<path d="M24.1771 39.7991C24.0713 39.7992 23.9674 39.7706 23.8766 39.7163C23.7857 39.662 23.7113 39.5841 23.6612 39.4909C22.9053 38.0884 22.8673 36.527 22.8654 36.4616C22.8638 36.3847 22.8774 36.3082 22.9055 36.2365C22.9335 36.1649 22.9754 36.0995 23.0288 36.0441C23.0821 35.9886 23.1459 35.9442 23.2164 35.9135C23.2869 35.8827 23.3628 35.8661 23.4398 35.8647H23.4506C23.6035 35.8647 23.7505 35.9246 23.8599 36.0317C23.9693 36.1387 24.0324 36.2842 24.0357 36.4372C24.0357 36.4577 24.0747 37.792 24.6911 38.936C24.7392 39.025 24.7633 39.1251 24.7612 39.2262C24.7591 39.3275 24.7307 39.4264 24.6789 39.5133C24.6272 39.6003 24.5537 39.6723 24.4657 39.7224C24.3778 39.7725 24.2784 39.7989 24.1771 39.7991Z" fill="white"/>
<path d="M48.1671 55.4457C48.0638 55.4462 47.9621 55.4194 47.8724 55.3683C47.7828 55.3166 47.7084 55.2427 47.6567 55.153C47.6334 55.112 45.3014 51.0021 42.5046 46.9605C41.9526 46.1619 41.4315 45.4418 40.952 44.7936C40.9008 44.8736 40.8466 44.9536 40.7879 45.0341C39.6926 46.5371 37.4436 46.6536 35.3175 45.3172C33.2557 44.0198 31.6406 41.497 32.9709 39.0216C33.4869 38.061 34.2193 37.8513 34.743 37.8513H34.7664C35.8802 37.8513 37.2641 38.7457 38.9963 40.5821C39.3766 40.9872 39.7743 41.4371 40.1891 41.9319C40.0763 41.6002 39.9461 41.2747 39.799 40.9567C39.4176 40.0974 38.9436 39.0275 39.9228 38.3029C39.9389 38.2903 39.9558 38.2789 39.9735 38.2687C41.1145 37.5958 41.9126 38.5886 42.4955 39.3142C42.6849 39.5503 42.8753 39.7873 43.0809 40.0048C42.8439 39.4537 42.6362 38.9319 42.4565 38.4443C41.585 36.0548 41.4102 34.4105 41.9222 33.4176C42.1633 32.9514 42.6783 32.3906 43.7675 32.3604H43.8911C46.6221 32.3604 48.1104 34.8962 48.3408 37.2846C48.5814 39.7834 47.4627 41.7418 45.6331 42.0461C45.5359 42.0626 45.4382 42.0753 45.3404 42.0841C45.7045 42.8091 46.1193 43.5981 46.5841 44.4513C48.9465 48.7658 51.5686 52.6884 51.595 52.7274C51.6816 52.857 51.713 53.015 51.6826 53.1679C51.6522 53.3204 51.5626 53.4546 51.4334 53.5412C51.3038 53.6272 51.1458 53.6586 50.9929 53.6283C50.8404 53.5979 50.7062 53.5082 50.6202 53.3791C50.5938 53.3391 47.9418 49.3735 45.5551 45.0129C44.9611 43.9297 44.4324 42.9118 43.9701 41.9593C42.8312 41.613 42.1076 40.7119 41.5758 40.0506C40.9216 39.2352 40.7783 39.165 40.5909 39.2625C40.431 39.403 40.4875 39.64 40.8618 40.4856C41.2082 41.2658 41.6812 42.3338 41.4558 43.5285C42.0949 44.3647 42.7649 45.2894 43.4652 46.3022C46.2935 50.3919 48.6447 54.5418 48.6685 54.5823C48.7196 54.6714 48.747 54.7727 48.747 54.8755C48.7465 54.9783 48.7196 55.0791 48.668 55.1682C48.6163 55.2574 48.5424 55.3313 48.4533 55.3824C48.3641 55.4336 48.2629 55.4604 48.1601 55.4604L48.1671 55.4457ZM34.7655 39.008H34.7557C34.5431 39.008 34.268 39.0753 34.0018 39.5659C33.0265 41.3789 34.3236 43.2993 35.9407 44.3166C37.2339 45.1298 39.0061 45.4818 39.8419 44.3353C39.9734 44.1571 40.084 43.9648 40.1715 43.7616C36.8672 39.5444 35.3311 39.008 34.7655 39.008ZM44.7798 40.9137C45.0011 40.9301 45.2234 40.919 45.4422 40.8806C46.8414 40.6485 47.3215 38.9066 47.1751 37.3861C46.9948 35.5106 45.8889 33.52 43.8845 33.52H43.7994C43.2439 33.5356 43.0606 33.755 42.9629 33.9443C42.7071 34.4407 42.4813 36.0431 44.7798 40.9137Z" fill="#101014"/>
<path d="M73.7071 46.0645C73.4018 46.0645 73.1025 45.9784 72.8432 45.8169C72.5845 45.6548 72.3758 45.4239 72.2411 45.15C72.1064 44.8755 72.0517 44.5691 72.0826 44.2653C72.113 43.9613 72.2285 43.6721 72.4153 43.4304C72.6022 43.1888 72.8528 43.0042 73.1395 42.8978C73.4256 42.7914 73.736 42.7673 74.0353 42.8284C74.3346 42.8894 74.6106 43.033 74.8324 43.243C75.0542 43.453 75.2127 43.721 75.2902 44.0166C75.3443 44.2243 75.3575 44.441 75.3276 44.6537C75.2983 44.8664 75.2274 45.0715 75.1185 45.2568C75.0101 45.4421 74.8658 45.6042 74.6946 45.7338C74.523 45.8635 74.3275 45.9577 74.1199 46.0119C73.9852 46.0473 73.8464 46.065 73.7071 46.0645ZM73.7071 43.9658C73.6671 43.9657 73.6276 43.9709 73.5892 43.9814C73.4702 44.0126 73.3689 44.0901 73.3066 44.1964C73.2448 44.3027 73.2276 44.4288 73.2585 44.5478C73.2904 44.6668 73.3674 44.7681 73.4732 44.8299C73.5795 44.8917 73.7056 44.9094 73.8241 44.8785C73.9431 44.8471 74.0449 44.7702 74.1072 44.6638C74.169 44.5575 74.1867 44.4309 74.1558 44.3119C74.1295 44.2131 74.0712 44.1255 73.9902 44.0627C73.9092 44.0004 73.8094 43.9662 73.7071 43.9658Z" fill="#101014"/>
<path d="M19.4737 53.2477C19.1685 53.2467 18.8697 53.1606 18.611 52.999C18.3523 52.837 18.1442 52.6061 18.01 52.3321C17.8759 52.0582 17.8212 51.7518 17.8522 51.4485C17.8831 51.1446 17.9984 50.856 18.1851 50.6144C18.3717 50.3734 18.6223 50.189 18.9083 50.0827C19.1943 49.9763 19.5043 49.9525 19.8033 50.0133C20.1023 50.0741 20.3783 50.2174 20.5999 50.427C20.8216 50.6367 20.9801 50.9046 21.0575 51.1993C21.1666 51.6186 21.1052 52.0637 20.8868 52.438C20.6684 52.8117 20.3107 53.0841 19.8921 53.195C19.7554 53.2305 19.6148 53.2482 19.4737 53.2477ZM19.4737 51.1497C19.4342 51.1497 19.3949 51.1547 19.3566 51.1644C19.2677 51.1877 19.1876 51.2368 19.1265 51.3051C19.0655 51.374 19.0262 51.4591 19.0136 51.5502C19.001 51.6414 19.0157 51.7341 19.0559 51.8166C19.0961 51.8991 19.1599 51.968 19.2392 52.0146C19.3186 52.0607 19.4099 52.0825 19.5016 52.0769C19.5933 52.0713 19.6813 52.0389 19.7545 51.9832C19.8276 51.9275 19.8826 51.8515 19.9125 51.7644C19.9424 51.6778 19.9458 51.5837 19.9223 51.495C19.8967 51.3958 19.8392 51.3082 19.7586 51.2454C19.678 51.1821 19.5788 51.1477 19.4766 51.1466L19.4737 51.1497Z" fill="#101014"/>
<path d="M2.59798 46.7901C2.29252 46.7901 1.99323 46.704 1.73411 46.5425C1.47498 46.3804 1.26635 46.1495 1.13185 45.8755C0.997347 45.6011 0.942351 45.2947 0.973191 44.9909C1.00398 44.687 1.11929 44.3979 1.3061 44.1558C1.49286 43.9144 1.74363 43.7298 2.02995 43.6234C2.31627 43.517 2.62664 43.4929 2.92597 43.5539C3.22526 43.615 3.50145 43.7586 3.72325 43.9686C3.94505 44.1786 4.10361 44.4465 4.18088 44.7422C4.24413 44.9838 4.25102 45.237 4.20109 45.4821C4.15116 45.7272 4.04568 45.9576 3.89279 46.1551C3.73991 46.3531 3.54368 46.5131 3.31919 46.623C3.09471 46.7334 2.84799 46.7906 2.59798 46.7901ZM2.59798 44.6916C2.55782 44.6916 2.51781 44.6966 2.47897 44.7068C2.36002 44.7382 2.25844 44.8156 2.1964 44.922C2.13442 45.0283 2.11715 45.1544 2.14834 45.2734C2.16349 45.3327 2.19027 45.3879 2.22714 45.4365C2.26396 45.4851 2.31014 45.5261 2.36291 45.5565C2.44221 45.6026 2.53336 45.6244 2.62497 45.6188C2.71653 45.6132 2.80439 45.5803 2.87746 45.5251C2.95048 45.4694 3.00548 45.3934 3.03541 45.3069C3.06533 45.2198 3.06888 45.1266 3.04564 45.0374C3.01424 44.919 2.93706 44.8177 2.83107 44.7559C2.76175 44.7144 2.6826 44.6921 2.60188 44.6916H2.59798Z" fill="#FFD020"/>
<path d="M40.7827 4.00701C40.477 4.00726 40.1775 3.92188 39.9179 3.76049C39.6585 3.59915 39.4494 3.36828 39.3145 3.09412C39.1796 2.81995 39.1242 2.51343 39.1546 2.20939C39.1851 1.90534 39.3002 1.61593 39.4868 1.37398C39.6735 1.13202 39.9242 0.947233 40.2106 0.840585C40.497 0.733937 40.8075 0.70968 41.1068 0.7706C41.4061 0.831469 41.6826 0.975085 41.9049 1.18514C42.1267 1.39519 42.2852 1.66323 42.3627 1.95887C42.4169 2.16639 42.43 2.38268 42.4012 2.59531C42.3723 2.80795 42.3014 3.01274 42.193 3.19808C42.0852 3.38337 41.9414 3.54552 41.7702 3.67531C41.5995 3.80505 41.4046 3.89985 41.197 3.95434C41.0617 3.98943 40.9225 4.00711 40.7827 4.00701ZM40.7827 1.90914C40.7427 1.90904 40.7032 1.91425 40.6647 1.92474C40.5908 1.94418 40.5234 1.9815 40.4676 2.03331C40.4119 2.08511 40.3698 2.14983 40.345 2.22179C40.3203 2.2937 40.3136 2.37067 40.3256 2.44577C40.3377 2.52092 40.368 2.59192 40.414 2.65254C40.46 2.71315 40.5204 2.76151 40.5893 2.79337C40.6586 2.82517 40.7341 2.8395 40.8101 2.83504C40.886 2.83059 40.96 2.8075 41.0248 2.76779C41.0896 2.72809 41.1438 2.67299 41.1823 2.60742C41.2137 2.55505 41.2334 2.49702 41.242 2.43671C41.2501 2.3764 41.2461 2.31507 41.2304 2.25633C41.204 2.15733 41.1463 2.06972 41.0653 2.00713C40.9843 1.94449 40.885 1.91041 40.7827 1.9101V1.90914Z" fill="#FFD020"/>
<path d="M45.375 57.1029L45.5239 59.7215C45.5239 59.7215 47.8275 59.4622 51.9612 56.7626C55.4372 54.4939 56.5508 52.049 56.5508 52.049L54.3515 51.1021L45.375 57.1029Z" fill="white"/>
<path d="M45.5231 60.3072C45.3737 60.3072 45.2294 60.25 45.1205 60.1472C45.0116 60.0444 44.9463 59.9036 44.9382 59.7542L44.7939 57.1356C44.7883 57.0339 44.8091 56.9326 44.8541 56.8419C44.8997 56.7508 44.9681 56.6733 45.0521 56.6166L54.025 50.6127C54.1066 50.558 54.2002 50.5251 54.2975 50.516C54.3947 50.5074 54.4929 50.5231 54.5831 50.562L56.7804 51.5121C56.8518 51.5429 56.9161 51.5875 56.9703 51.6437C57.0244 51.6999 57.0665 51.7663 57.0943 51.8387C57.1222 51.9116 57.1353 51.9891 57.1333 52.0671C57.1308 52.1445 57.1131 52.2215 57.0807 52.2919C57.032 52.3983 55.8547 54.9186 52.2785 57.2526C48.0738 59.9968 45.6831 60.2925 45.5828 60.3032C45.5631 60.3057 45.5433 60.3072 45.5231 60.3072ZM45.9819 57.4035L46.0695 59.0022C46.9851 58.7505 48.8977 58.0639 51.6444 56.2712C53.9957 54.7373 55.2151 53.13 55.724 52.3274L54.416 51.7617L45.9819 57.4035Z" fill="#101014"/>
<path d="M71.851 87.2252C71.7649 87.2252 71.6803 87.2065 71.6029 87.1705C71.5249 87.1341 71.456 87.0814 71.4013 87.0156C65.8714 80.3944 59.5526 73.1741 57.9422 71.8884C57.8242 72.2611 57.6495 73.1772 57.6495 75.3577C57.6429 77.045 57.7381 78.6291 57.7391 78.6453C57.7472 78.784 57.7057 78.9207 57.6222 79.0311C57.5391 79.142 57.4186 79.2195 57.2834 79.2499C57.1482 79.2803 57.0069 79.2616 56.8838 79.1977C56.7608 79.1334 56.6651 79.0276 56.6129 78.899C54.5362 73.7484 52.111 68.2038 50.9863 66.2511C50.7513 67.9719 50.5776 71.8397 50.53 75.3724C50.5285 75.5061 50.4809 75.6352 50.3958 75.738C50.3107 75.8413 50.1928 75.9122 50.0621 75.9391C49.9309 75.9654 49.7947 75.9467 49.6762 75.8854C49.5572 75.8241 49.463 75.7238 49.4094 75.6013C49.3339 75.4306 47.5463 71.3825 46.7361 67.6467C46.2484 65.3933 45.4194 59.9657 45.384 59.7353C45.3703 59.6583 45.3723 59.5798 45.3895 59.5033C45.4068 59.4269 45.4392 59.3549 45.4842 59.2916C45.5298 59.2278 45.5875 59.1742 45.6544 59.1336C45.7212 59.0926 45.7952 59.0653 45.8727 59.0536C45.9496 59.042 46.0286 59.046 46.1041 59.0653C46.18 59.0845 46.2509 59.1185 46.3132 59.1656C46.3755 59.2132 46.4282 59.2719 46.4672 59.3398C46.5062 59.4076 46.531 59.4821 46.5411 59.56C46.5497 59.6152 47.3979 65.1816 47.879 67.3991C48.2624 69.1624 48.8862 71.0351 49.4266 72.495C49.4453 71.8808 49.4696 71.2118 49.499 70.5378C49.7213 65.4596 50.0403 64.9881 50.1933 64.7623C50.2611 64.66 50.3558 64.5785 50.4672 64.5268C50.5781 64.4752 50.7017 64.4554 50.8232 64.4696C51.2137 64.5106 51.5499 64.7066 52.6766 66.9616C53.2499 68.1055 53.9786 69.6921 54.8415 71.6711C55.4269 73.0131 55.9946 74.3601 56.4676 75.496C56.4676 75.3283 56.4676 75.1587 56.4676 74.9891C56.5121 71.5005 56.9608 70.7135 57.6703 70.5758C58.1488 70.4831 58.6026 70.3955 65.6116 78.4427C66.8224 79.8313 68.0226 81.2309 69.0653 82.4539C68.2069 80.7483 67.1936 78.7273 66.193 76.7103C64.7173 73.7367 63.5597 71.3541 62.7444 69.6278C62.2567 68.5978 61.8921 67.7906 61.6551 67.2295C61.2951 66.3802 61.0971 65.9128 61.4931 65.5791C61.9367 65.2059 62.5504 65.4252 64.2307 66.5544C65.1964 67.2052 66.4887 68.1532 68.0717 69.3705L68.2733 69.5255C67.6778 68.8429 67.0599 68.1218 66.4457 67.4042C64.6728 65.3279 63.2807 63.6452 62.3114 62.404C61.726 61.6575 61.2905 61.061 61.0085 60.6275C60.6985 60.1535 60.3132 59.5626 60.7051 59.1159C61.2394 58.5067 62.4608 58.646 68.0834 61.0833C66.0233 59.318 63.8489 57.6914 61.5741 56.2137C60.1709 55.3154 56.0873 52.9485 56.0462 52.9247C55.9186 52.8436 55.8275 52.717 55.7915 52.5702C55.7556 52.4238 55.7778 52.2689 55.8533 52.1382C55.9288 52.0076 56.0523 51.9109 56.1971 51.8688C56.342 51.8268 56.4974 51.8425 56.6311 51.9124C56.8003 52.0101 60.778 54.3158 62.2031 55.2283C67.3967 58.5553 71.5416 62.6253 71.5826 62.6663C71.6798 62.7615 71.7401 62.8881 71.7543 63.0233C71.7679 63.159 71.734 63.2953 71.6586 63.4082C71.5831 63.5216 71.4702 63.6047 71.3395 63.6436C71.2094 63.6826 71.0691 63.6751 70.944 63.6219C70.621 63.4846 70.1373 63.2699 69.5783 63.0203C68.2404 62.4232 66.4067 61.6059 64.7604 60.9612C63.3141 60.3946 62.4851 60.15 62.0152 60.0477C63.3531 62.0632 68.6146 68.2321 73.4867 73.6841C73.5849 73.7939 73.6386 73.9373 73.6361 74.0846C73.6335 74.2325 73.5748 74.3738 73.4725 74.4801C73.3707 74.5865 73.2314 74.6503 73.0841 74.6589C72.9367 74.6675 72.7919 74.6199 72.6779 74.5257C68.9291 71.4478 64.7391 68.2235 62.8452 67.0431C64.2758 70.3135 69.1534 80.0743 72.3599 86.3745C72.4055 86.4636 72.4273 86.5633 72.4232 86.6631C72.4192 86.7629 72.3898 86.8601 72.3376 86.9457C72.285 87.0307 72.2121 87.1011 72.125 87.1503C72.0374 87.1994 71.9391 87.2252 71.8394 87.2252H71.851Z" fill="#101014"/>
<path d="M52.0317 84.0673C51.903 84.0668 51.7779 84.0248 51.6762 83.9463C51.5739 83.8678 51.5004 83.7584 51.467 83.6338L50.3894 79.6353C50.3489 79.4854 50.3696 79.3259 50.4471 79.1912C50.5246 79.0565 50.6522 78.9582 50.8021 78.9182C50.952 78.8777 51.112 78.8985 51.2467 78.9759C51.3809 79.0534 51.4792 79.181 51.5197 79.3309L52.5927 83.33C52.616 83.4166 52.6191 83.5072 52.6014 83.5953C52.5841 83.6834 52.5467 83.7665 52.492 83.8379C52.4373 83.9088 52.3674 83.967 52.2869 84.0065C52.2064 84.0465 52.1177 84.0673 52.0276 84.0673H52.0317Z" fill="#101014"/>
<path d="M52.9129 87.2252C52.7853 87.2252 52.6607 87.1837 52.559 87.1067C52.4567 87.0292 52.3827 86.9209 52.3483 86.7978L52.0217 85.6498C51.9796 85.5004 51.9994 85.3404 52.0753 85.2052C52.1513 85.07 52.2784 84.9707 52.4278 84.9287C52.5772 84.8871 52.7372 84.9064 52.8724 84.9823C53.0076 85.0588 53.1074 85.1854 53.1489 85.3348L53.4755 86.4818C53.5181 86.6312 53.4993 86.7912 53.4239 86.9264C53.3484 87.0621 53.2223 87.1624 53.073 87.2044C53.0208 87.2191 52.9671 87.2257 52.9129 87.2252Z" fill="#101014"/>
<path d="M76.4997 77.6888C76.4207 77.6888 76.3427 77.6731 76.2703 77.6422C76.1979 77.6113 76.132 77.5662 76.0774 77.5095L75.3588 76.7621C75.2565 76.6496 75.2023 76.5013 75.2074 76.3493C75.2124 76.1974 75.2767 76.0531 75.3861 75.9478C75.496 75.8419 75.6424 75.7832 75.7943 75.7837C75.9467 75.7847 76.0925 75.8445 76.2014 75.9508L76.921 76.6977C77.0005 76.7808 77.0542 76.8846 77.075 76.9975C77.0957 77.1105 77.0831 77.2269 77.038 77.3328C76.9929 77.4381 76.918 77.5282 76.8223 77.5915C76.7266 77.6548 76.6146 77.6888 76.4997 77.6888Z" fill="#101014"/>
<path d="M79.5232 80.6069C79.4462 80.6069 79.3697 80.5917 79.2983 80.5623C79.2274 80.5324 79.1631 80.4889 79.1084 80.4342L77.5558 78.874C77.4479 78.7636 77.3877 78.6152 77.3887 78.4607C77.3897 78.3063 77.452 78.1584 77.5614 78.0495C77.6708 77.9407 77.8191 77.8794 77.9736 77.8794C78.128 77.8794 78.2759 77.9402 78.3858 78.049L79.9374 79.6093C80.0194 79.6913 80.0751 79.7956 80.0974 79.909C80.1202 80.0225 80.1086 80.1405 80.064 80.2473C80.0194 80.3542 79.9445 80.4453 79.8483 80.5096C79.7521 80.5739 79.6386 80.6079 79.5232 80.6079V80.6069Z" fill="#101014"/>
<path d="M79.2023 64.5859C79.0838 64.5854 78.9683 64.549 78.8706 64.4816L70.3985 58.6383C70.3317 58.5962 70.2744 58.541 70.2299 58.4762C70.1853 58.4114 70.1544 58.3385 70.1387 58.261C70.123 58.184 70.123 58.1045 70.1387 58.0275C70.1544 57.9501 70.1858 57.8771 70.2304 57.8123C70.2749 57.7475 70.3327 57.6923 70.399 57.6503C70.4654 57.6082 70.5398 57.5799 70.6173 57.5672C70.6953 57.5546 70.7748 57.5576 70.8512 57.5763C70.9277 57.5951 70.9996 57.629 71.0624 57.6761L79.535 63.519C79.6378 63.5899 79.7153 63.6916 79.7558 63.8096C79.7968 63.9276 79.7983 64.0557 79.7613 64.1747C79.7244 64.2943 79.6499 64.3981 79.5492 64.472C79.4489 64.5459 79.3274 64.5859 79.2023 64.5859Z" fill="#101014"/>
<path d="M61.8567 87.0053C61.7316 87.0053 61.6095 86.9648 61.5088 86.8904C61.408 86.8159 61.3336 86.7111 61.2971 86.5916L59.6877 81.325C59.6422 81.1766 59.6579 81.0161 59.7308 80.8789C59.8037 80.7416 59.9278 80.6394 60.0762 80.5938C60.225 80.5487 60.3851 80.5639 60.5223 80.6368C60.6595 80.7097 60.7618 80.8343 60.8074 80.9827L62.4167 86.2493C62.4431 86.3369 62.4491 86.429 62.4334 86.5192C62.4178 86.6093 62.3813 86.6949 62.3271 86.7683C62.2724 86.8417 62.2015 86.9015 62.12 86.9425C62.0385 86.9835 61.9483 87.0053 61.8567 87.0053Z" fill="#101014"/>
<path d="M69.4097 57.8399C69.2796 57.8399 69.1535 57.7969 69.0507 57.7168L68.2576 57.1016C68.1969 57.0545 68.1462 56.9957 68.1083 56.9289C68.0703 56.8625 68.0455 56.7886 68.0358 56.7127C68.0262 56.6362 68.0318 56.5587 68.052 56.4848C68.0723 56.4103 68.1072 56.341 68.1543 56.2802C68.2014 56.2199 68.2602 56.1688 68.327 56.1308C68.3939 56.0928 68.4673 56.0685 68.5438 56.0589C68.6197 56.0493 68.6972 56.0543 68.7711 56.0751C68.8456 56.0954 68.9149 56.1298 68.9757 56.1769L69.7687 56.7927C69.865 56.8671 69.9353 56.9704 69.9703 57.0874C70.0052 57.2044 70.0027 57.3289 69.9632 57.4444C69.9237 57.5599 69.8493 57.6601 69.75 57.731C69.6507 57.8019 69.5317 57.8399 69.4097 57.8399Z" fill="#101014"/>
<path d="M59.6298 80.1019C59.5072 80.1019 59.3877 80.0629 59.288 79.9915C59.1882 79.9196 59.1138 79.8183 59.0748 79.7018L58.9932 79.4582C58.9689 79.3853 58.9588 79.3083 58.9644 79.2314C58.9694 79.1549 58.9902 79.08 59.0241 79.0111C59.0586 78.9422 59.1062 78.8809 59.1639 78.8308C59.2221 78.7802 59.2895 78.7417 59.3624 78.7174C59.4353 78.6931 59.5123 78.6829 59.5888 78.6885C59.6652 78.6936 59.7402 78.7143 59.8091 78.7483C59.8779 78.7827 59.9392 78.8303 59.9898 78.888C60.04 78.9463 60.0785 79.0136 60.1028 79.0865L60.1848 79.3301C60.2147 79.4182 60.2228 79.5119 60.2086 79.6041C60.1949 79.6957 60.1595 79.7828 60.1053 79.8583C60.0511 79.9337 59.9797 79.995 59.8972 80.0376C59.8141 80.0796 59.723 80.1019 59.6298 80.1019Z" fill="#101014"/>
<path d="M67.8754 21.884C67.7939 21.8836 67.7129 21.866 67.6384 21.8324C67.5635 21.7988 67.4972 21.7499 67.4425 21.689L66.0448 20.149C65.9901 20.0927 65.9471 20.0259 65.9187 19.9527C65.8898 19.8794 65.8767 19.8012 65.8792 19.7226C65.8812 19.644 65.8995 19.5668 65.9324 19.4954C65.9653 19.424 66.0124 19.36 66.0706 19.3072C66.1289 19.2544 66.1972 19.2138 66.2712 19.188C66.3456 19.1621 66.4241 19.1514 66.5026 19.1566C66.5811 19.1618 66.6576 19.1827 66.7279 19.2182C66.7978 19.2536 66.8601 19.3028 66.9108 19.3629L67.6541 20.1812L68.6654 17.3616C68.6902 17.2878 68.7297 17.2199 68.7814 17.1616C68.8325 17.1033 68.8953 17.0559 68.9652 17.022C69.0356 16.9883 69.1116 16.9687 69.189 16.9647C69.267 16.9606 69.3445 16.9721 69.4179 16.9984C69.4909 17.0247 69.5582 17.0654 69.6154 17.1179C69.6727 17.1706 69.7192 17.2341 69.7517 17.3048C69.7841 17.3755 69.8023 17.4519 69.8048 17.5296C69.8074 17.6074 69.7942 17.6849 69.7663 17.7575L68.4264 21.4939C68.3925 21.5891 68.3342 21.6737 68.2578 21.7397C68.1813 21.8056 68.0886 21.8507 67.9894 21.8704C67.9519 21.8783 67.9139 21.8829 67.8754 21.884Z" fill="#FFD020"/>
<path d="M27.3822 73.241C27.3449 73.241 27.3076 73.2375 27.271 73.2299L25.8822 72.962C25.8067 72.9473 25.7348 72.9179 25.6707 72.8754C25.6065 72.8329 25.5514 72.7782 25.5084 72.7144C25.4215 72.5857 25.3893 72.4277 25.419 72.2753C25.4486 72.1229 25.5376 71.9882 25.6663 71.9016C25.7951 71.8145 25.9531 71.7826 26.1055 71.812L26.8058 71.9487L26.8292 70.0309C26.831 69.877 26.8934 69.7301 27.003 69.6218C27.1126 69.5134 27.2604 69.4526 27.4144 69.4526H27.4212C27.4981 69.4536 27.5741 69.4699 27.6449 69.5002C27.7156 69.5301 27.7796 69.5742 27.8334 69.6294C27.8871 69.6846 27.9294 69.7494 27.9579 69.8208C27.9865 69.8927 28.0006 69.9687 27.9996 70.0456L27.9674 72.6556C27.9653 72.8096 27.9028 72.9564 27.7933 73.0643C27.6837 73.1727 27.5361 73.2329 27.3822 73.2329V73.241Z" fill="#101014"/>
<path d="M16.2081 19.5194C16.1133 19.5193 16.0199 19.4963 15.936 19.4521L13.249 18.0389C13.1792 18.0042 13.1169 17.956 13.0659 17.8969C13.015 17.8379 12.9763 17.7692 12.9523 17.695C12.9283 17.6208 12.9193 17.5426 12.9259 17.4648C12.9326 17.3871 12.9547 17.3115 12.991 17.2425C13.0272 17.1734 13.077 17.1123 13.1372 17.0627C13.1974 17.0132 13.267 16.9762 13.3417 16.9539C13.4165 16.9316 13.4949 16.9244 13.5725 16.9329C13.65 16.9414 13.7251 16.9653 13.7933 17.0031L15.6931 17.9999L15.9282 14.9238C15.934 14.847 15.9549 14.772 15.9897 14.7033C16.0245 14.6345 16.0725 14.5732 16.131 14.523C16.1894 14.4728 16.2572 14.4346 16.3304 14.4106C16.4037 14.3866 16.4809 14.3772 16.5577 14.383C16.6346 14.3888 16.7095 14.4098 16.7783 14.4446C16.8471 14.4793 16.9083 14.5273 16.9585 14.5858C17.0088 14.6442 17.0469 14.712 17.071 14.7853C17.095 14.8585 17.1044 14.9357 17.0985 15.0126L16.7952 18.9771C16.7839 19.1245 16.7173 19.262 16.6087 19.3622C16.5002 19.4624 16.3578 19.5179 16.2101 19.5175L16.2081 19.5194Z" fill="#101014"/>
<path d="M57.1619 35.2403C57.0383 35.2404 56.9178 35.2015 56.818 35.1291C56.7183 35.0567 56.6438 34.9546 56.6054 34.8373C56.5669 34.72 56.5664 34.5936 56.6043 34.4761C56.6418 34.3586 56.7158 34.256 56.8155 34.1831L59.2867 32.3759C59.349 32.3305 59.4194 32.2979 59.4939 32.2797C59.5688 32.2616 59.6463 32.2583 59.7222 32.2701C59.7982 32.282 59.8711 32.3086 59.9365 32.3486C60.0023 32.3886 60.0595 32.4411 60.1046 32.5031C60.1502 32.5652 60.1826 32.6356 60.2008 32.7102C60.219 32.7849 60.2221 32.8625 60.2104 32.9384C60.1988 33.0143 60.1719 33.0872 60.1319 33.1528C60.0919 33.2185 60.0393 33.2756 59.9775 33.321L57.5062 35.1282C57.406 35.2014 57.2855 35.2407 57.1619 35.2403Z" fill="#FFD020"/>
<path d="M50.0669 15.966C49.9717 15.9659 49.878 15.9425 49.794 15.898C49.7099 15.8534 49.6375 15.789 49.5838 15.7103C49.5306 15.6315 49.4967 15.5409 49.4861 15.4463C49.4754 15.3516 49.4881 15.2558 49.523 15.1672L50.8042 11.8951C50.8316 11.8222 50.8726 11.7554 50.9258 11.6987C50.9789 11.642 51.0428 11.5964 51.1142 11.5647C51.1851 11.5329 51.2615 11.5157 51.339 11.5138C51.417 11.512 51.494 11.5256 51.5664 11.554C51.6388 11.5824 51.7051 11.6249 51.7608 11.6791C51.8165 11.7333 51.8606 11.798 51.8915 11.8695C51.9219 11.941 51.9376 12.0179 51.9381 12.0956C51.9386 12.1733 51.9234 12.2504 51.894 12.3223L50.6123 15.5963C50.5688 15.7055 50.4938 15.7992 50.3966 15.8651C50.2994 15.9311 50.1844 15.9662 50.0669 15.966Z" fill="#101014"/>
<path d="M26.5356 17.4382C26.4326 17.4385 26.3314 17.4116 26.2422 17.3602C26.153 17.3088 26.0789 17.2348 26.0274 17.1457L24.6376 14.7377C24.5634 14.6035 24.5447 14.4455 24.5858 14.2978C24.6268 14.15 24.7242 14.0242 24.857 13.9476C24.9898 13.8709 25.1474 13.8494 25.2959 13.8877C25.4444 13.926 25.5719 14.0211 25.651 14.1525L27.0418 16.5605C27.0931 16.6494 27.1201 16.7503 27.1201 16.853C27.1201 16.9556 27.0932 17.0565 27.0419 17.1454C26.9906 17.2344 26.9168 17.3083 26.8279 17.3597C26.7391 17.4111 26.6383 17.4381 26.5356 17.4382Z" fill="#FFD020"/>
<path d="M12.7254 38.8357C12.5702 38.8386 12.4201 38.7798 12.3083 38.6722C12.1965 38.5646 12.132 38.4169 12.129 38.2617C12.126 38.1065 12.1848 37.9565 12.2924 37.8446C12.4001 37.7328 12.5478 37.6683 12.703 37.6653L16.019 37.5356C16.0958 37.5326 16.1725 37.5447 16.2446 37.5714C16.3168 37.598 16.383 37.6386 16.4394 37.6908C16.4959 37.743 16.5416 37.8058 16.5737 37.8757C16.606 37.9455 16.6241 38.021 16.6271 38.0979C16.6301 38.1747 16.6179 38.2514 16.5913 38.3235C16.5647 38.3957 16.5241 38.4619 16.4719 38.5183C16.4196 38.5748 16.3569 38.6205 16.287 38.6526C16.2171 38.6848 16.1416 38.703 16.0648 38.706L12.7488 38.8357H12.7254Z" fill="#FFD020"/>
<path d="M30.5081 58.8578C30.388 58.8578 30.2707 58.8209 30.1726 58.7515C30.1097 58.7074 30.0562 58.6512 30.0149 58.5864C29.9738 58.5216 29.9458 58.4492 29.9325 58.3732C29.9193 58.2978 29.9212 58.2198 29.9379 58.1448C29.9547 58.0699 29.986 57.999 30.0302 57.9362L31.6882 55.5819C31.7321 55.5181 31.7882 55.4634 31.8532 55.4219C31.9183 55.3799 31.991 55.3515 32.0671 55.3378C32.1433 55.3242 32.2214 55.3257 32.2969 55.3424C32.3724 55.3591 32.4439 55.3905 32.5071 55.4351C32.5704 55.4796 32.6242 55.5364 32.6654 55.6022C32.7066 55.6675 32.7344 55.7404 32.7472 55.8169C32.7601 55.8929 32.7577 55.9708 32.7401 56.0463C32.7226 56.1218 32.6902 56.1926 32.645 56.2554L30.9909 58.6122C30.9362 58.6887 30.8637 58.7515 30.7797 58.794C30.6956 58.8371 30.6025 58.8588 30.5081 58.8578Z" fill="#FFD020"/>
</svg>
