<svg width="98" height="70" viewBox="0 0 98 70" fill="none" xmlns="http://www.w3.org/2000/svg">
<path d="M43.2543 33.4576C43.6801 34.3046 44.3569 34.4109 44.9436 34.1273C45.364 33.9243 45.5791 33.7228 45.751 33.516L46.0696 33.9192C45.9111 34.1198 45.6133 34.4051 45.0996 34.6536C44.1058 35.134 43.1726 34.7178 42.6663 33.6707C42.1605 32.6236 42.3356 31.5218 43.276 31.0673C44.3298 30.5581 45.0917 31.4197 45.4003 32.0577C45.4628 32.1866 45.4978 32.2937 45.5224 32.3613L43.2543 33.4576ZM44.7568 32.1745C44.5691 31.7695 44.1075 31.2233 43.4474 31.5423C42.8535 31.8292 42.8777 32.5431 43.0425 33.0031L44.7568 32.1745Z" fill="#334149"/>
<path d="M44.2915 35.2413C44.0388 35.2413 43.7911 35.1921 43.5543 35.0937C43.0401 34.8798 42.6131 34.4465 42.3199 33.8401C41.6881 32.5324 42.013 31.2488 43.1102 30.7184C43.7011 30.4327 44.2957 30.4632 44.8303 30.8059C45.352 31.1408 45.6493 31.675 45.7528 31.8893C45.8153 32.019 45.8545 32.1283 45.88 32.2009L46.0092 32.5591L43.8237 33.615C44.1406 33.9665 44.5042 33.9098 44.7778 33.778C45.151 33.5974 45.3241 33.4265 45.4554 33.2684L45.7615 32.8998L46.5668 33.9198L46.3766 34.1604C46.1969 34.3881 45.8587 34.7196 45.2707 35.0036C44.9438 35.1617 44.6135 35.2413 44.2915 35.2413ZM43.8403 31.8343C43.782 31.8343 43.7094 31.8485 43.6197 31.8919C43.3925 32.0015 43.3332 32.2263 43.3341 32.4327L44.194 32.0174C44.1256 31.9452 44.0472 31.8864 43.9629 31.8564C43.9317 31.8451 43.8916 31.8343 43.8403 31.8343Z" fill="white"/>
<path d="M45.6289 30.0286L46.4496 30.5519C46.6635 30.6874 46.8499 30.8188 47.0505 30.9606L47.0705 30.951C47.0768 30.6912 47.0968 30.4606 47.1135 30.2225L47.2102 29.2646L47.8437 28.9585L47.5538 31.1683L49.5543 32.413L48.887 32.7354L48.0355 32.1824C47.8116 32.0427 47.6114 31.901 47.3975 31.7479L47.3841 31.7542C47.3779 32.014 47.3545 32.255 47.3349 32.5211L47.2457 33.5286L46.5989 33.8413L46.89 31.5156L44.9746 30.3447L45.6289 30.0286Z" fill="#334149"/>
<path d="M46.124 34.5006L46.4727 31.7153L44.1641 30.3042L45.6532 29.5844L46.6566 30.2241C46.6778 30.2374 46.6987 30.2512 46.7195 30.2645L46.7245 30.1949L46.8442 29.0089L48.3204 28.2954L47.9697 30.9701L50.3563 32.4551L48.858 33.1791L47.8234 32.5073C47.7917 32.4877 47.76 32.4676 47.7291 32.4476L47.7212 32.5485L47.6124 33.7808L46.124 34.5006Z" fill="white"/>
<path d="M48.9942 29.8017C48.7794 29.3572 48.5926 29.0048 48.4199 28.6816L48.947 28.4268L49.2615 29.009L49.2748 29.0027C49.3102 28.4635 49.5692 28.029 50.0963 27.7742C50.8766 27.3972 51.8069 27.8234 52.3161 28.8776C52.9191 30.1253 52.51 31.0841 51.7498 31.4515C51.3228 31.6579 50.8524 31.6374 50.4925 31.3868L50.4791 31.3931L51.3907 33.2792L50.8102 33.5599L48.9942 29.8017ZM50.0217 30.4465C50.0667 30.5399 50.1218 30.6191 50.1731 30.6917C50.4912 31.0774 50.9904 31.2079 51.4103 31.0048C52.0308 30.705 52.1276 29.9861 51.7427 29.19C51.4066 28.4944 50.7786 28.0636 50.1585 28.3635C49.7585 28.557 49.5338 29.0457 49.6493 29.5741C49.6672 29.6625 49.6926 29.7655 49.7339 29.8518L50.0217 30.4465Z" fill="#334149"/>
<path d="M50.6275 34.0777L48.6425 29.9705C48.4336 29.5385 48.2551 29.2007 48.0753 28.8642L47.8848 28.5076L49.1095 27.9155L49.1829 28.0518C49.3581 27.7895 49.6066 27.5781 49.9244 27.4242C50.9194 26.943 52.0708 27.4834 52.6625 28.7078C53.3977 30.229 52.7905 31.3771 51.9156 31.7999C51.6792 31.9142 51.4327 31.9738 51.1909 31.9793L51.906 33.4588L50.6275 34.0777ZM50.0703 31.1411L50.0766 31.1544L50.0824 31.1515C50.0787 31.1477 50.0745 31.1444 50.0703 31.1411ZM50.4786 30.4547C50.6838 30.6957 50.9878 30.7766 51.2392 30.6552C51.4265 30.5647 51.5341 30.4221 51.5687 30.2186C51.6087 29.9834 51.5457 29.6782 51.391 29.3587C51.2542 29.076 51.067 28.8567 50.8631 28.7407C50.6788 28.6356 50.5028 28.6265 50.3251 28.7128C50.0753 28.8333 49.9523 29.1536 50.0261 29.4909C50.0336 29.5285 50.0532 29.6248 50.0812 29.6828L50.3689 30.2778C50.3981 30.3379 50.4373 30.3963 50.4786 30.4547Z" fill="white"/>
<path d="M51.4531 25.2133L52.0403 24.9297L54.5011 30.021L53.9143 30.3046L51.4531 25.2133Z" fill="#334149"/>
<path d="M52.2254 24.4063L50.9395 25.0278L53.7381 30.8181L55.024 30.1966L52.2254 24.4063Z" fill="white"/>
<path d="M57.5594 26.3683C58.1799 27.6518 57.6228 28.611 56.8425 28.9879C55.9689 29.4104 54.9622 29.0472 54.4322 27.95C53.8709 26.7882 54.2487 25.7653 55.1424 25.3332C56.0694 24.8858 57.0465 25.307 57.5594 26.3683ZM55.0152 27.6423C55.3826 28.4025 56.0669 28.7794 56.6403 28.5021C57.2004 28.2315 57.3471 27.4617 56.9693 26.6802C56.6849 26.0922 56.0511 25.4784 55.3576 25.8136C54.6641 26.1489 54.6966 26.9825 55.0152 27.6423Z" fill="#334149"/>
<path d="M56.1103 29.548C55.8551 29.548 55.6007 29.4984 55.3576 29.3987C54.8188 29.1777 54.3768 28.7357 54.079 28.1197C53.4552 26.8291 53.8213 25.5397 54.9698 24.9846C56.0911 24.4429 57.298 24.9429 57.9056 26.1998C58.6337 27.7061 57.9506 28.8825 57.0081 29.3378C56.7187 29.478 56.4139 29.548 56.1103 29.548ZM55.7529 26.1068C55.6583 26.1068 55.5819 26.1352 55.5227 26.1639C55.3251 26.2594 55.2158 26.4192 55.1887 26.6519C55.1608 26.89 55.2237 27.1898 55.3614 27.4738C55.6328 28.0351 56.1078 28.327 56.4681 28.1535C56.828 27.9796 56.8918 27.4192 56.6166 26.8495C56.4906 26.5889 56.2975 26.3554 56.0999 26.2252C55.9648 26.136 55.8497 26.1068 55.7529 26.1068Z" fill="white"/>
<path d="M57.9954 25.3868C57.7977 24.9782 57.6213 24.63 57.4453 24.3168L57.9591 24.0686L58.3081 24.7405L58.3348 24.7275C58.2564 24.1904 58.4678 23.7254 58.8611 23.5353C58.9278 23.5032 58.9778 23.4878 59.0383 23.4761L59.3261 24.0712C59.2593 24.0857 59.1955 24.1074 59.1155 24.1462C58.7018 24.346 58.5713 24.8251 58.7201 25.3368C58.7485 25.4294 58.7835 25.5361 58.8356 25.6437L59.7297 27.4936L59.1492 27.7742L57.9954 25.3868Z" fill="#334149"/>
<path d="M58.9701 28.2926L57.6473 25.5553C57.4317 25.1095 57.2657 24.7863 57.1085 24.5065L56.9062 24.1467L58.131 23.5549L58.1765 23.6421C58.3045 23.4469 58.4796 23.2889 58.694 23.1854C58.787 23.1408 58.8687 23.1133 58.9675 23.0945L59.2599 23.0391L59.8908 24.3447L59.4108 24.4502C59.3816 24.4565 59.3466 24.4665 59.2862 24.4957C59.0243 24.622 59.0155 24.9573 59.0943 25.2288C59.1177 25.3051 59.1464 25.3919 59.1865 25.4753L60.2494 27.6746L58.9701 28.2926Z" fill="white"/>
<path d="M60.8129 24.9738C61.2387 25.8208 61.9155 25.9271 62.5022 25.6435C62.9226 25.4404 63.1377 25.239 63.3095 25.0322L63.6282 25.4354C63.4697 25.636 63.1719 25.9217 62.6582 26.1698C61.6644 26.6502 60.7312 26.234 60.2249 25.1873C59.7191 24.1402 59.8942 23.0384 60.8346 22.5839C61.8884 22.0747 62.6503 22.9363 62.9588 23.5743C63.0214 23.7032 63.0564 23.8103 63.081 23.8779L60.8129 24.9738ZM62.3154 23.6907C62.1281 23.2857 61.6665 22.7394 61.006 23.0585C60.4126 23.3454 60.4363 24.0589 60.601 24.5193L62.3154 23.6907Z" fill="#334149"/>
<path d="M61.8443 26.7572C61.5916 26.7572 61.3439 26.708 61.107 26.6096C60.5928 26.3957 60.1658 25.9624 59.8727 25.3561C59.2409 24.0483 59.5657 22.7648 60.6625 22.2343C61.2534 21.9491 61.848 21.9791 62.3827 22.3219C62.9048 22.6568 63.2017 23.1909 63.3051 23.4053C63.3676 23.5346 63.4064 23.6438 63.4323 23.716L63.562 24.0746L61.3764 25.1309C61.6933 25.4824 62.057 25.4261 62.3305 25.2939C62.7042 25.1134 62.8768 24.9424 63.0078 24.7844L63.3138 24.4153L64.1191 25.4353L63.9289 25.6759C63.7488 25.9036 63.411 26.2351 62.8234 26.5191C62.4965 26.6776 62.1658 26.7572 61.8443 26.7572ZM61.3927 23.3502C61.3343 23.3502 61.2617 23.364 61.1721 23.4078C60.9448 23.5175 60.8856 23.7418 60.8864 23.9487L61.7459 23.5333C61.6775 23.4612 61.5995 23.4028 61.5149 23.3723C61.484 23.3611 61.444 23.3502 61.3927 23.3502Z" fill="white"/>
<path d="M24.9492 42.8339L25.42 42.6479L26.9209 46.447L26.4501 46.6329L24.9492 42.8339Z" fill="#FFC74B"/>
<path d="M26.2333 47.1361L24.4473 42.6153L25.6399 42.144L27.426 46.6649L26.2333 47.1361Z" fill="white"/>
<path d="M27.4967 44.8215C27.759 45.4537 28.269 45.5554 28.7398 45.3695C29.0768 45.2364 29.2569 45.0971 29.4041 44.9524L29.6176 45.2581C29.4813 45.3982 29.2315 45.5963 28.8195 45.759C28.0221 46.0738 27.3391 45.7377 27.0301 44.9566C26.7215 44.1755 26.9387 43.3782 27.6931 43.0801C28.5384 42.746 29.0572 43.4011 29.2452 43.8774C29.2832 43.9737 29.3024 44.0529 29.3157 44.103L27.4967 44.8215ZM28.744 43.9391C28.631 43.6376 28.3186 43.2227 27.789 43.432C27.3128 43.6201 27.2778 44.1413 27.3691 44.4825L28.744 43.9391Z" fill="#FFC74B"/>
<path d="M28.2461 46.2651C28.0143 46.2651 27.7912 46.2171 27.5831 46.1216C27.1781 45.9352 26.8637 45.5816 26.6731 45.0995C26.2707 44.0812 26.6414 43.0803 27.5543 42.7196C28.184 42.4707 28.6569 42.6571 28.9421 42.8576C29.2244 43.0557 29.4676 43.3756 29.6098 43.735C29.651 43.8397 29.6736 43.9252 29.6886 43.9823L29.7845 44.3372L29.5226 44.4406L30.1223 45.2993L29.8992 45.529C29.739 45.6938 29.4475 45.9302 28.965 46.1204C28.7215 46.2167 28.4792 46.2651 28.2461 46.2651ZM28.1031 45.0011C28.2157 45.0712 28.3754 45.0983 28.601 45.0086C28.8733 44.901 29.0118 44.7976 29.1356 44.6758L29.277 44.537L28.1031 45.0011ZM28.0693 43.7634C28.0351 43.7634 27.9913 43.7709 27.9354 43.793C27.8737 43.8176 27.8287 43.8543 27.7966 43.8977L28.121 43.7697C28.1064 43.7659 28.0893 43.7634 28.0693 43.7634Z" fill="white"/>
<path d="M29.6468 41.5181L29.9408 42.262L30.6151 41.9955L30.7569 42.3542L30.0826 42.6206L30.6343 44.0172C30.7611 44.3383 30.9241 44.4839 31.186 44.3804C31.309 44.3317 31.3937 44.28 31.4462 44.2408L31.6072 44.5856C31.5309 44.659 31.397 44.7428 31.2152 44.8146C30.9958 44.9013 30.7919 44.9013 30.6289 44.8175C30.44 44.7312 30.3011 44.5201 30.1806 44.2149L29.6226 42.8025L29.2214 42.9609L29.0801 42.6023L29.4812 42.4438L29.236 41.8233L29.6468 41.5181Z" fill="#FFC74B"/>
<path d="M30.8918 45.2668C30.7325 45.2668 30.5812 45.2317 30.4452 45.1617C30.1041 45.0061 29.9206 44.6275 29.8138 44.3568L29.3985 43.3051L28.9969 43.4636L28.5703 42.3831L28.9715 42.2246L28.7596 41.6879L29.8164 40.9048L30.1533 41.758L30.8272 41.4919L31.2542 42.572L30.5799 42.8385L30.989 43.8739C31.0165 43.944 31.0399 43.9865 31.0557 44.0111C31.1374 43.9769 31.1854 43.9457 31.2071 43.929L31.5895 43.6425L32.0695 44.6713L31.8701 44.8635C31.7484 44.9807 31.5691 45.0883 31.3514 45.1742C31.1962 45.2359 31.0407 45.2668 30.8918 45.2668Z" fill="white"/>
<path d="M31.423 40.4312C31.4776 40.9295 31.4734 41.5925 31.4209 41.8982L31.1361 42.0542C31.129 41.6922 31.0485 41.0804 30.9551 40.6722L31.423 40.4312Z" fill="#FFC74B"/>
<path d="M30.7623 42.7018L30.7502 42.0612C30.744 41.728 30.6669 41.1438 30.5789 40.7581L30.5117 40.4641L31.7494 39.8281L31.8107 40.389C31.8679 40.909 31.8653 41.6159 31.8053 41.9641L31.7736 42.1488L30.7623 42.7018Z" fill="white"/>
<path d="M32.7459 43.5903C32.921 43.6266 33.205 43.6253 33.4406 43.5323C33.783 43.3972 33.876 43.1624 33.7917 42.9485C33.7029 42.7237 33.5207 42.6537 33.122 42.6624C32.5912 42.6804 32.2701 42.5102 32.1475 42.2C31.9827 41.7825 32.1846 41.3071 32.7409 41.087C33.0032 40.9835 33.2625 40.9673 33.441 40.9961L33.4585 41.3851C33.3314 41.3609 33.1103 41.3493 32.8697 41.4443C32.5916 41.5544 32.4998 41.7759 32.5757 41.9685C32.6604 42.1825 32.8535 42.2175 33.2413 42.2129C33.7584 42.2066 34.0774 42.3405 34.2296 42.7254C34.4093 43.1804 34.1829 43.6408 33.5674 43.8839C33.2838 43.9961 32.994 44.0298 32.7701 43.9948L32.7459 43.5903Z" fill="#FFC74B"/>
<path d="M32.9531 44.3965C32.8701 44.3965 32.7888 44.3902 32.7108 44.3781L32.4022 44.3297L32.33 43.1075L32.8259 43.2096C32.9485 43.2351 33.1507 43.2297 33.2996 43.1709C33.4126 43.1262 33.4364 43.0845 33.4368 43.0841C33.4268 43.0766 33.423 43.0712 33.423 43.0712C33.423 43.0724 33.3809 43.0487 33.187 43.0491C33.1699 43.0491 33.1516 43.0491 33.1324 43.0499C32.2191 43.0812 31.898 42.6196 31.7883 42.3422C31.6649 42.0299 31.6791 41.6938 31.8284 41.3956C31.9773 41.0983 32.2441 40.8669 32.5999 40.7259C32.8955 40.6091 33.2245 40.5674 33.5039 40.6125L33.8159 40.6625L33.8701 41.8573L33.388 41.7659C33.3321 41.7551 33.1837 41.738 33.0139 41.8051C33.0035 41.8093 32.9948 41.8131 32.9868 41.8172C33.0365 41.8226 33.1145 41.8268 33.2383 41.8247C33.4985 41.8214 34.2875 41.8122 34.5923 42.5829C34.8609 43.263 34.5073 43.9307 33.712 44.2451C33.4585 44.3447 33.1966 44.3965 32.9531 44.3965Z" fill="white"/>
<path d="M30.6154 46.6333C30.6788 46.8247 30.7505 47.0374 30.8752 47.3535L31.469 48.8568C31.7038 49.4507 31.7296 49.861 31.567 50.1854C31.4085 50.5199 31.0745 50.7388 30.748 50.8677C30.4377 50.9903 30.0657 51.0507 29.8022 50.994L29.7784 50.5891C29.9919 50.6287 30.2976 50.6191 30.6183 50.4924C31.0999 50.3022 31.3539 49.911 31.0958 49.2584L30.9815 48.9694L30.9707 48.9736C30.9215 49.2713 30.7192 49.5741 30.318 49.7326C29.6758 49.9861 29.0003 49.6225 28.7167 48.9052C28.3702 48.0278 28.7459 47.3039 29.3397 47.0691C29.7893 46.8914 30.1283 47.0295 30.3251 47.1992L30.336 47.195L30.2029 46.7959L30.6154 46.6333ZM30.532 47.8477C30.5003 47.7676 30.4673 47.7 30.4206 47.6441C30.2271 47.4052 29.9085 47.2713 29.5662 47.4064C29.1166 47.5841 28.9456 48.0908 29.1825 48.69C29.3831 49.1984 29.8072 49.5195 30.3155 49.3189C30.6045 49.2046 30.7947 48.9194 30.778 48.5795C30.773 48.4886 30.748 48.3935 30.7163 48.3135L30.532 47.8477Z" fill="#FFC74B"/>
<path d="M30.0245 51.4029C29.9152 51.4029 29.8122 51.3929 29.7184 51.3729L29.4298 51.3108L29.3593 50.1169L29.4773 50.1385C29.3831 50.1106 29.2909 50.0731 29.2009 50.0259C28.8268 49.8304 28.5257 49.4826 28.3539 49.0468C27.9085 47.9192 28.4548 46.9997 29.1954 46.7073C29.3894 46.6306 29.567 46.5989 29.7263 46.5964L29.7171 46.5693L30.8527 46.1206L30.9815 46.5105C31.047 46.7082 31.1154 46.9104 31.2338 47.2099L31.8276 48.7132C32.1008 49.405 32.1275 49.9279 31.9115 50.3583C31.6884 50.8295 31.2313 51.0918 30.8881 51.2274C30.5991 51.3425 30.2939 51.4029 30.0245 51.4029ZM29.7914 50.1965L29.8464 50.2065C29.916 50.219 30.1667 50.2516 30.4736 50.1306C30.5995 50.081 30.69 50.0193 30.7442 49.9467C30.6567 50.0034 30.5612 50.0522 30.459 50.0927C30.2409 50.179 30.0149 50.2128 29.7914 50.1965ZM29.8372 47.7407C29.7972 47.7407 29.7538 47.7482 29.7071 47.767C29.5941 47.8116 29.522 47.8896 29.4861 48.0047C29.4411 48.1498 29.4611 48.3425 29.542 48.5472C29.6137 48.7282 29.7175 48.8675 29.8343 48.9388C29.9373 49.0018 30.0445 49.0076 30.1713 48.9576C30.3135 48.9013 30.3969 48.7636 30.3889 48.5981C30.3869 48.5597 30.3735 48.5059 30.3539 48.4555L30.17 47.9897C30.1458 47.9279 30.1308 47.9033 30.1225 47.8933C30.0774 47.8387 29.9798 47.7407 29.8372 47.7407Z" fill="white"/>
<path d="M34.2176 46.6809C34.5959 47.6387 34.0975 48.3181 33.4716 48.5654C32.7706 48.8423 32.0275 48.542 31.7039 47.7234C31.3615 46.8564 31.7276 46.1242 32.4449 45.841C33.1884 45.5474 33.9049 45.889 34.2176 46.6809ZM32.1734 47.5195C32.3974 48.0866 32.8928 48.3856 33.3532 48.2038C33.8027 48.0262 33.9724 47.4703 33.7422 46.8873C33.5688 46.4486 33.1296 45.979 32.5733 46.1988C32.017 46.4186 31.9791 47.0274 32.1734 47.5195Z" fill="#FFC74B"/>
<path d="M32.9622 49.0543C32.2674 49.0543 31.639 48.6169 31.3425 47.8667C30.9388 46.8446 31.3333 45.8634 32.3016 45.4805C32.762 45.2983 33.2441 45.3066 33.6586 45.5035C34.0698 45.6986 34.3875 46.0564 34.5781 46.5385C35.0493 47.7312 34.4084 48.6123 33.6136 48.9267C33.3955 49.0131 33.1757 49.0543 32.9622 49.0543ZM32.855 46.531C32.8104 46.531 32.7645 46.5406 32.7157 46.5598C32.5798 46.6136 32.5018 46.7032 32.4701 46.8429C32.4359 46.993 32.4597 47.1878 32.5343 47.3771C32.659 47.6924 32.9313 47.9538 33.2107 47.8433C33.4572 47.7458 33.5289 47.4038 33.3813 47.0302C33.3129 46.8567 33.1982 46.7003 33.0748 46.6111C33.0001 46.5573 32.9288 46.531 32.855 46.531Z" fill="white"/>
<path d="M88.078 48.3744C88.078 48.3744 85.5159 28.5975 83.4892 15.8268C81.4633 3.05662 71.6285 6.19215 71.6285 6.19215C71.6285 6.19215 19.8132 14.394 8.50673 16.2309C0.706063 17.4986 -0.177174 22.213 0.024661 25.0141C20.3182 45.4453 49.3295 53.9474 78.3758 59.4766C78.8257 59.3648 79.2394 59.2576 79.6072 59.1538C90.5639 56.0587 88.078 48.3744 88.078 48.3744Z" fill="#FF703F"/>
<path d="M0.0253906 25.0142C0.115883 26.2731 0.425311 27.1464 0.425311 27.1464C0.425311 27.1464 4.71389 48.7473 7.07669 59.7998C9.43907 70.8515 19.3924 68.6301 19.3924 68.6301C19.3924 68.6301 65.3999 62.6701 78.3765 59.4771C49.3307 53.9474 20.319 45.4454 0.0253906 25.0142Z" fill="#F95C38"/>
<path d="M50.2049 1.79947C46.5694 -1.82564 35.3463 0.651424 31.6498 3.73733C28.6232 5.5259 30.4885 12.7181 30.4885 12.7181L30.7608 12.6827L34.5072 12.0793C33.305 9.2169 34.7245 7.342 34.7245 7.342C38.4205 9.28362 39.2975 5.99713 39.2975 5.99713C41.9063 8.16435 43.8296 5.0455 43.8296 5.0455C46.6336 7.28904 48.1769 4.10973 48.1769 4.10973C49.3141 4.98587 50.3663 9.56135 50.3663 9.56135L52.6586 9.19772C52.6223 8.16852 52.5035 3.73608 50.2049 1.79947Z" fill="#334149"/>
<path d="M22.9878 13.9122C22.9878 13.9122 23.0395 10.5323 21.0132 10.702C18.9865 10.8713 18.3247 11.5156 16.5261 11.2829C14.728 11.0502 10.8197 11.157 11.8781 15.6882L22.9878 13.9122Z" fill="#334149"/>
<path d="M60.1376 8.07608C60.1376 8.07608 58.8966 5.15531 60.8557 4.60944C62.8149 4.06273 63.6589 4.43721 65.2648 3.59359C66.8699 2.75081 70.5713 1.49059 71.1551 6.10819L60.1376 8.07608Z" fill="#334149"/>
<path d="M33.0678 66.7687L23.5586 13.8325L24.6495 13.6353L34.1654 66.6261L33.0678 66.7687Z" fill="#334149"/>
<path d="M31.1961 67.0551C30.9058 67.093 30.6335 66.8954 30.5806 66.6043L30.1873 64.4242C30.1331 64.1226 30.3341 63.8341 30.6344 63.7799C30.935 63.719 31.224 63.9254 31.2778 64.2261L31.6706 66.4071C31.7253 66.7086 31.5247 66.9967 31.2232 67.0509C31.2148 67.0526 31.2052 67.0538 31.1961 67.0551ZM30.4117 62.6935C30.1206 62.7311 29.8479 62.5338 29.7953 62.2427L29.4025 60.0614C29.3483 59.7607 29.5484 59.4725 29.8499 59.4183C30.1369 59.357 30.4388 59.5643 30.493 59.8649L30.8858 62.0459C30.94 62.347 30.7399 62.6352 30.4388 62.6894C30.4292 62.6915 30.4204 62.6923 30.4117 62.6935ZM29.6256 58.332C29.3349 58.3699 29.0626 58.1723 29.0097 57.8804L28.6173 55.7002C28.5626 55.3991 28.7632 55.111 29.0635 55.0568C29.3733 54.9892 29.6531 55.2023 29.7073 55.5042L30.1002 57.6848C30.1548 57.9854 29.9538 58.2732 29.6531 58.3278C29.6439 58.3299 29.6348 58.3312 29.6256 58.332ZM28.8404 53.9709C28.5497 54.0088 28.2766 53.8116 28.2244 53.5201L27.8316 51.3391C27.7774 51.038 27.978 50.7494 28.2791 50.6956C28.5751 50.6268 28.8679 50.8416 28.9221 51.1418L29.3153 53.3237C29.3691 53.6239 29.1685 53.9121 28.8675 53.9667C28.8587 53.9684 28.8491 53.9696 28.8404 53.9709ZM28.0551 49.6093C27.764 49.6473 27.4913 49.45 27.4388 49.1585L27.0459 46.9775C26.9922 46.6764 27.1919 46.3879 27.4938 46.3332C27.777 46.2632 28.0822 46.4792 28.1369 46.7803L28.5297 48.9613C28.5843 49.2619 28.3837 49.5505 28.0826 49.6047C28.0731 49.6072 28.0639 49.6081 28.0551 49.6093ZM27.2695 45.2477C26.9792 45.2857 26.7065 45.0885 26.6535 44.7965L26.2611 42.616C26.2065 42.3149 26.4071 42.0272 26.7077 41.9725C27.0163 41.9137 27.2974 42.1181 27.3516 42.42L27.7436 44.5997C27.7982 44.9016 27.5977 45.1898 27.2966 45.2436C27.2878 45.2457 27.2786 45.2465 27.2695 45.2477ZM26.4842 40.8862C26.1932 40.9242 25.9204 40.7273 25.8679 40.435L25.4751 38.2548C25.4213 37.9538 25.6214 37.6652 25.9229 37.611C26.2173 37.5509 26.5109 37.7569 26.5664 38.0584L26.9592 40.2394C27.013 40.5401 26.8128 40.8282 26.5122 40.8824C26.5022 40.8841 26.4934 40.8854 26.4842 40.8862ZM25.699 36.5251C25.4079 36.5626 25.1352 36.3658 25.0831 36.0747L24.6898 33.8937C24.6352 33.593 24.8354 33.3045 25.136 33.2503C25.4367 33.186 25.7257 33.3958 25.7803 33.6965L26.1736 35.8774C26.2278 36.1785 26.028 36.4667 25.7265 36.5209C25.7173 36.5226 25.7077 36.5238 25.699 36.5251ZM24.9129 32.1635C24.6218 32.201 24.3499 32.0046 24.297 31.7131L23.9037 29.5317C23.85 29.2311 24.0505 28.9429 24.3516 28.8887C24.6389 28.8232 24.9409 29.0347 24.9951 29.3353L25.3875 31.5163C25.4417 31.8174 25.2415 32.106 24.9404 32.1598C24.9313 32.161 24.9221 32.1623 24.9129 32.1635ZM24.1277 27.8024C23.8366 27.8399 23.5639 27.6431 23.5113 27.3508L23.1189 25.1706C23.0647 24.8699 23.2649 24.5818 23.5655 24.5276C23.875 24.4558 24.1552 24.6735 24.209 24.9746L24.6022 27.1552C24.6565 27.4563 24.4555 27.744 24.1544 27.7986C24.1456 27.7999 24.1364 27.8011 24.1277 27.8024ZM23.342 23.4408C23.0518 23.4784 22.7795 23.2815 22.7269 22.9896L22.3337 20.8091C22.2795 20.5084 22.4805 20.2202 22.7816 20.1656C23.0781 20.0926 23.37 20.312 23.4246 20.6118L23.817 22.7928C23.8712 23.0939 23.671 23.382 23.3704 23.4362C23.3604 23.4383 23.3512 23.44 23.342 23.4408ZM22.5568 19.0797C22.2661 19.1172 21.9938 18.9204 21.9409 18.6285L21.548 16.4475C21.4934 16.1464 21.694 15.8587 21.9951 15.804C22.2982 15.7452 22.5847 15.9496 22.6385 16.2507L23.0313 18.4312C23.0856 18.7327 22.885 19.0213 22.5835 19.0751C22.5747 19.0772 22.566 19.0784 22.5568 19.0797Z" fill="#334149"/>
<path d="M38.5712 65.8341C38.2801 65.872 38.0074 65.6756 37.9553 65.3858L37.5645 63.2156C37.5103 62.9166 37.7109 62.6297 38.0116 62.5755C38.3272 62.513 38.6 62.7198 38.655 63.0192L39.0462 65.1885C39.1004 65.4884 38.8994 65.7753 38.5983 65.8295C38.5891 65.832 38.5795 65.8332 38.5712 65.8341ZM37.7885 61.4955C37.4978 61.533 37.2255 61.3362 37.1734 61.0472L36.7818 58.877C36.7276 58.5772 36.9286 58.2903 37.2292 58.2365C37.5141 58.1756 37.8185 58.3812 37.8723 58.6802L38.2639 60.8503C38.3176 61.1502 38.1171 61.4375 37.8168 61.4913C37.8068 61.4934 37.7976 61.4942 37.7885 61.4955ZM37.0061 57.156C36.7151 57.1935 36.4428 56.998 36.3906 56.7077L35.9995 54.5376C35.9453 54.2386 36.1458 53.9513 36.4465 53.897C36.7543 53.8299 37.0357 54.0413 37.09 54.342L37.4807 56.5117C37.5349 56.8103 37.3343 57.0976 37.0328 57.1518C37.0241 57.1535 37.0149 57.1548 37.0061 57.156ZM36.2238 52.817C35.9332 52.8545 35.6604 52.6585 35.6079 52.3687L35.2171 50.1994C35.1634 49.8995 35.3635 49.6126 35.6654 49.5584C35.9586 49.49 36.253 49.7035 36.3076 50.0025L36.6996 52.1727C36.7534 52.4713 36.5524 52.7586 36.2518 52.8124C36.2418 52.8145 36.233 52.8157 36.2238 52.817ZM35.4411 48.478C35.1504 48.5155 34.8773 48.3191 34.8256 48.0297L34.434 45.8599C34.3798 45.5597 34.5808 45.2732 34.8815 45.2186C35.1634 45.1493 35.4707 45.3641 35.5249 45.6631L35.9156 47.8324C35.9703 48.1322 35.7693 48.4196 35.4686 48.4734C35.4594 48.4759 35.4503 48.4767 35.4411 48.478ZM34.6588 44.1381C34.3681 44.176 34.0954 43.98 34.0428 43.6894L33.6517 41.5197C33.5975 41.2207 33.798 40.9342 34.0991 40.8799C34.4048 40.8216 34.688 41.0242 34.7426 41.3249L35.1333 43.4938C35.1875 43.7932 34.9865 44.0805 34.6855 44.1347C34.6767 44.136 34.6675 44.1373 34.6588 44.1381ZM33.876 39.7986C33.5854 39.8366 33.3131 39.6406 33.2605 39.3495L32.8694 37.1815C32.8151 36.8812 33.0157 36.5947 33.3164 36.5401C33.6091 36.4805 33.9052 36.6852 33.9599 36.985L34.351 39.1548C34.4056 39.4538 34.2046 39.7407 33.904 39.7945C33.8948 39.7961 33.8852 39.7974 33.876 39.7986ZM33.0937 35.46C32.8026 35.4975 32.5307 35.3011 32.4782 35.0117L32.0866 32.8416C32.0328 32.5417 32.2326 32.2548 32.5337 32.2006C32.8322 32.1377 33.1225 32.3453 33.1775 32.6448L33.5691 34.8141C33.6233 35.1139 33.4236 35.4008 33.1221 35.455C33.1116 35.4575 33.1029 35.4583 33.0937 35.46ZM32.3101 31.1206C32.0199 31.1581 31.7472 30.9625 31.695 30.6723L31.3035 28.5017C31.2488 28.2031 31.4503 27.9162 31.7509 27.862C32.0357 27.797 32.3397 28.0067 32.394 28.3057L32.7847 30.4759C32.8393 30.7757 32.6383 31.0626 32.3385 31.1168C32.3285 31.1181 32.3193 31.1189 32.3101 31.1206ZM31.5282 26.7815C31.2376 26.8191 30.9644 26.6235 30.9123 26.3324L30.5212 24.1631C30.4674 23.8637 30.6675 23.5764 30.9686 23.5226C31.2764 23.4517 31.5583 23.6681 31.6121 23.9667L32.0032 26.1364C32.057 26.4363 31.8568 26.7232 31.5549 26.7769C31.5462 26.779 31.5374 26.7803 31.5282 26.7815ZM30.7455 22.4421C30.4544 22.4796 30.1825 22.284 30.13 21.9938L29.7388 19.8241C29.6846 19.5242 29.8852 19.2373 30.1867 19.184C30.4799 19.1114 30.7743 19.3282 30.8289 19.6277L31.2205 21.7974C31.2747 22.0968 31.0737 22.3841 30.7734 22.4379C30.7634 22.4396 30.7547 22.4408 30.7455 22.4421ZM29.9628 18.1026C29.6721 18.1406 29.3998 17.9446 29.3473 17.6543L28.9561 15.4846C28.9019 15.1852 29.1029 14.8991 29.4031 14.8445C29.7051 14.7861 29.9928 14.9888 30.0466 15.2882L30.4382 17.4579C30.4924 17.7578 30.2914 18.0447 29.9899 18.0989C29.9811 18.1006 29.9719 18.1018 29.9628 18.1026Z" fill="#334149"/>
<path d="M35.7184 66.425L26.168 13.4947L27.2589 13.2979L36.7493 66.282L35.7184 66.425Z" fill="#334149"/>
<path d="M64.8601 62.058L56.0898 8.5834L57.192 8.40283L65.9627 61.8766L64.8601 62.058Z" fill="#334149"/>
<path d="M62.9434 61.9489C62.6457 61.9868 62.3704 61.7875 62.3216 61.4939L61.9655 59.3254C61.9159 59.0264 62.1223 58.7429 62.4272 58.6928C62.7466 58.6653 63.0185 58.8454 63.0677 59.1453L63.4246 61.3142C63.4739 61.6128 63.2666 61.8967 62.9626 61.946C62.9563 61.9468 62.9497 61.948 62.9434 61.9489ZM62.2291 57.6123C61.9317 57.6507 61.6561 57.451 61.6077 57.1574L61.2512 54.9885C61.2016 54.6886 61.4084 54.4059 61.7128 54.3559C62.031 54.3292 62.3041 54.5093 62.3538 54.8079L62.7107 56.9772C62.7595 57.2766 62.5527 57.5594 62.2483 57.6094C62.242 57.6098 62.2357 57.6115 62.2291 57.6123ZM61.5156 53.275C61.2178 53.3133 60.9426 53.1128 60.8942 52.82L60.5364 50.6511C60.4872 50.3521 60.694 50.069 60.9989 50.0189C61.3146 49.9922 61.5902 50.1715 61.639 50.4714L61.9964 52.6386C62.0456 52.9384 61.8392 53.2224 61.5343 53.2716C61.5285 53.2725 61.5222 53.2737 61.5156 53.275ZM60.8016 48.938C60.5043 48.9768 60.2286 48.7766 60.1799 48.4835L59.8233 46.3146C59.7741 46.0148 59.9805 45.7312 60.2854 45.682C60.5985 45.6565 60.8767 45.8342 60.9255 46.1336L61.2829 48.3025C61.3321 48.6019 61.1248 48.8855 60.8212 48.9351C60.8146 48.9359 60.8079 48.9372 60.8016 48.938ZM60.0877 44.6002C59.79 44.639 59.5147 44.4389 59.4659 44.1453L59.1094 41.9772C59.0602 41.6778 59.267 41.3942 59.571 41.345C59.8821 41.3196 60.1623 41.4972 60.212 41.7967L60.5689 43.9647C60.6181 44.2645 60.4109 44.5477 60.1069 44.5977C60.1006 44.5982 60.094 44.5998 60.0877 44.6002ZM59.3746 40.2637C59.0769 40.3017 58.8012 40.1015 58.7533 39.8083L58.3963 37.6394C58.3471 37.3404 58.5535 37.0573 58.8579 37.0072C59.1665 36.9839 59.4497 37.1607 59.4989 37.4593L59.8558 39.6282C59.9046 39.928 59.6978 40.2108 59.3938 40.2608C59.3867 40.2616 59.3804 40.2629 59.3746 40.2637ZM58.6603 35.9268C58.3633 35.9651 58.0873 35.7654 58.0389 35.4718L57.6819 33.3029C57.6336 33.0039 57.8392 32.7208 58.1444 32.6711C58.4505 32.6486 58.7353 32.8242 58.7841 33.1232L59.1415 35.2912C59.1907 35.5906 58.9839 35.8742 58.6794 35.9243C58.6732 35.9247 58.6665 35.9259 58.6603 35.9268ZM57.9463 31.5898C57.6494 31.6286 57.3734 31.4272 57.325 31.1349L56.968 28.966C56.9188 28.6665 57.1252 28.3834 57.4297 28.3338C57.7337 28.3117 58.021 28.4872 58.0698 28.7858L58.4276 30.9539C58.4764 31.2537 58.2699 31.5364 57.9655 31.5865C57.9593 31.5873 57.9534 31.5886 57.9463 31.5898ZM57.2328 27.2529C56.9355 27.2912 56.6598 27.0906 56.6111 26.7971L56.2545 24.6286C56.2053 24.3292 56.4117 24.046 56.7166 23.9968C57.0185 23.9764 57.3075 24.149 57.3575 24.4484L57.7141 26.6169C57.7633 26.9163 57.556 27.1999 57.2524 27.2491C57.2453 27.2504 57.2395 27.252 57.2328 27.2529ZM56.5185 22.9151C56.2212 22.9535 55.9455 22.7533 55.8971 22.4601L55.5406 20.2921C55.4914 19.9922 55.6978 19.7091 56.0022 19.6599C56.3279 19.6357 56.5935 19.8125 56.6428 20.1115L56.9993 22.2804C57.0485 22.5794 56.8417 22.8625 56.5372 22.9126C56.531 22.913 56.5252 22.9143 56.5185 22.9151ZM55.805 18.5781C55.5085 18.6165 55.232 18.4163 55.1836 18.1232L54.8262 15.9543C54.777 15.6549 54.9835 15.3721 55.2883 15.3225C55.6115 15.3004 55.8796 15.4751 55.9284 15.7741L56.2862 17.9422C56.3354 18.2416 56.129 18.5252 55.8246 18.5744C55.8179 18.5756 55.8116 18.5769 55.805 18.5781ZM55.0906 14.2416C54.7941 14.2796 54.5181 14.079 54.4693 13.7862L54.1127 11.6178C54.0635 11.3179 54.2699 11.0352 54.5748 10.9851C54.8959 10.9639 55.1661 11.1378 55.2157 11.4376L55.5719 13.6061C55.6211 13.9051 55.4146 14.1887 55.1102 14.2387C55.104 14.2395 55.0973 14.2404 55.0906 14.2416Z" fill="#334149"/>
<path d="M70.2972 60.5817C70.0003 60.6196 69.7242 60.422 69.6767 60.1313L69.3226 57.9816C69.2742 57.6847 69.4807 57.4036 69.7851 57.354C70.1074 57.3169 70.376 57.5045 70.4248 57.801L70.7792 59.9507C70.8284 60.2481 70.6212 60.5291 70.3172 60.5779C70.3105 60.5792 70.3034 60.5809 70.2972 60.5817ZM69.5883 56.2827C69.2909 56.3211 69.0153 56.1234 68.9669 55.8327L68.6129 53.6826C68.5641 53.3861 68.7709 53.105 69.0757 53.0554C69.3952 53.0187 69.6666 53.2064 69.7154 53.5025L70.0699 55.6522C70.1187 55.9495 69.9119 56.2306 69.6074 56.2793C69.6008 56.2806 69.5941 56.2814 69.5883 56.2827ZM68.8802 51.9833C68.5828 52.022 68.3072 51.824 68.2588 51.5337L67.9043 49.3844C67.856 49.0879 68.0624 48.8065 68.3672 48.7573C68.685 48.7214 68.9581 48.9078 69.0069 49.2043L69.3622 51.3532C69.411 51.6505 69.2038 51.9311 68.8998 51.9812C68.8927 51.9816 68.8856 51.9824 68.8802 51.9833ZM68.1704 47.6851C67.8735 47.7231 67.5974 47.525 67.5499 47.2347L67.1954 45.085C67.1466 44.7877 67.3531 44.507 67.6575 44.4578C67.9732 44.4236 68.2484 44.608 68.2972 44.9053L68.652 47.0546C68.7013 47.3515 68.494 47.6326 68.1896 47.6822C68.1829 47.683 68.1771 47.6843 68.1704 47.6851ZM67.4619 43.3861C67.1641 43.4241 66.8889 43.2256 66.8405 42.9349L66.4865 40.786C66.4377 40.4895 66.6445 40.2085 66.949 40.1588C67.2621 40.1255 67.5399 40.309 67.5891 40.6063L67.9431 42.7552C67.9915 43.0521 67.7847 43.3336 67.4802 43.3824C67.474 43.3832 67.4677 43.3853 67.4619 43.3861ZM66.7526 39.0867C66.4556 39.1255 66.1796 38.9266 66.132 38.6363L65.778 36.4866C65.7296 36.1901 65.936 35.909 66.2409 35.8594C66.5516 35.8269 66.8318 36.0108 66.8806 36.3069L67.235 38.4566C67.2842 38.7535 67.077 39.0342 66.7722 39.0838C66.7655 39.0842 66.7588 39.0863 66.7526 39.0867ZM66.044 34.7881C65.7467 34.8269 65.4715 34.6288 65.4235 34.3377L65.0686 32.188C65.0199 31.8915 65.2267 31.6105 65.5311 31.5613C65.8401 31.5291 66.1224 31.7114 66.1708 32.0083L66.5261 34.158C66.5745 34.4545 66.3681 34.7356 66.0632 34.7848C66.0566 34.786 66.0507 34.7873 66.044 34.7881ZM65.3347 30.4887C65.0382 30.5271 64.7621 30.3294 64.7142 30.0383L64.3601 27.8894C64.3118 27.5921 64.5182 27.3115 64.823 27.2623C65.1295 27.2306 65.4135 27.4128 65.4627 27.7093L65.8176 29.859C65.8664 30.1555 65.6591 30.4366 65.3551 30.4858C65.3476 30.4866 65.3414 30.4879 65.3347 30.4887ZM64.6258 26.1901C64.3289 26.2285 64.0528 26.0304 64.0048 25.7397L63.6508 23.5904C63.6016 23.2935 63.8089 23.012 64.1129 22.9633C64.4173 22.9332 64.7042 23.1134 64.753 23.4107L65.107 25.56C65.1562 25.8569 64.9486 26.1376 64.6445 26.1872C64.6383 26.188 64.632 26.1897 64.6258 26.1901ZM63.9173 21.8911C63.6199 21.9299 63.3443 21.731 63.2959 21.4412L62.9415 19.2919C62.8927 18.9945 63.0995 18.7143 63.4043 18.6647C63.7067 18.6355 63.9953 18.8148 64.044 19.1121L64.3993 21.2606C64.4481 21.5571 64.2413 21.8386 63.9369 21.8878C63.9298 21.8886 63.9235 21.8899 63.9173 21.8911ZM63.2079 17.5921C62.911 17.6305 62.6354 17.432 62.587 17.1417L62.2325 14.992C62.1837 14.6947 62.3906 14.4141 62.6954 14.364C62.9957 14.3373 63.2867 14.515 63.3351 14.8119L63.69 16.9616C63.7392 17.2585 63.532 17.5392 63.228 17.5888C63.2209 17.5904 63.2146 17.5913 63.2079 17.5921ZM62.499 13.2931C62.2017 13.3319 61.9264 13.1338 61.8781 12.8427L61.524 10.6934C61.4752 10.3961 61.6817 10.1159 61.9861 10.0658C62.3089 10.0358 62.5774 10.2168 62.6266 10.5133L62.9807 12.6634C63.0286 12.9595 62.8226 13.241 62.5178 13.2906C62.5119 13.2919 62.5057 13.2927 62.499 13.2931ZM61.7897 8.99412C61.4928 9.03248 61.2171 8.83482 61.1687 8.54374L61.0795 7.99745C61.0303 7.70054 61.2375 7.41989 61.5424 7.37026C61.8318 7.33857 62.1325 7.5208 62.1821 7.81855L62.2721 8.36484C62.3205 8.66092 62.1133 8.94241 61.8093 8.99161C61.8026 8.99203 61.7963 8.99328 61.7897 8.99412Z" fill="#334149"/>
<path d="M67.4718 61.7586L58.7012 8.28492L59.8033 8.10352L68.574 61.5777L67.4718 61.7586Z" fill="#334149"/>
<path d="M14.2256 33.9166L13.5059 20.123L33.2844 20.4792L32.6593 34.5563L14.2256 33.9166Z" fill="#B8E8D7"/>
<path d="M31.8305 34.1395L15.021 33.557L14.3613 20.9189L32.4034 21.2438L31.8305 34.1395ZM15.2225 33.3522L31.6286 33.9206L32.1824 21.4519L14.5848 21.135L15.2225 33.3522Z" fill="#FFC74B"/>
<path d="M29.6001 33.2252C29.5705 33.2252 29.5413 33.2118 29.5221 33.1864C28.553 31.8949 27.4671 29.9845 26.417 28.1372C24.9475 25.5513 23.4279 22.8778 22.7023 22.8778C22.6989 22.8778 22.696 22.8778 22.6931 22.8778C22.6535 22.879 22.533 22.8828 22.422 23.1105C20.7594 26.0692 17.289 32.0838 17.254 32.1442C17.2269 32.1905 17.1677 32.2068 17.1209 32.1797C17.0742 32.153 17.0584 32.0934 17.0855 32.0467C17.1205 31.9862 20.5905 25.9724 22.2498 23.02C22.3549 22.804 22.5029 22.6889 22.6868 22.683C22.6914 22.683 22.696 22.6826 22.7002 22.6826C23.5413 22.6826 24.9529 25.1664 26.5859 28.04C27.633 29.8824 28.7156 31.7873 29.6772 33.0688C29.7094 33.1117 29.7006 33.1726 29.6576 33.2047C29.641 33.2189 29.6205 33.2252 29.6001 33.2252Z" fill="#334149"/>
<path d="M23.589 30.3225C23.5172 30.3225 23.4434 30.3159 23.3671 30.3029C22.7674 30.1995 22.3183 29.2862 22.071 28.6357C22.0518 29.0181 21.9689 29.4756 21.7145 29.7833C21.5372 29.9977 21.2991 30.1136 21.0068 30.1274C20.7241 30.1411 20.4793 30.0498 20.2795 29.8571C19.6878 29.2858 19.6965 28.0081 19.6974 27.9539C19.6982 27.9001 19.7449 27.8626 19.7958 27.858C19.8496 27.8588 19.8925 27.9026 19.8917 27.9564C19.8917 27.9689 19.8834 29.2049 20.4151 29.7174C20.5769 29.8734 20.7666 29.9422 20.9976 29.933C21.2362 29.9218 21.4217 29.8321 21.5648 29.6591C22.0106 29.1194 21.8542 27.9802 21.8525 27.9689C21.845 27.918 21.8788 27.8701 21.9292 27.8601C21.9793 27.8492 22.0293 27.8805 22.0427 27.9301C22.1953 28.4981 22.7362 29.9968 23.4005 30.1115C23.6878 30.1607 23.9251 30.1032 24.1265 29.9343C24.7599 29.4018 24.7691 27.9697 24.7695 27.9551C24.7695 27.9034 24.8104 27.8605 24.8621 27.8584C24.9121 27.8546 24.9584 27.8947 24.9634 27.946C24.9647 27.9585 25.094 29.1962 25.8683 29.6791C26.2608 29.9239 26.7595 29.936 27.35 29.7149C27.4 29.6958 27.4563 29.7216 27.4751 29.7721C27.4939 29.8225 27.4684 29.8784 27.418 29.8972C26.767 30.1407 26.2107 30.1228 25.7645 29.8438C25.2933 29.5498 25.041 29.0265 24.9084 28.6065C24.8342 29.0965 24.6598 29.74 24.2512 30.0836C24.0614 30.242 23.8392 30.3225 23.589 30.3225Z" fill="#334149"/>
<path d="M52.1065 46.6507L44.1641 30.9931L80.3763 26.2871L52.1065 46.6507Z" fill="#75AFD3"/>
<path d="M52.2341 45.0721L46.0898 31.5596L77.7287 27.3398L52.2341 45.0721Z" fill="#FFC74B"/>
<path d="M82.2292 48.4344C82.7396 52.3785 79.6491 56.0299 75.3255 56.59C71.0023 57.15 67.0841 54.4065 66.5728 50.4624C66.062 46.5187 69.1525 42.8673 73.4756 42.3068C77.7988 41.7472 81.7179 44.4907 82.2292 48.4344Z" fill="#FFC74B"/>
<path d="M77.8407 45.005C77.5842 45.4308 78.0317 45.4758 77.5183 46.3274C77.0058 47.1793 76.4241 47.2039 76.4124 47.7469C76.4007 48.2903 76.7181 48.8199 77.279 48.9558C77.8399 49.0926 78.1151 49.1126 78.5175 48.9041C78.9208 48.6956 79.4796 48.1293 80.0367 48.3299C80.4395 48.4746 80.8995 48.7519 81.2093 49.0588C81.0329 46.9241 79.7239 45.1105 77.8536 44.103C77.9212 44.4629 77.9483 44.8257 77.8407 45.005Z" fill="#75AFD3"/>
<path d="M72.0331 54.4755C72.2629 54.2424 72.609 53.4938 72.5619 53.1765C72.5143 52.8592 72.3546 52.3229 72.0977 51.9184C71.8413 51.5143 70.7616 51.9421 70.3246 52.1523C69.8959 52.3583 69.9697 52.8195 68.6523 53.0426C69.2979 53.968 70.197 54.7224 71.2558 55.2261C71.3942 54.9054 71.8467 54.664 72.0331 54.4755Z" fill="#B8E8D7"/>
<path d="M76.6696 51.44C76.1967 50.7891 76.7688 49.7186 76.7688 49.7186C76.7688 49.7186 76.7638 49.5835 76.2459 49.5084C75.7288 49.4329 75.4711 49.8295 74.4081 49.8095C73.3451 49.7903 73.5115 49.6877 72.9853 49.39C72.459 49.093 72.1792 48.1464 72.3285 47.6293C72.4782 47.1126 72.3572 46.671 71.7751 46.6948C71.1934 46.7194 70.5566 47.0651 69.6879 46.782C68.8205 46.4992 69.1738 45.538 69.1754 45.5347C68.1158 46.7052 67.5032 48.2286 67.5716 49.8704C67.6208 51.043 68.0119 52.1252 68.6508 53.0422C69.9682 52.8187 69.8944 52.3578 70.323 52.1518C70.7601 51.9417 71.8393 51.5138 72.0962 51.9179C72.3531 52.3224 72.5128 52.8587 72.5603 53.176C72.6074 53.4934 72.2613 54.2419 72.0316 54.475C71.8451 54.6635 71.3927 54.9054 71.2542 55.2257C72.2718 55.7102 73.4352 55.9638 74.6629 55.9133C76.9315 55.8182 78.8969 54.7077 80.0728 53.0789C79.4323 52.9638 79.0487 52.8253 78.612 52.7953C78.0274 52.7561 77.1425 52.0906 76.6696 51.44Z" fill="#75AFD3"/>
<path d="M81.2098 49.0588C80.9 48.7518 80.44 48.4745 80.0372 48.3298C79.4801 48.1292 78.9213 48.6955 78.518 48.904C78.1156 49.1121 77.8404 49.0925 77.2795 48.9557C76.719 48.8198 76.4017 48.2902 76.4129 47.7468C76.4246 47.2035 77.0063 47.1793 77.5189 46.3273C78.0318 45.4762 77.5847 45.4307 77.8412 45.005C77.9484 44.8256 77.9213 44.4628 77.8537 44.1025C76.7661 43.5162 75.4897 43.2018 74.1356 43.2585C72.136 43.3419 70.3712 44.2135 69.1761 45.535C69.1744 45.5383 68.8212 46.4995 69.6886 46.7823C70.5572 47.0654 71.194 46.7197 71.7757 46.6951C72.3579 46.6713 72.4788 47.113 72.3291 47.6296C72.1798 48.1472 72.4592 49.0938 72.9859 49.3903C73.5126 49.688 73.3458 49.7906 74.4088 49.8098C75.4721 49.8298 75.7299 49.4332 76.2465 49.5087C76.7645 49.5838 76.7695 49.7189 76.7695 49.7189C76.7695 49.7189 76.1973 50.7894 76.6702 51.4403C77.1431 52.0913 78.028 52.7564 78.6123 52.7956C79.0493 52.8256 79.4325 52.9641 80.0731 53.0792C80.8516 51.9999 81.2845 50.693 81.2261 49.301C81.2232 49.2193 81.2165 49.1392 81.2098 49.0588Z" fill="#B8E8D7"/>
<path d="M83.4625 29.1569C83.4112 29.1569 83.3662 29.1193 83.3578 29.0672L82.0267 20.4913C82.0175 20.4337 82.0572 20.3795 82.1151 20.3704C82.1731 20.3616 82.2269 20.4008 82.2361 20.4588L83.5672 29.0347C83.5763 29.0922 83.5367 29.1464 83.4788 29.1556C83.4733 29.1564 83.4679 29.1569 83.4625 29.1569Z" fill="white"/>
<path d="M81.8889 19.0296C81.8376 19.0296 81.7926 18.992 81.7843 18.9399L81.2884 15.7473C81.2793 15.6893 81.3189 15.6355 81.3768 15.6263C81.4356 15.6171 81.4886 15.6568 81.4978 15.7147L81.9936 18.907C82.0028 18.9649 81.9632 19.0187 81.9052 19.0279C81.8998 19.0292 81.8944 19.0296 81.8889 19.0296Z" fill="white"/>
<path d="M2.00564 29.3788C1.95685 29.3788 1.91306 29.345 1.90222 29.2958C0.0890431 21.0568 4.99104 19.7524 5.04067 19.7403C5.09697 19.7266 5.15452 19.7612 5.1687 19.8179C5.18287 19.8746 5.14785 19.9321 5.09155 19.9459C5.04359 19.9576 0.342174 21.2228 2.10906 29.2503C2.12157 29.3075 2.08571 29.3638 2.02858 29.3763C2.02065 29.3779 2.01315 29.3788 2.00564 29.3788Z" fill="white"/>
<path d="M77.7684 45.1754C77.512 45.6012 77.9594 45.6467 77.4461 46.4978C76.9336 47.3498 76.3518 47.3739 76.3402 47.9173C76.3285 48.4607 76.6458 48.9899 77.2067 49.1262C77.768 49.263 78.0428 49.283 78.4452 49.0745C78.8485 48.8656 79.4073 48.2997 79.9644 48.5003C80.3673 48.645 80.8272 48.9223 81.1371 49.2292C80.9607 47.0945 79.6517 45.2809 77.7814 44.2734C77.8485 44.6333 77.8756 44.9961 77.7684 45.1754Z" fill="#75AFD3"/>
<path d="M71.9589 54.6455C72.1886 54.4124 72.5348 53.6639 72.4876 53.3465C72.4401 53.0292 72.2804 52.4929 72.0235 52.0884C71.7666 51.6843 70.687 52.1117 70.2504 52.3223C69.8217 52.5283 69.8955 52.9891 68.5781 53.2122C69.2237 54.138 70.1228 54.8924 71.1816 55.3961C71.32 55.0759 71.7725 54.8344 71.9589 54.6455Z" fill="#B8E8D7"/>
<path d="M76.5977 51.6106C76.1248 50.9592 76.697 49.8895 76.697 49.8895C76.697 49.8895 76.692 49.7544 76.1741 49.6794C75.657 49.6043 75.3992 50.0005 74.3363 49.9809C73.2733 49.9617 73.4397 49.8591 72.913 49.5613C72.3867 49.2644 72.1069 48.3178 72.2562 47.8007C72.4059 47.2836 72.285 46.842 71.7028 46.8662C71.1211 46.8908 70.4843 47.2365 69.6157 46.9533C68.7483 46.6702 69.1015 45.7094 69.1032 45.7061C68.0435 46.8766 67.4309 48.4 67.4993 50.0417C67.5485 51.2144 67.9397 52.2965 68.5785 53.2131C69.8959 52.99 69.8221 52.5292 70.2508 52.3232C70.6878 52.1126 71.767 51.6852 72.0239 52.0893C72.2808 52.4938 72.4405 53.0301 72.4881 53.3474C72.5352 53.6648 72.1891 54.4133 71.9593 54.6464C71.7729 54.8353 71.3204 55.0768 71.182 55.3975C72.1995 55.882 73.363 56.1352 74.5906 56.0847C76.8592 55.9896 78.8246 54.8795 80.0006 53.2503C79.36 53.1356 78.9764 52.9971 78.5398 52.9671C77.9555 52.9266 77.0706 52.2611 76.5977 51.6106Z" fill="#75AFD3"/>
<path d="M81.136 49.2297C80.8262 48.9228 80.3662 48.6455 79.9634 48.5008C79.4063 48.3002 78.8475 48.8661 78.4442 49.075C78.0418 49.2831 77.767 49.2631 77.2057 49.1267C76.6452 48.9904 76.3279 48.4607 76.3391 47.9178C76.3508 47.3744 76.9325 47.3507 77.4451 46.4983C77.958 45.6472 77.5109 45.6017 77.7674 45.1759C77.8746 44.9966 77.8475 44.6338 77.7799 44.2739C76.6923 43.6872 75.4159 43.3732 74.0614 43.4299C72.0618 43.5133 70.297 44.3849 69.1018 45.7064C69.1002 45.7097 68.747 46.6705 69.6144 46.9537C70.483 47.2364 71.1198 46.8911 71.7015 46.8665C72.2837 46.8423 72.4046 47.2844 72.2549 47.801C72.1056 48.3186 72.385 49.2648 72.9117 49.5617C73.4384 49.8594 73.2716 49.962 74.335 49.9812C75.3983 50.0008 75.6561 49.6046 76.1727 49.6797C76.6907 49.7552 76.6957 49.8899 76.6957 49.8899C76.6957 49.8899 76.1235 50.9599 76.5964 51.6109C77.0693 52.2614 77.9542 52.927 78.5385 52.9662C78.9755 52.9962 79.3587 53.1346 79.9993 53.2493C80.7778 52.1701 81.2107 50.8636 81.1523 49.4712C81.1494 49.3907 81.1427 49.3102 81.136 49.2297Z" fill="#B8E8D7"/>
<path d="M36.5412 60.4225L47.4986 55.9221L41.5604 41.7261L29.2422 45.9784L36.0633 59.478L36.5412 60.4225Z" fill="#75AFD3"/>
<path d="M36.0622 59.5754C36.0242 59.5754 35.9884 59.5533 35.9725 59.5161C35.9517 59.4665 35.9746 59.4098 36.0242 59.3885L46.9988 54.7313C47.0484 54.7105 47.1052 54.7334 47.1264 54.783C47.1473 54.8327 47.1243 54.8894 47.0747 54.9106L36.1001 59.5679C36.0876 59.5729 36.0747 59.5754 36.0622 59.5754Z" fill="#334149"/>
<path d="M30.2769 47.96C30.2381 47.96 30.2014 47.9367 30.1864 47.8983C30.1668 47.8482 30.1914 47.7919 30.2415 47.7723L42.1443 43.1151C42.1944 43.0955 42.2506 43.1201 42.2702 43.1702C42.2898 43.2202 42.2652 43.2765 42.2152 43.2961L30.3124 47.9533C30.3007 47.9579 30.2886 47.96 30.2769 47.96Z" fill="#334149"/>
<path d="M23.5932 56.0888C24.1866 55.8765 24.6465 55.8748 24.7079 55.0896C24.7333 54.7727 24.6132 54.1684 24.2821 53.9461C24.0231 53.7714 23.6178 53.816 23.3492 53.7906C23.9176 53.7401 24.6778 53.4124 24.5056 52.7089C24.2954 51.8494 23.6566 51.703 23.0185 51.379C23.8555 51.3027 24.6899 50.8281 24.1449 49.8014C23.6958 48.9507 23.0928 48.8456 22.3584 48.8477C23.2812 48.8456 24.3817 47.5504 22.9631 46.8965C22.496 46.6813 21.9902 46.6868 21.5494 46.3636C20.9873 45.9541 20.7395 45.1642 20.039 44.9624C18.8613 44.625 19.7258 46.3907 19.8109 46.9428C19.476 46.2535 17.9985 44.8089 17.2266 45.0779C16.3655 45.3765 17.0269 46.9657 17.0152 47.6638C16.4647 47.0929 15.8188 44.9094 14.7875 45.6592C14.1449 46.1234 14.3138 47.2668 14.5786 48.017C14.3755 47.9453 14.2646 47.6009 14.1257 47.4094C13.8288 46.9949 13.3659 46.409 12.8655 46.2802C11.5623 45.947 12.0998 47.9049 12.2846 48.6451C11.7854 48.3853 11.1666 47.0262 10.4868 47.4879C10.1174 47.7381 10.2967 48.5337 10.6507 49.0145C10.0106 49.2351 10.2871 50.3235 10.7971 50.781C10.4585 50.9428 10.2179 51.4916 10.1949 51.8002C10.1636 52.2627 10.6061 52.9461 11.1107 53.2193C10.6628 53.5225 10.9047 54.4065 11.0327 54.8894C11.0802 55.07 11.1737 55.2931 11.305 55.4436C11.2487 55.4424 11.1962 55.4482 11.1507 55.4645C10.8901 55.5575 10.7016 56.2906 10.838 56.5896C10.9652 56.8698 11.3876 57.1959 11.7183 57.2706C11.5127 57.3961 11.2316 57.5596 11.1832 57.736C11.1149 57.9904 11.3609 58.4983 11.5069 58.7731C11.8284 59.3736 12.4635 59.4003 12.9255 59.7689C13.3697 60.1242 13.4827 60.7022 14.0431 60.9495C14.4731 61.1417 14.843 61.2147 14.9697 60.8152C15.0544 60.5487 14.9668 60.1976 14.8392 59.8711C15.2546 60.5237 16.162 61.1976 16.7608 61.233C17.8446 61.2956 17.0665 59.7185 16.9927 59.0475C17.5481 59.7451 18.0911 60.5879 19.0085 60.133C19.5511 59.8661 19.2658 59.3811 19.2033 58.8811C19.5506 59.5521 20.0523 60.1192 20.7692 60.04C21.9189 59.9182 21.5444 59.0225 21.4364 58.1388C21.7108 59.1275 23.2245 59.6184 23.7304 58.9549C24.011 58.5871 24.0448 57.7193 23.3646 57.5016C23.8909 57.5683 24.7616 57.8936 25.0394 57.4299C25.5089 56.6371 24.0786 56.1138 23.5932 56.0888Z" fill="#FFC74B"/>
<path d="M13.4104 59.5706L11.0664 48.5409L22.1156 46.3491L23.6123 57.0172L13.4104 59.5706Z" fill="#B8E8D7"/>
<path d="M17.1387 56.6317C16.9594 56.6317 16.7675 56.6021 16.5653 56.5299C14.9518 56.0199 14.205 54.5404 14.0561 53.4286C13.9293 52.4828 14.2008 51.67 14.7638 51.3077C15.9614 50.5349 17.0161 51.3489 17.3046 51.6096C17.4285 51.2409 17.9485 50.0145 19.3726 50.1037C20.0419 50.1455 20.6762 50.723 21.0282 51.6104C21.441 52.6525 21.5123 54.3081 20.3526 55.5424C19.662 56.336 18.6741 56.1146 18.4652 56.0562C18.3426 56.178 17.8401 56.6317 17.1387 56.6317ZM15.8213 51.1054C15.5177 51.1054 15.1829 51.1888 14.833 51.4144C14.3121 51.7501 14.0628 52.5149 14.1829 53.4111C14.3267 54.4857 15.0473 55.9157 16.6061 56.4082C17.6382 56.7776 18.3914 55.9486 18.3989 55.9403C18.416 55.9211 18.4431 55.914 18.4677 55.9223C18.4781 55.9261 19.5419 56.2789 20.2584 55.4557C21.3785 54.263 21.3088 52.6642 20.9097 51.6567C20.5765 50.8156 19.9844 50.2689 19.3651 50.2305C17.8067 50.1338 17.4022 51.7259 17.398 51.7418C17.3926 51.7647 17.3747 51.7826 17.3522 51.7885C17.3292 51.7943 17.3051 51.7872 17.2892 51.7701C17.255 51.7343 16.6549 51.1054 15.8213 51.1054Z" fill="#334149"/>
<path d="M17.3327 51.7276C17.3327 51.7276 16.7402 50.4711 16.2769 49.6104C15.8136 48.7501 16.5404 49.0629 16.7302 49.4207C16.9187 49.7781 17.2327 50.7968 17.3327 51.7276Z" fill="#334149"/>
<path d="M17.3371 51.7277C17.3371 51.7277 16.9272 50.1597 17.9059 49.234C18.3688 48.842 18.8672 48.7915 18.8672 48.7915C18.8672 48.7915 19.4122 50.4204 17.3371 51.7277Z" fill="#334149"/>
<path d="M83.9574 43L74 62.3809L82.1603 66.5734L92.1177 47.1926L83.9574 43Z" fill="#FFE8B7"/>
<path d="M83.9574 43L74 62.3809L75.53 63.1669L85.4874 43.7861L83.9574 43Z" fill="#186E7C"/>
<path d="M81.9746 61.0831L81.3644 60.3242L81.4959 60.0683C81.5183 60.0249 81.501 59.9716 81.4579 59.9493L81.3568 59.8975C81.3134 59.8751 81.2601 59.8924 81.2378 59.9358L81.1655 60.0767L80.885 59.7279C81.0507 59.4409 81.1797 59.2142 81.2248 59.1261C81.3982 58.7885 81.3921 58.3586 81.2342 58.2773C81.0761 58.1961 80.723 58.4416 80.5497 58.7792C80.5045 58.8672 80.3951 59.104 80.2583 59.4058L79.8116 59.381L79.8839 59.2401C79.9063 59.1967 79.889 59.1434 79.8458 59.121L79.7448 59.0693C79.7014 59.0469 79.6481 59.0642 79.6258 59.1073L79.4943 59.3632L78.5219 59.3089C78.4676 59.3058 78.4168 59.335 78.392 59.3832L78.2963 59.5698C78.2826 59.5965 78.2968 59.6289 78.3257 59.6371L79.6397 60.0028L79.9243 60.149C79.693 60.6663 79.4603 61.1907 79.3418 61.4585L78.8646 61.4057C78.7301 61.3907 78.6006 61.4605 78.5387 61.5806L78.527 61.6032C78.5153 61.626 78.5267 61.6537 78.5511 61.6618L79.2715 61.8978C79.2628 61.96 79.2555 62.0537 79.2859 62.0694C79.3164 62.0852 79.3882 62.0245 79.4336 61.9811L80.0451 62.4293C80.0657 62.4446 80.0951 62.4375 80.1068 62.4149L80.1184 62.3923C80.1801 62.272 80.1613 62.126 80.071 62.0255L79.7502 61.6684C79.8986 61.4161 80.1898 60.9216 80.4756 60.4325L80.7601 60.5787L81.8226 61.4341C81.8459 61.4529 81.8807 61.4455 81.8944 61.4189L81.9901 61.2323C82.0145 61.1836 82.0086 61.1252 81.9746 61.0831Z" fill="#186E7C"/>
<path d="M81.1231 49.3962C81.1084 49.4251 81.0729 49.4365 81.0439 49.4216L80.8523 49.3231C80.8233 49.3084 80.8119 49.2728 80.8269 49.2439C80.8416 49.215 80.8772 49.2035 80.9061 49.2185L81.0977 49.317C81.1267 49.332 81.1381 49.3675 81.1231 49.3962Z" fill="#C6AB9D"/>
<path d="M88.2788 53.0729C88.2641 53.1019 88.2285 53.1133 88.1996 53.0983L87.8021 52.894C87.7732 52.8793 87.7617 52.8437 87.7767 52.8148C87.7914 52.7859 87.827 52.7744 87.8559 52.7894L88.2534 52.9937C88.2823 53.0087 88.2937 53.044 88.2788 53.0729ZM87.4838 52.6645C87.4691 52.6935 87.4336 52.7049 87.4046 52.6899L87.0071 52.4856C86.9782 52.4709 86.9668 52.4353 86.9817 52.4064C86.9965 52.3775 87.032 52.366 87.0609 52.381L87.4584 52.5853C87.4874 52.6001 87.4988 52.6356 87.4838 52.6645ZM86.6888 52.2559C86.6741 52.2848 86.6386 52.2962 86.6097 52.2813L86.2122 52.0769C86.1832 52.0622 86.1718 52.0267 86.1868 51.9977C86.2015 51.9688 86.237 51.9574 86.266 51.9724L86.6635 52.1767C86.6924 52.1917 86.7038 52.2272 86.6888 52.2559ZM85.8939 51.8475C85.8792 51.8764 85.8436 51.8878 85.8147 51.8729L85.4172 51.6685C85.3883 51.6538 85.3768 51.6183 85.3918 51.5893C85.4065 51.5604 85.4421 51.549 85.471 51.564L85.8685 51.7683C85.8974 51.7833 85.9086 51.8185 85.8939 51.8475ZM85.0989 51.4391C85.0842 51.468 85.0487 51.4794 85.0197 51.4645L84.6222 51.2601C84.5933 51.2454 84.5819 51.2099 84.5969 51.1809C84.6116 51.152 84.6471 51.1406 84.6761 51.1556L85.0735 51.3599C85.1022 51.3749 85.1136 51.4101 85.0989 51.4391ZM84.3039 51.0307C84.2892 51.0596 84.2537 51.071 84.2248 51.0561L83.8273 50.8517C83.7983 50.837 83.7869 50.8015 83.8019 50.7726C83.8166 50.7436 83.8522 50.7322 83.8811 50.7472L84.2786 50.9515C84.3072 50.9662 84.3187 51.0018 84.3039 51.0307ZM83.509 50.622C83.4943 50.651 83.4587 50.6624 83.4298 50.6474L83.0323 50.4431C83.0034 50.4284 82.992 50.3928 83.0069 50.3639C83.0217 50.335 83.0572 50.3235 83.0861 50.3385L83.4836 50.5428C83.5123 50.5578 83.5237 50.5934 83.509 50.622ZM82.7138 50.2136C82.699 50.2426 82.6635 50.254 82.6346 50.239L82.2371 50.0347C82.2082 50.02 82.1967 49.9844 82.2117 49.9555C82.2264 49.9266 82.262 49.9151 82.2909 49.9301L82.6884 50.1344C82.7173 50.1494 82.7287 50.1847 82.7138 50.2136ZM81.9188 49.8052C81.9041 49.8342 81.8686 49.8456 81.8396 49.8306L81.4421 49.6263C81.4132 49.6116 81.4018 49.576 81.4167 49.5471C81.4315 49.5182 81.467 49.5068 81.4959 49.5217L81.8934 49.7261C81.9224 49.7408 81.9338 49.7763 81.9188 49.8052Z" fill="#C6AB9D"/>
<path d="M88.8692 53.3757C88.8545 53.4046 88.8189 53.416 88.79 53.4011L88.5984 53.3026C88.5694 53.2878 88.558 53.2523 88.573 53.2234C88.5877 53.1944 88.6232 53.183 88.6522 53.198L88.8438 53.2965C88.8725 53.3112 88.8839 53.3467 88.8692 53.3757Z" fill="#C6AB9D"/>
<path d="M87.0722 47.2075L86.4668 47.1417L86.4118 46.9707C86.4024 46.9417 86.3714 46.9257 86.3422 46.9349L86.2747 46.9567C86.2458 46.9661 86.2298 46.9971 86.2389 47.0262L86.2691 47.1204L85.9909 47.0902C85.9374 46.8899 85.894 46.7328 85.8752 46.6739C85.8026 46.448 85.6099 46.2607 85.5041 46.2945C85.3983 46.3285 85.3508 46.593 85.4234 46.8189C85.4424 46.8778 85.4988 47.0308 85.5716 47.2247L85.363 47.4113L85.3328 47.3171C85.3234 47.2882 85.2924 47.2722 85.2632 47.2813L85.1957 47.3032C85.1668 47.3126 85.1508 47.3435 85.1599 47.3727L85.215 47.5438L84.7612 47.9496C84.7358 47.9722 84.7261 48.0078 84.7366 48.04L84.7767 48.1649C84.7825 48.1826 84.8031 48.1908 84.8193 48.1816L85.562 47.7623L85.7523 47.7011C85.8787 48.0321 86.0079 48.3667 86.0737 48.5375L85.8394 48.7251C85.7734 48.7779 85.7468 48.8659 85.7726 48.9464L85.7775 48.9616C85.7823 48.9768 85.7998 48.9842 85.814 48.9768L86.2369 48.7629C86.2605 48.7941 86.2988 48.8388 86.3191 48.8324C86.3394 48.8258 86.3445 48.7674 86.3455 48.7281L86.8141 48.656C86.8298 48.6535 86.8397 48.6375 86.8349 48.6223L86.8301 48.607C86.8042 48.5266 86.7313 48.4705 86.6468 48.4659L86.347 48.4499C86.3014 48.2728 86.2112 47.9255 86.1214 47.5829L86.3118 47.5217L87.1595 47.4301C87.1781 47.428 87.1902 47.4095 87.1844 47.3917L87.1443 47.2669C87.1344 47.2344 87.106 47.211 87.0722 47.2075Z" fill="#186E7C"/>
<path d="M87.3559 51.0626L87.3105 51.1509L88.7932 51.9126L88.8385 51.8243L87.3559 51.0626Z" fill="#083C4D"/>
<path d="M87.4873 50.8066L87.3984 50.9794L88.881 51.7412L88.9698 51.5683L88.9782 51.5521L89.0153 51.48L87.5327 50.7183L87.4956 50.7903L87.4873 50.8066Z" fill="#083C4D"/>
<path d="M87.6254 50.5494L87.5801 50.6377L89.0627 51.3995L89.108 51.3112L87.6254 50.5494Z" fill="#083C4D"/>
<path d="M87.7055 50.3678L87.6602 50.4561L89.1428 51.2178L89.1881 51.1295L87.7055 50.3678Z" fill="#083C4D"/>
<path d="M87.9316 49.9414L87.8882 50.0261L87.8427 50.1142L87.7539 50.2873L89.2365 51.049L89.3253 50.8759L89.3705 50.7878L89.4141 50.7031L89.4408 50.651L89.4596 50.6147L87.977 49.853L87.9582 49.8893L87.9316 49.9414Z" fill="#083C4D"/>
<path d="M88.0629 49.6754L88.0176 49.7637L89.5002 50.5254L89.5455 50.4371L88.0629 49.6754Z" fill="#083C4D"/>
<path d="M88.1567 49.5089L88.1113 49.5972L89.5938 50.3591L89.6392 50.2708L88.1567 49.5089Z" fill="#083C4D"/>
<path d="M88.3788 49.0764L88.3352 49.1611L88.29 49.2495L88.2012 49.4223L89.6837 50.184L89.7726 50.0112L89.8178 49.9228L89.8614 49.8381L89.8716 49.818L89.9066 49.75L88.4243 48.9883L88.389 49.0563L88.3788 49.0764Z" fill="#083C4D"/>
<path d="M88.5082 48.8116L88.4629 48.8999L89.9455 49.6616L89.9908 49.5734L88.5082 48.8116Z" fill="#083C4D"/>
<path d="M88.6457 48.5578L88.5566 48.7309L90.0392 49.4926L90.128 49.3195L90.1547 49.2682L90.1735 49.2314L88.6909 48.4697L88.6721 48.5065L88.6457 48.5578Z" fill="#083C4D"/>
<path d="M88.8213 48.2116L88.7324 48.3847L90.215 49.1464L90.3038 48.9733L90.3196 48.9426L90.349 48.8852L88.8667 48.1235L88.837 48.1809L88.8213 48.2116Z" fill="#083C4D"/>
<path d="M88.9516 47.9498L88.9062 48.0381L90.3889 48.7997L90.4343 48.7114L88.9516 47.9498Z" fill="#083C4D"/>
<path d="M89.1779 47.5197L89.1343 47.6045L89.0888 47.6928L89 47.8657L90.4826 48.6274L90.5714 48.4545L90.6168 48.3662L90.6602 48.2814L90.6711 48.2601L90.7057 48.1934L89.2231 47.4316L89.1888 47.4986L89.1779 47.5197Z" fill="#083C4D"/>
<path d="M89.311 47.2555L89.2656 47.3438L90.7482 48.1055L90.7936 48.0172L89.311 47.2555Z" fill="#083C4D"/>
<path d="M89.3989 47.0836L89.3535 47.1719L90.8361 47.9336L90.8815 47.8453L89.3989 47.0836Z" fill="#083C4D"/>
<path d="M89.4848 46.9088L89.4395 46.9971L90.9221 47.7588L90.9674 47.6705L89.4848 46.9088Z" fill="#083C4D"/>
<path d="M91.0768 47.7259L88.8984 51.9658L88.9648 51.9999L91.1432 47.76L91.0768 47.7259Z" fill="#083C4D"/>
<path d="M91.1048 47.4534L76.7305 63.8286L83.6252 69.8809L97.9996 53.5057L91.1048 47.4534Z" fill="#FFE8B7"/>
<path d="M91.1048 47.4534L76.7305 63.8286L78.0232 64.9634L92.3975 48.5882L91.1048 47.4534Z" fill="#FFB742"/>
<path d="M84.7775 64.5069L84.3704 63.6223L84.56 63.4063C84.5922 63.3698 84.5884 63.314 84.5519 63.2817L84.4666 63.2068C84.43 63.1746 84.3742 63.1784 84.342 63.215L84.2377 63.334L84.0506 62.9276C84.2813 62.6896 84.4613 62.501 84.5268 62.4266C84.7773 62.1413 84.8758 61.7228 84.7423 61.6057C84.6087 61.4885 84.2064 61.6405 83.9562 61.9258C83.8909 62.0002 83.7272 62.2032 83.5211 62.4629L83.0939 62.3302L83.1983 62.2111C83.2305 62.1746 83.2269 62.1187 83.1901 62.0865L83.1049 62.0116C83.0683 61.9794 83.0125 61.9829 82.9802 62.0197L82.7906 62.2357L81.8606 61.9466C81.8089 61.9304 81.7523 61.9464 81.7165 61.9872L81.5781 62.1449C81.5583 62.1675 81.5642 62.2022 81.5903 62.2172L82.7759 62.8916L83.0163 63.1025C82.666 63.548 82.3129 64 82.1327 64.2308L81.6827 64.0632C81.556 64.016 81.4134 64.0521 81.3241 64.1536L81.3073 64.1726C81.2903 64.1919 81.2946 64.2216 81.3164 64.2353L81.9578 64.6397C81.9342 64.698 81.9043 64.7869 81.9299 64.8095C81.9556 64.8321 82.0401 64.7907 82.0947 64.76L82.5787 65.3435C82.5949 65.3633 82.6251 65.3636 82.6421 65.3445L82.6589 65.3255C82.748 65.224 82.7652 65.0778 82.702 64.9582L82.4777 64.5338C82.6833 64.3254 83.0858 63.9165 83.482 63.5117L83.7224 63.7226L84.5448 64.8107C84.5628 64.8346 84.5983 64.8359 84.6181 64.8135L84.7565 64.6559C84.7917 64.6143 84.8004 64.5562 84.7775 64.5069Z" fill="#FFB742"/>
<path d="M86.8001 52.9664C86.7788 52.9908 86.7415 52.9933 86.7171 52.9717L86.5552 52.8296C86.5308 52.8083 86.5283 52.7709 86.5498 52.7466C86.5712 52.7222 86.6085 52.7197 86.6328 52.7413L86.7948 52.8834C86.8192 52.905 86.8214 52.942 86.8001 52.9664Z" fill="#C6AB9D"/>
<path d="M92.8476 58.273C92.8263 58.2973 92.789 58.2999 92.7646 58.2783L92.4288 57.9834C92.4044 57.962 92.4019 57.9247 92.4235 57.9004C92.4448 57.876 92.4821 57.8734 92.5065 57.895L92.8423 58.19C92.8666 58.2115 92.8689 58.2486 92.8476 58.273ZM92.1757 57.6833C92.1544 57.7077 92.1171 57.7102 92.0927 57.6887L91.7569 57.3937C91.7326 57.3724 91.73 57.3351 91.7516 57.3107C91.7729 57.2864 91.8102 57.2838 91.8346 57.3054L92.1704 57.6003C92.1948 57.6219 92.1973 57.659 92.1757 57.6833ZM91.5041 57.0937C91.4828 57.1181 91.4455 57.1206 91.4211 57.099L91.0853 56.8041C91.061 56.7828 91.0584 56.7455 91.08 56.7211C91.1013 56.6967 91.1386 56.6942 91.163 56.7158L91.4988 57.0107C91.5232 57.0323 91.5255 57.0693 91.5041 57.0937ZM90.8325 56.5041C90.8112 56.5285 90.7739 56.531 90.7495 56.5094L90.4137 56.2145C90.3894 56.1932 90.3868 56.1558 90.4084 56.1315C90.43 56.1071 90.467 56.1046 90.4914 56.1261L90.8272 56.4211C90.8516 56.4427 90.8538 56.4797 90.8325 56.5041ZM90.1607 55.9145C90.1393 55.9388 90.102 55.9414 90.0777 55.9198L89.7419 55.6249C89.7175 55.6035 89.715 55.5662 89.7365 55.5419C89.7578 55.5175 89.7952 55.515 89.8195 55.5365L90.1553 55.8315C90.1797 55.8528 90.1822 55.8901 90.1607 55.9145ZM89.4891 55.3248C89.4677 55.3492 89.4304 55.3517 89.4061 55.3302L89.0702 55.0352C89.0459 55.0139 89.0433 54.9766 89.0649 54.9522C89.0862 54.9279 89.1236 54.9253 89.1479 54.9469L89.4837 55.2418C89.5081 55.2632 89.5104 55.3005 89.4891 55.3248ZM88.8174 54.735C88.7961 54.7593 88.7588 54.7619 88.7344 54.7403L88.3986 54.4454C88.3743 54.424 88.3717 54.3867 88.3933 54.3624C88.4146 54.338 88.4519 54.3354 88.4763 54.357L88.8121 54.652C88.8365 54.6735 88.8388 54.7106 88.8174 54.735ZM88.1456 54.1453C88.1243 54.1697 88.087 54.1722 88.0626 54.1507L87.7268 53.8557C87.7024 53.8344 87.6999 53.7971 87.7215 53.7727C87.7428 53.7484 87.7801 53.7458 87.8045 53.7674L88.1403 54.0623C88.1646 54.0839 88.1672 54.121 88.1456 54.1453ZM87.474 53.5557C87.4527 53.5801 87.4153 53.5826 87.391 53.561L87.0552 53.2661C87.0308 53.2448 87.0283 53.2075 87.0498 53.1831C87.0712 53.1587 87.1085 53.1562 87.1328 53.1778L87.4686 53.4727C87.493 53.4943 87.4953 53.5313 87.474 53.5557Z" fill="#C6AB9D"/>
<path d="M93.3431 58.71C93.3218 58.7344 93.2845 58.7369 93.2601 58.7154L93.0981 58.5732C93.0738 58.5519 93.0712 58.5146 93.0928 58.4902C93.1141 58.4659 93.1514 58.4633 93.1758 58.4849L93.3378 58.627C93.3621 58.6486 93.3644 58.6857 93.3431 58.71Z" fill="#C6AB9D"/>
<path d="M93.1043 52.2904L92.5332 52.0793L92.5215 51.8998C92.5195 51.8694 92.4934 51.8463 92.4629 51.8483L92.3921 51.8529C92.3616 51.8549 92.3385 51.881 92.3405 51.9115L92.3469 52.0102L92.0844 51.9133C92.0811 51.7062 92.0773 51.5429 92.0735 51.4813C92.058 51.2445 91.9167 51.0158 91.806 51.0231C91.6951 51.0302 91.5847 51.2754 91.5999 51.5122C91.604 51.5739 91.6215 51.7361 91.6448 51.942L91.3971 52.0722L91.3908 51.9734C91.3887 51.943 91.3626 51.9199 91.3321 51.9219L91.2613 51.9265C91.2308 51.9285 91.2077 51.9546 91.2098 51.9851L91.2215 52.1646L90.6826 52.4478C90.6526 52.4636 90.6346 52.4955 90.6369 52.5295L90.6453 52.6603C90.6466 52.679 90.6646 52.6917 90.6826 52.6869L91.505 52.461L91.7045 52.4481C91.7466 52.7999 91.7903 53.156 91.8126 53.3375L91.5397 53.4623C91.4628 53.4976 91.4156 53.5766 91.4212 53.6608L91.4222 53.6768C91.4232 53.6928 91.4385 53.704 91.454 53.7004L91.9162 53.5956C91.9316 53.6319 91.9575 53.6844 91.9789 53.6829C92.0002 53.6816 92.0192 53.626 92.0299 53.5882L92.5017 53.6321C92.5177 53.6337 92.5312 53.6205 92.5302 53.6045L92.5291 53.5885C92.5236 53.5042 92.4667 53.4319 92.386 53.407L92.0992 53.3184C92.0979 53.1354 92.0951 52.7768 92.0913 52.4224L92.2908 52.4095L93.1355 52.527C93.154 52.5295 93.1703 52.5146 93.169 52.4958L93.1606 52.3651C93.1581 52.3318 93.136 52.3024 93.1043 52.2904Z" fill="#FFB742"/>
<path d="M92.4405 56.1032L92.375 56.1777L93.6277 57.2773L93.6931 57.2028L92.4405 56.1032Z" fill="#083C4D"/>
<path d="M92.6323 55.8827L92.5039 56.0287L93.7565 57.1285L93.8847 56.9823L93.8969 56.9686L93.9502 56.9077L92.6976 55.8081L92.6443 55.869L92.6323 55.8827Z" fill="#083C4D"/>
<path d="M92.8252 55.6657L92.7598 55.7402L94.0124 56.8398L94.0779 56.7653L92.8252 55.6657Z" fill="#083C4D"/>
<path d="M92.9561 55.5143L92.8906 55.5889L94.1432 56.6886L94.2087 56.614L92.9561 55.5143Z" fill="#083C4D"/>
<path d="M93.2742 55.1515L93.2112 55.2233L93.146 55.2977L93.0176 55.4439L94.2702 56.5435L94.3984 56.3975L94.4638 56.3229L94.5268 56.2513L94.5654 56.2074L94.5923 56.1767L93.3397 55.0771L93.3128 55.1079L93.2742 55.1515Z" fill="#083C4D"/>
<path d="M93.4639 54.9303L93.3984 55.0049L94.6511 56.1045L94.7166 56.0299L93.4639 54.9303Z" fill="#083C4D"/>
<path d="M93.5928 54.7828L93.5273 54.8574L94.78 55.957L94.8455 55.8825L93.5928 54.7828Z" fill="#083C4D"/>
<path d="M93.9148 54.4206L93.8519 54.4924L93.7864 54.5668L93.6582 54.713L94.9106 55.8125L95.039 55.6663L95.1045 55.5919L95.1672 55.5204L95.1821 55.5034L95.2326 55.4457L93.9801 54.3462L93.9295 54.4038L93.9148 54.4206Z" fill="#083C4D"/>
<path d="M94.1065 54.1954L94.041 54.27L95.2936 55.3697L95.3591 55.2952L94.1065 54.1954Z" fill="#083C4D"/>
<path d="M94.2981 53.9823L94.1699 54.1285L95.4225 55.2281L95.5507 55.0819L95.589 55.0385L95.6162 55.0073L94.3636 53.9077L94.3364 53.9387L94.2981 53.9823Z" fill="#083C4D"/>
<path d="M94.554 53.6896L94.4258 53.8358L95.6784 54.9354L95.8066 54.7892L95.8294 54.7633L95.872 54.7148L94.6194 53.6152L94.5768 53.6637L94.554 53.6896Z" fill="#083C4D"/>
<path d="M94.751 53.4655L94.6855 53.54L95.9381 54.6398L96.0036 54.5652L94.751 53.4655Z" fill="#083C4D"/>
<path d="M95.0672 53.1054L95.0042 53.177L94.939 53.2516L94.8105 53.3975L96.0631 54.4973L96.1916 54.3511L96.2568 54.2765L96.3198 54.2049L96.3355 54.1869L96.3852 54.1303L95.1326 53.0308L95.0829 53.0874L95.0672 53.1054Z" fill="#083C4D"/>
<path d="M95.2608 52.8849L95.1953 52.9595L96.448 54.0591L96.5135 53.9845L95.2608 52.8849Z" fill="#083C4D"/>
<path d="M95.3897 52.7404L95.3242 52.8149L96.5769 53.9146L96.6424 53.84L95.3897 52.7404Z" fill="#083C4D"/>
<path d="M95.5147 52.5914L95.4492 52.666L96.7019 53.7656L96.7674 53.691L95.5147 52.5914Z" fill="#083C4D"/>
<path d="M96.8614 53.7707L93.7168 57.353L93.7729 57.4023L96.9175 53.8199L96.8614 53.7707Z" fill="#083C4D"/>
</svg>
